<?xml version="1.0" encoding="UTF-8"?>
<!DOCTYPE svg PUBLIC "-//W3C//DTD SVG 1.1//EN" "http://www.w3.org/Graphics/SVG/1.1/DTD/svg11.dtd">
<!-- Creator: CorelDRAW 2020 (64-Bit) -->
<svg xmlns="http://www.w3.org/2000/svg" xml:space="preserve" width="50mm" height="50mm" version="1.1" style="shape-rendering:geometricPrecision; text-rendering:geometricPrecision; image-rendering:optimizeQuality; fill-rule:evenodd; clip-rule:evenodd"
viewBox="0 0 5000 5000"
 xmlns:xlink="http://www.w3.org/1999/xlink"
 xmlns:xodm="http://www.corel.com/coreldraw/odm/2003">
 <defs>
  <style type="text/css">
   <![CDATA[
    .str0 {stroke:#2B2A29;stroke-width:20;stroke-miterlimit:22.9256}
    .fil0 {fill:url(#id0)}
   ]]>
  </style>
  <linearGradient id="id0" gradientUnits="userSpaceOnUse" x1="-7324.18" y1="19663.43" x2="1448.04" y2="-379.29">
   <stop offset="0" style="stop-opacity:1; stop-color:black"/>
   <stop offset="0.721569" style="stop-opacity:1; stop-color:#7F7F7F"/>
   <stop offset="1" style="stop-opacity:1; stop-color:white"/>
  </linearGradient>
 </defs>
 <g id="Слой_x0020_1">
  <metadata id="CorelCorpID_0Corel-Layer"/>
  <g id="_2457157667856">
   <path class="fil0 str0" d="M3618.83 4912.13l-2211.52 0c-720.6,0 -1306.88,-586.21 -1306.88,-1306.88l0 -2211.52c0,-720.67 586.28,-1306.88 1306.88,-1306.88l2211.52 0c720.67,0 1306.88,586.21 1306.88,1306.88l0 2211.58c0,720.61 -586.21,1306.82 -1306.88,1306.82zm-2174.72 -4356.23c-482.27,0 -874.63,392.36 -874.63,874.63l0 2137.99c0,482.26 392.36,874.63 874.63,874.63l2137.92 0c482.27,0 874.63,-392.37 874.63,-874.63l0 -2137.99c0,-482.27 -392.36,-874.63 -874.63,-874.63l-2137.92 0zm1068.96 3149.9c-665.16,0 -1206.31,-541.2 -1206.31,-1206.31 0,-665.23 541.15,-1206.31 1206.31,-1206.31 665.16,0 1206.31,541.09 1206.31,1206.31 0,665.11 -541.16,1206.31 -1206.31,1206.31zm0 -1946.88c-408.36,0 -740.57,332.21 -740.57,740.57 0,408.41 332.21,740.57 740.57,740.57 408.36,0 740.56,-332.16 740.56,-740.57 0,-408.36 -332.15,-740.57 -740.56,-740.57zm1558.15 -504.28c0,-173.02 -140.27,-313.28 -313.28,-313.28 -173.03,0 -313.28,140.26 -313.28,313.28 0,173.03 140.25,313.28 313.28,313.28 173.01,0 313.28,-140.25 313.28,-313.28z"/>
  </g>
 </g>
</svg>
