<?xml version="1.0" encoding="UTF-8"?>
<!DOCTYPE svg PUBLIC "-//W3C//DTD SVG 1.1//EN" "http://www.w3.org/Graphics/SVG/1.1/DTD/svg11.dtd">
<!-- Creator: CorelDRAW 2020 (64-Bit) -->
<svg xmlns="http://www.w3.org/2000/svg" xml:space="preserve" width="200mm" height="260mm" version="1.1" style="shape-rendering:geometricPrecision; text-rendering:geometricPrecision; image-rendering:optimizeQuality; fill-rule:evenodd; clip-rule:evenodd"
viewBox="0 0 20000 26000"
 xmlns:xlink="http://www.w3.org/1999/xlink"
 xmlns:xodm="http://www.corel.com/coreldraw/odm/2003">
 <defs>
  <style type="text/css">
   <![CDATA[
    .str0 {stroke:#2B2A29;stroke-width:20;stroke-miterlimit:22.9256}
    .str1 {stroke:#2B2A29;stroke-width:20;stroke-miterlimit:22.9256}
    .fil0 {fill:none}
    .fil5 {fill:#2B2A29}
    .fil2 {fill:#E31E24}
    .fil3 {fill:black}
    .fil1 {fill:black;fill-rule:nonzero}
    .fil4 {fill:url(#id0)}
   ]]>
  </style>
  <linearGradient id="id0" gradientUnits="userSpaceOnUse" x1="2480.3" y1="28247.8" x2="2746.78" y2="23817.74">
   <stop offset="0" style="stop-opacity:1; stop-color:black"/>
   <stop offset="0.721569" style="stop-opacity:1; stop-color:#7F7F7F"/>
   <stop offset="1" style="stop-opacity:1; stop-color:white"/>
  </linearGradient>
 </defs>
 <g id="Слой_x0020_1">
  <metadata id="CorelCorpID_0Corel-Layer"/>
  <path class="fil0 str0" d="M3296.54 20266.56l0 997.82 13401.52 0 0 -997.81m-13401.52 0l-782.93 0c-1372,0 -2494.56,-1122.56 -2494.56,-2494.57l0 -14967.39c0,-1372.01 1122.56,-2494.56 2494.56,-2494.56l14967.38 0c1372,0 2494.56,1122.55 2494.56,2494.56l0 14967.39c0,1372.01 -1122.56,2494.57 -2494.56,2494.57l-782.93 0"/>
  <path class="fil1" d="M13212.59 3415.45l428.71 0 0 -428.7 0 -428.71 0 -137.32 -0.83 0c0.56,-4.47 0.83,-7.81 0.83,-10.05l0 -133.97c0,-40.74 -14.38,-75.5 -43.12,-104.25 -28.75,-28.74 -63.5,-43.12 -104.24,-43.12l-133.97 0c-40.75,0 -75.51,14.37 -104.24,43.12 -28.75,28.76 -43.14,63.51 -43.14,104.25l0 133.97c0,2.24 0.28,5.59 0.84,10.06l-0.84 -0.01 0 137.32 0 428.71 -428.7 0 0 428.7 428.7 0zm-6431.42 137.32l0.84 0 0 -137.31 0 -137.32 -0.84 0c0.56,-4.47 0.84,-7.81 0.84,-10.06l0 -133.96c0,-40.75 -14.38,-75.5 -43.13,-104.25 -28.74,-28.74 -63.5,-43.12 -104.25,-43.12l-133.97 0c-40.74,0 -75.5,14.37 -104.24,43.11 -28.75,28.76 -43.12,63.51 -43.12,104.26l0 133.97c0,2.23 0.27,5.58 0.83,10.05l-0.83 0 0 137.32 0 137.31 0.83 0c-0.56,4.47 -0.83,7.82 -0.83,10.05l0 133.97c0,40.75 14.37,75.5 43.12,104.24 28.75,28.76 63.5,43.13 104.24,43.13l133.97 0c40.75,0 75.51,-14.37 104.24,-43.12 28.76,-28.75 43.14,-63.5 43.14,-104.25l0 -133.97c0,-2.23 -0.28,-5.58 -0.84,-10.05zm429.55 720.1l428.7 0 0 -428.71 0 0 0 -137.32 -0.84 0c0.56,-4.47 0.84,-7.81 0.84,-10.06l0 -133.96c0,-40.75 -14.38,-75.5 -43.13,-104.25 -28.74,-28.74 -63.49,-43.11 -104.24,-43.11l-133.98 0c-40.75,0 -75.49,14.37 -104.24,43.11 -28.74,28.76 -43.11,63.5 -43.11,104.25l0 133.97c0,2.24 0.26,5.59 0.83,10.06l-0.83 -0.01 0 137.32 0 0 -281.36 0c-40.74,0 -75.49,14.38 -104.24,43.12 -28.74,28.75 -43.11,63.5 -43.11,104.25l0 133.97c0,40.75 14.37,75.5 43.11,104.24 28.75,28.75 63.5,43.13 104.24,43.13l281.36 0zm6001.04 -291.39l0.83 0 0 -137.32 281.35 0c40.74,0 75.49,-14.37 104.24,-43.12 28.74,-28.75 43.12,-63.5 43.12,-104.25l0 -281.33 -428.71 0 -428.7 0 0 428.7 428.7 0 0 0 -428.7 0 0 137.32 0.83 0c-0.55,4.46 -0.83,7.82 -0.83,10.05l0 133.97c0,40.75 14.37,75.5 43.12,104.24 28.75,28.75 63.5,43.13 104.25,43.13l133.97 0c40.75,0 75.5,-14.38 104.25,-43.13 28.74,-28.75 43.11,-63.49 43.11,-104.24l0 -133.97c0,-2.23 -0.26,-5.59 -0.83,-10.05zm-856.58 572.73c0,40.76 -14.38,75.5 -43.11,104.24 -28.75,28.74 -63.5,43.12 -104.25,43.12l-133.98 0c-40.74,0 -75.49,-14.38 -104.23,-43.12 -28.76,-28.75 -43.13,-63.49 -43.13,-104.24l0 -133.98c0,-40.74 14.37,-75.49 43.12,-104.24 28.75,-28.75 63.5,-43.12 104.24,-43.12l133.98 0c40.76,0 75.5,14.37 104.24,43.11 28.75,28.76 43.12,63.51 43.12,104.25l0 133.98zm-5573.17 428.7c0,40.76 -14.39,75.5 -43.13,104.24 -28.74,28.75 -63.48,43.13 -104.25,43.13l-133.97 0c-40.74,0 -75.49,-14.38 -104.23,-43.13 -28.75,-28.74 -43.13,-63.48 -43.13,-104.24l0 -133.97c0,-40.74 14.37,-75.5 43.12,-104.24 28.75,-28.75 63.5,-43.13 104.24,-43.13l133.97 0c40.77,0 75.51,14.38 104.24,43.12 28.76,28.76 43.14,63.51 43.14,104.25l0 133.97zm3429.64 0c0,40.76 -14.38,75.5 -43.12,104.24 -28.75,28.75 -63.49,43.13 -104.24,43.13l-133.98 0c-40.74,0 -75.5,-14.38 -104.24,-43.13 -28.74,-28.74 -43.13,-63.48 -43.13,-104.24l0 -133.97c0,-40.74 14.38,-75.5 43.13,-104.24 28.75,-28.75 63.5,-43.13 104.24,-43.13l133.98 0c40.75,0 75.5,14.38 104.24,43.12 28.74,28.76 43.12,63.51 43.12,104.25l0 133.97zm856.57 -144.02l0.84 0 0 -137.32 281.34 0c40.75,0 75.51,-14.37 104.24,-43.12 28.75,-28.75 43.13,-63.49 43.13,-104.24l0 -281.34 281.34 0c40.75,0 75.5,-14.38 104.24,-43.13 28.75,-28.75 43.13,-63.49 43.13,-104.24l0 -281.34 281.34 0c40.75,0 75.5,-14.37 104.24,-43.12 28.75,-28.75 43.12,-63.5 43.12,-104.25l0 -281.33 -428.7 0 -281.34 0c-40.75,0 -75.5,14.37 -104.25,43.11 -28.74,28.76 -43.12,63.5 -43.12,104.25l0 281.34 -428.71 0 -428.71 0 -428.7 0 0 428.71 0 0 0 -428.71 0 0 0 -281.34c0,-40.75 -14.38,-75.5 -43.12,-104.25 -28.75,-28.74 -63.49,-43.11 -104.24,-43.11l-281.35 0 -428.7 0 -428.7 0 -281.34 0c-40.75,0 -75.51,14.37 -104.24,43.11 -28.75,28.76 -43.13,63.5 -43.13,104.25l0 281.34 -428.7 0 -428.71 0 0 428.71 428.71 0 0 428.7 0 137.32 0.83 0c-0.56,4.47 -0.83,7.82 -0.83,10.05l0 133.97c0,40.75 14.37,75.51 43.11,104.24 28.75,28.75 63.5,43.13 104.25,43.13l133.97 0c40.75,0 75.5,-14.38 104.24,-43.13 28.75,-28.74 43.13,-63.49 43.13,-104.24l0 -133.97c0,-2.23 -0.27,-5.58 -0.84,-10.05l0.84 0 0 -137.32 281.34 0c40.75,0 75.5,-14.37 104.24,-43.12 28.74,-28.75 43.13,-63.49 43.13,-104.24l0 -281.34 0 -428.71 0 0 428.7 0 428.7 0 0 0 -428.7 0 0 281.34c0,40.75 14.38,75.5 43.12,104.24 28.75,28.75 63.49,43.13 104.24,43.13l281.34 0 428.71 0 0 281.33c0,40.75 14.38,75.5 43.12,104.24 28.75,28.76 63.5,43.13 104.25,43.13l281.33 0 0 137.32 0.85 0c-0.56,4.47 -0.85,7.82 -0.85,10.05l0 133.97c0,40.75 14.38,75.51 43.13,104.24 28.75,28.75 63.5,43.13 104.24,43.13l133.98 0c40.75,0 75.5,-14.38 104.24,-43.13 28.74,-28.74 43.12,-63.49 43.12,-104.24l0 -133.97c0,-2.23 -0.26,-5.58 -0.84,-10.05zm858.26 144.02c0,40.76 -14.39,75.5 -43.12,104.24 -28.75,28.75 -63.5,43.13 -104.25,43.13l-133.97 0c-40.74,0 -75.5,-14.38 -104.23,-43.13 -28.76,-28.74 -43.14,-63.48 -43.14,-104.24l0 -133.97c0,-40.74 14.38,-75.5 43.12,-104.24 28.76,-28.75 63.5,-43.13 104.25,-43.13l133.97 0c40.76,0 75.51,14.38 104.24,43.12 28.75,28.76 43.13,63.51 43.13,104.25l0 133.97zm857.41 0c0,40.76 -14.39,75.5 -43.12,104.24 -28.75,28.75 -63.5,43.13 -104.24,43.13l-133.98 0c-40.74,0 -75.5,-14.38 -104.23,-43.13 -28.76,-28.74 -43.14,-63.48 -43.14,-104.24l0 -133.97c0,-40.74 14.38,-75.5 43.13,-104.24 28.75,-28.75 63.5,-43.13 104.24,-43.13l133.98 0c40.76,0 75.5,14.38 104.24,43.12 28.74,28.76 43.12,63.51 43.12,104.25l0 133.97zm856.58 -144.02l0.83 0 0 -137.32 0 -137.31 -0.83 0c0.56,-4.47 0.83,-7.81 0.83,-10.06l0 -133.97c0,-40.74 -14.38,-75.49 -43.12,-104.24 -28.75,-28.75 -63.5,-43.12 -104.24,-43.12l-133.97 0c-40.75,0 -75.51,14.37 -104.24,43.12 -28.75,28.75 -43.14,63.5 -43.14,104.24l0 133.98c0,2.23 0.28,5.58 0.84,10.05l-0.84 0 0 137.31 0 137.32 0.84 0c-0.55,4.47 -0.84,7.82 -0.84,10.05l0 133.97c0,40.75 14.38,75.51 43.13,104.24 28.75,28.75 63.5,43.13 104.25,43.13l133.97 0c40.74,0 75.49,-14.38 104.24,-43.13 28.74,-28.74 43.12,-63.49 43.12,-104.24l0 -133.97c0,-2.23 -0.27,-5.58 -0.83,-10.05zm-7434.54 720.1l-281.34 0 -281.34 0c-40.74,0 -75.5,14.37 -104.24,43.12 -28.74,28.74 -43.13,63.5 -43.13,104.24l0 133.98c0,40.75 14.38,75.5 43.12,104.24 28.75,28.75 63.51,43.13 104.25,43.13l281.34 0 281.34 0c40.75,0 75.5,-14.38 104.24,-43.13 28.75,-28.74 43.13,-63.5 43.13,-104.25l0 -133.97c0,-40.74 -14.38,-75.5 -43.13,-104.24 -28.74,-28.74 -63.49,-43.12 -104.24,-43.12zm-2853.58 710.04c0,40.76 -14.39,75.5 -43.12,104.24 -28.75,28.75 -63.49,43.14 -104.25,43.14l-133.97 0c-40.74,0 -75.49,-14.39 -104.24,-43.13 -28.75,-28.75 -43.13,-63.49 -43.13,-104.25l0 -133.98c0,-40.74 14.37,-75.49 43.12,-104.23 28.76,-28.74 63.51,-43.12 104.25,-43.12l133.97 0c40.76,0 75.5,14.37 104.25,43.11 28.74,28.75 43.12,63.5 43.12,104.24l0 133.98zm6430.59 147.37l428.71 0 0 -428.7 -428.71 0 0 -281.35c0,-40.74 -14.38,-75.5 -43.12,-104.24 -28.74,-28.74 -63.49,-43.12 -104.24,-43.12l-281.34 0 0 -428.71 0 -137.32 -0.84 0c0.58,-4.47 0.84,-7.8 0.84,-10.05l0 -133.97c0,-40.74 -14.38,-75.5 -43.12,-104.24 -28.74,-28.75 -63.49,-43.13 -104.24,-43.13l-133.98 0c-40.75,0 -75.5,14.38 -104.24,43.13 -28.75,28.75 -43.12,63.5 -43.12,104.24l0 133.97c0,2.24 0.27,5.59 0.84,10.06l-0.84 -0.01 0 137.32 0 428.71 0 428.7 428.7 0 0 0.01 -428.7 0 -281.34 0c-40.75,0 -75.51,14.37 -104.24,43.11 -28.75,28.75 -43.13,63.5 -43.13,104.24l0 133.98c0,40.75 14.38,75.5 43.12,104.24 28.75,28.75 63.5,43.14 104.25,43.14l281.34 0 0 -0.01 428.7 0 428.7 0zm1713.99 137.32l0.84 0 0 -137.31 281.34 0c40.75,0 75.5,-14.39 104.24,-43.13 28.75,-28.75 43.13,-63.5 43.13,-104.25l0 -281.33 0 -281.35c0,-40.74 -14.38,-75.5 -43.12,-104.24 -28.75,-28.74 -63.5,-43.12 -104.25,-43.12l-281.34 0 -281.34 0c-40.75,0 -75.5,14.37 -104.24,43.12 -28.75,28.74 -43.13,63.5 -43.13,104.24l0 281.35 -428.71 0 -428.7 0 0 428.7 428.7 0 428.71 0 428.71 0 0 0.01 -428.71 0 0 137.31 0.84 0c-0.56,4.46 -0.84,7.82 -0.84,10.04l0 133.98c0,40.75 14.38,75.5 43.13,104.24 28.75,28.75 63.49,43.13 104.24,43.13l133.97 0c40.75,0 75.51,-14.38 104.24,-43.13 28.75,-28.74 43.13,-63.49 43.13,-104.24l0 -133.98c0,-2.22 -0.27,-5.58 -0.84,-10.04zm858.25 144.02c0,40.76 -14.38,75.5 -43.11,104.24 -28.75,28.75 -63.5,43.13 -104.25,43.13l-133.98 0c-40.74,0 -75.49,-14.39 -104.23,-43.13 -28.76,-28.74 -43.13,-63.48 -43.13,-104.24l0 -133.98c0,-40.74 14.37,-75.49 43.12,-104.23 28.75,-28.75 63.5,-43.12 104.24,-43.12l133.98 0c40.76,0 75.5,14.37 104.24,43.11 28.75,28.75 43.12,63.5 43.12,104.24l0 133.98zm3428.82 -144.02l0.84 0 0 -137.31 -428.71 0 0 137.31 0.83 0c-0.55,4.46 -0.83,7.82 -0.83,10.04l0 133.98c0,40.75 14.37,75.5 43.12,104.24 28.75,28.75 63.5,43.13 104.25,43.13l133.97 0c40.75,0 75.5,-14.38 104.25,-43.13 28.74,-28.74 43.12,-63.49 43.12,-104.24l0 -133.98c0,-2.22 -0.27,-5.58 -0.84,-10.04zm-2290.06 291.39l-281.35 0 0 -428.71 0 -428.7 281.35 0c40.74,0 75.49,-14.38 104.24,-43.13 28.74,-28.74 43.12,-63.5 43.12,-104.25l0 -133.97c0,-40.74 -14.38,-75.5 -43.12,-104.24 -28.75,-28.74 -63.5,-43.12 -104.24,-43.12l-281.35 0 0 -137.32 -0.83 0c0.56,-4.47 0.83,-7.81 0.83,-10.05l0 -133.98c0,-40.74 -14.37,-75.49 -43.11,-104.24 -28.75,-28.74 -63.5,-43.12 -104.25,-43.12l-133.97 0c-40.75,0 -75.5,14.37 -104.24,43.12 -28.75,28.75 -43.13,63.5 -43.13,104.24l0 133.98c0,2.24 0.28,5.59 0.83,10.05l-0.83 0 0 137.32 0 0 0 428.7 428.7 0 0 0.01 -428.7 0 0 428.7 0 428.71 0 0 0 281.33c0,40.75 14.37,75.5 43.12,104.24 28.75,28.75 63.5,43.14 104.25,43.14l281.33 0 281.35 0c40.74,0 75.49,-14.39 104.24,-43.13 28.74,-28.75 43.12,-63.49 43.12,-104.24l0 -133.98c0,-40.75 -14.38,-75.5 -43.12,-104.24 -28.75,-28.74 -63.5,-43.12 -104.24,-43.12zm-6283.22 710.04c0,40.76 -14.39,75.5 -43.13,104.24 -28.75,28.75 -63.49,43.13 -104.25,43.13l-133.98 0c-40.74,0 -75.49,-14.38 -104.23,-43.12 -28.74,-28.75 -43.12,-63.49 -43.12,-104.25l0 -133.98c0,-40.74 14.37,-75.49 43.11,-104.23 28.75,-28.75 63.5,-43.12 104.24,-43.12l133.98 0c40.77,0 75.51,14.37 104.24,43.11 28.75,28.76 43.14,63.51 43.14,104.25l0 133.97zm8574.12 0c0,40.76 -14.39,75.5 -43.12,104.24 -28.76,28.75 -63.5,43.13 -104.25,43.13l-133.97 0c-40.74,0 -75.5,-14.38 -104.24,-43.12 -28.75,-28.75 -43.13,-63.49 -43.13,-104.25l0 -133.98c0,-40.74 14.37,-75.49 43.12,-104.23 28.76,-28.75 63.51,-43.12 104.25,-43.12l133.97 0c40.77,0 75.51,14.37 104.25,43.11 28.74,28.76 43.12,63.51 43.12,104.25l0 133.97zm-10717.66 428.71c0,40.76 -14.39,75.5 -43.13,104.24 -28.75,28.74 -63.49,43.13 -104.24,43.13l-133.97 0c-40.74,0 -75.5,-14.39 -104.24,-43.13 -28.75,-28.74 -43.13,-63.48 -43.13,-104.24l0 -133.98c0,-40.74 14.38,-75.5 43.12,-104.23 28.75,-28.75 63.51,-43.13 104.25,-43.13l133.97 0c40.77,0 75.51,14.38 104.24,43.12 28.75,28.76 43.13,63.5 43.13,104.25l0 133.97zm1285.28 -144.02l0.84 0 0 -137.32 0 -428.7 281.33 0c40.75,0 75.51,-14.39 104.24,-43.13 28.76,-28.75 43.14,-63.49 43.14,-104.24l0 -281.34 428.71 0 0 137.31 0.83 0.01c-0.57,4.46 -0.83,7.82 -0.83,10.04l0 133.98c0,40.75 14.37,75.5 43.11,104.24 28.75,28.74 63.49,43.13 104.24,43.13l133.98 0c40.75,0 75.5,-14.39 104.24,-43.13 28.75,-28.75 43.13,-63.49 43.13,-104.24l0 -133.98c0,-2.22 -0.27,-5.58 -0.84,-10.04l0.84 0 0 -137.32 281.34 0c40.75,0 75.5,-14.38 104.24,-43.13 28.74,-28.74 43.13,-63.49 43.13,-104.24l0 -133.98c0,-40.75 -14.39,-75.5 -43.13,-104.24 -28.75,-28.74 -63.49,-43.11 -104.24,-43.11l-281.34 0 0 -0.01 -428.7 0 0 -428.7 281.33 0c40.75,0 75.5,-14.38 104.24,-43.13 28.75,-28.74 43.13,-63.5 43.13,-104.25l0 -281.33 281.34 0c40.75,0 75.5,-14.38 104.24,-43.13 28.74,-28.74 43.13,-63.49 43.13,-104.24l0 -133.98c0,-40.74 -14.39,-75.49 -43.13,-104.24 -28.75,-28.74 -63.49,-43.12 -104.24,-43.12l-281.34 0 0 -137.32 -0.84 0c0.56,-4.47 0.84,-7.8 0.84,-10.05l0 -133.97c0,-40.74 -14.38,-75.5 -43.13,-104.24 -28.74,-28.75 -63.49,-43.13 -104.24,-43.13l-133.98 0c-40.75,0 -75.49,14.38 -104.24,43.13 -28.74,28.75 -43.11,63.5 -43.11,104.24l0 133.97c0,2.24 0.26,5.59 0.83,10.06l-0.83 -0.01 0 137.32 0 428.71 -281.36 0c-40.74,0 -75.49,14.37 -104.24,43.12 -28.74,28.74 -43.11,63.5 -43.11,104.24l0 281.35 -281.35 0c-40.74,0 -75.5,14.37 -104.24,43.11 -28.75,28.75 -43.12,63.5 -43.12,104.24l0 281.35 0 0.01 0 428.7 -281.35 0c-40.74,0 -75.49,14.38 -104.24,43.12 -28.73,28.74 -43.12,63.49 -43.12,104.24l0 281.35 -428.71 0 0 -428.71 281.34 0c40.75,0 75.5,-14.38 104.24,-43.13 28.75,-28.74 43.13,-63.49 43.13,-104.24l0 -133.98c0,-40.75 -14.38,-75.5 -43.13,-104.24 -28.74,-28.74 -63.49,-43.11 -104.24,-43.11l-281.34 0 0 -0.01 0 -281.35c0,-40.74 -14.37,-75.49 -43.12,-104.24 -28.75,-28.73 -63.49,-43.11 -104.24,-43.11l-281.34 0 0 -281.35c0,-40.74 -14.38,-75.5 -43.13,-104.24 -28.75,-28.74 -63.49,-43.12 -104.24,-43.12l-281.34 0 -281.34 0c-40.75,0 -75.49,14.37 -104.25,43.12 -28.74,28.74 -43.11,63.5 -43.11,104.24l0 281.35 -281.34 0c-40.75,0 -75.5,14.37 -104.26,43.11 -28.74,28.75 -43.11,63.5 -43.11,104.24l0 133.98c0,40.75 14.37,75.5 43.11,104.24 28.76,28.75 63.51,43.14 104.26,43.14l281.34 0 0 -0.01 428.7 0 428.71 0 0 0.01 0 0 0 428.7 0 428.71 0 0 0 281.33c0,40.75 14.37,75.5 43.11,104.24 28.76,28.75 63.51,43.13 104.25,43.13l281.34 0 428.71 0 0 137.32 0.84 0c-0.57,4.47 -0.84,7.82 -0.84,10.05l0 133.97c0,40.75 14.37,75.51 43.12,104.24 28.75,28.74 63.5,43.13 104.24,43.13l133.98 0c40.75,0 75.5,-14.39 104.24,-43.13 28.75,-28.74 43.13,-63.49 43.13,-104.24l0 -133.98c0,-2.22 -0.27,-5.57 -0.84,-10.04zm6712.77 -137.32l-281.34 0 0 -137.32 -0.84 0c0.57,-4.46 0.84,-7.81 0.84,-10.05l0 -133.97c0,-40.75 -14.38,-75.5 -43.12,-104.24 -28.75,-28.75 -63.5,-43.12 -104.24,-43.12l-133.98 0c-40.75,0 -75.5,14.37 -104.24,43.12 -28.75,28.75 -43.13,63.49 -43.13,104.24l0 133.98c0,2.23 0.28,5.58 0.84,10.04l-0.84 0 0 137.32 0 281.34c0,40.75 14.38,75.5 43.13,104.24 28.74,28.74 63.49,43.13 104.24,43.13l281.34 0 281.34 0c40.75,0 75.5,-14.39 104.25,-43.13 28.74,-28.74 43.11,-63.49 43.11,-104.24l0 -133.98c0,-40.75 -14.37,-75.5 -43.11,-104.24 -28.75,-28.74 -63.5,-43.12 -104.25,-43.12zm1004.78 281.34c0,40.76 -14.38,75.5 -43.12,104.24 -28.75,28.74 -63.49,43.13 -104.25,43.13l-133.97 0c-40.74,0 -75.49,-14.39 -104.23,-43.13 -28.76,-28.74 -43.14,-63.48 -43.14,-104.24l0 -133.98c0,-40.74 14.37,-75.5 43.13,-104.23 28.75,-28.75 63.5,-43.13 104.24,-43.13l133.97 0c40.76,0 75.5,14.38 104.25,43.12 28.74,28.76 43.12,63.5 43.12,104.25l0 133.97zm-10289.79 284.69l0.84 0 0 -137.32 281.33 0c40.75,0 75.5,-14.39 104.25,-43.13 28.75,-28.74 43.13,-63.49 43.13,-104.24l0 -281.34 281.33 0c40.75,0 75.5,-14.38 104.24,-43.12 28.76,-28.75 43.13,-63.49 43.13,-104.25l0 -281.33 0 -281.35c0,-40.75 -14.37,-75.5 -43.12,-104.24 -28.75,-28.74 -63.5,-43.12 -104.25,-43.12l-281.33 0 -428.71 0 -281.34 0c-40.75,0 -75.5,14.38 -104.25,43.12 -28.74,28.74 -43.12,63.49 -43.12,104.24l0 133.98c0,40.75 14.37,75.5 43.12,104.24 28.76,28.74 63.5,43.13 104.25,43.13l281.34 0 0 428.7 -428.71 0 0 -137.32 -0.84 0c0.57,-4.46 0.84,-7.81 0.84,-10.05l0 -133.97c0,-40.75 -14.38,-75.5 -43.12,-104.24 -28.75,-28.75 -63.5,-43.12 -104.25,-43.12l-133.97 0c-40.74,0 -75.5,14.37 -104.25,43.12 -28.73,28.75 -43.12,63.49 -43.12,104.24l0 133.98c0,2.23 0.28,5.58 0.84,10.04l-0.84 0 0 137.32 0 281.34c0,40.75 14.37,75.5 43.12,104.24 28.76,28.74 63.51,43.13 104.25,43.13l281.34 0 0 137.32 0.83 0c-0.55,4.46 -0.83,7.81 -0.83,10.04l0 133.98c0,40.75 14.37,75.5 43.12,104.24 28.76,28.74 63.5,43.12 104.25,43.12l133.96 0c40.75,0 75.51,-14.38 104.25,-43.12 28.75,-28.74 43.13,-63.49 43.13,-104.24l0 -133.98c0,-2.23 -0.28,-5.58 -0.84,-10.04zm3859.2 144.02c0,40.75 -14.39,75.5 -43.13,104.24 -28.74,28.74 -63.48,43.12 -104.24,43.12l-133.98 0c-40.74,0 -75.49,-14.38 -104.23,-43.12 -28.75,-28.74 -43.12,-63.49 -43.12,-104.24l0 -133.98c0,-40.74 14.37,-75.5 43.11,-104.24 28.75,-28.74 63.5,-43.12 104.24,-43.12l133.98 0c40.77,0 75.51,14.37 104.24,43.12 28.75,28.75 43.13,63.5 43.13,104.24l0 133.98zm-4287.07 428.7c0,40.76 -14.39,75.5 -43.12,104.24 -28.75,28.74 -63.49,43.12 -104.25,43.12l-133.97 0c-40.74,0 -75.49,-14.38 -104.24,-43.12 -28.75,-28.74 -43.13,-63.48 -43.13,-104.24l0 -133.98c0,-40.74 14.37,-75.5 43.12,-104.23 28.76,-28.75 63.51,-43.13 104.25,-43.13l133.97 0c40.76,0 75.5,14.38 104.25,43.12 28.74,28.75 43.12,63.5 43.12,104.24l0 133.98zm1285.29 -144.02l0.83 0 0 -137.32 0 -137.32 -0.83 0c0.56,-4.46 0.83,-7.81 0.83,-10.04l0 -133.98c0,-40.74 -14.37,-75.5 -43.12,-104.24 -28.75,-28.74 -63.5,-43.12 -104.25,-43.12l-133.97 0c-40.75,0 -75.49,14.37 -104.25,43.12 -28.74,28.74 -43.11,63.49 -43.11,104.24l0 133.98c0,2.23 0.27,5.59 0.83,10.05l-0.83 -0.01 0 137.32 0 137.32 0.83 0c-0.56,4.47 -0.83,7.82 -0.83,10.04l0 133.98c0,40.75 14.37,75.5 43.11,104.24 28.76,28.74 63.5,43.12 104.25,43.12l133.97 0c40.75,0 75.5,-14.38 104.24,-43.12 28.76,-28.74 43.13,-63.49 43.13,-104.24l0 -133.98c0,-2.22 -0.27,-5.57 -0.83,-10.04zm429.54 438.75l0 -147.37 -281.34 0c-40.75,0 -75.5,14.38 -104.25,43.13 -28.74,28.74 -43.12,63.49 -43.12,104.24l0 133.98c0,40.75 14.38,75.5 43.12,104.24 28.75,28.74 63.5,43.12 104.25,43.12l281.34 0 0 -281.34zm1714.83 -147.37l-428.71 0 0 0 428.71 0 0 -428.7 0 -137.32 -0.84 0c0.56,-4.46 0.84,-7.81 0.84,-10.04l0 -133.98c0,-40.74 -14.38,-75.5 -43.13,-104.24 -28.74,-28.74 -63.5,-43.12 -104.25,-43.12l-133.97 0c-40.74,0 -75.5,14.37 -104.24,43.12 -28.75,28.74 -43.12,63.49 -43.12,104.24l0 133.98c0,2.23 0.27,5.59 0.83,10.05l-0.83 -0.01 0 137.32 -281.35 0c-40.74,0 -75.49,14.38 -104.24,43.12 -28.73,28.74 -43.12,63.49 -43.12,104.24l0 281.34 -428.71 0 0 -428.7 281.34 0c40.75,0 75.5,-14.38 104.24,-43.12 28.75,-28.74 43.13,-63.49 43.13,-104.24l0 -133.98c0,-40.75 -14.38,-75.5 -43.13,-104.24 -28.74,-28.74 -63.49,-43.12 -104.24,-43.12l-281.34 0 -281.34 0c-40.74,0 -75.49,14.37 -104.24,43.12 -28.74,28.74 -43.12,63.49 -43.12,104.24l0 281.34 0 0 0 428.7 0 428.71 428.7 0 428.71 0 428.71 0 0 0 281.33 0c40.75,0 75.51,-14.38 104.24,-43.12 28.76,-28.75 43.14,-63.49 43.14,-104.24l0 -281.35zm6429.75 137.33l0.83 0 0 -137.33 0 -137.32 -0.83 0c0.56,-4.46 0.83,-7.81 0.83,-10.05l0 -133.97c0,-40.75 -14.37,-75.5 -43.11,-104.24 -28.75,-28.74 -63.5,-43.12 -104.25,-43.12l-133.97 0c-40.75,0 -75.5,14.38 -104.24,43.12 -28.75,28.74 -43.13,63.49 -43.13,104.24l0 133.98c0,2.23 0.28,5.58 0.83,10.04l-0.83 0 0 137.32 0 137.33 0.83 0c-0.55,4.46 -0.83,7.81 -0.83,10.04l0 133.98c0,40.75 14.37,75.5 43.12,104.24 28.75,28.74 63.5,43.12 104.25,43.12l133.97 0c40.75,0 75.5,-14.38 104.25,-43.12 28.74,-28.75 43.11,-63.49 43.11,-104.24l0 -133.98c0,-2.23 -0.26,-5.58 -0.83,-10.04zm429.54 572.72c0,40.76 -14.38,75.51 -43.12,104.24 -28.75,28.74 -63.49,43.12 -104.24,43.12l-133.97 0c-40.75,0 -75.5,-14.38 -104.24,-43.12 -28.76,-28.74 -43.14,-63.48 -43.14,-104.24l0 -133.97c0,-40.75 14.38,-75.5 43.13,-104.24 28.76,-28.75 63.5,-43.13 104.25,-43.13l133.97 0c40.76,0 75.5,14.38 104.24,43.12 28.74,28.76 43.12,63.5 43.12,104.25l0 133.97zm-428.71 1433.48l428.71 0 0 -428.7 0 -281.34c0,-40.75 -14.38,-75.5 -43.12,-104.24 -28.75,-28.75 -63.5,-43.13 -104.24,-43.13l-281.35 0 0 -281.34c0,-40.75 -14.37,-75.5 -43.11,-104.24 -28.75,-28.74 -63.5,-43.13 -104.25,-43.13l-281.34 0 0 -137.32 -0.84 0c0.57,-4.46 0.84,-7.8 0.84,-10.04l0 -133.97c0,-40.75 -14.38,-75.51 -43.12,-104.24 -28.75,-28.75 -63.5,-43.13 -104.24,-43.13l-133.98 0c-40.75,0 -75.5,14.38 -104.24,43.13 -28.75,28.74 -43.13,63.49 -43.13,104.24l0 133.97c0,2.23 0.28,5.59 0.84,10.05l-0.84 -0.01 0 137.32 0 428.71 0 281.34c0,40.75 14.38,75.51 43.13,104.24 28.74,28.75 63.49,43.13 104.24,43.13l281.34 0 0 -428.71 0 0 0 428.71 428.7 0 0 428.7zm-428.7 281.35c0,40.75 -14.39,75.5 -43.12,104.24 -28.75,28.74 -63.5,43.12 -104.24,43.12l-133.98 0c-40.74,0 -75.5,-14.38 -104.23,-43.11 -28.76,-28.75 -43.14,-63.5 -43.14,-104.25l0 -133.98c0,-40.74 14.38,-75.49 43.13,-104.23 28.75,-28.76 63.5,-43.13 104.24,-43.13l133.98 0c40.76,0 75.5,14.37 104.24,43.12 28.74,28.75 43.12,63.5 43.12,104.24l0 133.98zm856.58 -144.03l0.83 0 0 -137.31 -428.71 0 0 137.31 0.84 0c-0.55,4.48 -0.84,7.82 -0.84,10.05l0 133.98c0,40.75 14.38,75.5 43.13,104.24 28.75,28.74 63.5,43.12 104.25,43.12l133.97 0c40.74,0 75.49,-14.38 104.24,-43.11 28.74,-28.75 43.12,-63.5 43.12,-104.25l0 -133.98c0,-2.23 -0.27,-5.57 -0.83,-10.05zm1715.66 291.39l428.71 0 0 -428.7 -428.71 0 0 428.7zm-4287.07 281.35c0,40.75 -14.38,75.49 -43.12,104.24 -28.74,28.74 -63.49,43.12 -104.24,43.12l-133.98 0c-40.74,0 -75.49,-14.39 -104.23,-43.12 -28.75,-28.75 -43.14,-63.5 -43.14,-104.24l0 -133.98c0,-40.74 14.38,-75.5 43.13,-104.23 28.75,-28.76 63.5,-43.14 104.24,-43.14l133.98 0c40.75,0 75.5,14.38 104.24,43.13 28.74,28.75 43.12,63.5 43.12,104.24l0 133.98zm3429.66 0c0,40.75 -14.39,75.49 -43.12,104.24 -28.75,28.74 -63.49,43.12 -104.25,43.12l-133.97 0c-40.74,0 -75.49,-14.39 -104.24,-43.12 -28.75,-28.75 -43.13,-63.5 -43.13,-104.24l0 -133.98c0,-40.74 14.37,-75.5 43.13,-104.23 28.75,-28.76 63.49,-43.14 104.24,-43.14l133.97 0c40.76,0 75.5,14.38 104.24,43.13 28.75,28.75 43.13,63.5 43.13,104.24l0 133.98zm2572.24 0c0,40.75 -14.38,75.49 -43.12,104.24 -28.75,28.74 -63.49,43.12 -104.25,43.12l-133.97 0c-40.74,0 -75.49,-14.39 -104.24,-43.12 -28.75,-28.75 -43.13,-63.5 -43.13,-104.24l0 -133.98c0,-40.74 14.37,-75.5 43.12,-104.23 28.76,-28.76 63.51,-43.14 104.25,-43.14l133.97 0c40.76,0 75.5,14.38 104.25,43.13 28.74,28.75 43.12,63.5 43.12,104.24l0 133.98zm-3859.2 284.68l0.83 0 0 -137.32 0 -137.32 -0.83 0c0.56,-4.46 0.83,-7.81 0.83,-10.05l0 -133.97c0,-40.75 -14.37,-75.5 -43.11,-104.24 -28.75,-28.75 -63.5,-43.13 -104.25,-43.13l-133.97 0c-40.75,0 -75.5,14.38 -104.24,43.13 -28.75,28.74 -43.13,63.49 -43.13,104.24l0 133.98c0,2.22 0.28,5.58 0.83,10.04l-0.83 0 0 137.32 0 137.31 0.83 0.01c-0.55,4.47 -0.83,7.81 -0.83,10.05l0 133.97c0,40.75 14.37,75.5 43.12,104.25 28.75,28.73 63.5,43.11 104.25,43.11l133.97 0c40.75,0 75.5,-14.38 104.25,-43.11 28.74,-28.75 43.11,-63.5 43.11,-104.25l0 -133.97c0,-2.24 -0.26,-5.58 -0.83,-10.05zm3283.12 -137.32l-281.34 0 -281.33 0c-40.75,0 -75.5,14.37 -104.25,43.13 -28.74,28.74 -43.12,63.49 -43.12,104.24l0 133.97c0,40.75 14.37,75.5 43.12,104.25 28.75,28.73 63.5,43.11 104.25,43.11l281.33 0 281.34 0c40.75,0 75.5,-14.38 104.25,-43.11 28.74,-28.75 43.12,-63.5 43.12,-104.25l0 -133.97c0,-40.75 -14.38,-75.5 -43.12,-104.24 -28.75,-28.76 -63.5,-43.13 -104.25,-43.13zm-4569.24 566.02l0.84 0 0 -137.32 0 -428.7 0 -137.32 -0.84 0c0.57,-4.46 0.84,-7.81 0.84,-10.05l0 -133.97c0,-40.75 -14.38,-75.5 -43.12,-104.24 -28.75,-28.75 -63.5,-43.13 -104.25,-43.13l-133.97 0c-40.75,0 -75.5,14.38 -104.25,43.13 -28.74,28.74 -43.12,63.49 -43.12,104.24l0 133.98c0,2.22 0.28,5.58 0.84,10.04l-0.84 0 0 137.32 -281.34 0c-40.75,0 -75.5,14.37 -104.24,43.13 -28.75,28.74 -43.13,63.49 -43.13,104.24l0 133.97c0,40.75 14.38,75.5 43.13,104.25 28.75,28.73 63.49,43.11 104.24,43.11l281.34 0 0 137.32 0.84 0c-0.56,4.48 -0.84,7.82 -0.84,10.06l0 133.97c0,40.74 14.38,75.5 43.12,104.24 28.75,28.74 63.5,43.12 104.25,43.12l133.97 0c40.75,0 75.5,-14.38 104.24,-43.12 28.75,-28.75 43.13,-63.5 43.13,-104.24l0 -133.98c0,-2.23 -0.27,-5.57 -0.84,-10.05zm710.89 291.39l-281.35 0 -281.34 0c-40.75,0 -75.49,14.37 -104.24,43.13 -28.75,28.75 -43.12,63.49 -43.12,104.24l0 133.97c0,40.75 14.37,75.5 43.12,104.25 28.75,28.74 63.49,43.12 104.24,43.12l281.34 0 281.35 0c40.74,0 75.49,-14.38 104.24,-43.12 28.74,-28.75 43.12,-63.5 43.12,-104.25l0 -133.97c0,-40.75 -14.38,-75.5 -43.12,-104.24 -28.75,-28.75 -63.5,-43.13 -104.24,-43.13zm3858.35 0l-281.34 0 -281.33 0c-40.75,0 -75.5,14.37 -104.25,43.13 -28.74,28.75 -43.12,63.49 -43.12,104.24l0 133.97c0,40.75 14.37,75.5 43.12,104.25 28.75,28.74 63.5,43.12 104.25,43.12l281.33 0 281.34 0c40.75,0 75.5,-14.38 104.25,-43.12 28.74,-28.75 43.12,-63.5 43.12,-104.25l0 -133.97c0,-40.75 -14.38,-75.5 -43.12,-104.24 -28.75,-28.75 -63.5,-43.13 -104.25,-43.13zm-6711.94 857.41l0 0.01 281.35 0c40.75,0 75.5,-14.38 104.24,-43.12 28.74,-28.75 43.12,-63.51 43.12,-104.25l0 -281.34 281.34 0c40.75,0 75.51,-14.38 104.24,-43.12 28.74,-28.75 43.12,-63.5 43.12,-104.25l0 -281.34 0 -428.71 0 -281.33c0,-40.75 -14.38,-75.5 -43.12,-104.24 -28.74,-28.76 -63.49,-43.13 -104.24,-43.13l-281.34 0 -281.34 0c-40.75,0 -75.5,14.37 -104.24,43.13 -28.75,28.74 -43.13,63.49 -43.13,104.24l0 133.97c0,40.75 14.38,75.5 43.13,104.25 28.74,28.73 63.49,43.11 104.24,43.11l281.34 0 0 0 0 428.71 0 0 -428.71 0 0 -137.32 -0.83 0c0.57,-4.46 0.83,-7.81 0.83,-10.04l0 -133.97c0,-40.75 -14.38,-75.51 -43.12,-104.24 -28.74,-28.76 -63.49,-43.14 -104.24,-43.14l-133.98 0c-40.75,0 -75.5,14.38 -104.24,43.14 -28.74,28.75 -43.12,63.49 -43.12,104.24l0 133.97c0,2.23 0.28,5.59 0.84,10.05l-0.84 -0.01 0 137.32 0 428.71 -428.7 0 0 -428.71 0 -428.71 0 -428.7 281.34 0c40.75,0 75.5,-14.38 104.24,-43.12 28.74,-28.75 43.12,-63.5 43.12,-104.24l0 -133.98c0,-40.75 -14.38,-75.5 -43.12,-104.24 -28.74,-28.75 -63.49,-43.13 -104.24,-43.13l-281.34 0 0 0 -428.71 0 -428.7 0 -428.71 0 0 428.71 428.71 0 0 281.34c0,40.74 14.37,75.5 43.11,104.24 28.75,28.74 63.5,43.12 104.25,43.12l281.34 0 0 428.71 -428.7 0 -428.71 0 0 428.71 428.71 0 428.7 0 0 428.7 428.71 0 428.7 0 428.7 0zm4715.78 -147.36c0,40.76 -14.39,75.5 -43.12,104.24 -28.75,28.74 -63.49,43.13 -104.25,43.13l-133.97 0c-40.74,0 -75.49,-14.39 -104.24,-43.12 -28.75,-28.75 -43.13,-63.49 -43.13,-104.25l0 -133.97c0,-40.75 14.37,-75.5 43.13,-104.24 28.75,-28.75 63.49,-43.13 104.24,-43.13l133.97 0c40.76,0 75.5,14.37 104.24,43.13 28.75,28.75 43.13,63.49 43.13,104.24l0 133.97zm-3858.37 428.7c0,40.76 -14.38,75.5 -43.12,104.25 -28.74,28.74 -63.48,43.13 -104.24,43.13l-133.97 0c-40.75,0 -75.5,-14.39 -104.24,-43.12 -28.75,-28.76 -43.13,-63.5 -43.13,-104.26l0 -133.97c0,-40.74 14.38,-75.49 43.12,-104.24 28.76,-28.74 63.5,-43.12 104.25,-43.12l133.97 0c40.76,0 75.51,14.37 104.24,43.12 28.74,28.75 43.12,63.5 43.12,104.24l0 133.97zm856.58 -144.02l0.84 0 0 -137.31 281.34 0c40.75,0 75.5,-14.38 104.24,-43.12 28.75,-28.75 43.13,-63.51 43.13,-104.25l0 -133.97c0,-40.75 -14.38,-75.51 -43.12,-104.24 -28.75,-28.75 -63.5,-43.13 -104.25,-43.13l-281.34 0 -281.34 0c-40.75,0 -75.5,14.37 -104.24,43.13 -28.75,28.74 -43.13,63.49 -43.13,104.24l0 281.34 0 137.31 0.84 0c-0.56,4.48 -0.84,7.82 -0.84,10.05l0 133.97c0,40.75 14.38,75.5 43.13,104.25 28.75,28.75 63.49,43.13 104.24,43.13l133.97 0c40.75,0 75.51,-14.38 104.24,-43.12 28.75,-28.76 43.13,-63.51 43.13,-104.26l0 -133.97c0,-2.23 -0.27,-5.57 -0.84,-10.05zm3430.5 291.39l-428.71 0 -428.71 0 -428.71 0 0 -428.7 -428.71 0 0 -0.01 428.71 0 0 -428.7 0 -428.71 428.71 0 428.71 0 428.71 0 0 428.71 0 428.7 428.7 0 0 0.01 -428.7 0 0 428.7zm-6430.6 1286.12l281.34 0c40.75,0 75.5,-14.38 104.24,-43.11 28.74,-28.76 43.13,-63.5 43.13,-104.26l0 -281.34 428.7 0 281.34 0c40.75,0 75.5,-14.37 104.24,-43.11 28.74,-28.76 43.12,-63.5 43.12,-104.25l0 -281.34 281.35 0c40.75,0 75.5,-14.38 104.24,-43.12 28.74,-28.75 43.12,-63.5 43.12,-104.25l0 -133.97c0,-40.75 -14.38,-75.5 -43.12,-104.24 -28.75,-28.75 -63.49,-43.12 -104.24,-43.12l-281.35 0 0 -0.01 -428.7 0 0 -428.7 -428.7 0 -428.71 0 -281.34 0c-40.75,0 -75.5,14.37 -104.24,43.12 -28.74,28.75 -43.12,63.49 -43.12,104.24l0 133.97c0,40.75 14.37,75.5 43.11,104.25 28.75,28.75 63.5,43.13 104.25,43.13l281.34 0 0 428.7 -428.7 0 -281.35 0c-40.75,0 -75.5,14.38 -104.24,43.12 -28.74,28.75 -43.12,63.5 -43.12,104.25l0 133.97c0,40.75 14.37,75.5 43.11,104.25 28.75,28.74 63.5,43.11 104.25,43.11l281.35 0 0 281.34c0,40.75 14.37,75.5 43.11,104.25 28.75,28.74 63.5,43.12 104.25,43.12l281.34 0zm6859.3 -147.37c0,40.76 -14.39,75.5 -43.12,104.25 -28.75,28.74 -63.49,43.12 -104.25,43.12l-133.97 0c-40.74,0 -75.49,-14.38 -104.24,-43.11 -28.75,-28.76 -43.12,-63.5 -43.12,-104.26l0 -133.97c0,-40.74 14.37,-75.49 43.12,-104.24 28.75,-28.75 63.5,-43.13 104.24,-43.13l133.97 0c40.77,0 75.51,14.38 104.25,43.13 28.74,28.76 43.12,63.5 43.12,104.25l0 133.96zm-1004.78 147.37l-281.34 0 -281.34 0c-40.74,0 -75.5,14.38 -104.24,43.13 -28.74,28.76 -43.13,63.5 -43.13,104.25l0 133.96c0,40.75 14.37,75.51 43.13,104.25 28.75,28.74 63.5,43.12 104.24,43.12l281.34 0 281.34 0c40.74,0 75.5,-14.38 104.24,-43.12 28.75,-28.75 43.13,-63.5 43.13,-104.25l0 -133.97c0,-40.75 -14.38,-75.5 -43.12,-104.25 -28.75,-28.74 -63.51,-43.12 -104.25,-43.12zm-5144.47 428.71l-281.34 0 -428.71 0 -428.7 0 0 -137.32 -0.85 0c0.57,-4.46 0.85,-7.81 0.85,-10.05l0 -133.96c0,-40.75 -14.39,-75.51 -43.13,-104.25 -28.75,-28.75 -63.49,-43.13 -104.24,-43.13l-133.98 0c-40.75,0 -75.5,14.38 -104.24,43.13 -28.74,28.76 -43.12,63.5 -43.12,104.25l0 133.96c0,2.24 0.27,5.59 0.83,10.06l-0.83 -0.01 0 137.32 0 281.34c0,40.75 14.37,75.5 43.11,104.25 28.75,28.74 63.5,43.12 104.25,43.12l281.35 0 0 -0.01 428.7 0 428.71 0 0 0.01 281.34 0c40.75,0 75.5,-14.38 104.24,-43.12 28.74,-28.75 43.12,-63.5 43.12,-104.25l0 -133.97c0,-40.75 -14.38,-75.5 -43.12,-104.25 -28.74,-28.74 -63.49,-43.12 -104.24,-43.12zm2572.23 0l-281.34 0 0 -281.33c0,-40.75 -14.38,-75.51 -43.12,-104.25 -28.74,-28.75 -63.5,-43.13 -104.25,-43.13l-281.34 0 0 -428.71 281.34 0c40.75,0 75.51,-14.37 104.24,-43.11 28.75,-28.76 43.13,-63.5 43.13,-104.25l0 -133.97c0,-40.75 -14.38,-75.5 -43.12,-104.25 -28.74,-28.74 -63.5,-43.12 -104.25,-43.12l-281.34 0 -428.71 0 -281.33 0c-40.75,0 -75.51,14.38 -104.24,43.12 -28.75,28.75 -43.13,63.5 -43.13,104.25l0 133.97c0,40.75 14.38,75.5 43.12,104.25 28.75,28.74 63.5,43.11 104.25,43.11l281.33 0 0 428.71 -428.7 0 0 428.71 0 0 0 -428.71 -428.71 0 -281.34 0c-40.75,0 -75.5,14.38 -104.24,43.13 -28.74,28.76 -43.12,63.5 -43.12,104.25l0 133.96c0,40.75 14.38,75.51 43.12,104.25 28.75,28.74 63.49,43.12 104.24,43.12l281.34 0 0 281.34c0,40.75 14.38,75.5 43.13,104.25 28.74,28.74 63.49,43.12 104.24,43.12l281.34 0 281.34 0c40.75,0 75.51,-14.38 104.24,-43.12 28.74,-28.75 43.12,-63.5 43.12,-104.25l0 -281.34 428.71 0 0 281.34c0,40.75 14.38,75.5 43.13,104.25 28.75,28.74 63.49,43.12 104.24,43.12l281.34 0 281.34 0c40.75,0 75.5,-14.38 104.24,-43.12 28.75,-28.75 43.13,-63.5 43.13,-104.25l0 -133.97c0,-40.75 -14.38,-75.5 -43.12,-104.25 -28.75,-28.74 -63.5,-43.12 -104.25,-43.12zm1714.83 0l-281.35 0 -428.7 0 0 428.7 428.7 0 0 0.01 281.35 0c40.74,0 75.49,-14.38 104.24,-43.12 28.74,-28.75 43.12,-63.5 43.12,-104.25l0 -133.97c0,-40.75 -14.38,-75.5 -43.12,-104.25 -28.75,-28.74 -63.5,-43.12 -104.24,-43.12zm1862.19 428.71l281.34 0c40.75,0 75.5,-14.38 104.25,-43.12 28.74,-28.75 43.12,-63.5 43.12,-104.25l0 -281.34 428.7 0 428.71 0 281.34 0c40.75,0 75.5,-14.38 104.25,-43.12 28.74,-28.75 43.12,-63.5 43.12,-104.25l0 -281.34 0 -281.33c0,-40.75 -14.38,-75.5 -43.12,-104.25 -28.75,-28.75 -63.5,-43.13 -104.25,-43.13l-281.34 0 0 -428.7 0 -428.7 0 -0.01 0 -281.34c0,-40.75 -14.38,-75.5 -43.12,-104.24 -28.75,-28.74 -63.5,-43.12 -104.25,-43.12l-281.34 0 -428.7 0 0 -281.34c0,-40.75 -14.38,-75.5 -43.12,-104.24 -28.76,-28.75 -63.5,-43.13 -104.25,-43.13l-281.34 0 0 -428.71 0 -428.71 0 -428.7 281.34 0c40.75,0 75.5,-14.38 104.25,-43.12 28.74,-28.75 43.12,-63.5 43.12,-104.24l0 -281.35 -428.71 0 0 0 0 -428.7 -428.7 0 -281.35 0c-40.74,0 -75.49,14.37 -104.24,43.12 -28.75,28.75 -43.12,63.49 -43.12,104.24l0 133.98c0,40.75 14.37,75.5 43.12,104.24 28.75,28.74 63.5,43.12 104.24,43.12l281.35 0 0 428.71 0 428.7 -428.71 0 -428.71 0 -428.71 0 -281.33 0c-40.75,0 -75.51,14.38 -104.24,43.14 -28.75,28.75 -43.14,63.49 -43.14,104.24l0 281.33 0 428.71 -281.33 0c-40.75,0 -75.5,14.37 -104.24,43.13 -28.75,28.74 -43.13,63.49 -43.13,104.24l0 281.34 -428.71 0 -281.34 0c-40.75,0 -75.49,14.37 -104.24,43.12 -28.75,28.75 -43.12,63.49 -43.12,104.24l0 281.34 0 0.01 -281.34 0c-40.75,0 -75.5,14.37 -104.25,43.12 -28.74,28.75 -43.12,63.49 -43.12,104.24l0 133.97c0,40.75 14.38,75.5 43.12,104.25 28.75,28.74 63.5,43.12 104.25,43.12l281.34 0 0 428.7 0 428.71 0 281.34c0,40.75 14.37,75.5 43.12,104.25 28.75,28.74 63.49,43.12 104.24,43.12l281.34 0 0 281.34c0,40.75 14.38,75.5 43.13,104.25 28.74,28.74 63.49,43.12 104.24,43.12l281.34 0 0 -428.71 0 -428.71 0 -428.71 0 -428.7 0 -428.71 0 -428.7 0 0 0 428.7 0 428.71 428.7 0 428.71 0 0 137.31 0.84 0.01c-0.56,4.47 -0.84,7.82 -0.84,10.05l0 133.97c0,40.75 14.37,75.5 43.13,104.25 28.75,28.74 63.5,43.11 104.24,43.11l133.97 0c40.75,0 75.5,-14.37 104.25,-43.11 28.74,-28.76 43.12,-63.5 43.12,-104.25l0 -133.97c0,-2.23 -0.27,-5.58 -0.84,-10.05l0.84 0 0 -137.32 428.71 0 0 137.31 0.83 0.01c-0.55,4.47 -0.83,7.82 -0.83,10.05l0 133.97c0,40.75 14.37,75.5 43.12,104.25 28.75,28.74 63.5,43.11 104.24,43.11l133.97 0c40.75,0 75.5,-14.37 104.25,-43.11 28.75,-28.76 43.13,-63.5 43.13,-104.25l0 -133.97c0,-2.23 -0.28,-5.58 -0.84,-10.05l0.84 0 0 -137.32 428.7 0 0 0 281.34 0c40.75,0 75.5,-14.38 104.25,-43.12 28.74,-28.75 43.12,-63.5 43.12,-104.25l0 -281.33 -428.71 0 0 -0.01 0 -428.7 0 0 0 428.7 428.71 0 428.7 0 0 0.01 0 428.7 -281.33 0c-40.75,0 -75.5,14.38 -104.25,43.12 -28.74,28.75 -43.12,63.5 -43.12,104.25l0 133.97c0,40.75 14.37,75.5 43.12,104.25 28.75,28.74 63.5,43.11 104.25,43.11l281.33 0 0 428.71 -428.7 0 -281.34 0c-40.75,0 -75.5,14.38 -104.25,43.13 -28.74,28.76 -43.12,63.5 -43.12,104.25l0 281.33 -281.34 0c-40.75,0 -75.49,14.37 -104.24,43.12 -28.75,28.75 -43.12,63.5 -43.12,104.25l0 133.97c0,40.75 14.37,75.5 43.12,104.25 28.75,28.74 63.49,43.12 104.24,43.12l281.34 0zm0 -5144.49l428.71 0 0 -428.7 428.7 0 428.71 0 281.34 0c40.75,0 75.5,-14.38 104.25,-43.12 28.74,-28.74 43.12,-63.5 43.12,-104.25l0 -281.34 0 -428.71 0 -137.32 -0.84 0c0.57,-4.46 0.84,-7.8 0.84,-10.04l0 -133.97c0,-40.75 -14.38,-75.51 -43.12,-104.24 -28.75,-28.75 -63.5,-43.13 -104.25,-43.13l-133.97 0c-40.75,0 -75.5,14.38 -104.25,43.13 -28.75,28.74 -43.12,63.49 -43.12,104.24l0 133.97c0,2.23 0.28,5.59 0.84,10.05l-0.84 -0.01 0 137.32 0 428.71 -428.71 0 0 -281.34c0,-40.75 -14.37,-75.5 -43.11,-104.24 -28.76,-28.74 -63.5,-43.13 -104.26,-43.13l-281.33 0 0 -428.7 0 -428.71 428.7 0 0 0 0 137.33 0.84 0c-0.56,4.46 -0.84,7.81 -0.84,10.04l0 133.98c0,40.75 14.38,75.5 43.12,104.24 28.76,28.74 63.51,43.12 104.26,43.12l133.96 0c40.75,0 75.5,-14.38 104.25,-43.12 28.74,-28.75 43.12,-63.49 43.12,-104.24l0 -133.98c0,-2.23 -0.27,-5.58 -0.83,-10.04l0.83 0 0 -137.33 0 -281.34c0,-40.75 -14.38,-75.5 -43.12,-104.24 -28.75,-28.74 -63.5,-43.12 -104.25,-43.12l-281.34 0 -428.7 0 0 0 428.7 0 0 -428.7 281.34 0c40.75,0 75.5,-14.39 104.25,-43.13 28.74,-28.74 43.12,-63.49 43.12,-104.24l0 -281.34 0 -428.7 0 -428.71 281.34 0c40.75,0 75.5,-14.38 104.25,-43.13 28.74,-28.74 43.12,-63.49 43.12,-104.24l0 -133.98c0,-40.75 -14.38,-75.5 -43.12,-104.24 -28.75,-28.74 -63.5,-43.11 -104.25,-43.11l-281.34 0 -281.33 0c-40.75,0 -75.51,14.37 -104.25,43.11 -28.74,28.75 -43.13,63.49 -43.13,104.24l0 281.35 -281.33 0c-40.75,0 -75.5,14.38 -104.25,43.12 -28.74,28.74 -43.12,63.49 -43.12,104.24l0 133.98c0,40.75 14.37,75.5 43.12,104.24 28.75,28.74 63.5,43.13 104.25,43.13l281.33 0 0 428.7 -281.33 0c-40.75,0 -75.5,14.38 -104.25,43.13 -28.74,28.75 -43.12,63.49 -43.12,104.24l0 281.34 -281.34 0c-40.75,0 -75.5,14.37 -104.25,43.12 -28.74,28.74 -43.12,63.49 -43.12,104.24l0 281.34 -281.34 0c-40.75,0 -75.49,14.38 -104.24,43.12 -28.75,28.74 -43.12,63.49 -43.12,104.24l0 281.34 -428.71 0 0 -428.7 281.33 0c40.75,0 75.5,-14.38 104.25,-43.12 28.75,-28.74 43.13,-63.49 43.13,-104.24l0 -281.34 0 -428.71 0 -428.7 281.33 0c40.75,0 75.5,-14.39 104.25,-43.13 28.74,-28.75 43.12,-63.49 43.12,-104.24l0 -133.98c0,-40.75 -14.38,-75.5 -43.12,-104.24 -28.75,-28.74 -63.5,-43.12 -104.25,-43.12l-281.33 0 0 -428.7 0 -0.01 428.7 0 0 -428.7 0 0 0 428.7 428.71 0 0 -428.7 281.33 0c40.75,0 75.5,-14.38 104.25,-43.13 28.75,-28.74 43.12,-63.5 43.12,-104.25l0 -133.97c0,-40.74 -14.37,-75.5 -43.11,-104.24 -28.76,-28.74 -63.5,-43.12 -104.26,-43.12l-281.33 0 -281.34 0c-40.75,0 -75.5,14.37 -104.25,43.12 -28.74,28.74 -43.12,63.5 -43.12,104.24l0 281.35 -428.7 0 -281.35 0c-40.74,0 -75.49,14.37 -104.24,43.11 -28.75,28.75 -43.12,63.5 -43.12,104.24l0 281.35 -428.71 0 0 -137.32 -0.84 0c0.57,-4.47 0.84,-7.81 0.84,-10.05l0 -133.98c0,-40.74 -14.38,-75.49 -43.12,-104.24 -28.75,-28.73 -63.5,-43.11 -104.25,-43.11l-133.97 0c-40.74,0 -75.5,14.37 -104.24,43.11 -28.74,28.75 -43.13,63.5 -43.13,104.24l0 133.98c0,2.24 0.28,5.59 0.84,10.05l-0.84 0 0 137.33 0 281.33c0,40.75 14.37,75.5 43.13,104.24 28.75,28.75 63.5,43.13 104.24,43.13l281.34 0 428.71 0 0 428.71 -281.34 0c-40.75,0 -75.5,14.37 -104.24,43.12 -28.76,28.75 -43.13,63.49 -43.13,104.24l0 133.98c0,40.75 14.37,75.5 43.13,104.24 28.75,28.74 63.49,43.12 104.24,43.12l281.34 0 0 428.71 -281.34 0c-40.75,0 -75.5,14.37 -104.24,43.12 -28.76,28.74 -43.13,63.49 -43.13,104.24l0 281.34 -281.34 0c-40.74,0 -75.5,14.38 -104.24,43.12 -28.74,28.74 -43.13,63.49 -43.13,104.24l0 133.98c0,40.75 14.37,75.5 43.13,104.24 28.75,28.74 63.5,43.12 104.24,43.12l281.34 0 0 428.71 0 428.7 -281.34 0c-40.74,0 -75.5,14.38 -104.24,43.13 -28.74,28.75 -43.13,63.49 -43.13,104.24l0 133.98c0,40.75 14.37,75.5 43.13,104.24 28.75,28.74 63.5,43.12 104.24,43.12l281.34 0 0 281.34c0,40.75 14.37,75.51 43.13,104.24 28.75,28.75 63.49,43.13 104.24,43.13l281.34 0 428.71 0 428.7 0 0 -428.71 -428.7 0 -428.71 0 0 -428.71 428.71 0 428.7 0 0 -428.7 0 -428.71 0 0 0 -281.34 0 -147.36 0 0 0 428.7 0 428.71 0 428.7 0 428.71 0 428.71 0 428.7zm-11575.91 -1148.79l0.84 0 0 -137.33 281.33 0c40.75,0 75.5,-14.38 104.25,-43.12 28.75,-28.74 43.13,-63.49 43.13,-104.24l0 -281.34 0 -137.32 -0.84 0c0.56,-4.46 0.84,-7.81 0.84,-10.05l0 -133.97c0,-40.75 -14.38,-75.5 -43.13,-104.24 -28.75,-28.74 -63.5,-43.13 -104.25,-43.13l-133.96 0c-40.75,0 -75.5,14.38 -104.26,43.13 -28.74,28.74 -43.11,63.49 -43.11,104.24l0 133.98c0,2.22 0.28,5.58 0.83,10.04l-0.83 0 0 137.32 -428.71 0 -281.34 0c-40.74,0 -75.5,14.38 -104.25,43.13 -28.73,28.74 -43.12,63.49 -43.12,104.24l0 133.97c0,40.75 14.37,75.51 43.12,104.24 28.76,28.74 63.51,43.12 104.25,43.12l281.34 0 0 137.33 0.83 0c-0.55,4.46 -0.83,7.81 -0.83,10.04l0 133.98c0,40.75 14.37,75.5 43.12,104.24 28.76,28.74 63.5,43.12 104.25,43.12l133.96 0c40.75,0 75.51,-14.38 104.25,-43.12 28.75,-28.74 43.13,-63.49 43.13,-104.24l0 -133.98c0,-2.23 -0.28,-5.58 -0.84,-10.04zm2144.37 144.02c0,40.75 -14.38,75.5 -43.13,104.24 -28.74,28.73 -63.48,43.12 -104.24,43.12l-133.97 0c-40.74,0 -75.5,-14.39 -104.24,-43.12 -28.75,-28.74 -43.13,-63.49 -43.13,-104.24l0 -133.98c0,-40.75 14.38,-75.5 43.12,-104.24 28.76,-28.74 63.51,-43.13 104.25,-43.13l133.97 0c40.77,0 75.51,14.38 104.24,43.13 28.75,28.75 43.13,63.5 43.13,104.24l0 133.98zm-1286.12 1004.77l428.71 0 0 -428.7 281.34 0c40.75,0 75.5,-14.38 104.24,-43.12 28.75,-28.74 43.12,-63.5 43.12,-104.25l0 -133.97c0,-40.75 -14.37,-75.51 -43.12,-104.24 -28.75,-28.75 -63.49,-43.13 -104.24,-43.13l-281.34 0 -428.71 0 -281.34 0c-40.75,0 -75.49,14.38 -104.25,43.13 -28.74,28.75 -43.11,63.49 -43.11,104.24l0 133.98c0,40.75 14.37,75.5 43.11,104.24 28.76,28.74 63.5,43.12 104.25,43.12l281.34 0 0 428.7zm1286.12 -147.36c0,40.75 -14.38,75.5 -43.13,104.24 -28.74,28.74 -63.48,43.13 -104.24,43.13l-133.97 0c-40.74,0 -75.5,-14.39 -104.24,-43.12 -28.75,-28.75 -43.13,-63.5 -43.13,-104.25l0 -133.98c0,-40.74 14.38,-75.49 43.12,-104.23 28.76,-28.75 63.51,-43.13 104.25,-43.13l133.97 0c40.77,0 75.51,14.38 104.24,43.12 28.75,28.76 43.13,63.5 43.13,104.25l0 133.97zm856.58 -144.02l0.84 0 0 -137.32 428.71 0 281.33 0c40.75,0 75.5,-14.38 104.24,-43.12 28.75,-28.74 43.13,-63.5 43.13,-104.25l0 -133.97c0,-40.75 -14.38,-75.51 -43.13,-104.24 -28.74,-28.75 -63.49,-43.13 -104.24,-43.13l-281.33 0 0 -428.71 281.33 0c40.75,0 75.5,-14.38 104.24,-43.12 28.75,-28.74 43.13,-63.49 43.13,-104.24l0 -133.97c0,-40.75 -14.38,-75.51 -43.13,-104.24 -28.74,-28.75 -63.49,-43.13 -104.24,-43.13l-281.33 0 -281.36 0c-40.74,0 -75.49,14.38 -104.24,43.13 -28.74,28.74 -43.11,63.49 -43.11,104.24l0 281.33 0 428.71 -281.35 0c-40.74,0 -75.5,14.38 -104.24,43.13 -28.75,28.75 -43.12,63.49 -43.12,104.24l0 281.34 0 137.32 0.83 0c-0.56,4.47 -0.83,7.81 -0.83,10.05l0 133.98c0,40.74 14.37,75.5 43.12,104.24 28.75,28.74 63.5,43.12 104.24,43.12l133.97 0c40.75,0 75.51,-14.38 104.24,-43.12 28.76,-28.75 43.14,-63.5 43.14,-104.25l0 -133.98c0,-2.23 -0.28,-5.57 -0.84,-10.04zm-3147.49 1577.5l-281.33 0 0 -428.7 0 -428.71 0 0 428.71 0 428.71 0 0 428.71 0 137.31 0.83 0.01c-0.56,4.47 -0.83,7.81 -0.83,10.05l0 133.97c0,40.75 14.37,75.5 43.11,104.25 28.76,28.73 63.5,43.11 104.25,43.11l133.97 0c40.75,0 75.5,-14.38 104.24,-43.11 28.76,-28.75 43.13,-63.5 43.13,-104.25l0 -133.97c0,-2.24 -0.27,-5.58 -0.83,-10.05l0.83 0 0 -137.32 0 -428.71 281.34 0c40.75,0 75.5,-14.38 104.24,-43.11 28.75,-28.75 43.13,-63.5 43.13,-104.25l0 -281.34 -428.71 0 -428.7 0 -428.71 0 0 -137.32 -0.84 0c0.56,-4.46 0.84,-7.81 0.84,-10.05l0 -133.97c0,-40.75 -14.38,-75.5 -43.13,-104.24 -28.74,-28.75 -63.5,-43.13 -104.25,-43.13l-133.96 0c-40.75,0 -75.5,14.38 -104.25,43.12 -28.74,28.75 -43.12,63.49 -43.12,104.25l0 133.98c0,2.22 0.28,5.58 0.83,10.04l-0.83 0 0 137.32 -281.34 0c-40.74,0 -75.5,14.37 -104.25,43.12 -28.73,28.75 -43.12,63.49 -43.12,104.24l0 281.34 0 0 0 428.71 0 428.7 0 281.35c0,40.74 14.37,75.49 43.12,104.24 28.76,28.74 63.51,43.12 104.25,43.12l281.34 0 281.33 0c40.75,0 75.51,-14.38 104.25,-43.12 28.75,-28.75 43.13,-63.5 43.13,-104.24l0 -133.98c0,-40.75 -14.38,-75.5 -43.13,-104.24 -28.74,-28.75 -63.5,-43.13 -104.25,-43.13zm1433.5 147.38l0 -147.38 -281.34 0c-40.75,0 -75.5,14.38 -104.25,43.14 -28.74,28.75 -43.12,63.49 -43.12,104.24l0 133.97c0,40.74 14.38,75.5 43.12,104.24 28.75,28.74 63.5,43.12 104.25,43.12l281.34 0 0 -281.33zm710.04 -147.38l-281.34 0 -428.7 0 0 428.71 428.7 0 281.34 0c40.75,0 75.5,-14.38 104.24,-43.12 28.75,-28.75 43.13,-63.5 43.13,-104.24l0 -133.98c0,-40.75 -14.38,-75.5 -43.13,-104.24 -28.74,-28.75 -63.49,-43.13 -104.24,-43.13zm1003.95 994.74l0.84 0 0 -137.32 428.71 0 428.7 0 0 -428.71 0 -281.33c0,-40.75 -14.38,-75.51 -43.13,-104.24 -28.74,-28.76 -63.49,-43.14 -104.24,-43.14l-281.33 0 0 -428.7 428.7 0 0 -428.71 -428.7 0 -428.71 0 -428.71 0 -428.71 0 0 0 -281.34 0c-40.74,0 -75.5,14.38 -104.24,43.13 -28.74,28.74 -43.13,63.49 -43.13,104.24l0 133.98c0,40.74 14.38,75.49 43.12,104.24 28.75,28.74 63.51,43.12 104.25,43.12l281.34 0 428.71 0 0 428.7 0 428.71 0 428.71 0 137.32 0.83 0c-0.56,4.47 -0.83,7.81 -0.83,10.05l0 133.97c0,40.75 14.37,75.5 43.12,104.25 28.75,28.74 63.5,43.12 104.24,43.12l133.97 0c40.75,0 75.51,-14.38 104.24,-43.12 28.76,-28.75 43.14,-63.51 43.14,-104.25l0 -133.97c0,-2.24 -0.28,-5.58 -0.84,-10.05zm282.17 1148.8l-281.33 0 0 -137.32 -0.84 0c0.56,-4.46 0.84,-7.81 0.84,-10.06l0 -133.96c0,-40.75 -14.38,-75.5 -43.13,-104.24 -28.74,-28.75 -63.5,-43.12 -104.25,-43.12l-133.97 0c-40.74,0 -75.5,14.37 -104.24,43.12 -28.75,28.75 -43.12,63.49 -43.12,104.24l0 133.97c0,2.23 0.27,5.59 0.83,10.06l-0.83 -0.01 0 137.32 0 281.33c0,40.75 14.37,75.5 43.12,104.25 28.75,28.75 63.5,43.12 104.24,43.12l281.35 0 281.33 0c40.75,0 75.5,-14.37 104.24,-43.11 28.75,-28.76 43.14,-63.5 43.14,-104.25l0 -133.97c0,-40.75 -14.39,-75.5 -43.13,-104.25 -28.75,-28.74 -63.5,-43.12 -104.25,-43.12zm1004.79 -12285.12c0,-40.74 -14.39,-75.5 -43.13,-104.25 -28.75,-28.74 -63.49,-43.12 -104.24,-43.12l-133.98 0c-40.75,0 -75.5,14.37 -104.24,43.12 -28.74,28.76 -43.12,63.51 -43.12,104.25l0 133.97c0,2.24 0.27,5.59 0.83,10.06l-0.83 -0.01 0 137.32 0 281.33c0,40.75 14.37,75.51 43.11,104.25 28.75,28.75 63.5,43.13 104.25,43.13l281.35 0 428.7 0 428.71 0 0 428.7 428.7 0 428.7 0 0 -428.7 0 -428.71 428.71 0 0 281.33c0,40.75 14.38,75.51 43.12,104.25 28.75,28.75 63.5,43.13 104.25,43.13l281.33 0 428.71 0 0 137.31 0.84 0c-0.56,4.47 -0.84,7.82 -0.84,10.06l0 133.97c0,40.75 14.38,75.5 43.13,104.24 28.75,28.75 63.49,43.13 104.24,43.13l133.97 0c40.75,0 75.51,-14.38 104.24,-43.13 28.75,-28.75 43.13,-63.5 43.13,-104.25l0 -133.97c0,-2.23 -0.27,-5.58 -0.84,-10.05l0.84 0 0 -137.31 428.71 0 0 428.7 428.7 0 428.71 0 0 -428.7 -428.71 0 0 -428.71 281.35 0c40.74,0 75.49,-14.38 104.24,-43.12 28.74,-28.75 43.12,-63.5 43.12,-104.25l0 -133.97c0,-40.75 -14.38,-75.5 -43.12,-104.25 -28.75,-28.74 -63.5,-43.12 -104.24,-43.12l-281.35 0 -281.34 0c-40.75,0 -75.49,14.37 -104.24,43.12 -28.75,28.76 -43.12,63.51 -43.12,104.25l0 281.34 -428.71 0 0 -281.34c0,-40.74 -14.38,-75.5 -43.12,-104.25 -28.74,-28.74 -63.5,-43.12 -104.25,-43.12l-281.34 0 -428.71 0 -428.7 0 0 428.71 0 0 0 -428.71 -428.71 0 -428.7 0 -281.34 0c-40.75,0 -75.5,14.37 -104.24,43.12 -28.75,28.76 -43.12,63.51 -43.12,104.25l0 281.34 -428.71 0 -428.7 0 0 -137.32 -0.85 0c0.57,-4.47 0.85,-7.81 0.85,-10.05l0 -133.97z"/>
  <g id="_1520328160352">
   <path class="fil2 str0" d="M10910 11194.4l-1825.4 0c-594.8,0 -1078.71,-483.86 -1078.71,-1078.71l0 -1825.4c0,-594.85 483.91,-1078.71 1078.71,-1078.71l1825.4 0c594.85,0 1078.71,483.86 1078.71,1078.71l0 1825.46c0,594.79 -483.86,1078.65 -1078.71,1078.65zm-1795.03 -3595.67c-398.07,0 -721.93,323.86 -721.93,721.93l0 1764.71c0,398.07 323.86,721.93 721.93,721.93l1764.66 0c398.07,0 721.93,-323.86 721.93,-721.93l0 -1764.71c0,-398.07 -323.86,-721.93 -721.93,-721.93l-1764.66 0zm882.33 2599.96c-549.03,0 -995.7,-446.71 -995.7,-995.7 0,-549.08 446.67,-995.7 995.7,-995.7 549.03,0 995.7,446.62 995.7,995.7 0,548.99 -446.68,995.7 -995.7,995.7zm0 -1606.97c-337.06,0 -611.27,274.21 -611.27,611.27 0,337.1 274.21,611.27 611.27,611.27 337.06,0 611.26,-274.17 611.26,-611.27 0,-337.06 -274.16,-611.27 -611.26,-611.27zm1286.11 -416.24c0,-142.81 -115.78,-258.58 -258.59,-258.58 -142.81,0 -258.58,115.77 -258.58,258.58 0,142.82 115.77,258.58 258.58,258.58 142.81,0 258.59,-115.76 258.59,-258.58z"/>
   <path class="fil3 str0" d="M3739.32 5095.43c-448.62,0 -815.68,-367.05 -815.68,-815.66l0 -1334.76c0,-448.61 367.06,-815.68 815.68,-815.68l1334.75 0c448.61,0 815.68,367.07 815.68,815.68l0 1334.76c0,448.61 -367.07,815.66 -815.68,815.66l-1334.75 0zm1296.55 -329.56c288.37,0 524.32,-235.94 524.32,-524.31l0 -1258.35c0,-288.37 -235.95,-524.31 -524.32,-524.31l-1258.35 0c-288.37,0 -524.31,235.94 -524.31,524.31l0 1258.35c0,288.37 235.94,524.31 524.31,524.31l1258.35 0zm43.61 -1153.49c0,371.57 -301.21,672.78 -672.78,672.78 -371.56,0 -672.78,-301.21 -672.78,-672.78 0,-371.56 301.22,-672.78 672.78,-672.78 371.57,0 672.78,301.22 672.78,672.78z"/>
   <path class="fil3 str0" d="M14920.53 5095.43c-448.61,0 -815.67,-367.05 -815.67,-815.66l0 -1334.76c0,-448.61 367.06,-815.68 815.67,-815.68l1334.75 0c448.62,0 815.68,367.07 815.68,815.68l0 1334.76c0,448.61 -367.06,815.66 -815.68,815.66l-1334.75 0zm1296.55 -329.56c288.37,0 524.32,-235.94 524.32,-524.31l0 -1258.35c0,-288.37 -235.95,-524.31 -524.32,-524.31l-1258.35 0c-288.37,0 -524.31,235.94 -524.31,524.31l0 1258.35c0,288.37 235.94,524.31 524.31,524.31l1258.35 0zm43.61 -1153.49c0,371.57 -301.21,672.78 -672.78,672.78 -371.56,0 -672.78,-301.21 -672.78,-672.78 0,-371.56 301.22,-672.78 672.78,-672.78 371.57,0 672.78,301.22 672.78,672.78z"/>
   <path class="fil3 str0" d="M3739.31 16276.65c-448.61,0 -815.67,-367.05 -815.67,-815.67l0 -1334.76c0,-448.6 367.06,-815.67 815.67,-815.67l1334.75 0c448.62,0 815.68,367.07 815.68,815.67l0 1334.76c0,448.62 -367.06,815.67 -815.68,815.67l-1334.75 0zm1296.55 -329.57c288.37,0 524.32,-235.94 524.32,-524.31l0 -1258.34c0,-288.37 -235.95,-524.31 -524.32,-524.31l-1258.34 0c-288.38,0 -524.31,235.94 -524.31,524.31l0 1258.34c0,288.37 235.93,524.31 524.31,524.31l1258.34 0zm43.62 -1153.48c0,371.56 -301.21,672.78 -672.79,672.78 -371.56,0 -672.78,-301.22 -672.78,-672.78 0,-371.57 301.22,-672.78 672.78,-672.78 371.58,0 672.79,301.21 672.79,672.78z"/>
  </g>
  <polygon class="fil0 str1" points="3311.31,23535.37 16683.3,23535.37 16683.3,23835.37 3311.31,23835.37 "/>
  <path class="fil0 str1" d="M3290.33 25521.51l13413.97 0c833.24,0 1514.98,-709.72 1514.98,-1577.2l0 -517.85c0,-867.47 -681.75,-1577.23 -1514.98,-1577.23l-13413.97 0c-833.25,0 -1515,709.76 -1515,1577.23l0 517.85c0,867.46 681.74,1577.2 1515,1577.2z"/>
  <rect class="fil4 str0" x="6729.3" y="24253.88" width="6536.01" height="898.32" rx="439.03" ry="439.03"/>
  <g>
   <path class="fil2" d="M3296.54 20266.55l0 0.01 13401.51 0 0 0 -13401.51 -0.01zm0 0.01l-782.93 0c-1372,0 -2494.56,-1122.55 -2494.56,-2494.56l0 -14967.39c0,-1372.01 1122.56,-2494.56 2494.56,-2494.56l14967.38 0c1372,0 2494.56,1122.55 2494.56,2494.56l0 14967.39c0,1372.01 -1122.56,2494.56 -2494.56,2494.56l-782.94 0 -13401.51 0zm15293.54 -17553.74l0 15208.8c0,518.81 -429.6,948.41 -948.41,948.41l-15208.75 0c-518.81,0 -948.41,-429.6 -948.41,-948.41l0 -15208.8c0,-518.81 429.6,-948.42 948.41,-948.42l15208.75 0c518.82,0 948.41,429.61 948.41,948.42z"/>
   <path id="1" class="fil0 str0" d="M3296.54 20266.55l0 0.01 13401.51 0 0 0m-13401.51 0l-782.93 0c-1372,0 -2494.56,-1122.55 -2494.56,-2494.56l0 -14967.39c0,-1372.01 1122.56,-2494.56 2494.56,-2494.56l14967.38 0c1372,0 2494.56,1122.55 2494.56,2494.56l0 14967.39c0,1372.01 -1122.56,2494.56 -2494.56,2494.56l-782.94 0m1892.03 -17553.74l0 15208.8c0,518.81 -429.6,948.41 -948.41,948.41l-15208.75 0c-518.81,0 -948.41,-429.6 -948.41,-948.41l0 -15208.8c0,-518.81 429.6,-948.42 948.41,-948.42l15208.75 0c518.82,0 948.41,429.61 948.41,948.42z"/>
  </g>
  <g>
   <path class="fil5" d="M7518.26 24609.34c10.83,-66.59 -7.3,-118.85 -54.4,-156.8 -47.09,-37.93 -105.55,-57.44 -175.39,-58.53 -75.78,-1.08 -141.68,15.83 -197.71,50.76 -56.03,34.93 -84.04,81.33 -84.04,139.17 0,40.4 16.77,72.05 50.34,94.99 10.82,4.9 23.14,2.3 36.94,-7.79 13.82,-10.1 19.35,-19.51 16.66,-28.26 -18.41,-34.9 -21.39,-66.57 -8.94,-94.95 12.45,-28.38 36.28,-51.44 71.45,-69.18 35.18,-17.73 73.89,-26.07 116.12,-24.97 43.3,1.63 79.03,15.41 107.17,41.34 28.16,25.92 38.72,61.28 31.67,106.02 -7.03,49.67 -28.41,85.42 -64.15,107.25 -35.71,21.83 -78.76,25.65 -129.1,11.47 10.29,-38.76 18.67,-68.78 25.17,-90.06 6.5,-21.3 15.43,-43.81 26.79,-67.54 11.38,-23.76 22.74,-38.89 34.11,-45.45 3.79,-5.45 0.54,-10.9 -9.74,-16.36 -16.78,-9.27 -32.75,-10.92 -47.92,-4.92 -29.23,12.55 -54.94,48.17 -77.13,106.83 -22.19,58.68 -41.95,124.86 -59.27,198.54 -17.33,73.68 -30.31,119.81 -38.98,138.37 -1.62,9.27 3.51,16.23 15.42,20.87 11.93,4.63 25.19,6.13 39.8,4.49 14.61,-1.63 24.09,-5.72 28.42,-12.28 4.33,-9.27 8.93,-22.78 13.8,-40.52 4.88,-17.74 10.83,-41.2 17.87,-70.41 7.03,-29.21 12.99,-52.26 17.86,-69.17 75.79,22.91 141.55,18.69 197.32,-12.7 55.75,-31.38 89.03,-81.45 99.86,-150.21zm2092.96 -92.53c2.15,-14.19 -0.83,-25.92 -8.95,-35.2 -8.11,-9.27 -19.49,-13.92 -34.09,-13.92 -14.63,-0.55 -27.21,3.84 -37.76,13.11 -10.55,9.28 -17.19,21.27 -19.89,36.01 -2.18,14.19 0.94,26.08 9.34,35.61 8.38,9.56 19.35,14.34 32.88,14.34 16.24,0 29.64,-4.64 40.2,-13.92 10.55,-9.28 16.63,-21.29 18.27,-36.03zm-1598.78 155.55c14.6,-0.54 25.71,3.95 33.29,13.51 7.57,9.56 11.49,22.37 11.77,38.49 0.28,16.09 -1.77,33.69 -6.09,52.8 -4.33,19.09 -10.55,38.48 -18.67,58.12 -11.91,-2.72 -21.52,1.78 -28.83,13.5 -7.32,11.75 -7.16,23.62 0.4,35.63 -16.24,19.1 -34.63,28.64 -55.22,28.64 -39.5,0 -52.23,-36.56 -38.14,-109.7 6.47,-32.74 19.35,-62.49 38.56,-89.23 19.21,-26.75 40.19,-40.67 62.93,-41.76zm970.31 0c14.61,-0.54 25.72,3.95 33.3,13.51 7.56,9.56 11.49,22.37 11.76,38.49 0.28,16.09 -1.76,33.69 -6.08,52.8 -4.33,19.09 -10.56,38.48 -18.69,58.12 -11.91,-2.72 -21.5,1.78 -28.83,13.5 -7.3,11.75 -7.15,23.62 0.42,35.63 -16.25,19.1 -34.65,28.64 -55.22,28.64 -39.52,0 -52.24,-36.56 -38.17,-109.7 6.5,-32.74 19.36,-62.49 38.59,-89.23 19.21,-26.75 40.19,-40.67 62.92,-41.76zm881.79 13.51c7.59,9.56 11.52,22.37 11.77,38.49 0.28,16.09 -1.74,33.69 -6.09,52.8 -4.33,19.09 -10.55,38.48 -18.67,58.12 -11.91,-2.72 -21.52,1.78 -28.83,13.5 -7.3,11.75 -7.16,23.62 0.42,35.63 -16.26,19.1 -34.65,28.64 -55.22,28.64 -39.51,0 -52.25,-36.56 -38.16,-109.7 6.5,-32.74 19.35,-62.49 38.56,-89.23 19.23,-26.75 40.19,-40.67 62.93,-41.76 14.61,-0.54 25.72,3.95 33.29,13.51zm618.48 154.47c-12.63,50.95 -22.47,83.94 -29.46,98.93 -1.63,9.27 3.52,16.23 15.43,20.87 11.91,4.63 25.17,6.13 39.79,4.49 14.62,-1.63 24.08,-5.72 28.41,-12.28 4.35,-9.27 8.93,-22.78 13.8,-40.52 4.88,-17.74 10.83,-41.2 17.87,-70.41 7.04,-29.21 13,-52.26 17.88,-69.17 75.77,22.91 141.54,18.69 197.3,-12.7 26.29,-14.79 47.58,-33.75 63.88,-56.85 -7.27,33.52 -12.2,63.68 -14.77,90.42 -2.97,30.84 -2.57,59.5 1.21,85.96 3.8,26.48 13.41,47.48 28.83,63.05 15.43,15.56 36.41,24.95 62.93,28.23 26.53,2.73 50.62,0.27 72.27,-7.36 21.66,-7.64 41,-20.48 58.06,-38.48 11.36,-12.02 21.62,-24.22 30.7,-36.61 -0.85,20.15 2.71,37.4 10.7,51.75 11.1,19.92 31.81,30.15 62.12,30.7 58.99,1.64 109.88,-33.01 152.65,-103.97 -6.5,25.66 -5.29,48.84 3.64,69.6 8.96,20.73 24.24,30.95 45.89,31.09 52.89,0.36 104.9,-45.49 156.04,-137.89 1.69,-0.63 2.99,-1.87 3.92,-3.73 41.69,-87.87 79.84,-148.73 114.49,-182.58 1.63,21.3 8.79,53.92 21.51,97.85 12.73,43.94 18.82,76.01 18.28,96.19 -11.93,0 -19.75,6.96 -23.56,20.87 -3.78,13.93 -0.26,25.78 10.55,35.62 -9.2,13.1 -22.19,19.64 -38.97,19.64 -13.52,0 -24.22,-5.44 -32.06,-16.37 -7.85,-10.91 -10.69,-24.83 -8.54,-41.75 -4.87,-5.46 -13.92,-6.41 -27.19,-2.86 -13.27,3.55 -21.51,10.5 -24.77,20.87 -1.62,30.57 6.9,54.71 25.57,72.46 18.68,17.73 41.01,26.6 66.99,26.6 24.36,0.56 46.97,-3.95 67.81,-13.5 20.83,-9.56 37.22,-22.78 49.11,-39.72 66.59,2.2 118.3,-37.93 155.11,-120.33 1.07,-2.73 -0.56,-6.15 -4.89,-10.24 -4.32,-4.09 -8.79,-6.82 -13.39,-8.19 -4.6,-1.36 -7.99,-0.96 -10.16,1.24 -27.59,64.94 -64.13,98.5 -109.61,100.68 5.41,-16.37 6.76,-35.88 4.06,-58.53 -2.7,-22.64 -6.63,-41.34 -11.77,-56.07 -5.15,-14.74 -11.36,-34.8 -18.68,-60.18 -7.31,-25.37 -12.31,-48.99 -15.03,-70.81 8.13,-10.93 11.91,-21.01 11.38,-30.3 -0.54,-14.72 -10.01,-23.74 -28.42,-27.01 -25.99,-4.91 -50.94,4.61 -75.52,27.83 -39.56,37.39 -79.07,95.4 -117.99,174.59 -15.7,35.54 -33.84,65.83 -54.96,91.48 -21.11,25.66 -39.23,38.21 -54.38,37.65 -5.43,0 -9.35,-3.54 -11.8,-10.63 -2.43,-7.1 -2.97,-17.33 -1.6,-30.69 1.35,-13.38 3.37,-27.16 6.07,-41.36 2.72,-14.2 6.64,-31.25 11.78,-51.17 5.14,-19.92 9.61,-36.84 13.4,-50.76 3.79,-13.9 8.52,-30.41 14.21,-49.52 5.68,-19.1 9.34,-31.92 10.95,-38.48 -2.69,-11.46 -16.23,-18.56 -40.58,-21.28 -24.37,-2.72 -38.98,0.54 -43.86,9.82 -23.81,84.05 -40.05,139.45 -48.71,166.18 -11.91,33.3 -28.55,61.28 -49.94,83.93 -21.39,22.64 -40.47,33.96 -57.24,33.96 -13.54,0 -20.43,-8.98 -20.7,-27.02 -0.28,-18 3.1,-38.74 10.14,-62.19 5.95,-25.66 14.88,-61.28 26.79,-106.85 11.91,-45.58 18.68,-71.36 20.31,-77.37 0,-10.91 -12.86,-17.74 -38.58,-20.46 -25.7,-2.72 -41,1.09 -45.87,11.46 -1.62,5.46 -10.83,37.94 -27.61,97.42 -5.96,21.16 -11.24,40.59 -15.84,58.29 -17.65,37.06 -39.71,68.39 -66.16,93.98 -27.07,26.21 -54.41,38.21 -82.01,36.02 -47.65,-3.81 -61.18,-52.94 -40.6,-147.35 51.97,-21.84 95.27,-51.44 129.91,-88.83 34.64,-37.39 58.74,-79.82 72.27,-127.3 11.36,-42.57 11.78,-76.83 1.22,-102.76 -10.56,-25.92 -28.83,-42.01 -54.81,-48.3 -25.98,-6.26 -51.97,-0.68 -77.94,16.78 -29.78,19.65 -56.72,54.03 -80.8,103.16 -8.04,16.4 -15.57,33.56 -22.55,51.49 -0.69,-48.52 -19.84,-87.95 -57.42,-118.22 -47.08,-37.93 -105.55,-57.44 -175.39,-58.53 -75.79,-1.08 -141.68,15.83 -197.71,50.76 -56.02,34.93 -84.05,81.33 -84.05,139.17 0,40.4 16.79,72.05 50.35,94.99 10.84,4.9 23.14,2.3 36.94,-7.79 13.81,-10.1 19.36,-19.51 16.65,-28.26 -18.41,-34.9 -21.38,-66.57 -8.93,-94.95 12.45,-28.38 36.27,-51.44 71.45,-69.18 35.19,-17.73 73.89,-26.07 116.12,-24.97 43.29,1.63 79.02,15.41 107.19,41.34 28.14,25.92 38.7,61.28 31.66,106.02 -7.04,49.67 -28.43,85.42 -64.16,107.25 -35.72,21.83 -78.75,25.65 -129.11,11.47 10.3,-38.76 18.69,-68.78 25.19,-90.06 6.49,-21.3 15.41,-43.81 26.8,-67.54 11.36,-23.76 22.71,-38.89 34.09,-45.45 3.78,-5.45 0.55,-10.9 -9.73,-16.36 -16.79,-9.27 -32.76,-10.92 -47.92,-4.92 -29.23,12.55 -54.94,48.17 -77.13,106.83 -17.68,46.75 -33.83,98.28 -48.42,154.56 -8,17.37 -151.8,156.13 -176.04,156.13 -15.15,0 -18.39,-20.46 -9.74,-61.4 3.25,-13.63 9.21,-34.51 17.86,-62.62 8.68,-28.12 14.35,-48.17 17.06,-60.18 8.13,-34.91 7.3,-62.62 -2.43,-83.08 -9.76,-20.47 -29.51,-30.98 -59.29,-31.53 -42.21,-0.54 -88.23,28.39 -138.03,86.78 0.55,-1.08 6.5,-22.37 17.87,-63.86 -3.78,-12.01 -17.18,-19.23 -40.2,-21.7 -23,-2.45 -37.76,0.97 -44.26,10.25 -16.31,60 -30.34,111.8 -42.08,155.38 -0.33,0.28 -0.65,0.61 -0.94,0.98 -29.77,70.96 -70.37,103.7 -121.8,98.25 17.34,-28.93 29.51,-59.1 36.54,-90.48 7.03,-31.38 8.38,-60.16 4.07,-86.35 -4.34,-26.22 -16.8,-47.77 -37.36,-64.69 -20.57,-16.93 -48.18,-25.1 -82.82,-24.56 -48.72,1.1 -92.29,18.84 -130.73,53.21 -34.83,31.16 -58.56,71.09 -71.15,119.73 -13.81,32.3 -31.78,61.02 -53.89,86.17 -23.28,26.49 -44.12,39.7 -62.52,39.7 -8.12,0.56 -12.72,-4.22 -13.82,-14.32 -1.08,-10.1 0.28,-23.33 4.07,-39.7 2.71,-12.01 23.02,-86.25 60.9,-222.68 -2.71,-9.83 -15.96,-16.37 -39.79,-19.65 -23.82,-3.28 -38.97,-0.27 -45.47,9.01 -17.7,62.04 -32.22,114.05 -43.53,156.02 -17.08,39.09 -38.47,70.75 -64.46,95.31 -25.98,24.57 -50.87,36.57 -74.7,36.01 -34.63,-0.54 -42.23,-44.47 -22.73,-131.79 5.4,-25.13 15.96,-65.23 31.66,-120.34l76.33 0c6.5,-2.2 10.96,-10.25 13.39,-24.17 2.44,-13.91 0.14,-23.87 -6.89,-29.88l-68.22 0c20.04,-66.03 38.45,-122.8 55.23,-170.28 -0.55,-11.46 -13.68,-19.25 -39.38,-23.34 -25.72,-4.08 -41.28,-1.77 -46.69,6.96 -16.78,42.57 -37.62,104.79 -62.53,186.66l-32.47 0c-7.04,2.73 -11.78,11.19 -14.23,25.38 -2.43,14.19 0.14,23.74 7.73,28.67l24.36 0c-7.58,29.46 -13.54,54.02 -17.86,73.67 -3.05,13.78 -6.03,29.31 -8.92,46.59 -0.29,0.27 -0.57,0.57 -0.82,0.89 -29.78,70.96 -70.38,103.7 -121.81,98.25 17.33,-28.93 29.51,-59.1 36.54,-90.48 7.04,-31.38 8.4,-60.16 4.07,-86.35 -4.34,-26.22 -16.78,-47.77 -37.36,-64.69 -20.57,-16.93 -48.16,-25.1 -82.81,-24.56 -48.73,1.1 -92.31,18.84 -130.73,53.21 -35.79,32.02 -59.86,73.3 -72.18,123.79 -13.9,31.14 -30.86,58.65 -50.84,82.52 -21.93,26.2 -40.46,39.29 -55.61,39.29 -5.96,0 -10.15,-2.46 -12.61,-7.36 -2.43,-4.92 -3.38,-11.73 -2.83,-20.46 0.54,-8.74 1.76,-18.3 3.66,-28.66 1.88,-10.37 4.73,-21.97 8.52,-34.8 3.78,-12.82 7.31,-24.83 10.56,-36.01 3.25,-11.2 6.76,-22.94 10.55,-35.21 3.78,-12.28 6.49,-21.97 8.12,-29.07 16.24,-71.49 -4.86,-107.24 -63.33,-107.24 -43.31,-0.54 -86.08,26.75 -128.3,81.87 4.33,-24.57 1.36,-44.36 -8.93,-59.36 -10.27,-15.01 -26.24,-22.51 -47.91,-22.51 -22.19,-0.54 -44.92,8.04 -68.2,25.78 -23.28,17.73 -43.31,38.35 -60.09,61.81l17.86 -64.67c-2.16,-11.45 -15.14,-18.7 -38.97,-21.7 -23.83,-3 -38.98,0.14 -45.46,9.42 -9.62,37.13 -23.57,89.38 -41.85,156.74 -30.15,71.41 -70.75,104.15 -122.17,98.7 17.32,-28.93 29.5,-59.1 36.54,-90.48 7.03,-31.38 8.38,-60.16 4.05,-86.35 -4.32,-26.22 -16.78,-47.77 -37.35,-64.69 -20.56,-16.93 -48.17,-25.1 -82.82,-24.56 -48.71,1.1 -92.29,18.84 -130.72,53.21 -35.07,31.37 -58.88,71.6 -71.42,120.71 -19.28,40.72 -41.34,71.31 -66.22,91.74 -26.26,21.57 -50.48,32.35 -72.67,32.35 -24.36,0 -35.46,-13.93 -33.29,-41.76 2.16,-31.66 22.73,-72.31 61.7,-121.98 6.5,-8.19 10.03,-16.92 10.56,-26.2 0.55,-9.28 -0.94,-17.88 -4.46,-25.79 -3.52,-7.92 -9.2,-16.65 -17.06,-26.2 -7.83,-9.54 -15.55,-17.74 -23.14,-24.55 -7.57,-6.84 -16.65,-15.15 -27.2,-24.98 -10.56,-9.83 -18.8,-17.74 -24.76,-23.74 2.16,-9.28 3.24,-17.75 3.24,-25.39 0.54,-25.09 -8.66,-39.29 -27.6,-42.56 -17.33,-3.27 -31.67,2.45 -43.04,17.18 -17.86,22.38 -15.42,49.95 7.31,82.7 -16.78,60.58 -39.79,120.89 -69.03,180.92 -1.6,3.28 -0.25,6.96 4.08,11.06 4.32,4.09 8.92,6.54 13.8,7.36 4.88,0.82 8.66,-0.14 11.36,-2.86 28.14,-55.66 50.61,-113.79 67.4,-174.38 1.62,1.64 5.41,5.73 11.38,12.29 5.95,6.53 10.27,11.72 12.99,15.56 2.69,3.81 5.67,8.72 8.92,14.72 3.25,6.01 4.74,11.73 4.47,17.21 -0.29,5.45 -2.3,10.89 -6.09,16.36 -14.07,20.74 -25.04,37.8 -32.89,51.17 -7.85,13.36 -15.57,29.88 -23.13,49.52 -7.58,19.65 -11.38,37.66 -11.38,54.03 0,26.2 8,47.36 23.95,63.46 15.97,16.1 39.39,24.66 70.24,24.96 64.15,0.64 118.3,-32.56 162.45,-98.9 2.34,24.2 9.91,43.8 22.68,58.78 23.28,27.31 56.85,40.96 100.69,40.96 51.96,0 97.17,-18.85 135.6,-56.5 49.22,10.33 91.44,-1.32 126.64,-34.95 -6.69,25.24 -12.37,46.97 -17.02,65.24 -1.09,8.73 5.41,15.01 19.49,18.82 14.06,3.83 28.81,4.63 44.24,2.46 15.43,-2.18 24.23,-6.27 26.4,-12.27 17.84,-76.96 33.27,-137.82 46.29,-182.58 14.06,-25.11 29.9,-46.39 47.49,-63.85 17.59,-17.47 32.61,-26.19 45.07,-26.19 10.82,-0.56 17.18,4.49 19.07,15.14 1.89,10.64 0.95,21.42 -2.84,32.33 -24.36,98.25 -42.23,171.92 -53.59,221.05 1.62,11.46 15.83,17.18 42.62,17.18 26.81,0 42.36,-4.63 46.69,-13.92 3.25,-12.53 10.03,-40.65 20.31,-84.31 10.28,-43.66 18.13,-75.32 23.54,-94.97 9.21,-22.37 23.68,-43.52 43.44,-63.45 19.76,-19.92 36.68,-30.14 50.75,-30.69 18.41,0 23.55,17.45 15.43,52.39 -23.82,97.14 -35.73,146.27 -35.73,147.36 -5.4,29.48 -2.43,52.27 8.94,68.36 11.36,16.1 32.21,23.61 62.52,22.51 46.8,-1.64 90.68,-34.42 131.66,-98.35 2.38,23.96 9.93,43.36 22.62,58.23 23.28,27.31 56.84,40.96 100.69,40.96 51.95,0 97.17,-18.85 135.59,-56.5 58.47,12.28 107.07,-6.48 145.74,-56.23 0.13,4.22 0.41,8.23 0.83,12.02 1.88,17.47 5.95,34.52 12.16,51.16 6.23,16.65 16.92,28.93 32.08,36.85 15.16,7.91 34.1,11.86 56.84,11.86 48.62,-0.35 91.8,-25.01 129.49,-73.95 -1.52,19.8 1.19,35.86 8.15,48.17 10,17.73 31.25,26.34 63.73,25.78 20.02,-0.55 39.51,-6.14 58.46,-16.79 18.94,-10.63 35.88,-24.83 50.75,-42.56 11.52,-13.72 21.9,-27.52 31.15,-41.41 2.12,25.05 9.73,45.28 22.85,60.64 23.27,27.31 56.83,40.96 100.68,40.96 51.95,0 97.18,-18.85 135.6,-56.5 49.55,10.41 91.99,-1.48 127.33,-35.6 -9.28,34.91 -15.18,57.7 -17.72,68.34 0.54,12.56 14.75,19.23 42.63,20.06 27.88,0.81 43.98,-3.69 48.31,-13.5 19.49,-84.6 35.74,-148.74 48.72,-192.4 16.25,-21.84 33.83,-40.52 52.79,-56.08 18.93,-15.55 35.18,-23.6 48.71,-24.14 12.45,-0.56 19.62,4.63 21.52,15.55 1.89,10.9 0.67,22.65 -3.66,35.2 -1.62,7.1 -7.45,31.39 -17.46,72.86 -10,41.48 -15.84,67.41 -17.44,77.78 -4.88,27.82 -1.77,49.52 9.32,65.08 11.11,15.56 31.53,23 61.3,22.51 50.61,-0.84 170.78,-95.46 188.14,-130.02l0 0zm563.28 -379.2c10.82,1.64 15.01,13.38 12.58,35.21 -2.43,21.83 -10.69,48.85 -24.77,81.06 -25.45,57.84 -59.55,101.52 -102.3,130.98 12.44,-48.04 28.42,-96.6 47.91,-145.73 12.44,-32.74 24.08,-57.99 34.92,-75.73 10.82,-17.74 21.37,-26.32 31.66,-25.79zm916.23 463.38c1.08,-12.55 -2.17,-23.05 -9.74,-31.52 -7.59,-8.45 -17.87,-12.68 -30.86,-12.68 -11.9,0 -22.46,4.23 -31.67,12.68 -9.2,8.47 -14.33,18.69 -15.42,30.7 -1.09,12.56 2.44,23.2 10.54,31.93 8.13,8.73 18.15,13.1 30.05,13.1 11.91,0 22.46,-4.37 31.67,-13.1 9.21,-8.73 14.35,-19.12 15.43,-31.11zm562.61 -371.68c10.54,-9.28 16.62,-21.29 18.26,-36.03 2.16,-14.19 -0.81,-25.92 -8.94,-35.2 -8.11,-9.27 -19.48,-13.92 -34.1,-13.92 -14.61,-0.55 -27.2,3.84 -37.76,13.11 -10.55,9.28 -17.18,21.27 -19.89,36.01 -2.16,14.19 0.96,26.08 9.34,35.61 8.4,9.56 19.35,14.34 32.89,14.34 16.24,0 29.64,-4.64 40.2,-13.92zm-367.02 295.13c-7.31,11.74 -7.45,23.33 -0.41,34.8 -18.95,22.92 -41.14,33.02 -66.58,30.28 -16.25,-1.63 -27.61,-9.68 -34.11,-24.14 -6.49,-14.47 -8.38,-32.62 -5.69,-54.44 2.71,-21.85 6.52,-42.44 11.39,-61.81 4.86,-19.39 10.81,-38.62 17.84,-57.72 34.67,-30.57 65.24,-45.04 91.76,-43.4 15.71,0.55 26.94,7.11 33.7,19.66 6.78,12.55 9.07,27.97 6.89,46.25 -2.16,18.29 -5.53,35.61 -10.14,51.99 -4.6,16.37 -9.87,31.38 -15.82,45.03 -11.91,-2.74 -21.53,1.78 -28.83,13.5zm475.41 -302.49c-16.25,20.18 -14.62,45.03 4.87,74.5 -13.61,44.93 -34.75,98.7 -63.4,161.28 -1.94,4.25 -3.94,8.55 -5.95,12.89 -13.38,29.48 -30.32,55.88 -50.83,79.2 -23.27,26.49 -44.12,39.7 -62.51,39.7 -8.12,0.56 -12.73,-4.22 -13.81,-14.32 -1.08,-10.1 0.28,-23.33 4.06,-39.7 2.71,-12.01 23.01,-86.25 60.9,-222.68 -2.72,-9.83 -15.97,-16.37 -39.79,-19.65 -23.82,-3.28 -38.97,-0.27 -45.45,9.01 -17.7,61.96 -32.21,113.91 -43.53,155.85 -29.57,69.83 -70.44,102.85 -122.95,99.56 22.19,-35.48 36.82,-72.31 43.86,-110.51 7.03,-38.21 3.52,-71.9 -10.56,-101.11 -14.06,-29.2 -38.71,-46.26 -73.9,-51.17 -38.98,-4.91 -78.22,7.09 -117.72,36.03 30.84,-105.89 55.47,-182.83 73.87,-230.88 0,-10.37 -12.03,-17.86 -36.11,-22.51 -24.1,-4.64 -40.75,-3.14 -49.95,4.51 -14.61,38.2 -28.96,78.45 -43.03,120.75 -14.07,42.31 -28.03,94.28 -41.83,155.96 -13.78,61.67 -19.35,110.51 -16.64,146.55 -1.63,43.11 5.42,77.23 21.13,102.33 15.69,25.1 44.1,37.93 85.25,38.46 49.25,0.57 93.37,-17.45 132.34,-54.02 51.84,10.25 95.87,-2.49 132.05,-38.17 -5.32,28.78 -3.47,51.18 5.59,67.24 10.02,17.73 31.25,26.34 63.73,25.78 20.03,-0.55 39.52,-6.14 58.46,-16.79 18.96,-10.63 35.88,-24.83 50.77,-42.56 14.88,-17.74 27.87,-35.61 38.97,-53.62 6.28,-10.21 12.36,-20.86 18.26,-31.93 34.64,-68.23 59.82,-126.35 75.52,-174.38 12.45,18.56 30.58,31.93 54.39,40.12 23.83,8.18 46.56,10.63 68.21,7.37 -41.14,63.87 -93.11,127.98 -155.9,192.39 -28.69,9.26 -44.93,23.74 -48.71,43.38 -3.25,16.92 2.97,29.47 18.67,37.66 21.11,11.46 46.01,5.73 74.71,-17.19 17.31,-2.17 37.34,0.82 60.07,9 22.73,8.19 43.32,12.01 61.72,11.47 35.71,-1.1 70.38,-17.73 103.93,-49.94 33.56,-32.2 61.98,-74.49 85.26,-126.89 1.09,-2.73 -0.54,-6.15 -4.87,-10.24 -4.32,-4.09 -8.81,-6.82 -13.39,-8.19 -4.61,-1.36 -7.99,-0.69 -10.17,2.05 -18.4,41.48 -39.36,73.69 -62.92,96.6 -23.54,22.94 -47.5,34.94 -71.86,36.03 -13.54,1.09 -29.64,-1.23 -48.31,-6.97 -18.68,-5.72 -33.43,-8.59 -44.25,-8.59 9.73,-9.28 19.08,-18.82 28,-28.65 8.94,-9.82 17.88,-20.32 26.8,-31.52 8.94,-11.19 16.51,-20.87 22.74,-29.07 6.22,-8.17 14.08,-18.96 23.54,-32.34 9.48,-13.36 16.39,-23.05 20.71,-29.05 4.34,-6.01 11.78,-16.64 22.34,-31.93 10.55,-15.28 17.45,-25.38 20.7,-30.29 5.96,-10.38 7.45,-20.34 4.46,-29.9 -2.97,-9.54 -11.77,-16.23 -26.38,-20.04 -14.63,-3.83 -31.41,-2.73 -50.35,3.27 -26.52,5.46 -51.69,4.92 -75.52,-1.64 -23.81,-6.54 -41.41,-18.56 -52.77,-36.01 1.08,-4.38 1.9,-8.74 2.43,-13.12 3.79,-32.72 -4.32,-52.11 -24.35,-58.11 -15.17,-4.91 -28.7,0 -40.6,14.74z"/>
   <path id="1" class="fil0 str0" d="M7518.26 24609.34c10.83,-66.59 -7.3,-118.85 -54.4,-156.8 -47.09,-37.93 -105.55,-57.44 -175.39,-58.53 -75.78,-1.08 -141.68,15.83 -197.71,50.76 -56.03,34.93 -84.04,81.33 -84.04,139.17 0,40.4 16.77,72.05 50.34,94.99 10.82,4.9 23.14,2.3 36.94,-7.79 13.82,-10.1 19.35,-19.51 16.66,-28.26 -18.41,-34.9 -21.39,-66.57 -8.94,-94.95 12.45,-28.38 36.28,-51.44 71.45,-69.18 35.18,-17.73 73.89,-26.07 116.12,-24.97 43.3,1.63 79.03,15.41 107.17,41.34 28.16,25.92 38.72,61.28 31.67,106.02 -7.03,49.67 -28.41,85.42 -64.15,107.25 -35.71,21.83 -78.76,25.65 -129.1,11.47 10.29,-38.76 18.67,-68.78 25.17,-90.06 6.5,-21.3 15.43,-43.81 26.79,-67.54 11.38,-23.76 22.74,-38.89 34.11,-45.45 3.79,-5.45 0.54,-10.9 -9.74,-16.36 -16.78,-9.27 -32.75,-10.92 -47.92,-4.92 -29.23,12.55 -54.94,48.17 -77.13,106.83 -22.19,58.68 -41.95,124.86 -59.27,198.54 -17.33,73.68 -30.31,119.81 -38.98,138.37 -1.62,9.27 3.51,16.23 15.42,20.87 11.93,4.63 25.19,6.13 39.8,4.49 14.61,-1.63 24.09,-5.72 28.42,-12.28 4.33,-9.27 8.93,-22.78 13.8,-40.52 4.88,-17.74 10.83,-41.2 17.87,-70.41 7.03,-29.21 12.99,-52.26 17.86,-69.17 75.79,22.91 141.55,18.69 197.32,-12.7 55.75,-31.38 89.03,-81.45 99.86,-150.21zm2092.96 -92.53c2.15,-14.19 -0.83,-25.92 -8.95,-35.2 -8.11,-9.27 -19.49,-13.92 -34.09,-13.92 -14.63,-0.55 -27.21,3.84 -37.76,13.11 -10.55,9.28 -17.19,21.27 -19.89,36.01 -2.18,14.19 0.94,26.08 9.34,35.61 8.38,9.56 19.35,14.34 32.88,14.34 16.24,0 29.64,-4.64 40.2,-13.92 10.55,-9.28 16.63,-21.29 18.27,-36.03zm-1598.78 155.55c14.6,-0.54 25.71,3.95 33.29,13.51 7.57,9.56 11.49,22.37 11.77,38.49 0.28,16.09 -1.77,33.69 -6.09,52.8 -4.33,19.09 -10.55,38.48 -18.67,58.12 -11.91,-2.72 -21.52,1.78 -28.83,13.5 -7.32,11.75 -7.16,23.62 0.4,35.63 -16.24,19.1 -34.63,28.64 -55.22,28.64 -39.5,0 -52.23,-36.56 -38.14,-109.7 6.47,-32.74 19.35,-62.49 38.56,-89.23 19.21,-26.75 40.19,-40.67 62.93,-41.76zm970.31 0c14.61,-0.54 25.72,3.95 33.3,13.51 7.56,9.56 11.49,22.37 11.76,38.49 0.28,16.09 -1.76,33.69 -6.08,52.8 -4.33,19.09 -10.56,38.48 -18.69,58.12 -11.91,-2.72 -21.5,1.78 -28.83,13.5 -7.3,11.75 -7.15,23.62 0.42,35.63 -16.25,19.1 -34.65,28.64 -55.22,28.64 -39.52,0 -52.24,-36.56 -38.17,-109.7 6.5,-32.74 19.36,-62.49 38.59,-89.23 19.21,-26.75 40.19,-40.67 62.92,-41.76zm881.79 13.51c7.59,9.56 11.52,22.37 11.77,38.49 0.28,16.09 -1.74,33.69 -6.09,52.8 -4.33,19.09 -10.55,38.48 -18.67,58.12 -11.91,-2.72 -21.52,1.78 -28.83,13.5 -7.3,11.75 -7.16,23.62 0.42,35.63 -16.26,19.1 -34.65,28.64 -55.22,28.64 -39.51,0 -52.25,-36.56 -38.16,-109.7 6.5,-32.74 19.35,-62.49 38.56,-89.23 19.23,-26.75 40.19,-40.67 62.93,-41.76 14.61,-0.54 25.72,3.95 33.29,13.51zm618.48 154.47c-12.63,50.95 -22.47,83.94 -29.46,98.93 -1.63,9.27 3.52,16.23 15.43,20.87 11.91,4.63 25.17,6.13 39.79,4.49 14.62,-1.63 24.08,-5.72 28.41,-12.28 4.35,-9.27 8.93,-22.78 13.8,-40.52 4.88,-17.74 10.83,-41.2 17.87,-70.41 7.04,-29.21 13,-52.26 17.88,-69.17 75.77,22.91 141.54,18.69 197.3,-12.7 26.29,-14.79 47.58,-33.75 63.88,-56.85 -7.27,33.52 -12.2,63.68 -14.77,90.42 -2.97,30.84 -2.57,59.5 1.21,85.96 3.8,26.48 13.41,47.48 28.83,63.05 15.43,15.56 36.41,24.95 62.93,28.23 26.53,2.73 50.62,0.27 72.27,-7.36 21.66,-7.64 41,-20.48 58.06,-38.48 11.36,-12.02 21.62,-24.22 30.7,-36.61 -0.85,20.15 2.71,37.4 10.7,51.75 11.1,19.92 31.81,30.15 62.12,30.7 58.99,1.64 109.88,-33.01 152.65,-103.97 -6.5,25.66 -5.29,48.84 3.64,69.6 8.96,20.73 24.24,30.95 45.89,31.09 52.89,0.36 104.9,-45.49 156.04,-137.89 1.69,-0.63 2.99,-1.87 3.92,-3.73 41.69,-87.87 79.84,-148.73 114.49,-182.58 1.63,21.3 8.79,53.92 21.51,97.85 12.73,43.94 18.82,76.01 18.28,96.19 -11.93,0 -19.75,6.96 -23.56,20.87 -3.78,13.93 -0.26,25.78 10.55,35.62 -9.2,13.1 -22.19,19.64 -38.97,19.64 -13.52,0 -24.22,-5.44 -32.06,-16.37 -7.85,-10.91 -10.69,-24.83 -8.54,-41.75 -4.87,-5.46 -13.92,-6.41 -27.19,-2.86 -13.27,3.55 -21.51,10.5 -24.77,20.87 -1.62,30.57 6.9,54.71 25.57,72.46 18.68,17.73 41.01,26.6 66.99,26.6 24.36,0.56 46.97,-3.95 67.81,-13.5 20.83,-9.56 37.22,-22.78 49.11,-39.72 66.59,2.2 118.3,-37.93 155.11,-120.33 1.07,-2.73 -0.56,-6.15 -4.89,-10.24 -4.32,-4.09 -8.79,-6.82 -13.39,-8.19 -4.6,-1.36 -7.99,-0.96 -10.16,1.24 -27.59,64.94 -64.13,98.5 -109.61,100.68 5.41,-16.37 6.76,-35.88 4.06,-58.53 -2.7,-22.64 -6.63,-41.34 -11.77,-56.07 -5.15,-14.74 -11.36,-34.8 -18.68,-60.18 -7.31,-25.37 -12.31,-48.99 -15.03,-70.81 8.13,-10.93 11.91,-21.01 11.38,-30.3 -0.54,-14.72 -10.01,-23.74 -28.42,-27.01 -25.99,-4.91 -50.94,4.61 -75.52,27.83 -39.56,37.39 -79.07,95.4 -117.99,174.59 -15.7,35.54 -33.84,65.83 -54.96,91.48 -21.11,25.66 -39.23,38.21 -54.38,37.65 -5.43,0 -9.35,-3.54 -11.8,-10.63 -2.43,-7.1 -2.97,-17.33 -1.6,-30.69 1.35,-13.38 3.37,-27.16 6.07,-41.36 2.72,-14.2 6.64,-31.25 11.78,-51.17 5.14,-19.92 9.61,-36.84 13.4,-50.76 3.79,-13.9 8.52,-30.41 14.21,-49.52 5.68,-19.1 9.34,-31.92 10.95,-38.48 -2.69,-11.46 -16.23,-18.56 -40.58,-21.28 -24.37,-2.72 -38.98,0.54 -43.86,9.82 -23.81,84.05 -40.05,139.45 -48.71,166.18 -11.91,33.3 -28.55,61.28 -49.94,83.93 -21.39,22.64 -40.47,33.96 -57.24,33.96 -13.54,0 -20.43,-8.98 -20.7,-27.02 -0.28,-18 3.1,-38.74 10.14,-62.19 5.95,-25.66 14.88,-61.28 26.79,-106.85 11.91,-45.58 18.68,-71.36 20.31,-77.37 0,-10.91 -12.86,-17.74 -38.58,-20.46 -25.7,-2.72 -41,1.09 -45.87,11.46 -1.62,5.46 -10.83,37.94 -27.61,97.42 -5.96,21.16 -11.24,40.59 -15.84,58.29 -17.65,37.06 -39.71,68.39 -66.16,93.98 -27.07,26.21 -54.41,38.21 -82.01,36.02 -47.65,-3.81 -61.18,-52.94 -40.6,-147.35 51.97,-21.84 95.27,-51.44 129.91,-88.83 34.64,-37.39 58.74,-79.82 72.27,-127.3 11.36,-42.57 11.78,-76.83 1.22,-102.76 -10.56,-25.92 -28.83,-42.01 -54.81,-48.3 -25.98,-6.26 -51.97,-0.68 -77.94,16.78 -29.78,19.65 -56.72,54.03 -80.8,103.16 -8.04,16.4 -15.57,33.56 -22.55,51.49 -0.69,-48.52 -19.84,-87.95 -57.42,-118.22 -47.08,-37.93 -105.55,-57.44 -175.39,-58.53 -75.79,-1.08 -141.68,15.83 -197.71,50.76 -56.02,34.93 -84.05,81.33 -84.05,139.17 0,40.4 16.79,72.05 50.35,94.99 10.84,4.9 23.14,2.3 36.94,-7.79 13.81,-10.1 19.36,-19.51 16.65,-28.26 -18.41,-34.9 -21.38,-66.57 -8.93,-94.95 12.45,-28.38 36.27,-51.44 71.45,-69.18 35.19,-17.73 73.89,-26.07 116.12,-24.97 43.29,1.63 79.02,15.41 107.19,41.34 28.14,25.92 38.7,61.28 31.66,106.02 -7.04,49.67 -28.43,85.42 -64.16,107.25 -35.72,21.83 -78.75,25.65 -129.11,11.47 10.3,-38.76 18.69,-68.78 25.19,-90.06 6.49,-21.3 15.41,-43.81 26.8,-67.54 11.36,-23.76 22.71,-38.89 34.09,-45.45 3.78,-5.45 0.55,-10.9 -9.73,-16.36 -16.79,-9.27 -32.76,-10.92 -47.92,-4.92 -29.23,12.55 -54.94,48.17 -77.13,106.83 -17.68,46.75 -33.83,98.28 -48.42,154.56 -8,17.37 -151.8,156.13 -176.04,156.13 -15.15,0 -18.39,-20.46 -9.74,-61.4 3.25,-13.63 9.21,-34.51 17.86,-62.62 8.68,-28.12 14.35,-48.17 17.06,-60.18 8.13,-34.91 7.3,-62.62 -2.43,-83.08 -9.76,-20.47 -29.51,-30.98 -59.29,-31.53 -42.21,-0.54 -88.23,28.39 -138.03,86.78 0.55,-1.08 6.5,-22.37 17.87,-63.86 -3.78,-12.01 -17.18,-19.23 -40.2,-21.7 -23,-2.45 -37.76,0.97 -44.26,10.25 -16.31,60 -30.34,111.8 -42.08,155.38 -0.33,0.28 -0.65,0.61 -0.94,0.98 -29.77,70.96 -70.37,103.7 -121.8,98.25 17.34,-28.93 29.51,-59.1 36.54,-90.48 7.03,-31.38 8.38,-60.16 4.07,-86.35 -4.34,-26.22 -16.8,-47.77 -37.36,-64.69 -20.57,-16.93 -48.18,-25.1 -82.82,-24.56 -48.72,1.1 -92.29,18.84 -130.73,53.21 -34.83,31.16 -58.56,71.09 -71.15,119.73 -13.81,32.3 -31.78,61.02 -53.89,86.17 -23.28,26.49 -44.12,39.7 -62.52,39.7 -8.12,0.56 -12.72,-4.22 -13.82,-14.32 -1.08,-10.1 0.28,-23.33 4.07,-39.7 2.71,-12.01 23.02,-86.25 60.9,-222.68 -2.71,-9.83 -15.96,-16.37 -39.79,-19.65 -23.82,-3.28 -38.97,-0.27 -45.47,9.01 -17.7,62.04 -32.22,114.05 -43.53,156.02 -17.08,39.09 -38.47,70.75 -64.46,95.31 -25.98,24.57 -50.87,36.57 -74.7,36.01 -34.63,-0.54 -42.23,-44.47 -22.73,-131.79 5.4,-25.13 15.96,-65.23 31.66,-120.34l76.33 0c6.5,-2.2 10.96,-10.25 13.39,-24.17 2.44,-13.91 0.14,-23.87 -6.89,-29.88l-68.22 0c20.04,-66.03 38.45,-122.8 55.23,-170.28 -0.55,-11.46 -13.68,-19.25 -39.38,-23.34 -25.72,-4.08 -41.28,-1.77 -46.69,6.96 -16.78,42.57 -37.62,104.79 -62.53,186.66l-32.47 0c-7.04,2.73 -11.78,11.19 -14.23,25.38 -2.43,14.19 0.14,23.74 7.73,28.67l24.36 0c-7.58,29.46 -13.54,54.02 -17.86,73.67 -3.05,13.78 -6.03,29.31 -8.92,46.59 -0.29,0.27 -0.57,0.57 -0.82,0.89 -29.78,70.96 -70.38,103.7 -121.81,98.25 17.33,-28.93 29.51,-59.1 36.54,-90.48 7.04,-31.38 8.4,-60.16 4.07,-86.35 -4.34,-26.22 -16.78,-47.77 -37.36,-64.69 -20.57,-16.93 -48.16,-25.1 -82.81,-24.56 -48.73,1.1 -92.31,18.84 -130.73,53.21 -35.79,32.02 -59.86,73.3 -72.18,123.79 -13.9,31.14 -30.86,58.65 -50.84,82.52 -21.93,26.2 -40.46,39.29 -55.61,39.29 -5.96,0 -10.15,-2.46 -12.61,-7.36 -2.43,-4.92 -3.38,-11.73 -2.83,-20.46 0.54,-8.74 1.76,-18.3 3.66,-28.66 1.88,-10.37 4.73,-21.97 8.52,-34.8 3.78,-12.82 7.31,-24.83 10.56,-36.01 3.25,-11.2 6.76,-22.94 10.55,-35.21 3.78,-12.28 6.49,-21.97 8.12,-29.07 16.24,-71.49 -4.86,-107.24 -63.33,-107.24 -43.31,-0.54 -86.08,26.75 -128.3,81.87 4.33,-24.57 1.36,-44.36 -8.93,-59.36 -10.27,-15.01 -26.24,-22.51 -47.91,-22.51 -22.19,-0.54 -44.92,8.04 -68.2,25.78 -23.28,17.73 -43.31,38.35 -60.09,61.81l17.86 -64.67c-2.16,-11.45 -15.14,-18.7 -38.97,-21.7 -23.83,-3 -38.98,0.14 -45.46,9.42 -9.62,37.13 -23.57,89.38 -41.85,156.74 -30.15,71.41 -70.75,104.15 -122.17,98.7 17.32,-28.93 29.5,-59.1 36.54,-90.48 7.03,-31.38 8.38,-60.16 4.05,-86.35 -4.32,-26.22 -16.78,-47.77 -37.35,-64.69 -20.56,-16.93 -48.17,-25.1 -82.82,-24.56 -48.71,1.1 -92.29,18.84 -130.72,53.21 -35.07,31.37 -58.88,71.6 -71.42,120.71 -19.28,40.72 -41.34,71.31 -66.22,91.74 -26.26,21.57 -50.48,32.35 -72.67,32.35 -24.36,0 -35.46,-13.93 -33.29,-41.76 2.16,-31.66 22.73,-72.31 61.7,-121.98 6.5,-8.19 10.03,-16.92 10.56,-26.2 0.55,-9.28 -0.94,-17.88 -4.46,-25.79 -3.52,-7.92 -9.2,-16.65 -17.06,-26.2 -7.83,-9.54 -15.55,-17.74 -23.14,-24.55 -7.57,-6.84 -16.65,-15.15 -27.2,-24.98 -10.56,-9.83 -18.8,-17.74 -24.76,-23.74 2.16,-9.28 3.24,-17.75 3.24,-25.39 0.54,-25.09 -8.66,-39.29 -27.6,-42.56 -17.33,-3.27 -31.67,2.45 -43.04,17.18 -17.86,22.38 -15.42,49.95 7.31,82.7 -16.78,60.58 -39.79,120.89 -69.03,180.92 -1.6,3.28 -0.25,6.96 4.08,11.06 4.32,4.09 8.92,6.54 13.8,7.36 4.88,0.82 8.66,-0.14 11.36,-2.86 28.14,-55.66 50.61,-113.79 67.4,-174.38 1.62,1.64 5.41,5.73 11.38,12.29 5.95,6.53 10.27,11.72 12.99,15.56 2.69,3.81 5.67,8.72 8.92,14.72 3.25,6.01 4.74,11.73 4.47,17.21 -0.29,5.45 -2.3,10.89 -6.09,16.36 -14.07,20.74 -25.04,37.8 -32.89,51.17 -7.85,13.36 -15.57,29.88 -23.13,49.52 -7.58,19.65 -11.38,37.66 -11.38,54.03 0,26.2 8,47.36 23.95,63.46 15.97,16.1 39.39,24.66 70.24,24.96 64.15,0.64 118.3,-32.56 162.45,-98.9 2.34,24.2 9.91,43.8 22.68,58.78 23.28,27.31 56.85,40.96 100.69,40.96 51.96,0 97.17,-18.85 135.6,-56.5 49.22,10.33 91.44,-1.32 126.64,-34.95 -6.69,25.24 -12.37,46.97 -17.02,65.24 -1.09,8.73 5.41,15.01 19.49,18.82 14.06,3.83 28.81,4.63 44.24,2.46 15.43,-2.18 24.23,-6.27 26.4,-12.27 17.84,-76.96 33.27,-137.82 46.29,-182.58 14.06,-25.11 29.9,-46.39 47.49,-63.85 17.59,-17.47 32.61,-26.19 45.07,-26.19 10.82,-0.56 17.18,4.49 19.07,15.14 1.89,10.64 0.95,21.42 -2.84,32.33 -24.36,98.25 -42.23,171.92 -53.59,221.05 1.62,11.46 15.83,17.18 42.62,17.18 26.81,0 42.36,-4.63 46.69,-13.92 3.25,-12.53 10.03,-40.65 20.31,-84.31 10.28,-43.66 18.13,-75.32 23.54,-94.97 9.21,-22.37 23.68,-43.52 43.44,-63.45 19.76,-19.92 36.68,-30.14 50.75,-30.69 18.41,0 23.55,17.45 15.43,52.39 -23.82,97.14 -35.73,146.27 -35.73,147.36 -5.4,29.48 -2.43,52.27 8.94,68.36 11.36,16.1 32.21,23.61 62.52,22.51 46.8,-1.64 90.68,-34.42 131.66,-98.35 2.38,23.96 9.93,43.36 22.62,58.23 23.28,27.31 56.84,40.96 100.69,40.96 51.95,0 97.17,-18.85 135.59,-56.5 58.47,12.28 107.07,-6.48 145.74,-56.23 0.13,4.22 0.41,8.23 0.83,12.02 1.88,17.47 5.95,34.52 12.16,51.16 6.23,16.65 16.92,28.93 32.08,36.85 15.16,7.91 34.1,11.86 56.84,11.86 48.62,-0.35 91.8,-25.01 129.49,-73.95 -1.52,19.8 1.19,35.86 8.15,48.17 10,17.73 31.25,26.34 63.73,25.78 20.02,-0.55 39.51,-6.14 58.46,-16.79 18.94,-10.63 35.88,-24.83 50.75,-42.56 11.52,-13.72 21.9,-27.52 31.15,-41.41 2.12,25.05 9.73,45.28 22.85,60.64 23.27,27.31 56.83,40.96 100.68,40.96 51.95,0 97.18,-18.85 135.6,-56.5 49.55,10.41 91.99,-1.48 127.33,-35.6 -9.28,34.91 -15.18,57.7 -17.72,68.34 0.54,12.56 14.75,19.23 42.63,20.06 27.88,0.81 43.98,-3.69 48.31,-13.5 19.49,-84.6 35.74,-148.74 48.72,-192.4 16.25,-21.84 33.83,-40.52 52.79,-56.08 18.93,-15.55 35.18,-23.6 48.71,-24.14 12.45,-0.56 19.62,4.63 21.52,15.55 1.89,10.9 0.67,22.65 -3.66,35.2 -1.62,7.1 -7.45,31.39 -17.46,72.86 -10,41.48 -15.84,67.41 -17.44,77.78 -4.88,27.82 -1.77,49.52 9.32,65.08 11.11,15.56 31.53,23 61.3,22.51 50.61,-0.84 170.78,-95.46 188.14,-130.02m563.28 -379.2c10.82,1.64 15.01,13.38 12.58,35.21 -2.43,21.83 -10.69,48.85 -24.77,81.06 -25.45,57.84 -59.55,101.52 -102.3,130.98 12.44,-48.04 28.42,-96.6 47.91,-145.73 12.44,-32.74 24.08,-57.99 34.92,-75.73 10.82,-17.74 21.37,-26.32 31.66,-25.79zm916.23 463.38c1.08,-12.55 -2.17,-23.05 -9.74,-31.52 -7.59,-8.45 -17.87,-12.68 -30.86,-12.68 -11.9,0 -22.46,4.23 -31.67,12.68 -9.2,8.47 -14.33,18.69 -15.42,30.7 -1.09,12.56 2.44,23.2 10.54,31.93 8.13,8.73 18.15,13.1 30.05,13.1 11.91,0 22.46,-4.37 31.67,-13.1 9.21,-8.73 14.35,-19.12 15.43,-31.11zm562.61 -371.68c10.54,-9.28 16.62,-21.29 18.26,-36.03 2.16,-14.19 -0.81,-25.92 -8.94,-35.2 -8.11,-9.27 -19.48,-13.92 -34.1,-13.92 -14.61,-0.55 -27.2,3.84 -37.76,13.11 -10.55,9.28 -17.18,21.27 -19.89,36.01 -2.16,14.19 0.96,26.08 9.34,35.61 8.4,9.56 19.35,14.34 32.89,14.34 16.24,0 29.64,-4.64 40.2,-13.92zm-367.02 295.13c-7.31,11.74 -7.45,23.33 -0.41,34.8 -18.95,22.92 -41.14,33.02 -66.58,30.28 -16.25,-1.63 -27.61,-9.68 -34.11,-24.14 -6.49,-14.47 -8.38,-32.62 -5.69,-54.44 2.71,-21.85 6.52,-42.44 11.39,-61.81 4.86,-19.39 10.81,-38.62 17.84,-57.72 34.67,-30.57 65.24,-45.04 91.76,-43.4 15.71,0.55 26.94,7.11 33.7,19.66 6.78,12.55 9.07,27.97 6.89,46.25 -2.16,18.29 -5.53,35.61 -10.14,51.99 -4.6,16.37 -9.87,31.38 -15.82,45.03 -11.91,-2.74 -21.53,1.78 -28.83,13.5zm475.41 -302.49c-16.25,20.18 -14.62,45.03 4.87,74.5 -13.61,44.93 -34.75,98.7 -63.4,161.28 -1.94,4.25 -3.94,8.55 -5.95,12.89 -13.38,29.48 -30.32,55.88 -50.83,79.2 -23.27,26.49 -44.12,39.7 -62.51,39.7 -8.12,0.56 -12.73,-4.22 -13.81,-14.32 -1.08,-10.1 0.28,-23.33 4.06,-39.7 2.71,-12.01 23.01,-86.25 60.9,-222.68 -2.72,-9.83 -15.97,-16.37 -39.79,-19.65 -23.82,-3.28 -38.97,-0.27 -45.45,9.01 -17.7,61.96 -32.21,113.91 -43.53,155.85 -29.57,69.83 -70.44,102.85 -122.95,99.56 22.19,-35.48 36.82,-72.31 43.86,-110.51 7.03,-38.21 3.52,-71.9 -10.56,-101.11 -14.06,-29.2 -38.71,-46.26 -73.9,-51.17 -38.98,-4.91 -78.22,7.09 -117.72,36.03 30.84,-105.89 55.47,-182.83 73.87,-230.88 0,-10.37 -12.03,-17.86 -36.11,-22.51 -24.1,-4.64 -40.75,-3.14 -49.95,4.51 -14.61,38.2 -28.96,78.45 -43.03,120.75 -14.07,42.31 -28.03,94.28 -41.83,155.96 -13.78,61.67 -19.35,110.51 -16.64,146.55 -1.63,43.11 5.42,77.23 21.13,102.33 15.69,25.1 44.1,37.93 85.25,38.46 49.25,0.57 93.37,-17.45 132.34,-54.02 51.84,10.25 95.87,-2.49 132.05,-38.17 -5.32,28.78 -3.47,51.18 5.59,67.24 10.02,17.73 31.25,26.34 63.73,25.78 20.03,-0.55 39.52,-6.14 58.46,-16.79 18.96,-10.63 35.88,-24.83 50.77,-42.56 14.88,-17.74 27.87,-35.61 38.97,-53.62 6.28,-10.21 12.36,-20.86 18.26,-31.93 34.64,-68.23 59.82,-126.35 75.52,-174.38 12.45,18.56 30.58,31.93 54.39,40.12 23.83,8.18 46.56,10.63 68.21,7.37 -41.14,63.87 -93.11,127.98 -155.9,192.39 -28.69,9.26 -44.93,23.74 -48.71,43.38 -3.25,16.92 2.97,29.47 18.67,37.66 21.11,11.46 46.01,5.73 74.71,-17.19 17.31,-2.17 37.34,0.82 60.07,9 22.73,8.19 43.32,12.01 61.72,11.47 35.71,-1.1 70.38,-17.73 103.93,-49.94 33.56,-32.2 61.98,-74.49 85.26,-126.89 1.09,-2.73 -0.54,-6.15 -4.87,-10.24 -4.32,-4.09 -8.81,-6.82 -13.39,-8.19 -4.61,-1.36 -7.99,-0.69 -10.17,2.05 -18.4,41.48 -39.36,73.69 -62.92,96.6 -23.54,22.94 -47.5,34.94 -71.86,36.03 -13.54,1.09 -29.64,-1.23 -48.31,-6.97 -18.68,-5.72 -33.43,-8.59 -44.25,-8.59 9.73,-9.28 19.08,-18.82 28,-28.65 8.94,-9.82 17.88,-20.32 26.8,-31.52 8.94,-11.19 16.51,-20.87 22.74,-29.07 6.22,-8.17 14.08,-18.96 23.54,-32.34 9.48,-13.36 16.39,-23.05 20.71,-29.05 4.34,-6.01 11.78,-16.64 22.34,-31.93 10.55,-15.28 17.45,-25.38 20.7,-30.29 5.96,-10.38 7.45,-20.34 4.46,-29.9 -2.97,-9.54 -11.77,-16.23 -26.38,-20.04 -14.63,-3.83 -31.41,-2.73 -50.35,3.27 -26.52,5.46 -51.69,4.92 -75.52,-1.64 -23.81,-6.54 -41.41,-18.56 -52.77,-36.01 1.08,-4.38 1.9,-8.74 2.43,-13.12 3.79,-32.72 -4.32,-52.11 -24.35,-58.11 -15.17,-4.91 -28.7,0 -40.6,14.74z"/>
  </g>
 </g>
</svg>
