<?xml version="1.0" encoding="UTF-8"?>
<!DOCTYPE svg PUBLIC "-//W3C//DTD SVG 1.1//EN" "http://www.w3.org/Graphics/SVG/1.1/DTD/svg11.dtd">
<!-- Creator: CorelDRAW 2020 (64-Bit) -->
<svg xmlns="http://www.w3.org/2000/svg" xml:space="preserve" width="170mm" height="35mm" version="1.1" style="shape-rendering:geometricPrecision; text-rendering:geometricPrecision; image-rendering:optimizeQuality; fill-rule:evenodd; clip-rule:evenodd"
viewBox="0 0 17000 3500"
 xmlns:xlink="http://www.w3.org/1999/xlink"
 xmlns:xodm="http://www.corel.com/coreldraw/odm/2003">
 <defs>
  <style type="text/css">
   <![CDATA[
    .str0 {stroke:#2B2A29;stroke-width:20;stroke-miterlimit:22.9256}
    .fil0 {fill:none}
    .fil2 {fill:#2B2A29;fill-rule:nonzero}
    .fil1 {fill:#2B2A29;fill-rule:nonzero}
   ]]>
  </style>
 </defs>
 <g id="Слой_x0020_1">
  <metadata id="CorelCorpID_0Corel-Layer"/>
  <polygon class="fil0" points="11.62,32.57 16966.15,32.57 16966.15,3503.91 11.62,3503.91 "/>
  <path class="fil1 str0" d="M1011.98 1488.28l329.2 0c66.28,0 120.52,54.23 120.52,120.54l0 329.82c0,66.31 -54.25,120.53 -120.52,120.53l-329.2 0c-66.29,0 -120.54,-54.22 -120.54,-120.53l0 -329.82c0,-66.31 54.24,-120.54 120.54,-120.54zm-325.51 192.22l0 26.77 -204.06 0 0 -186.69c0,-241.77 195.53,-439.46 434.67,-439.46l191.48 0 0 206.29 -191.48 0c-126.75,0 -230.61,105.01 -230.61,233.17l0 159.92zm1045.8 25.71l-78.26 0 0 -186.69c0,-128.16 -103.97,-233.16 -230.85,-233.16l-191.06 0 0 -206.3 191.06 0c239.37,0 435.09,197.69 435.09,439.46l0 186.69 -125.98 0zm-80 150.24l0 -26.21 204.23 0 0 195.74c0,236.8 -195.72,430.41 -435.09,430.41l-191.06 0 0 -202.05 191.06 0c126.88,0 230.86,-102.85 230.86,-228.36l0 -169.53zm-1043.98 -26.18l78.18 0 0 195.75c0,125.51 103.86,228.35 230.61,228.35l191.48 0 0 202.05 -191.48 0c-239.14,0 -434.67,-193.6 -434.67,-430.4l0 -195.75 125.88 0z"/>
  <path class="fil2" d="M3389.71 1740.01l-419.75 0 0 422.65 -231.59 0 0 -1036.35 231.59 0 0 425.54 419.75 0 0 -425.54 231.59 0 0 1036.35 -231.59 0 0 -422.65zm807.66 -385.01l-130.26 390.8 259.08 0 -128.82 -390.8zm188.17 570.28l-377.78 0 -79.61 237.38 -196.85 0 348.83 -1036.35 266.33 0 347.38 1036.35 -230.14 0 -78.16 -237.38zm645.55 -610.81l0 220.01 134.61 0c46.31,0 84.43,-9.17 114.34,-27.5 29.92,-18.34 44.87,-47.28 44.87,-86.85 0,-42.45 -13.02,-70.68 -39.08,-84.67 -26.05,-13.99 -62.72,-20.99 -110,-20.99l-144.74 0zm0 408.17l0 251.86 156.32 0c55,0 99.39,-9.41 133.16,-28.23 33.77,-18.82 50.66,-52.83 50.66,-102.04 0,-44.39 -16.16,-75.75 -48.49,-94.08 -32.32,-18.34 -81.78,-27.51 -148.36,-27.51l-143.29 0zm-225.8 -596.33l328.56 0c137.03,0 241.24,19.05 312.65,57.17 71.4,38.12 107.11,103.01 107.11,194.68 0,36.67 -5.55,68.75 -16.65,96.25 -11.1,27.5 -27.02,51.14 -47.76,70.93 -20.75,19.78 -45.6,35.94 -74.55,48.48 -28.94,12.55 -61.27,22.2 -96.97,28.95 94.56,9.65 166.45,32.81 215.66,69.48 49.21,36.67 73.82,93.6 73.82,170.79 0,54.04 -11.82,100.12 -35.46,138.23 -23.64,38.12 -55.97,69 -96.98,92.64 -41.01,23.64 -89.74,41.01 -146.19,52.1 -56.45,11.1 -117.48,16.65 -183.1,16.65l-340.14 0 0 -1036.35zm945.17 0l677.39 0 0 188.16 -445.8 0 0 218.56 370.54 0 0 188.17 -370.54 0 0 253.3 453.04 0 0 188.16 -684.63 0 0 -1036.35zm1492.29 188.16l-306.86 0c-3.86,84.92 -8.2,161.87 -13.02,230.87 -4.83,68.99 -10.86,130.99 -18.1,185.99 -7.23,55 -16.16,103.73 -26.77,146.19 -10.62,42.46 -23.64,79.12 -39.08,110l403.83 0 0 -673.05zm165 848.19l-678.84 0 -13.02 247.51 -193.96 0 0 -422.65 82.5 0c22.2,-21.23 40.77,-53.07 55.73,-95.29 14.96,-42.45 27.5,-98.42 37.63,-167.66 10.14,-69.47 18.34,-153.18 24.61,-251.36 6.27,-98.43 11.82,-213.98 16.64,-346.9l735.29 0 0 861.21 140.4 0 0 422.65 -193.95 0 -13.03 -247.51zm338.7 0l0 -1036.35 231.59 0 0 699.1 461.72 -699.1 233.04 0 0 1036.35 -233.04 0 0 -697.66 -461.72 697.66 -231.59 0zm1574.79 -848.19l0 848.19 -230.14 0 0 -848.19 -292.37 0 0 -188.16 816.34 0 0 188.16 -293.83 0zm418.31 -188.16l677.39 0 0 188.16 -445.8 0 0 218.56 370.54 0 0 188.17 -370.54 0 0 253.3 453.04 0 0 188.16 -684.63 0 0 -1036.35zm1425.7 615.15l-59.34 0 0 421.2 -231.59 0 0 -1036.35 231.59 0 0 426.99 75.26 0 290.93 -426.99 235.93 0 -348.82 508.77 364.75 527.58 -266.33 0 -292.38 -421.2zm1050.82 -386.46l-130.26 390.8 259.08 0 -128.82 -390.8zm188.17 570.28l-377.78 0 -79.61 237.38 -196.85 0 348.83 -1036.35 266.33 0 347.38 1036.35 -230.14 0 -78.16 -237.38zm622.39 -461.72l0 699.1 -202.64 0 0 -1036.35 298.17 0 240.27 631.07 269.22 -631.07 272.12 0 0 1036.35 -231.59 0 0 -691.87 -225.8 532.65 -201.19 0 -218.56 -539.88zm1068.19 -337.25l677.39 0 0 188.16 -445.8 0 0 218.56 370.54 0 0 188.17 -370.54 0 0 253.3 453.04 0 0 188.16 -684.63 0 0 -1036.35zm1082.67 188.16l0 311.2 88.29 0c65.62,0 115.79,-11.58 150.53,-34.74 34.74,-23.16 52.11,-64.17 52.11,-123.03 0,-102.29 -67.55,-153.43 -202.64,-153.43l-88.29 0zm0 499.36l0 348.83 -231.59 0 0 -1036.35 319.88 0c69.48,0 130.99,6.27 184.55,18.81 53.55,12.55 98.9,32.09 136.05,58.62 37.15,26.54 65.38,60.8 84.68,102.77 19.3,41.98 28.95,92.39 28.95,151.26 0,61.75 -10.14,115.07 -30.4,159.94 -20.26,44.87 -49.21,81.78 -86.85,110.72 -37.63,28.95 -83.22,50.42 -136.78,64.41 -53.55,14 -113.62,20.99 -180.2,20.99l-88.29 0zm796.08 358.96c-25.09,0 -44.87,-1.45 -59.35,-4.34 -8.68,-1.93 -16.89,-3.86 -24.6,-5.79l-30.4 -193.95c6.75,1.93 14.47,3.86 23.16,5.79 7.72,1.93 16.4,3.37 26.05,4.34 9.65,0.96 20.75,1.45 33.29,1.45 34.74,0 64.17,-4.83 88.29,-14.48 24.13,-9.65 45.36,-26.54 63.69,-50.66l-377.78 -788.84 243.17 0 243.17 542.78 209.87 -542.78 228.7 0 -315.54 751.21c-22.2,52.11 -45.11,96.73 -68.75,133.88 -23.64,37.16 -49.7,67.55 -78.16,91.19 -28.47,23.64 -59.59,41.25 -93.36,52.83 -33.78,11.58 -70.93,17.37 -111.45,17.37z"/>
 </g>
</svg>
