<?xml version="1.0" encoding="UTF-8"?>
<!DOCTYPE svg PUBLIC "-//W3C//DTD SVG 1.1//EN" "http://www.w3.org/Graphics/SVG/1.1/DTD/svg11.dtd">
<!-- Creator: CorelDRAW 2020 (64-Bit) -->
<svg xmlns="http://www.w3.org/2000/svg" xml:space="preserve" width="170mm" height="35mm" version="1.1" style="shape-rendering:geometricPrecision; text-rendering:geometricPrecision; image-rendering:optimizeQuality; fill-rule:evenodd; clip-rule:evenodd"
viewBox="0 0 17000 3500"
 xmlns:xlink="http://www.w3.org/1999/xlink"
 xmlns:xodm="http://www.corel.com/coreldraw/odm/2003">
 <defs>
  <style type="text/css">
   <![CDATA[
    .str0 {stroke:#2B2A29;stroke-width:20;stroke-miterlimit:22.9256}
    .fil0 {fill:none}
    .fil2 {fill:none;fill-rule:nonzero}
    .fil1 {fill:#2B2A29;fill-rule:nonzero}
   ]]>
  </style>
 </defs>
 <g id="Слой_x0020_1">
  <metadata id="CorelCorpID_0Corel-Layer"/>
  <polygon class="fil0" points="11.62,32.57 16966.15,32.57 16966.15,3503.91 11.62,3503.91 "/>
  <g>
   <path class="fil1" d="M11682.21 1390.33c-52.2,11.51 -102.03,11.59 -149.52,0.27 -61.59,-14.7 -98.06,-46.91 -109.36,-96.64 -4.53,-21.48 1.97,-44.67 19.49,-69.53 17.52,-24.87 37.3,-42.96 59.35,-54.25 22.04,-11.33 36.45,-11.88 43.23,-1.69 15.83,27.13 43.26,42.93 82.25,47.45 39,4.55 76.59,0.88 112.76,-11.02 36.18,-11.86 62.73,-26.83 79.68,-44.93 16.97,-16.94 35.06,-10.16 54.28,20.34 20.35,31.66 24.33,59.96 11.88,84.8l-1.69 3.4c-28.91,41.38 -70.68,73.75 -125.36,97.11l-76.99 24.69zm76.99 -24.69c21.32,-1.36 46.71,-1.24 76.15,0.36 83.66,4.53 136.8,23.17 159.41,55.97 -6.78,32.76 -16.96,74.61 -30.52,125.47 -13.57,50.87 -26.02,96.65 -37.3,137.34 -11.33,40.71 -21.22,80.56 -29.67,119.56 -8.5,38.99 -12.43,69.5 -11.87,91.56 0.56,22.02 7.07,33.07 19.5,33.07 27.11,1.12 57.94,-12.72 92.41,-41.56 34.46,-28.82 66.4,-68.1 95.8,-117.85 7.91,-9.05 23.71,-5.36 47.47,11.02 23.74,16.4 33.9,28.55 30.52,36.47 -45.21,81.37 -104.56,151.48 -178.05,210.26 -73.45,58.78 -155.42,88.15 -245.88,88.15 -48.59,0 -83.92,-16.67 -105.96,-50.01 -22.05,-33.35 -25.71,-85.62 -11.03,-156.84 -87.04,136.77 -197.81,205.74 -332.33,206.85 -40.72,0 -74.92,-5.92 -102.58,-17.8 -27.71,-11.85 -48.05,-27.13 -61.07,-45.78 -13,-18.64 -21.76,-41.25 -26.26,-67.82l-0.85 -5.17c-31.69,44.81 -62.78,83.86 -93.28,117.08 -62.73,68.4 -130.85,117.28 -204.31,146.68 -14.69,53.14 -29.96,97.21 -45.78,132.27 -15.84,35.02 -38.99,72.35 -69.52,111.92 -30.52,39.55 -70.95,69.23 -121.23,89 -50.33,19.78 -109.94,29.11 -178.91,27.99 -82.49,-1.13 -146.11,-18.66 -190.77,-52.57 -44.64,-33.91 -63.56,-85.92 -56.79,-156.01 15.82,-146.95 158.83,-235.69 428.99,-266.21 6.79,-21.47 16.41,-53.14 28.83,-94.94 12.43,-41.83 21.49,-71.78 27.14,-89.88 -40.71,67.83 -84.77,112.76 -132.27,134.8 -47.47,22.05 -101.16,33.62 -161.08,34.76 -50.87,1.14 -91.58,-7.62 -122.09,-26.28 -30.53,-18.65 -50.03,-44.38 -58.49,-77.14 -5.4,-20.9 -8.85,-41.68 -10.38,-62.32 -72.35,58.86 -164.71,83.58 -277.04,74.17 -52,44.1 -116.15,72.07 -192.46,83.95 -76.3,11.86 -153.44,0.83 -231.45,-33.06 -1.14,4.5 -42.39,166.72 -123.78,486.62 -4.52,19.22 -34.74,32.52 -90.73,39.86 -55.94,7.35 -109.91,6.77 -161.92,-1.68 -52.01,-8.49 -75.74,-22.9 -71.24,-43.26 48.6,-188.43 96.8,-374.48 144.63,-558.16 -11.64,10.59 -23.67,20.88 -36.1,30.83 -73.44,58.78 -155.42,88.15 -245.87,88.15 -48.6,0 -83.9,-16.67 -105.96,-50.01 -22.04,-33.35 -25.73,-85.62 -11.03,-156.84 -87.05,136.77 -197.84,205.74 -332.36,206.85 -40.67,0 -74.88,-5.93 -102.56,-17.8 -27.71,-11.87 -48.06,-27.13 -61.06,-45.78 -13,-18.64 -21.75,-41.25 -26.29,-67.82 -1.38,-8.17 -2.45,-16.26 -3.21,-24.23 -91.17,98.91 -193.52,150.83 -307.07,155.63 -97.22,4.56 -161.96,-15.81 -194.17,-61.03 -32.21,-45.21 -39.28,-106.82 -21.19,-184.81 1.12,-3.39 2.27,-8.48 3.39,-15.27 1.12,-6.79 2.26,-11.88 3.38,-15.26l-115.3 0c-10.17,46.33 -29.95,126.04 -59.33,239.08 -3.4,15.83 -33.35,27.71 -89.87,35.61 -56.52,7.91 -111.08,7.91 -163.63,0 -52.57,-7.9 -76.02,-22.61 -70.37,-44.09 6.26,-22 13.18,-46.92 20.68,-74.73 -91.89,83.23 -197.14,123.42 -315.73,120.5 -109.66,-3.37 -150.91,-70.08 -123.77,-200.06 -19.24,37.3 -38.71,68.94 -58.53,94.96 -19.77,25.98 -49.72,50 -89.85,72.04 -40.13,22.06 -85.63,33.06 -136.5,33.06 -138.18,0 -216.53,-56.98 -235.05,-170.92 -32.42,37.21 -66.54,68.46 -102.39,93.78 -71.22,50.3 -144.13,76.03 -218.72,77.14 -41.84,0 -77.47,-6.49 -106.85,-19.49 -29.37,-12.98 -52.56,-33.33 -69.51,-61.04 -16.96,-27.69 -29.69,-53.97 -38.17,-78.85 -8.45,-24.88 -17.79,-58.75 -27.95,-101.73 -3.41,-12.42 -5.66,-22.06 -6.8,-28.83 -20.34,18.1 -36.74,46.35 -49.17,84.77 -12.42,38.46 -26.57,94.41 -42.37,167.88 -1.15,6.78 -13.29,13.57 -36.48,20.35 -23.16,6.79 -50.59,11.87 -82.23,15.26 -31.64,3.39 -63.3,4.81 -94.97,4.24 -31.66,-0.57 -58.2,-4.82 -79.68,-12.71 -21.47,-7.92 -31.66,-19.79 -30.54,-35.62l18.84 -76.58c-27.82,24.37 -56.15,43.96 -84.95,58.77 -80.28,41.27 -171.84,62.47 -274.7,63.58 -116.43,1.16 -212.8,-26.27 -289.11,-82.22 -44.15,-32.35 -74.94,-73.91 -92.42,-124.63 -32.14,40.57 -68.3,78.15 -108.51,112.78 -68.94,59.32 -149.77,90.7 -242.48,94.07 -96.08,3.42 -158.81,-16.94 -188.21,-61.03 -29.39,-44.07 -33.93,-110.21 -13.57,-198.38 4.52,-20.35 14.97,-61.62 31.37,-123.78 16.38,-62.18 24.59,-93.82 24.59,-94.97 5.65,-21.48 7.34,-37.87 5.08,-49.16 -2.26,-11.31 -10.74,-16.4 -25.43,-15.27 -19.22,1.14 -49.16,14.7 -89.87,40.71 -7.92,35.02 -25.43,107.09 -52.57,216.19 -27.13,109.06 -46.91,191.85 -59.35,248.4 -10.17,25.99 -65.57,39.57 -166.18,40.71 -100.61,1.12 -154.29,-13.57 -161.08,-44.12 12.45,-47.45 31.95,-123.2 58.5,-227.21 26.55,-103.99 46.07,-180.84 58.49,-230.59 7.93,-29.39 -0.54,-44.09 -25.42,-44.09 -22.62,0 -53.12,14.7 -91.57,44.09 -39.56,141.31 -78.01,295.03 -115.29,461.21 -11.32,25.99 -68.69,39.28 -172.12,39.85 -103.43,0.57 -155.71,-13.86 -156.85,-43.26 0.45,-1.27 9.21,-34.52 26.33,-99.73 -22.45,15.24 -44.25,25.64 -65.3,31.07 -32.81,8.5 -66.73,14.15 -101.76,16.97 -35.03,2.82 -66.7,1.97 -94.96,-2.54 -85.92,63.29 -192.18,94.93 -318.78,94.93 -111.94,0 -198.38,-33.61 -259.45,-100.86 -61.03,-67.27 -76.31,-165.91 -45.76,-295.9 29.38,-122.11 87.89,-212.26 175.48,-270.45 87.64,-58.22 189.08,-85.63 304.38,-82.25 72.35,2.26 134.25,20.07 185.67,53.42 51.45,33.35 87.9,75.73 109.38,127.16 21.46,51.43 27.99,110.22 19.49,176.34 -8.48,66.14 -32.5,131.43 -72.07,195.86 75.23,8.71 146.74,-37.23 214.6,-137.85 27.07,-103.22 61.21,-233.57 102.49,-391.19 18.1,-21.48 69.53,-29.39 154.32,-23.74 84.78,5.64 137.34,24.3 157.68,55.97l-18.64 62.71c110.77,-80.23 206.28,-119.8 286.56,-118.68 90.42,1.13 137.35,41.83 140.75,122.08 118.68,-82.49 220.43,-123.2 305.19,-122.08 57.66,1.13 97.51,21.47 119.56,61.04 22.04,39.57 24.57,93.28 7.61,161.1 -3.38,15.81 -14.42,53.69 -33.06,113.59 -18.64,59.91 -30.79,104.01 -36.45,132.27 -6.79,29.4 -6.79,52.57 0,69.54 6.78,16.95 16.4,25.43 28.83,25.43 27.14,0 57.37,-15.28 90.71,-45.78 33.36,-30.53 63.03,-67.85 89.02,-111.92 0.68,-1.15 1.49,-2.15 2.35,-3.03 6.69,-112.22 52.54,-207.6 137.55,-286.08 88.73,-81.98 200.37,-119.54 334.9,-112.77 54.26,2.25 99.73,13.57 136.49,33.91 36.73,20.34 61.87,44.09 75.47,71.22 13.54,27.13 22.59,56.81 27.11,89.02 4.53,32.22 1.15,61.32 -10.18,87.33 -32.77,38.43 -82.52,59.07 -149.2,61.9 -66.69,2.83 -107.97,-12.71 -123.78,-46.64 1.11,-4.53 3.96,-12.71 8.47,-24.59 4.52,-11.86 8.19,-22.61 11,-32.21 2.86,-9.61 5.38,-19.79 7.65,-30.52 2.26,-10.74 1.69,-19.23 -1.69,-25.44 -3.41,-6.22 -9.62,-9.34 -18.65,-9.34 -20.35,0 -41.28,18.4 -62.75,55.12 -21.48,36.74 -36.74,89.58 -45.77,158.56 -10.18,75.73 4.8,130.83 44.94,165.33 40.11,34.45 95.25,47.73 165.31,39.82 50.87,-5.66 103.44,-25.7 157.7,-60.18 44.88,-28.54 82.02,-63.81 111.44,-105.84 109.35,-440.08 183.01,-719.36 220.91,-837.8 7.9,-16.94 39.28,-26 94.11,-27.12 54.83,-1.13 106.8,5.38 155.99,19.5 49.18,14.14 71.49,30.8 66.99,50 -56.52,187.69 -110.22,380.96 -161.1,579.94 79.13,-98.35 153.17,-167.32 222.14,-206.87 36.16,-11.32 76.86,3.96 122.08,45.76 45.23,41.84 58.78,77.45 40.72,106.83 -73.51,62.18 -136.25,122.65 -188.25,181.43 2.26,64.44 14.13,118.13 35.62,161.11 21.47,42.94 50.86,64.99 88.18,66.13 87.23,2.22 163.95,-51.99 230.16,-162.6 15.2,-63.34 43.31,-121.33 84.36,-174 55.95,-71.79 117.87,-125.19 185.68,-160.21 67.84,-35.05 135.64,-57.11 203.49,-66.17 84.77,-10.15 171.82,-6.23 261.12,11.89 89.33,18.08 158.83,53.14 208.55,105.11 6.79,27.14 -5.64,58.8 -37.28,94.97 -31.65,36.18 -57.09,53.12 -76.3,50.87 -64.44,-53.13 -149.8,-78.58 -256.05,-76.3 -51.99,0 -99.47,19.21 -142.44,57.65 -42.95,38.44 -73.47,87.6 -91.56,147.52 -33.92,114.16 -27.13,168.99 20.33,164.49 30.55,-3.41 63.04,-35.62 97.52,-96.68 34.47,-61.02 63.58,-123.78 87.32,-188.2 31.64,-15.83 78.85,-16.38 141.59,-1.7 62.75,14.69 102.02,32.78 117.85,54.27 -9.06,24.85 -20.34,58.2 -33.91,100.04 -23.76,88.15 -13,132.27 32.21,132.27 37.3,-1.14 74.87,-16.41 112.77,-45.78 35.55,-27.62 65.88,-62.19 90.95,-103.73 4.9,-19.31 9.88,-39.26 15.03,-59.93 38.41,-154.29 66.67,-263.09 84.77,-326.4 38.44,-21.49 96.37,-27.68 173.8,-18.64 77.43,9.03 122.93,27.12 136.5,54.25 -5.64,20.34 -24.86,97.77 -57.64,232.3l113.61 0c27.14,-104.01 51.44,-192.74 72.91,-266.21 24.87,-21.48 77.72,-28.29 158.52,-20.34 80.85,7.89 131.42,27.68 151.77,59.33 -10.16,40.7 -24.02,92.69 -41.53,156 -17.53,63.32 -31.37,115.32 -41.54,156.02 -10.17,40.66 -16.96,72.33 -20.35,94.94 -5.66,31.64 -6.5,54.27 -2.57,67.83 3.96,13.57 14.43,20.36 31.4,20.36 58.33,0 121.13,-52.36 188.37,-157.04 24.49,-101.77 58.34,-229.74 101.58,-383.89 23.74,-21.5 77.72,-28.26 161.94,-20.35 84.21,7.91 134.8,27.69 151.75,59.35 -73.47,262.26 -112.49,411.48 -117.02,447.65 -2.25,36.18 4.53,54.28 20.36,54.28 24.88,-1.14 52.59,-27.14 83.11,-78.02 30.52,-50.88 53.11,-101.74 67.8,-152.6 26,-83.64 53.7,-187.09 83.1,-310.31 18.08,-19.21 68.95,-26.57 152.59,-22.04 83.67,4.53 136.8,23.17 159.39,55.97 -6.76,32.76 -16.92,74.61 -30.51,125.47 -13.55,50.87 -26,96.65 -37.31,137.34 -11.31,40.71 -21.18,80.56 -29.67,119.56 -8.47,38.98 -12.42,69.5 -11.87,91.56 0.57,22.02 7.07,33.07 19.52,33.07 27.12,1.12 57.93,-12.72 92.4,-41.56 31.25,-26.13 60.42,-60.85 87.49,-104.14 34.63,-132.47 69.03,-263.62 103.27,-393.53 11.29,-11.29 38.16,-18.93 80.54,-22.89 42.38,-3.95 86.49,-1.4 132.26,7.64 45.79,9.03 76,24.84 90.72,47.48l-22.04 64.42c32.77,-27.12 59.89,-48.34 81.38,-63.58 21.5,-15.27 51.43,-29.4 89.88,-42.41 38.43,-13 77.45,-17.78 117,-14.4 50.87,4.53 91.58,25.45 122.09,62.74 30.5,37.29 48.91,82.52 55.11,135.64 6.21,53.13 0.28,111.92 -17.82,176.34 -18.09,64.47 -47.47,124.92 -88.16,181.46 48.62,2.26 92.98,-12.16 133.08,-43.24 40.14,-31.1 70.97,-66.99 92.42,-107.67 0.53,-0.62 1.07,-1.21 1.67,-1.72 20,-82.32 53.93,-208.91 101.78,-379.81 22.61,-22.61 77.44,-29.95 164.46,-22.05 87.05,7.91 136.8,28.26 149.24,61.05 -39.58,137.91 -73.47,261.13 -101.75,369.67 -5.65,21.45 -9.88,39.57 -12.71,54.25 -2.81,14.68 -4.51,29.1 -5.1,43.24 -0.54,14.14 2,23.72 7.65,28.81 5.65,5.1 14.69,5.38 27.14,0.85 24.83,-10.16 51.42,-39.85 79.69,-89.01 28.24,-49.19 48.03,-94.68 59.32,-136.49 25.99,-91.59 53.71,-195.03 83.09,-310.32 28.28,-23.74 83.94,-30.82 167.05,-21.2 83.09,9.62 131.42,28.55 144.96,56.78 -28.28,100.64 -59.06,213.97 -92.42,340.02 -33.34,126.03 -63.02,235.95 -89.01,329.78 84.33,-51.73 176.5,-159.39 276.53,-322.99 24.46,-101.81 58.32,-229.84 101.59,-384.09 23.75,-21.5 77.71,-28.25 161.94,-20.35 84.21,7.91 134.8,27.69 151.75,59.35 -73.46,262.26 -112.46,411.48 -117.01,447.65 -2.24,36.18 4.55,54.28 20.37,54.28 24.89,-1.14 52.57,-27.14 83.07,-78.02 30.55,-50.88 53.14,-101.74 67.83,-152.6 25.84,-83.13 53.37,-185.8 82.55,-308.02l76.99 -24.69zm-1256.6 1007.58c14.69,-36.17 25.42,-71.78 32.22,-106.83 -78,13.57 -124.93,47.47 -140.76,101.75 -9.05,30.52 -0.55,50.29 25.43,59.35 27.14,9.02 50.87,-1.14 71.23,-30.53 4.53,-6.8 8.47,-14.71 11.88,-23.74zm-825.81 -578.22c39.57,-114.2 44.1,-182 13.57,-203.48 -30.5,-21.47 -71.77,-12.44 -123.77,27.13 -15.82,58.78 -41.82,157.14 -78,295.04 48.61,33.92 95.53,33.92 140.74,0 -19.21,-22.6 -22.32,-48.6 -9.32,-77.99 12.98,-29.4 31.93,-42.97 56.78,-40.7zm-7028.44 -245.88c-20.33,0 -42.95,13.88 -67.83,41.55 -24.87,27.69 -44.08,66.99 -57.63,117.84 -15.86,48.62 -20.36,98.63 -13.57,150.07 6.78,51.46 24.85,77.17 54.23,77.17 21.5,0 39.59,-7.35 54.28,-22.06 -19.22,-14.7 -22.04,-38.43 -8.47,-71.22 13.54,-32.77 35.03,-49.74 64.42,-50.87 16.95,-63.29 23.75,-119.24 20.36,-167.87 -3.41,-48.59 -18.67,-73.47 -45.79,-74.61zm11252.82 294.01c-108.27,142 -224.66,213.04 -349.18,213.04 -52,0 -91.56,-24.88 -118.7,-74.61 -27.12,-49.74 -40.11,-119.28 -39,-208.58 -19.21,57.65 -44.64,109.94 -76.3,156.85 -31.64,46.9 -59.35,73.77 -83.08,80.53 -76.88,38.45 -139.04,32.81 -186.52,-16.95 -39.57,-38.42 -60.48,-115.3 -62.75,-230.6 -27.13,87.05 -51.42,170.7 -72.89,250.94 -5.66,19.23 -46.93,32.8 -123.8,40.7 -91.56,10.19 -148.08,1.72 -169.56,-25.41 -6.77,-9.06 -8.49,-19.22 -5.1,-30.53 41.84,-126.61 83.64,-234.58 125.5,-323.88 41.83,-89.3 99.46,-197.26 172.96,-323.87 10.16,-18.09 40.68,-30.8 91.56,-38.16 50.87,-7.34 98.9,-6.21 144.13,3.4 45.22,9.6 65.56,26.28 61.04,50.03 -13.57,70.08 -22.6,148.64 -27.14,235.69 -4.5,87.06 -1.69,148.09 8.5,183.13 37.29,-55.39 101.73,-198.95 193.29,-430.68 11.3,-29.41 57.66,-43.55 139.04,-42.41 79.14,1.13 130,14.15 152.6,39 6.78,7.93 9.62,15.83 8.5,23.76 -28.26,137.88 -42.4,253.48 -42.4,346.75 0,93.28 15.83,142.16 47.47,146.68 23.74,3.38 50.04,-5.39 78.85,-26.29 28.48,-20.67 65.49,-63.11 111.08,-127.35 1.24,-114.52 45.05,-211.12 131.39,-289.79 88.76,-80.83 200.96,-118.4 336.59,-112.76 57.66,2.27 107.13,14.42 148.37,36.48 41.27,22.02 69.82,48.3 85.63,78.85 15.83,30.5 25.71,63.85 29.67,100.03 3.96,36.18 -2.53,69.52 -19.48,100.03 -27.14,58.79 -73.49,102.03 -139.06,129.71 -65.56,27.71 -145.27,37.05 -239.09,27.99 16.97,58.78 60.48,96.38 130.58,112.77 70.07,16.37 143.84,7.35 221.29,-27.14 73.54,-32.77 127.99,-82.07 163.28,-147.99 5.06,-20.05 10.26,-40.79 15.61,-62.26 38.41,-154.29 66.68,-263.12 84.75,-326.41 38.46,-21.48 96.4,-27.7 173.82,-18.65 77.44,9.02 122.94,27.11 136.51,54.23 -5.65,20.37 -24.87,97.8 -57.65,232.32l113.62 0c27.14,-104 51.42,-192.74 72.9,-266.2 24.86,-21.49 77.71,-28.27 158.53,-20.35 80.85,7.89 131.41,27.69 151.76,59.35 -10.16,40.68 -24.01,92.69 -41.53,155.98 -17.53,63.31 -31.38,115.3 -41.55,156 -10.16,40.71 -16.94,72.35 -20.35,94.98 -5.65,31.64 -6.49,54.23 -2.53,67.8 3.96,13.57 14.41,20.36 31.36,20.36 57.07,0 118.39,-50.07 183.98,-150.22l2.54 -5.79c1.27,-1.76 2.7,-3.21 4.34,-4.35 5.56,-5.28 14.5,-5.13 26.83,0.45 11.18,4.41 21.9,11.33 32.24,20.78 14.71,11.8 20.71,20.87 17.99,27.21l-2.71 4.48c-13.83,38.23 -16.59,68.42 -8.31,90.49 8.48,22.59 25.15,33.33 50.02,32.22 49.73,-1.15 87.04,-40.14 111.92,-117 -81.41,-56.54 -109.09,-135.66 -83.08,-237.41 18.07,-71.2 58.2,-126.9 120.38,-167.03 62.16,-40.11 131.68,-61.87 208.56,-65.28 76.87,-3.38 156.27,8.2 238.23,34.79 81.97,26.55 151.2,65.28 207.72,116.13 18.1,16.97 11.86,46.06 -18.66,87.33 -30.5,41.27 -56.5,57.37 -77.99,48.35 -40.7,-31.69 -90.44,-55.98 -149.2,-72.93 -58.78,-16.97 -114.19,-24.87 -166.19,-23.76 -62.17,2.27 -99.48,33.93 -111.91,94.98 -3.38,24.87 1.41,44.92 14.41,60.2 13,15.25 29.11,22.88 48.33,22.88 40.68,0 71.78,-32.21 93.25,-96.66 19.21,-12.42 45.21,-17.24 78.01,-14.42 32.79,2.85 64.45,13.02 94.95,30.51 30.52,17.55 44.66,36.48 42.4,56.83 -48.6,144.7 -51.99,220.43 -10.19,227.22 39.58,6.77 79.99,-6.21 121.25,-39.01 41.26,-32.77 74.32,-71.78 99.18,-117 5.67,-6.78 14.99,-7.92 28,-3.4 12.99,4.54 25.42,12.16 37.3,22.91 11.86,10.74 16.67,18.94 14.41,24.58 -120.96,201.22 -263.95,300.69 -428.99,298.45 -97.22,-1.14 -141.86,-83.11 -133.97,-245.88l-28.82 8.47c-37.31,90.45 -76.88,152.9 -118.68,187.37 -41.84,34.48 -102.89,51.16 -183.15,50.04 -93.82,-1.14 -156.84,-32.5 -189.05,-94.14 -7.6,-14.47 -12.99,-30.13 -16.21,-46.97 -87.67,89.47 -185.41,136.49 -293.26,141.11 -97.21,4.51 -161.94,-15.84 -194.15,-61.06 -32.21,-45.21 -39.29,-106.83 -21.21,-184.82 1.14,-3.38 2.28,-8.48 3.4,-15.26 1.13,-6.79 2.26,-11.88 3.41,-15.26l-115.31 0c-10.17,46.35 -29.96,126.03 -59.35,239.07 -3.39,15.84 -33.36,27.71 -89.87,35.61 -56.51,7.92 -111.07,7.92 -163.65,0 -52.54,-7.9 -76.01,-22.61 -70.37,-44.09 6.57,-22.9 13.76,-48.97 21.64,-78.18 -25.12,22.07 -51.26,40.79 -78.44,56.15 -81.94,46.35 -186.22,68.96 -312.85,67.84 -131.11,-1.14 -230.89,-32.78 -299.29,-94.97 -37.62,-34.21 -65.06,-73.58 -82.35,-118.07zm415.56 -360.1c-24.88,0 -48.59,17.53 -71.21,52.57 -22.61,35.04 -35.04,76.87 -37.3,125.47 37.3,-3.39 68.09,-17.53 92.41,-42.39 24.29,-24.87 37.57,-53.14 39.84,-84.78 2.26,-33.92 -5.65,-50.87 -23.74,-50.87z"/>
   <path id="1" class="fil2 str0" d="M11682.21 1390.33c-52.2,11.51 -102.03,11.59 -149.52,0.27 -61.59,-14.7 -98.06,-46.91 -109.36,-96.64 -4.53,-21.48 1.97,-44.67 19.49,-69.53 17.52,-24.87 37.3,-42.96 59.35,-54.25 22.04,-11.33 36.45,-11.88 43.23,-1.69 15.83,27.13 43.26,42.93 82.25,47.45 39,4.55 76.59,0.88 112.76,-11.02 36.18,-11.86 62.73,-26.83 79.68,-44.93 16.97,-16.94 35.06,-10.16 54.28,20.34 20.35,31.66 24.33,59.96 11.88,84.8l-1.69 3.4c-28.91,41.38 -70.68,73.75 -125.36,97.11m0 0c21.32,-1.36 46.71,-1.24 76.15,0.36 83.66,4.53 136.8,23.17 159.41,55.97 -6.78,32.76 -16.96,74.61 -30.52,125.47 -13.57,50.87 -26.02,96.65 -37.3,137.34 -11.33,40.71 -21.22,80.56 -29.67,119.56 -8.5,38.99 -12.43,69.5 -11.87,91.56 0.56,22.02 7.07,33.07 19.5,33.07 27.11,1.12 57.94,-12.72 92.41,-41.56 34.46,-28.82 66.4,-68.1 95.8,-117.85 7.91,-9.05 23.71,-5.36 47.47,11.02 23.74,16.4 33.9,28.55 30.52,36.47 -45.21,81.37 -104.56,151.48 -178.05,210.26 -73.45,58.78 -155.42,88.15 -245.88,88.15 -48.59,0 -83.92,-16.67 -105.96,-50.01 -22.05,-33.35 -25.71,-85.62 -11.03,-156.84 -87.04,136.77 -197.81,205.74 -332.33,206.85 -40.72,0 -74.92,-5.92 -102.58,-17.8 -27.71,-11.85 -48.05,-27.13 -61.07,-45.78 -13,-18.64 -21.76,-41.25 -26.26,-67.82l-0.85 -5.17c-31.69,44.81 -62.78,83.86 -93.28,117.08 -62.73,68.4 -130.85,117.28 -204.31,146.68 -14.69,53.14 -29.96,97.21 -45.78,132.27 -15.84,35.02 -38.99,72.35 -69.52,111.92 -30.52,39.55 -70.95,69.23 -121.23,89 -50.33,19.78 -109.94,29.11 -178.91,27.99 -82.49,-1.13 -146.11,-18.66 -190.77,-52.57 -44.64,-33.91 -63.56,-85.92 -56.79,-156.01 15.82,-146.95 158.83,-235.69 428.99,-266.21 6.79,-21.47 16.41,-53.14 28.83,-94.94 12.43,-41.83 21.49,-71.78 27.14,-89.88 -40.71,67.83 -84.77,112.76 -132.27,134.8 -47.47,22.05 -101.16,33.62 -161.08,34.76 -50.87,1.14 -91.58,-7.62 -122.09,-26.28 -30.53,-18.65 -50.03,-44.38 -58.49,-77.14 -5.4,-20.9 -8.85,-41.68 -10.38,-62.32 -72.35,58.86 -164.71,83.58 -277.04,74.17 -52,44.1 -116.15,72.07 -192.46,83.95 -76.3,11.86 -153.44,0.83 -231.45,-33.06 -1.14,4.5 -42.39,166.72 -123.78,486.62 -4.52,19.22 -34.74,32.52 -90.73,39.86 -55.94,7.35 -109.91,6.77 -161.92,-1.68 -52.01,-8.49 -75.74,-22.9 -71.24,-43.26 48.6,-188.43 96.8,-374.48 144.63,-558.16 -11.64,10.59 -23.67,20.88 -36.1,30.83 -73.44,58.78 -155.42,88.15 -245.87,88.15 -48.6,0 -83.9,-16.67 -105.96,-50.01 -22.04,-33.35 -25.73,-85.62 -11.03,-156.84 -87.05,136.77 -197.84,205.74 -332.36,206.85 -40.67,0 -74.88,-5.93 -102.56,-17.8 -27.71,-11.87 -48.06,-27.13 -61.06,-45.78 -13,-18.64 -21.75,-41.25 -26.29,-67.82 -1.38,-8.17 -2.45,-16.26 -3.21,-24.23 -91.17,98.91 -193.52,150.83 -307.07,155.63 -97.22,4.56 -161.96,-15.81 -194.17,-61.03 -32.21,-45.21 -39.28,-106.82 -21.19,-184.81 1.12,-3.39 2.27,-8.48 3.39,-15.27 1.12,-6.79 2.26,-11.88 3.38,-15.26l-115.3 0c-10.17,46.33 -29.95,126.04 -59.33,239.08 -3.4,15.83 -33.35,27.71 -89.87,35.61 -56.52,7.91 -111.08,7.91 -163.63,0 -52.57,-7.9 -76.02,-22.61 -70.37,-44.09 6.26,-22 13.18,-46.92 20.68,-74.73 -91.89,83.23 -197.14,123.42 -315.73,120.5 -109.66,-3.37 -150.91,-70.08 -123.77,-200.06 -19.24,37.3 -38.71,68.94 -58.53,94.96 -19.77,25.98 -49.72,50 -89.85,72.04 -40.13,22.06 -85.63,33.06 -136.5,33.06 -138.18,0 -216.53,-56.98 -235.05,-170.92 -32.42,37.21 -66.54,68.46 -102.39,93.78 -71.22,50.3 -144.13,76.03 -218.72,77.14 -41.84,0 -77.47,-6.49 -106.85,-19.49 -29.37,-12.98 -52.56,-33.33 -69.51,-61.04 -16.96,-27.69 -29.69,-53.97 -38.17,-78.85 -8.45,-24.88 -17.79,-58.75 -27.95,-101.73 -3.41,-12.42 -5.66,-22.06 -6.8,-28.83 -20.34,18.1 -36.74,46.35 -49.17,84.77 -12.42,38.46 -26.57,94.41 -42.37,167.88 -1.15,6.78 -13.29,13.57 -36.48,20.35 -23.16,6.79 -50.59,11.87 -82.23,15.26 -31.64,3.39 -63.3,4.81 -94.97,4.24 -31.66,-0.57 -58.2,-4.82 -79.68,-12.71 -21.47,-7.92 -31.66,-19.79 -30.54,-35.62l18.84 -76.58c-27.82,24.37 -56.15,43.96 -84.95,58.77 -80.28,41.27 -171.84,62.47 -274.7,63.58 -116.43,1.16 -212.8,-26.27 -289.11,-82.22 -44.15,-32.35 -74.94,-73.91 -92.42,-124.63 -32.14,40.57 -68.3,78.15 -108.51,112.78 -68.94,59.32 -149.77,90.7 -242.48,94.07 -96.08,3.42 -158.81,-16.94 -188.21,-61.03 -29.39,-44.07 -33.93,-110.21 -13.57,-198.38 4.52,-20.35 14.97,-61.62 31.37,-123.78 16.38,-62.18 24.59,-93.82 24.59,-94.97 5.65,-21.48 7.34,-37.87 5.08,-49.16 -2.26,-11.31 -10.74,-16.4 -25.43,-15.27 -19.22,1.14 -49.16,14.7 -89.87,40.71 -7.92,35.02 -25.43,107.09 -52.57,216.19 -27.13,109.06 -46.91,191.85 -59.35,248.4 -10.17,25.99 -65.57,39.57 -166.18,40.71 -100.61,1.12 -154.29,-13.57 -161.08,-44.12 12.45,-47.45 31.95,-123.2 58.5,-227.21 26.55,-103.99 46.07,-180.84 58.49,-230.59 7.93,-29.39 -0.54,-44.09 -25.42,-44.09 -22.62,0 -53.12,14.7 -91.57,44.09 -39.56,141.31 -78.01,295.03 -115.29,461.21 -11.32,25.99 -68.69,39.28 -172.12,39.85 -103.43,0.57 -155.71,-13.86 -156.85,-43.26 0.45,-1.27 9.21,-34.52 26.33,-99.73 -22.45,15.24 -44.25,25.64 -65.3,31.07 -32.81,8.5 -66.73,14.15 -101.76,16.97 -35.03,2.82 -66.7,1.97 -94.96,-2.54 -85.92,63.29 -192.18,94.93 -318.78,94.93 -111.94,0 -198.38,-33.61 -259.45,-100.86 -61.03,-67.27 -76.31,-165.91 -45.76,-295.9 29.38,-122.11 87.89,-212.26 175.48,-270.45 87.64,-58.22 189.08,-85.63 304.38,-82.25 72.35,2.26 134.25,20.07 185.67,53.42 51.45,33.35 87.9,75.73 109.38,127.16 21.46,51.43 27.99,110.22 19.49,176.34 -8.48,66.14 -32.5,131.43 -72.07,195.86 75.23,8.71 146.74,-37.23 214.6,-137.85 27.07,-103.22 61.21,-233.57 102.49,-391.19 18.1,-21.48 69.53,-29.39 154.32,-23.74 84.78,5.64 137.34,24.3 157.68,55.97l-18.64 62.71c110.77,-80.23 206.28,-119.8 286.56,-118.68 90.42,1.13 137.35,41.83 140.75,122.08 118.68,-82.49 220.43,-123.2 305.19,-122.08 57.66,1.13 97.51,21.47 119.56,61.04 22.04,39.57 24.57,93.28 7.61,161.1 -3.38,15.81 -14.42,53.69 -33.06,113.59 -18.64,59.91 -30.79,104.01 -36.45,132.27 -6.79,29.4 -6.79,52.57 0,69.54 6.78,16.95 16.4,25.43 28.83,25.43 27.14,0 57.37,-15.28 90.71,-45.78 33.36,-30.53 63.03,-67.85 89.02,-111.92 0.68,-1.15 1.49,-2.15 2.35,-3.03 6.69,-112.22 52.54,-207.6 137.55,-286.08 88.73,-81.98 200.37,-119.54 334.9,-112.77 54.26,2.25 99.73,13.57 136.49,33.91 36.73,20.34 61.87,44.09 75.47,71.22 13.54,27.13 22.59,56.81 27.11,89.02 4.53,32.22 1.15,61.32 -10.18,87.33 -32.77,38.43 -82.52,59.07 -149.2,61.9 -66.69,2.83 -107.97,-12.71 -123.78,-46.64 1.11,-4.53 3.96,-12.71 8.47,-24.59 4.52,-11.86 8.19,-22.61 11,-32.21 2.86,-9.61 5.38,-19.79 7.65,-30.52 2.26,-10.74 1.69,-19.23 -1.69,-25.44 -3.41,-6.22 -9.62,-9.34 -18.65,-9.34 -20.35,0 -41.28,18.4 -62.75,55.12 -21.48,36.74 -36.74,89.58 -45.77,158.56 -10.18,75.73 4.8,130.83 44.94,165.33 40.11,34.45 95.25,47.73 165.31,39.82 50.87,-5.66 103.44,-25.7 157.7,-60.18 44.88,-28.54 82.02,-63.81 111.44,-105.84 109.35,-440.08 183.01,-719.36 220.91,-837.8 7.9,-16.94 39.28,-26 94.11,-27.12 54.83,-1.13 106.8,5.38 155.99,19.5 49.18,14.14 71.49,30.8 66.99,50 -56.52,187.69 -110.22,380.96 -161.1,579.94 79.13,-98.35 153.17,-167.32 222.14,-206.87 36.16,-11.32 76.86,3.96 122.08,45.76 45.23,41.84 58.78,77.45 40.72,106.83 -73.51,62.18 -136.25,122.65 -188.25,181.43 2.26,64.44 14.13,118.13 35.62,161.11 21.47,42.94 50.86,64.99 88.18,66.13 87.23,2.22 163.95,-51.99 230.16,-162.6 15.2,-63.34 43.31,-121.33 84.36,-174 55.95,-71.79 117.87,-125.19 185.68,-160.21 67.84,-35.05 135.64,-57.11 203.49,-66.17 84.77,-10.15 171.82,-6.23 261.12,11.89 89.33,18.08 158.83,53.14 208.55,105.11 6.79,27.14 -5.64,58.8 -37.28,94.97 -31.65,36.18 -57.09,53.12 -76.3,50.87 -64.44,-53.13 -149.8,-78.58 -256.05,-76.3 -51.99,0 -99.47,19.21 -142.44,57.65 -42.95,38.44 -73.47,87.6 -91.56,147.52 -33.92,114.16 -27.13,168.99 20.33,164.49 30.55,-3.41 63.04,-35.62 97.52,-96.68 34.47,-61.02 63.58,-123.78 87.32,-188.2 31.64,-15.83 78.85,-16.38 141.59,-1.7 62.75,14.69 102.02,32.78 117.85,54.27 -9.06,24.85 -20.34,58.2 -33.91,100.04 -23.76,88.15 -13,132.27 32.21,132.27 37.3,-1.14 74.87,-16.41 112.77,-45.78 35.55,-27.62 65.88,-62.19 90.95,-103.73 4.9,-19.31 9.88,-39.26 15.03,-59.93 38.41,-154.29 66.67,-263.09 84.77,-326.4 38.44,-21.49 96.37,-27.68 173.8,-18.64 77.43,9.03 122.93,27.12 136.5,54.25 -5.64,20.34 -24.86,97.77 -57.64,232.3l113.61 0c27.14,-104.01 51.44,-192.74 72.91,-266.21 24.87,-21.48 77.72,-28.29 158.52,-20.34 80.85,7.89 131.42,27.68 151.77,59.33 -10.16,40.7 -24.02,92.69 -41.53,156 -17.53,63.32 -31.37,115.32 -41.54,156.02 -10.17,40.66 -16.96,72.33 -20.35,94.94 -5.66,31.64 -6.5,54.27 -2.57,67.83 3.96,13.57 14.43,20.36 31.4,20.36 58.33,0 121.13,-52.36 188.37,-157.04 24.49,-101.77 58.34,-229.74 101.58,-383.89 23.74,-21.5 77.72,-28.26 161.94,-20.35 84.21,7.91 134.8,27.69 151.75,59.35 -73.47,262.26 -112.49,411.48 -117.02,447.65 -2.25,36.18 4.53,54.28 20.36,54.28 24.88,-1.14 52.59,-27.14 83.11,-78.02 30.52,-50.88 53.11,-101.74 67.8,-152.6 26,-83.64 53.7,-187.09 83.1,-310.31 18.08,-19.21 68.95,-26.57 152.59,-22.04 83.67,4.53 136.8,23.17 159.39,55.97 -6.76,32.76 -16.92,74.61 -30.51,125.47 -13.55,50.87 -26,96.65 -37.31,137.34 -11.31,40.71 -21.18,80.56 -29.67,119.56 -8.47,38.98 -12.42,69.5 -11.87,91.56 0.57,22.02 7.07,33.07 19.52,33.07 27.12,1.12 57.93,-12.72 92.4,-41.56 31.25,-26.13 60.42,-60.85 87.49,-104.14 34.63,-132.47 69.03,-263.62 103.27,-393.53 11.29,-11.29 38.16,-18.93 80.54,-22.89 42.38,-3.95 86.49,-1.4 132.26,7.64 45.79,9.03 76,24.84 90.72,47.48l-22.04 64.42c32.77,-27.12 59.89,-48.34 81.38,-63.58 21.5,-15.27 51.43,-29.4 89.88,-42.41 38.43,-13 77.45,-17.78 117,-14.4 50.87,4.53 91.58,25.45 122.09,62.74 30.5,37.29 48.91,82.52 55.11,135.64 6.21,53.13 0.28,111.92 -17.82,176.34 -18.09,64.47 -47.47,124.92 -88.16,181.46 48.62,2.26 92.98,-12.16 133.08,-43.24 40.14,-31.1 70.97,-66.99 92.42,-107.67 0.53,-0.62 1.07,-1.21 1.67,-1.72 20,-82.32 53.93,-208.91 101.78,-379.81 22.61,-22.61 77.44,-29.95 164.46,-22.05 87.05,7.91 136.8,28.26 149.24,61.05 -39.58,137.91 -73.47,261.13 -101.75,369.67 -5.65,21.45 -9.88,39.57 -12.71,54.25 -2.81,14.68 -4.51,29.1 -5.1,43.24 -0.54,14.14 2,23.72 7.65,28.81 5.65,5.1 14.69,5.38 27.14,0.85 24.83,-10.16 51.42,-39.85 79.69,-89.01 28.24,-49.19 48.03,-94.68 59.32,-136.49 25.99,-91.59 53.71,-195.03 83.09,-310.32 28.28,-23.74 83.94,-30.82 167.05,-21.2 83.09,9.62 131.42,28.55 144.96,56.78 -28.28,100.64 -59.06,213.97 -92.42,340.02 -33.34,126.03 -63.02,235.95 -89.01,329.78 84.33,-51.73 176.5,-159.39 276.53,-322.99 24.46,-101.81 58.32,-229.84 101.59,-384.09 23.75,-21.5 77.71,-28.25 161.94,-20.35 84.21,7.91 134.8,27.69 151.75,59.35 -73.46,262.26 -112.46,411.48 -117.01,447.65 -2.24,36.18 4.55,54.28 20.37,54.28 24.89,-1.14 52.57,-27.14 83.07,-78.02 30.55,-50.88 53.14,-101.74 67.83,-152.6 25.84,-83.13 53.37,-185.8 82.55,-308.02m-1179.61 982.89c14.69,-36.17 25.42,-71.78 32.22,-106.83 -78,13.57 -124.93,47.47 -140.76,101.75 -9.05,30.52 -0.55,50.29 25.43,59.35 27.14,9.02 50.87,-1.14 71.23,-30.53 4.53,-6.8 8.47,-14.71 11.88,-23.74zm-825.81 -578.22c39.57,-114.2 44.1,-182 13.57,-203.48 -30.5,-21.47 -71.77,-12.44 -123.77,27.13 -15.82,58.78 -41.82,157.14 -78,295.04 48.61,33.92 95.53,33.92 140.74,0 -19.21,-22.6 -22.32,-48.6 -9.32,-77.99 12.98,-29.4 31.93,-42.97 56.78,-40.7zm-7028.44 -245.88c-20.33,0 -42.95,13.88 -67.83,41.55 -24.87,27.69 -44.08,66.99 -57.63,117.84 -15.86,48.62 -20.36,98.63 -13.57,150.07 6.78,51.46 24.85,77.17 54.23,77.17 21.5,0 39.59,-7.35 54.28,-22.06 -19.22,-14.7 -22.04,-38.43 -8.47,-71.22 13.54,-32.77 35.03,-49.74 64.42,-50.87 16.95,-63.29 23.75,-119.24 20.36,-167.87 -3.41,-48.59 -18.67,-73.47 -45.79,-74.61zm11252.82 294.01c-108.27,142 -224.66,213.04 -349.18,213.04 -52,0 -91.56,-24.88 -118.7,-74.61 -27.12,-49.74 -40.11,-119.28 -39,-208.58 -19.21,57.65 -44.64,109.94 -76.3,156.85 -31.64,46.9 -59.35,73.77 -83.08,80.53 -76.88,38.45 -139.04,32.81 -186.52,-16.95 -39.57,-38.42 -60.48,-115.3 -62.75,-230.6 -27.13,87.05 -51.42,170.7 -72.89,250.94 -5.66,19.23 -46.93,32.8 -123.8,40.7 -91.56,10.19 -148.08,1.72 -169.56,-25.41 -6.77,-9.06 -8.49,-19.22 -5.1,-30.53 41.84,-126.61 83.64,-234.58 125.5,-323.88 41.83,-89.3 99.46,-197.26 172.96,-323.87 10.16,-18.09 40.68,-30.8 91.56,-38.16 50.87,-7.34 98.9,-6.21 144.13,3.4 45.22,9.6 65.56,26.28 61.04,50.03 -13.57,70.08 -22.6,148.64 -27.14,235.69 -4.5,87.06 -1.69,148.09 8.5,183.13 37.29,-55.39 101.73,-198.95 193.29,-430.68 11.3,-29.41 57.66,-43.55 139.04,-42.41 79.14,1.13 130,14.15 152.6,39 6.78,7.93 9.62,15.83 8.5,23.76 -28.26,137.88 -42.4,253.48 -42.4,346.75 0,93.28 15.83,142.16 47.47,146.68 23.74,3.38 50.04,-5.39 78.85,-26.29 28.48,-20.67 65.49,-63.11 111.08,-127.35 1.24,-114.52 45.05,-211.12 131.39,-289.79 88.76,-80.83 200.96,-118.4 336.59,-112.76 57.66,2.27 107.13,14.42 148.37,36.48 41.27,22.02 69.82,48.3 85.63,78.85 15.83,30.5 25.71,63.85 29.67,100.03 3.96,36.18 -2.53,69.52 -19.48,100.03 -27.14,58.79 -73.49,102.03 -139.06,129.71 -65.56,27.71 -145.27,37.05 -239.09,27.99 16.97,58.78 60.48,96.38 130.58,112.77 70.07,16.37 143.84,7.35 221.29,-27.14 73.54,-32.77 127.99,-82.07 163.28,-147.99 5.06,-20.05 10.26,-40.79 15.61,-62.26 38.41,-154.29 66.68,-263.12 84.75,-326.41 38.46,-21.48 96.4,-27.7 173.82,-18.65 77.44,9.02 122.94,27.11 136.51,54.23 -5.65,20.37 -24.87,97.8 -57.65,232.32l113.62 0c27.14,-104 51.42,-192.74 72.9,-266.2 24.86,-21.49 77.71,-28.27 158.53,-20.35 80.85,7.89 131.41,27.69 151.76,59.35 -10.16,40.68 -24.01,92.69 -41.53,155.98 -17.53,63.31 -31.38,115.3 -41.55,156 -10.16,40.71 -16.94,72.35 -20.35,94.98 -5.65,31.64 -6.49,54.23 -2.53,67.8 3.96,13.57 14.41,20.36 31.36,20.36 57.07,0 118.39,-50.07 183.98,-150.22l2.54 -5.79c1.27,-1.76 2.7,-3.21 4.34,-4.35 5.56,-5.28 14.5,-5.13 26.83,0.45 11.18,4.41 21.9,11.33 32.24,20.78 14.71,11.8 20.71,20.87 17.99,27.21l-2.71 4.48c-13.83,38.23 -16.59,68.42 -8.31,90.49 8.48,22.59 25.15,33.33 50.02,32.22 49.73,-1.15 87.04,-40.14 111.92,-117 -81.41,-56.54 -109.09,-135.66 -83.08,-237.41 18.07,-71.2 58.2,-126.9 120.38,-167.03 62.16,-40.11 131.68,-61.87 208.56,-65.28 76.87,-3.38 156.27,8.2 238.23,34.79 81.97,26.55 151.2,65.28 207.72,116.13 18.1,16.97 11.86,46.06 -18.66,87.33 -30.5,41.27 -56.5,57.37 -77.99,48.35 -40.7,-31.69 -90.44,-55.98 -149.2,-72.93 -58.78,-16.97 -114.19,-24.87 -166.19,-23.76 -62.17,2.27 -99.48,33.93 -111.91,94.98 -3.38,24.87 1.41,44.92 14.41,60.2 13,15.25 29.11,22.88 48.33,22.88 40.68,0 71.78,-32.21 93.25,-96.66 19.21,-12.42 45.21,-17.24 78.01,-14.42 32.79,2.85 64.45,13.02 94.95,30.51 30.52,17.55 44.66,36.48 42.4,56.83 -48.6,144.7 -51.99,220.43 -10.19,227.22 39.58,6.77 79.99,-6.21 121.25,-39.01 41.26,-32.77 74.32,-71.78 99.18,-117 5.67,-6.78 14.99,-7.92 28,-3.4 12.99,4.54 25.42,12.16 37.3,22.91 11.86,10.74 16.67,18.94 14.41,24.58 -120.96,201.22 -263.95,300.69 -428.99,298.45 -97.22,-1.14 -141.86,-83.11 -133.97,-245.88l-28.82 8.47c-37.31,90.45 -76.88,152.9 -118.68,187.37 -41.84,34.48 -102.89,51.16 -183.15,50.04 -93.82,-1.14 -156.84,-32.5 -189.05,-94.14 -7.6,-14.47 -12.99,-30.13 -16.21,-46.97 -87.67,89.47 -185.41,136.49 -293.26,141.11 -97.21,4.51 -161.94,-15.84 -194.15,-61.06 -32.21,-45.21 -39.29,-106.83 -21.21,-184.82 1.14,-3.38 2.28,-8.48 3.4,-15.26 1.13,-6.79 2.26,-11.88 3.41,-15.26l-115.31 0c-10.17,46.35 -29.96,126.03 -59.35,239.07 -3.39,15.84 -33.36,27.71 -89.87,35.61 -56.51,7.92 -111.07,7.92 -163.65,0 -52.54,-7.9 -76.01,-22.61 -70.37,-44.09 6.57,-22.9 13.76,-48.97 21.64,-78.18 -25.12,22.07 -51.26,40.79 -78.44,56.15 -81.94,46.35 -186.22,68.96 -312.85,67.84 -131.11,-1.14 -230.89,-32.78 -299.29,-94.97 -37.62,-34.21 -65.06,-73.58 -82.35,-118.07zm415.56 -360.1c-24.88,0 -48.59,17.53 -71.21,52.57 -22.61,35.04 -35.04,76.87 -37.3,125.47 37.3,-3.39 68.09,-17.53 92.41,-42.39 24.29,-24.87 37.57,-53.14 39.84,-84.78 2.26,-33.92 -5.65,-50.87 -23.74,-50.87z"/>
  </g>
  <path class="fil1 str0" d="M808.67 1509.63l335.89 0c67.63,0 122.96,55.33 122.96,122.98l0 336.53c0,67.66 -55.35,122.98 -122.96,122.98l-335.89 0c-67.64,0 -122.98,-55.32 -122.98,-122.98l0 -336.53c0,-67.65 55.34,-122.98 122.98,-122.98zm-332.12 196.13l0 27.31 -208.2 0 0 -190.48c0,-246.68 199.5,-448.38 443.5,-448.38l195.37 0 0 210.48 -195.37 0c-129.33,0 -235.3,107.14 -235.3,237.9l0 163.17zm1067.04 26.23l-79.85 0 0 -190.49c0,-130.76 -106.08,-237.89 -235.53,-237.89l-194.95 0 0 -210.49 194.95 0c244.22,0 443.92,201.7 443.92,448.38l0 190.49 -128.54 0zm-81.63 153.29l0 -26.74 208.38 0 0 199.72c0,241.6 -199.69,439.14 -443.92,439.14l-194.95 0 0 -206.15 194.95 0c129.45,0 235.54,-104.93 235.54,-232.99l0 -172.98zm-1065.18 -26.71l79.77 0 0 199.73c0,128.06 105.97,232.98 235.3,232.98l195.37 0 0 206.16 -195.37 0c-244,0 -443.5,-197.54 -443.5,-439.14l0 -199.73 128.43 0z"/>
 </g>
</svg>
