<?xml version="1.0" encoding="UTF-8"?>
<!DOCTYPE svg PUBLIC "-//W3C//DTD SVG 1.1//EN" "http://www.w3.org/Graphics/SVG/1.1/DTD/svg11.dtd">
<!-- Creator: CorelDRAW 2020 (64-Bit) -->
<svg xmlns="http://www.w3.org/2000/svg" xml:space="preserve" width="170mm" height="35mm" version="1.1" style="shape-rendering:geometricPrecision; text-rendering:geometricPrecision; image-rendering:optimizeQuality; fill-rule:evenodd; clip-rule:evenodd"
viewBox="0 0 17000 3500"
 xmlns:xlink="http://www.w3.org/1999/xlink"
 xmlns:xodm="http://www.corel.com/coreldraw/odm/2003">
 <defs>
  <style type="text/css">
   <![CDATA[
    .fil0 {fill:none}
    .fil1 {fill:black;fill-rule:nonzero}
   ]]>
  </style>
 </defs>
 <g id="Слой_x0020_1">
  <metadata id="CorelCorpID_0Corel-Layer"/>
  <polygon class="fil0" points="11.62,16.4 16966.15,16.4 16966.15,3487.74 11.62,3487.74 "/>
  <path class="fil1" d="M1420.03 1320.72l-249.8 0 0 -733.42 -253.23 0 0 733.42 -249.15 0 0 -941.85 752.18 0 0 941.85zm993.19 -472.02c0,158.51 -37.91,279.08 -113.55,361.44 -75.54,82.25 -186.6,123.77 -332.71,123.77 -143.97,0 -254.5,-41.64 -331.21,-124.43 -76.62,-82.69 -115.05,-203.59 -115.05,-361.88 0,-156.75 38.34,-276.67 114.62,-359.24 76.18,-82.47 187.25,-124 332.93,-124 146.1,0 256.66,41.12 332.07,123.12 75.41,82.01 112.9,202.48 112.9,361.22zm-631.36 -0.22c0,182.04 61.7,273.06 185.1,273.06 62.78,0 109.55,-22.4 139.69,-66.4 30.2,-44.1 45.63,-113.01 45.63,-206.66 0,-94.1 -15.64,-163.67 -46.28,-208.43 -30.56,-44.66 -76.7,-67.27 -137.75,-67.27 -124.26,0 -186.39,91.9 -186.39,275.7zm1657.97 765.09l-241.66 0 14 -292.85 -534.95 0 -14 292.85 -241.66 0 14 -501.27 76.05 0c54.85,-95.41 100.19,-205.89 135.61,-330.88 35.48,-125.19 58.49,-259.42 68.99,-402.55l612.07 0 0 733.43 125.55 0 -14 501.27zm-361.34 -501.27l0 -525 -163.25 0c-17.14,183.79 -64.28,358.8 -141.19,525l304.44 0zm1200.85 208.42l-249.8 0 0 -733.42 -253.22 0 0 733.42 -249.16 0 0 -941.85 752.18 0 0 941.85zm141.53 -941.85l220.88 0 0 404.53c0,42.96 -3.43,128.84 -10.07,257.67l5.14 0 365.7 -662.2 306.14 0 0 941.85 -219.59 0 0 -394.2c0,-59.79 3.65,-149.05 11.36,-267.99l-5.15 0 -368.91 662.19 -305.5 0 0 -941.85zm1438.95 195.23c-58.92,0 -105,24.89 -137.98,74.31 -33.15,49.66 -49.7,118.07 -49.7,205.34 0,181.16 67.27,271.74 201.59,271.74 40.5,0 79.96,-5.72 118.05,-17.37 37.89,-11.58 76.27,-25.5 114.84,-41.99l0 215.45c-76.7,34.96 -163.25,52.33 -259.87,52.33 -138.62,0 -244.7,-41.36 -318.58,-123.77 -73.88,-82.41 -110.76,-201.61 -110.76,-357.49 0,-97.39 17.82,-183.17 53.56,-257 35.75,-73.83 87.2,-130.6 154.47,-170.39 67.27,-39.8 146.11,-59.58 236.95,-59.58 99.19,0 193.87,21.99 284.29,66.17l-75.85 200.29c-33.84,-16.49 -67.91,-30.12 -101.76,-41.33 -33.85,-11.21 -70.26,-16.71 -109.25,-16.71zm1172.01 746.62l-280.44 0 -272.72 -428.3 0 428.3 -249.16 0 0 -941.85 249.16 0 0 414.2 262.64 -414.2 272.3 0 -283.22 449.6 301.44 492.25zm670.21 0l-44.99 -176.76 -298.22 0 -46.28 176.76 -251.51 0 278.29 -945.8 330.78 0 303.15 945.8 -271.22 0zm-96.63 -385.18l-39.42 -154.78c-9.21,-34.29 -20.35,-78.71 -33.63,-133.23 -13.07,-54.74 -21.85,-93.65 -25.93,-117.4 -3.85,21.98 -11.35,58.04 -22.28,108.39 -11.13,50.12 -35.77,149.28 -73.91,297.02l195.17 0zm863.58 19.79l-303.98 0 0 -218.93 303.98 0 0 -299.8 219.77 0 0 299.8 303.98 0 0 218.93 -303.98 0 0 295.06 -219.77 0 0 -295.06zm1906.63 -106.63c0,158.51 -40.91,279.05 -122.65,361.44 -81.63,82.26 -201.56,123.77 -359.39,123.77 -155.51,0 -274.79,-41.53 -357.77,-124.43 -82.86,-82.79 -124.27,-203.59 -124.27,-361.88 0,-156.75 41.29,-276.56 123.81,-359.24 82.4,-82.57 202.25,-124 359.62,-124 157.82,0 277.36,41.24 358.69,123.12 81.34,81.89 121.96,202.48 121.96,361.22zm-681.98 -0.22c0,182.04 66.64,273.06 199.94,273.06 67.81,0 118.22,-22.3 150.89,-66.4 32.75,-44.2 49.29,-113.01 49.29,-206.66 0,-94.1 -16.78,-163.56 -49.99,-208.43 -33.13,-44.75 -82.84,-67.27 -148.8,-67.27 -134.22,0 -201.33,91.9 -201.33,275.7zm1312.24 472.24l-267.75 0 0 -733.42 -277.29 0 0 -208.43 772.63 0 0 208.43 -227.59 0 0 733.42zm843.05 0l-202.95 -678.47 -6.02 0c9.49,115.65 14.11,205.38 14.11,269.33l0 409.14 -237.19 0 0 -941.85 356.61 0 206.88 668.8 5.56 0 202.72 -668.8 357.31 0 0 941.85 -246.23 0 0 -412.88c0,-21.55 0.47,-45.31 1.15,-71.67 0.68,-26.15 3.71,-90.37 9.03,-192.59l-6.01 0 -200.18 677.14 -254.79 0zm1513.11 0l-588.71 0 0 -941.85 588.71 0 0 204.46 -320.97 0 0 147.75 297.14 0 0 204.46 -297.14 0 0 178.08 320.97 0 0 207.1zm729.71 0l-295.75 0 0 -733.42 -235.29 0 0 -208.43 751.64 0 0 208.43 -220.6 0 0 733.42zm1249.65 0l-302.93 0 -294.58 -414.3 0 414.3 -269.14 0 0 -941.85 269.14 0 0 379.2 283.71 -379.2 294.13 0 -305.93 449.6 325.6 492.25zm820.83 0l-48.59 -176.76 -322.14 0 -49.99 176.76 -294.36 0 323.29 -945.8 357.31 0 327.45 945.8 -292.97 0zm-104.37 -385.18l-42.58 -154.78c-9.47,-34.42 -22.14,-78.68 -36.34,-133.23 -14.24,-54.68 -23.6,-93.65 -28,-117.4 -4.16,21.98 -12.14,58.08 -24.06,108.39 -11.88,50.14 -38.64,149.28 -79.84,297.02l210.82 0z"/>
  <path class="fil1" d="M6153.82 2927.7l0 -305.92 554.27 0 0 305.92 -554.27 0zm1519.9 384.91l-393.28 0 0 -759.11c0,-92.38 2.01,-176.73 6.02,-253.04 -24.1,29.46 -54.22,60.25 -90.37,92.05l-162.66 134.55 -201.16 -247.35 492.35 -400.98 349.1 0 0 1433.88zm1359.23 -714.6c0,253.71 -42.51,439.81 -127.52,557.62 -85.02,118.15 -214.88,177.06 -390.27,177.06 -171.37,0 -300.56,-61.58 -387.25,-184.75 -87.03,-123.51 -130.54,-306.59 -130.54,-549.93 0,-255.04 42.51,-441.81 127.53,-560.96 85.01,-118.82 215.21,-178.4 390.26,-178.4 170.7,0 299.56,61.92 386.92,185.76 87.36,123.84 130.87,308.6 130.87,553.6zm-650.33 -0.33c0,162.33 10.37,273.79 30.46,334.37 20.41,60.92 54.22,91.37 102.08,91.37 48.53,0 82.67,-31.46 102.42,-94.05 20.08,-62.92 30.12,-173.37 30.12,-331.69 0,-158.98 -10.37,-270.44 -30.45,-334.04 -20.42,-63.92 -54.23,-95.72 -102.09,-95.72 -47.86,0 -81.67,30.79 -102.08,92.38 -20.09,61.25 -30.46,173.71 -30.46,337.38zm1052.31 -287.18c0,74.98 6.36,129.2 18.74,162.67 12.39,33.14 31.13,49.87 55.9,49.87 24.77,0 43.17,-16.4 55.56,-48.87 12.05,-32.8 18.07,-87.35 18.07,-163.67 0,-75.31 -6.02,-129.19 -18.07,-162.66 -12.39,-33.14 -30.79,-49.87 -55.56,-49.87 -25.44,0 -44.18,17.07 -56.57,50.87 -12.05,33.81 -18.07,87.69 -18.07,161.66zm444.49 -4.01c0,143.92 -32.47,255.04 -97.4,333.7 -64.6,78.65 -156.64,118.15 -276.47,118.15 -112.46,0 -201.49,-40.84 -267.09,-122.17 -65.61,-81.33 -98.74,-191.12 -98.74,-329.68 0,-143.59 32.13,-254.38 96.06,-331.7 64.26,-77.31 153.96,-116.14 269.77,-116.14 114.47,0 205.51,40.17 272.79,120.5 67.27,80.32 101.08,189.44 101.08,327.34zm714.26 -427.76l-794.93 1433.88 -291.19 0 794.92 -1433.88 291.2 0zm-68.62 1002.45c0,75.3 6.03,129.53 18.41,163 12.39,33.47 31.13,50.2 55.9,50.2 28.11,0 47.52,-19.08 58.57,-57.57 10.71,-38.15 16.07,-90.03 16.07,-155.63 0,-65.27 -5.36,-117.15 -16.07,-155.64 -11.05,-38.16 -30.46,-57.24 -58.57,-57.24 -25.44,0 -44.18,17.07 -56.23,50.88 -12.05,34.14 -18.08,88.03 -18.08,162zm444.16 -3.69c0,143.26 -32.47,254.04 -97.74,333.03 -64.93,78.66 -156.97,118.16 -276.13,118.16 -112.13,0 -201.49,-40.84 -267.09,-122.17 -65.61,-81.33 -98.41,-191.12 -98.41,-329.02 0,-143.92 31.8,-254.71 96.06,-332.36 63.93,-77.32 153.97,-116.14 269.44,-116.14 114.47,0 205.51,40.16 272.78,120.83 67.28,80.33 101.09,189.44 101.09,327.67z"/>
 </g>
</svg>
