<?xml version="1.0" encoding="UTF-8"?>
<!DOCTYPE svg PUBLIC "-//W3C//DTD SVG 1.1//EN" "http://www.w3.org/Graphics/SVG/1.1/DTD/svg11.dtd">
<!-- Creator: CorelDRAW 2020 (64-Bit) -->
<svg xmlns="http://www.w3.org/2000/svg" xml:space="preserve" width="220mm" height="297mm" version="1.1" style="shape-rendering:geometricPrecision; text-rendering:geometricPrecision; image-rendering:optimizeQuality; fill-rule:evenodd; clip-rule:evenodd"
viewBox="0 0 22000 29700"
 xmlns:xlink="http://www.w3.org/1999/xlink"
 xmlns:xodm="http://www.corel.com/coreldraw/odm/2003">
 <defs>
  <style type="text/css">
   <![CDATA[
    .str0 {stroke:#2B2A29;stroke-width:20;stroke-miterlimit:22.9256}
    .fil3 {fill:black}
    .fil1 {fill:black;fill-rule:nonzero}
    .fil0 {fill:url(#id0)}
    .fil2 {fill:url(#id1)}
   ]]>
  </style>
  <linearGradient id="id0" gradientUnits="userSpaceOnUse" x1="-42688.44" y1="107872.92" x2="17366.71" y2="4280.51">
   <stop offset="0" style="stop-opacity:1; stop-color:black"/>
   <stop offset="0.721569" style="stop-opacity:1; stop-color:#7F7F7F"/>
   <stop offset="1" style="stop-opacity:1; stop-color:white"/>
  </linearGradient>
  <linearGradient id="id1" gradientUnits="userSpaceOnUse" xlink:href="#id0" x1="1695.61" y1="27240.03" x2="10048.78" y2="8154.74">
  </linearGradient>
 </defs>
 <g id="Слой_x0020_1">
  <metadata id="CorelCorpID_0Corel-Layer"/>
  <path class="fil0 str0" d="M3060.55 599.82l-5.98 0c-1376.64,3.26 -2491.62,1133.5 -2491.62,2527.24 0,7542.69 -0.01,15637.16 -0.01,22960.73 0,1393.74 1114.98,2523.97 2491.63,2527.23l5.98 0 16004.79 0 5.98 0c1374.66,-3.26 2488.4,-1130.21 2491.62,-2521.18 0,-7325.55 0,-15422.02 0,-22966.78 0,-1393.74 -1114.98,-2523.98 -2491.62,-2527.24l-5.98 0 -16004.79 0zm-1237.6 2574.92c0,-710.7 569.38,-1286.84 1271.76,-1286.84l4027.38 0c231.83,0 189.76,426.57 421.57,426.57l7037.93 0c231.82,0 189.74,-426.57 421.56,-426.57l4028.03 0c351.19,0 669.13,144.05 899.27,376.91 230.14,232.86 372.49,554.59 372.49,909.93l0 18069.98c0,710.72 -569.38,1286.85 -1271.76,1286.85l-4229.3 0 -3738.94 -595.1 -3738.94 595.1 -4229.29 0c-702.38,0 -1271.76,-576.13 -1271.76,-1286.85l-24.01 -17849.69 24.01 -220.29zm17248.37 -2574.92l-16016.75 0m608.91 23000.6l3654.81 0 3745.85 -596.05 3785.97 596.05 3599.16 0c1028.08,0 1869.23,844.16 1869.23,1875.92l0 0.01c0,1031.75 -841.15,1875.92 -1869.23,1875.92l-14785.79 0c-1028.07,0 -1869.22,-844.17 -1869.22,-1875.92l0 -0.01c0,-1031.76 841.15,-1875.92 1869.22,-1875.92z"/>
  <path class="fil1" d="M14772.26 4219.21l494.58 0 0 -494.57 0 -494.58 0 -158.42 -0.96 0c0.65,-5.15 0.96,-9.01 0.96,-11.59l0 -154.56c0,-47 -16.59,-87.1 -49.75,-120.26 -33.16,-33.16 -73.25,-49.75 -120.26,-49.75l-154.55 0c-47.01,0 -87.11,16.58 -120.26,49.75 -33.16,33.17 -49.76,73.26 -49.76,120.26l0 154.56c0,2.58 0.32,6.45 0.97,11.6l-0.97 -0.01 0 158.42 0 494.58 -494.57 0 0 494.57 494.57 0zm-7419.61 158.42l0.97 0 0 -158.41 0 -158.42 -0.97 0c0.65,-5.15 0.97,-9.01 0.97,-11.6l0 -154.55c0,-47.01 -16.59,-87.1 -49.75,-120.26 -33.16,-33.16 -73.26,-49.75 -120.27,-49.75l-154.55 0c-47.01,0 -87.1,16.58 -120.26,49.74 -33.17,33.17 -49.75,73.26 -49.75,120.27l0 154.56c0,2.57 0.32,6.44 0.96,11.59l-0.96 0 0 158.42 0 158.41 0.96 0c-0.64,5.16 -0.96,9.02 -0.96,11.59l0 154.56c0,47.01 16.58,87.1 49.75,120.26 33.17,33.17 73.25,49.75 120.26,49.75l154.55 0c47.01,0 87.11,-16.58 120.26,-49.74 33.17,-33.17 49.76,-73.26 49.76,-120.27l0 -154.56c0,-2.57 -0.32,-6.43 -0.97,-11.59zm495.55 830.74l494.57 0 0 -494.58 0 0 0 -158.42 -0.97 0c0.65,-5.15 0.97,-9.01 0.97,-11.6l0 -154.55c0,-47.01 -16.59,-87.1 -49.75,-120.26 -33.16,-33.16 -73.25,-49.74 -120.26,-49.74l-154.56 0c-47.01,0 -87.09,16.58 -120.26,49.74 -33.16,33.17 -49.74,73.25 -49.74,120.26l0 154.56c0,2.58 0.31,6.45 0.96,11.6l-0.96 -0.01 0 158.42 0 0 -324.58 0c-47,0 -87.09,16.59 -120.26,49.75 -33.16,33.16 -49.74,73.25 -49.74,120.26l0 154.56c0,47.01 16.58,87.1 49.74,120.26 33.17,33.16 73.26,49.75 120.26,49.75l324.58 0zm6923.1 -336.16l0.96 0 0 -158.42 324.57 0c47.01,0 87.1,-16.58 120.26,-49.74 33.16,-33.17 49.75,-73.26 49.75,-120.27l0 -324.56 -494.58 0 -494.57 0 0 494.57 494.57 0 0 0 -494.57 0 0 158.42 0.96 0c-0.64,5.15 -0.96,9.02 -0.96,11.59l0 154.56c0,47.01 16.58,87.1 49.74,120.26 33.17,33.16 73.26,49.75 120.27,49.75l154.56 0c47.01,0 87.1,-16.59 120.26,-49.75 33.16,-33.17 49.74,-73.25 49.74,-120.26l0 -154.56c0,-2.57 -0.3,-6.44 -0.96,-11.59zm-988.19 660.73c0,47.02 -16.59,87.1 -49.74,120.26 -33.17,33.15 -73.25,49.74 -120.27,49.74l-154.56 0c-47,0 -87.09,-16.59 -120.25,-49.74 -33.17,-33.17 -49.75,-73.25 -49.75,-120.26l0 -154.56c0,-47 16.58,-87.1 49.74,-120.26 33.17,-33.17 73.26,-49.75 120.26,-49.75l154.56 0c47.03,0 87.11,16.58 120.26,49.74 33.17,33.18 49.75,73.27 49.75,120.27l0 154.56zm-6429.49 494.57c0,47.02 -16.6,87.1 -49.75,120.26 -33.16,33.16 -73.24,49.75 -120.27,49.75l-154.55 0c-47,0 -87.09,-16.59 -120.25,-49.75 -33.17,-33.16 -49.76,-73.24 -49.76,-120.26l0 -154.56c0,-47 16.58,-87.1 49.75,-120.25 33.17,-33.17 73.25,-49.76 120.26,-49.76l154.55 0c47.03,0 87.11,16.59 120.26,49.75 33.17,33.18 49.76,73.26 49.76,120.27l0 154.55zm3956.6 0c0,47.02 -16.59,87.1 -49.74,120.26 -33.17,33.16 -73.25,49.75 -120.26,49.75l-154.56 0c-47,0 -87.1,-16.59 -120.26,-49.75 -33.16,-33.16 -49.75,-73.24 -49.75,-120.26l0 -154.56c0,-47 16.58,-87.1 49.75,-120.25 33.17,-33.17 73.26,-49.76 120.26,-49.76l154.56 0c47.02,0 87.1,16.59 120.26,49.75 33.16,33.18 49.74,73.26 49.74,120.27l0 154.55zm988.19 -166.15l0.97 0 0 -158.42 324.56 0c47.01,0 87.11,-16.58 120.26,-49.74 33.17,-33.17 49.76,-73.25 49.76,-120.26l0 -324.57 324.56 0c47.01,0 87.1,-16.59 120.26,-49.75 33.17,-33.17 49.76,-73.25 49.76,-120.26l0 -324.57 324.56 0c47.01,0 87.1,-16.58 120.26,-49.74 33.17,-33.17 49.75,-73.26 49.75,-120.27l0 -324.56 -494.57 0 -324.57 0c-47.01,0 -87.1,16.58 -120.27,49.74 -33.16,33.17 -49.74,73.25 -49.74,120.26l0 324.57 -494.58 0 -494.58 0 -494.57 0 0 494.58 -0.01 0 0 -494.58 0 0 0 -324.57c0,-47.01 -16.58,-87.1 -49.74,-120.26 -33.17,-33.16 -73.25,-49.74 -120.26,-49.74l-324.57 0 -494.57 0 -494.58 0 -324.56 0c-47.01,0 -87.11,16.58 -120.26,49.74 -33.16,33.17 -49.76,73.25 -49.76,120.26l0 324.57 -494.57 0 -494.58 0 0 494.58 494.58 0 0 494.57 0 158.42 0.96 0c-0.64,5.16 -0.96,9.02 -0.96,11.6l0 154.55c0,47.01 16.58,87.11 49.74,120.26 33.17,33.16 73.26,49.75 120.27,49.75l154.55 0c47.01,0 87.1,-16.59 120.26,-49.75 33.17,-33.16 49.75,-73.25 49.75,-120.26l0 -154.56c0,-2.57 -0.31,-6.43 -0.96,-11.59l0.96 0 0 -158.42 324.57 0c47.01,0 87.1,-16.58 120.26,-49.74 33.16,-33.17 49.75,-73.25 49.75,-120.26l0 -324.57 0 -494.58 0 0 494.58 0 494.57 0 0 0 -494.57 0 0 324.57c0,47.01 16.58,87.1 49.74,120.26 33.17,33.16 73.25,49.75 120.26,49.75l324.57 0 494.57 0 0 324.56c0,47.01 16.59,87.1 49.75,120.26 33.17,33.17 73.26,49.75 120.27,49.75l324.56 0 0 158.42 0.97 0c-0.64,5.16 -0.97,9.02 -0.97,11.6l0 154.55c0,47.01 16.58,87.11 49.75,120.26 33.17,33.16 73.26,49.75 120.26,49.75l154.56 0c47.01,0 87.1,-16.59 120.26,-49.75 33.16,-33.16 49.75,-73.25 49.75,-120.26l0 -154.56c0,-2.57 -0.31,-6.43 -0.97,-11.59zm990.13 166.15c0,47.02 -16.6,87.1 -49.75,120.26 -33.17,33.16 -73.25,49.75 -120.27,49.75l-154.55 0c-47,0 -87.1,-16.59 -120.25,-49.75 -33.17,-33.16 -49.76,-73.24 -49.76,-120.26l0 -154.56c0,-47 16.58,-87.1 49.74,-120.25 33.18,-33.17 73.26,-49.76 120.27,-49.76l154.55 0c47.03,0 87.11,16.59 120.26,49.75 33.17,33.18 49.76,73.26 49.76,120.27l0 154.55zm989.15 0c0,47.02 -16.6,87.1 -49.75,120.26 -33.17,33.16 -73.25,49.75 -120.26,49.75l-154.56 0c-47,0 -87.1,-16.59 -120.25,-49.75 -33.17,-33.16 -49.76,-73.24 -49.76,-120.26l0 -154.56c0,-47 16.59,-87.1 49.75,-120.25 33.17,-33.17 73.26,-49.76 120.26,-49.76l154.56 0c47.03,0 87.11,16.59 120.26,49.75 33.16,33.18 49.75,73.26 49.75,120.27l0 154.55zm988.19 -166.15l0.96 0 0 -158.42 0 -158.41 -0.96 0c0.65,-5.15 0.96,-9.01 0.96,-11.6l0 -154.55c0,-47.01 -16.59,-87.1 -49.75,-120.26 -33.16,-33.17 -73.25,-49.75 -120.26,-49.75l-154.55 0c-47.01,0 -87.11,16.58 -120.26,49.75 -33.16,33.16 -49.76,73.25 -49.76,120.26l0 154.56c0,2.57 0.32,6.44 0.97,11.59l-0.97 0 0 158.41 0 158.42 0.97 0c-0.64,5.16 -0.97,9.02 -0.97,11.6l0 154.55c0,47.01 16.59,87.11 49.75,120.26 33.17,33.16 73.26,49.75 120.27,49.75l154.55 0c47.01,0 87.1,-16.59 120.26,-49.75 33.16,-33.16 49.75,-73.25 49.75,-120.26l0 -154.56c0,-2.57 -0.31,-6.43 -0.96,-11.59zm-8576.85 830.74l-324.57 0 -324.56 0c-47.01,0 -87.11,16.58 -120.26,49.75 -33.16,33.16 -49.76,73.25 -49.76,120.26l0 154.56c0,47.01 16.59,87.1 49.75,120.26 33.17,33.16 73.26,49.75 120.27,49.75l324.56 0 324.57 0c47.01,0 87.1,-16.59 120.26,-49.75 33.16,-33.16 49.75,-73.26 49.75,-120.27l0 -154.55c0,-47.01 -16.59,-87.11 -49.75,-120.26 -33.16,-33.16 -73.25,-49.75 -120.26,-49.75zm-3292.03 819.14c0,47.02 -16.6,87.1 -49.75,120.26 -33.16,33.16 -73.24,49.76 -120.26,49.76l-154.56 0c-47,0 -87.09,-16.6 -120.25,-49.75 -33.17,-33.17 -49.76,-73.25 -49.76,-120.27l0 -154.56c0,-47 16.58,-87.09 49.75,-120.25 33.17,-33.16 73.26,-49.75 120.26,-49.75l154.56 0c47.02,0 87.1,16.58 120.26,49.74 33.16,33.17 49.75,73.26 49.75,120.26l0 154.56zm7418.65 170.01l494.57 0 0 -494.57 -494.57 0 0 -324.57c0,-47.01 -16.59,-87.1 -49.75,-120.26 -33.16,-33.16 -73.25,-49.75 -120.26,-49.75l-324.56 0 0 -494.58 0 -158.42 -0.97 0c0.66,-5.15 0.97,-9 0.97,-11.59l0 -154.55c0,-47.01 -16.59,-87.11 -49.75,-120.26 -33.16,-33.17 -73.25,-49.76 -120.26,-49.76l-154.56 0c-47.01,0 -87.1,16.59 -120.26,49.76 -33.17,33.17 -49.75,73.25 -49.75,120.26l0 154.55c0,2.58 0.32,6.45 0.97,11.6l-0.97 -0.01 0 158.42 0 494.58 0 494.57 494.58 0 0 0.01 -494.58 0 -324.56 0c-47.01,0 -87.11,16.58 -120.26,49.74 -33.16,33.17 -49.76,73.26 -49.76,120.26l0 154.56c0,47.01 16.59,87.1 49.75,120.26 33.17,33.17 73.26,49.76 120.27,49.76l324.56 0 0 -0.01 494.58 0 494.57 0zm1977.34 158.42l0.97 0 0 -158.41 324.56 0c47.01,0 87.1,-16.59 120.26,-49.75 33.17,-33.17 49.76,-73.26 49.76,-120.27l0 -324.56 0 -324.57c0,-47.01 -16.59,-87.1 -49.75,-120.26 -33.17,-33.16 -73.26,-49.75 -120.27,-49.75l-324.56 0 -324.57 0c-47.01,0 -87.1,16.58 -120.26,49.75 -33.16,33.16 -49.75,73.25 -49.75,120.26l0 324.57 -494.58 0 -494.57 0 0 494.57 494.57 0 494.58 0 494.58 0 0 0.01 -494.58 0 0 158.41 0.96 0c-0.64,5.15 -0.96,9.02 -0.96,11.59l0 154.56c0,47.01 16.58,87.1 49.75,120.26 33.17,33.16 73.25,49.75 120.26,49.75l154.55 0c47.01,0 87.11,-16.59 120.26,-49.75 33.17,-33.16 49.76,-73.25 49.76,-120.26l0 -154.56c0,-2.57 -0.32,-6.44 -0.97,-11.59zm990.12 166.15c0,47.02 -16.59,87.1 -49.74,120.26 -33.17,33.16 -73.25,49.75 -120.27,49.75l-154.56 0c-47,0 -87.09,-16.6 -120.25,-49.75 -33.17,-33.16 -49.75,-73.24 -49.75,-120.26l0 -154.56c0,-47 16.58,-87.09 49.74,-120.25 33.17,-33.17 73.26,-49.75 120.26,-49.75l154.56 0c47.03,0 87.11,16.58 120.26,49.74 33.17,33.17 49.75,73.26 49.75,120.26l0 154.56zm3955.65 -166.15l0.97 0 0 -158.41 -494.58 0 0 158.41 0.96 0c-0.64,5.15 -0.96,9.02 -0.96,11.59l0 154.56c0,47.01 16.58,87.1 49.74,120.26 33.17,33.16 73.26,49.75 120.27,49.75l154.56 0c47.01,0 87.1,-16.59 120.26,-49.75 33.16,-33.16 49.75,-73.25 49.75,-120.26l0 -154.56c0,-2.57 -0.31,-6.44 -0.97,-11.59zm-2641.93 336.16l-324.57 0 0 -494.58 0 -494.57 324.57 0c47.01,0 87.1,-16.59 120.26,-49.75 33.16,-33.16 49.75,-73.26 49.75,-120.27l0 -154.55c0,-47.01 -16.59,-87.11 -49.75,-120.26 -33.16,-33.16 -73.25,-49.75 -120.26,-49.75l-324.57 0 0 -158.42 -0.96 0c0.65,-5.15 0.96,-9.01 0.96,-11.59l0 -154.56c0,-47 -16.58,-87.1 -49.74,-120.26 -33.17,-33.16 -73.25,-49.75 -120.26,-49.75l-154.56 0c-47.01,0 -87.1,16.58 -120.26,49.75 -33.16,33.17 -49.75,73.26 -49.75,120.26l0 154.56c0,2.58 0.32,6.45 0.96,11.6l-0.96 -0.01 0 158.42 0 0 0 494.57 494.57 0 0 0.01 -494.57 0 0 494.57 0 494.58 0 0 0 324.56c0,47.01 16.58,87.1 49.74,120.26 33.17,33.17 73.26,49.76 120.27,49.76l324.56 0 324.57 0c47.01,0 87.1,-16.59 120.26,-49.75 33.16,-33.17 49.75,-73.25 49.75,-120.26l0 -154.56c0,-47.01 -16.59,-87.1 -49.75,-120.26 -33.16,-33.16 -73.25,-49.75 -120.26,-49.75zm-7248.63 819.14c0,47.02 -16.6,87.1 -49.75,120.26 -33.17,33.16 -73.25,49.75 -120.27,49.75l-154.56 0c-47,0 -87.09,-16.59 -120.25,-49.74 -33.16,-33.17 -49.75,-73.25 -49.75,-120.27l0 -154.56c0,-47 16.58,-87.09 49.74,-120.25 33.17,-33.17 73.26,-49.75 120.26,-49.75l154.56 0c47.03,0 87.11,16.58 120.26,49.74 33.17,33.18 49.76,73.27 49.76,120.27l0 154.55zm9891.53 0c0,47.02 -16.6,87.1 -49.75,120.26 -33.17,33.16 -73.25,49.75 -120.26,49.75l-154.56 0c-47,0 -87.1,-16.59 -120.25,-49.74 -33.17,-33.17 -49.76,-73.25 -49.76,-120.27l0 -154.56c0,-47 16.58,-87.09 49.74,-120.25 33.18,-33.17 73.27,-49.75 120.27,-49.75l154.56 0c47.03,0 87.11,16.58 120.26,49.74 33.16,33.18 49.75,73.27 49.75,120.27l0 154.55zm-12364.42 494.58c0,47.02 -16.6,87.1 -49.75,120.26 -33.17,33.16 -73.25,49.75 -120.26,49.75l-154.56 0c-47,0 -87.1,-16.59 -120.25,-49.75 -33.17,-33.16 -49.76,-73.24 -49.76,-120.26l0 -154.56c0,-47 16.59,-87.1 49.75,-120.25 33.17,-33.17 73.26,-49.76 120.26,-49.76l154.56 0c47.03,0 87.11,16.59 120.26,49.75 33.16,33.18 49.75,73.26 49.75,120.27l0 154.55zm1482.76 -166.15l0.97 0 0 -158.42 0 -494.57 324.56 0c47.01,0 87.11,-16.59 120.26,-49.75 33.17,-33.17 49.76,-73.25 49.76,-120.26l0 -324.57 494.58 0 0 158.41 0.96 0.01c-0.65,5.15 -0.96,9.02 -0.96,11.59l0 154.56c0,47.01 16.58,87.1 49.74,120.26 33.17,33.16 73.25,49.75 120.26,49.75l154.56 0c47.01,0 87.1,-16.59 120.26,-49.75 33.16,-33.17 49.75,-73.25 49.75,-120.26l0 -154.56c0,-2.57 -0.31,-6.44 -0.97,-11.59l0.97 0 0 -158.42 324.57 0c47.01,0 87.1,-16.59 120.26,-49.75 33.16,-33.16 49.75,-73.25 49.75,-120.26l0 -154.56c0,-47.01 -16.59,-87.1 -49.75,-120.26 -33.17,-33.16 -73.25,-49.74 -120.26,-49.74l-324.57 0 0 -0.01 -494.57 0 0 -494.57 324.56 0c47.01,0 87.1,-16.59 120.26,-49.75 33.16,-33.16 49.75,-73.26 49.75,-120.27l0 -324.56 324.57 0c47.01,0 87.1,-16.59 120.26,-49.75 33.16,-33.16 49.75,-73.25 49.75,-120.26l0 -154.56c0,-47.01 -16.59,-87.1 -49.75,-120.26 -33.17,-33.16 -73.25,-49.75 -120.26,-49.75l-324.57 0 0 -158.42 -0.97 0c0.65,-5.15 0.97,-9 0.97,-11.59l0 -154.55c0,-47.01 -16.59,-87.11 -49.75,-120.26 -33.16,-33.17 -73.25,-49.76 -120.26,-49.76l-154.56 0c-47.01,0 -87.09,16.59 -120.26,49.76 -33.16,33.17 -49.74,73.25 -49.74,120.26l0 154.55c0,2.58 0.31,6.45 0.96,11.6l-0.96 -0.01 0 158.42 0 494.58 -324.58 0c-47,0 -87.09,16.58 -120.26,49.75 -33.16,33.16 -49.74,73.25 -49.74,120.26l0 324.57 -324.57 0c-47.01,0 -87.1,16.58 -120.26,49.74 -33.17,33.17 -49.75,73.26 -49.75,120.26l0 324.57 0 0.01 0 494.57 -324.57 0c-47,0 -87.1,16.59 -120.26,49.75 -33.15,33.16 -49.75,73.25 -49.75,120.26l0 324.57 -494.58 0 0 -494.58 324.57 0c47.01,0 87.1,-16.59 120.26,-49.75 33.16,-33.16 49.75,-73.25 49.75,-120.26l0 -154.56c0,-47.01 -16.59,-87.1 -49.75,-120.26 -33.16,-33.16 -73.25,-49.74 -120.26,-49.74l-324.57 0 0 -0.01 0 -324.57c0,-47 -16.58,-87.1 -49.74,-120.26 -33.17,-33.15 -73.25,-49.74 -120.26,-49.74l-324.57 0 0 -324.57c0,-47.01 -16.59,-87.1 -49.75,-120.26 -33.17,-33.16 -73.25,-49.75 -120.26,-49.75l-324.57 0 -324.57 0c-47.01,0 -87.09,16.58 -120.26,49.75 -33.16,33.16 -49.74,73.25 -49.74,120.26l0 324.57 -324.57 0c-47.01,0 -87.1,16.58 -120.27,49.74 -33.16,33.17 -49.74,73.26 -49.74,120.26l0 154.56c0,47.01 16.58,87.1 49.74,120.26 33.17,33.17 73.26,49.76 120.27,49.76l324.57 0 0 -0.01 494.57 0 494.58 0 0 0.01 0 0 0 494.57 0 494.58 0 0 0 324.56c0,47.01 16.58,87.1 49.74,120.26 33.17,33.17 73.26,49.75 120.27,49.75l324.56 0 494.58 0 0 158.42 0.97 0c-0.65,5.16 -0.97,9.02 -0.97,11.6l0 154.55c0,47.01 16.58,87.11 49.75,120.26 33.17,33.16 73.26,49.75 120.26,49.75l154.56 0c47.01,0 87.1,-16.59 120.26,-49.75 33.16,-33.16 49.75,-73.25 49.75,-120.26l0 -154.56c0,-2.57 -0.31,-6.43 -0.97,-11.59zm7744.19 -158.42l-324.57 0 0 -158.41 -0.97 0c0.65,-5.15 0.97,-9.01 0.97,-11.6l0 -154.55c0,-47.01 -16.59,-87.1 -49.75,-120.26 -33.17,-33.17 -73.25,-49.75 -120.26,-49.75l-154.56 0c-47.01,0 -87.1,16.58 -120.26,49.75 -33.16,33.17 -49.75,73.25 -49.75,120.26l0 154.56c0,2.57 0.32,6.44 0.97,11.59l-0.97 0 0 158.41 0 324.57c0,47.01 16.59,87.1 49.75,120.26 33.16,33.16 73.25,49.75 120.26,49.75l324.57 0 324.57 0c47.01,0 87.1,-16.59 120.26,-49.75 33.16,-33.16 49.74,-73.25 49.74,-120.26l0 -154.56c0,-47.01 -16.58,-87.1 -49.74,-120.26 -33.17,-33.16 -73.25,-49.75 -120.26,-49.75zm1159.16 324.57c0,47.02 -16.59,87.1 -49.75,120.26 -33.16,33.16 -73.24,49.75 -120.26,49.75l-154.56 0c-47,0 -87.09,-16.59 -120.25,-49.75 -33.17,-33.16 -49.76,-73.24 -49.76,-120.26l0 -154.56c0,-47 16.58,-87.1 49.75,-120.25 33.17,-33.17 73.26,-49.76 120.26,-49.76l154.56 0c47.02,0 87.1,16.59 120.26,49.75 33.16,33.18 49.75,73.26 49.75,120.27l0 154.55zm-11870.81 328.43l0.97 0 0 -158.42 324.56 0c47.01,0 87.1,-16.59 120.26,-49.75 33.17,-33.16 49.76,-73.25 49.76,-120.26l0 -324.57 324.56 0c47.01,0 87.1,-16.58 120.26,-49.74 33.17,-33.17 49.75,-73.25 49.75,-120.27l0 -324.56 0 -324.57c0,-47.01 -16.58,-87.1 -49.74,-120.26 -33.17,-33.16 -73.26,-49.75 -120.27,-49.75l-324.56 0 -494.58 0 -324.57 0c-47.01,0 -87.1,16.59 -120.26,49.75 -33.16,33.16 -49.75,73.25 -49.75,120.26l0 154.56c0,47.01 16.58,87.1 49.75,120.26 33.17,33.16 73.25,49.75 120.26,49.75l324.57 0 0 494.57 -494.58 0 0 -158.41 -0.97 0c0.66,-5.15 0.97,-9.01 0.97,-11.6l0 -154.55c0,-47.01 -16.59,-87.1 -49.75,-120.26 -33.16,-33.17 -73.25,-49.75 -120.26,-49.75l-154.56 0c-47,0 -87.1,16.58 -120.26,49.75 -33.15,33.17 -49.75,73.25 -49.75,120.26l0 154.56c0,2.57 0.32,6.44 0.97,11.59l-0.97 0 0 158.41 0 324.57c0,47.01 16.58,87.1 49.75,120.26 33.17,33.16 73.26,49.75 120.26,49.75l324.57 0 0 158.42 0.96 0c-0.64,5.15 -0.96,9.01 -0.96,11.59l0 154.56c0,47.01 16.58,87.1 49.75,120.26 33.17,33.16 73.25,49.75 120.26,49.75l154.55 0c47.01,0 87.11,-16.59 120.26,-49.75 33.17,-33.16 49.76,-73.25 49.76,-120.26l0 -154.56c0,-2.58 -0.32,-6.44 -0.97,-11.59zm4452.16 166.15c0,47.02 -16.6,87.1 -49.75,120.26 -33.16,33.15 -73.24,49.75 -120.26,49.75l-154.56 0c-47,0 -87.09,-16.6 -120.25,-49.75 -33.17,-33.16 -49.75,-73.24 -49.75,-120.26l0 -154.56c0,-47 16.58,-87.1 49.74,-120.26 33.17,-33.16 73.26,-49.75 120.26,-49.75l154.56 0c47.03,0 87.11,16.58 120.26,49.75 33.16,33.17 49.75,73.26 49.75,120.26l0 154.56zm-4945.77 494.57c0,47.02 -16.6,87.1 -49.75,120.26 -33.16,33.16 -73.24,49.75 -120.26,49.75l-154.56 0c-47,0 -87.09,-16.59 -120.25,-49.75 -33.17,-33.16 -49.76,-73.24 -49.76,-120.26l0 -154.56c0,-47 16.58,-87.1 49.75,-120.25 33.17,-33.16 73.26,-49.75 120.26,-49.75l154.56 0c47.02,0 87.1,16.58 120.26,49.74 33.16,33.17 49.75,73.26 49.75,120.26l0 154.56zm1482.77 -166.15l0.96 0 0 -158.41 0 -158.42 -0.96 0c0.65,-5.15 0.96,-9.01 0.96,-11.59l0 -154.56c0,-47 -16.58,-87.1 -49.74,-120.26 -33.17,-33.16 -73.26,-49.75 -120.27,-49.75l-154.56 0c-47.01,0 -87.09,16.58 -120.26,49.75 -33.16,33.16 -49.74,73.25 -49.74,120.26l0 154.56c0,2.58 0.31,6.45 0.96,11.6l-0.96 -0.01 0 158.42 0 158.41 0.96 0c-0.65,5.16 -0.96,9.02 -0.96,11.59l0 154.56c0,47.01 16.58,87.1 49.74,120.26 33.17,33.16 73.25,49.75 120.26,49.75l154.56 0c47.01,0 87.1,-16.59 120.26,-49.75 33.17,-33.16 49.75,-73.25 49.75,-120.26l0 -154.56c0,-2.57 -0.31,-6.43 -0.96,-11.59zm495.54 506.17l0 -170.01 -324.57 0c-47.01,0 -87.1,16.58 -120.26,49.75 -33.16,33.16 -49.75,73.25 -49.75,120.26l0 154.56c0,47.01 16.59,87.1 49.75,120.26 33.16,33.15 73.25,49.74 120.26,49.74l324.57 0 0 -324.56zm1978.31 -170.01l-494.58 0 0 0 494.58 0 0 -494.57 0 -158.42 -0.97 0c0.65,-5.15 0.97,-9.01 0.97,-11.59l0 -154.56c0,-47 -16.59,-87.1 -49.75,-120.26 -33.16,-33.16 -73.26,-49.75 -120.27,-49.75l-154.55 0c-47.01,0 -87.1,16.58 -120.26,49.75 -33.17,33.16 -49.75,73.25 -49.75,120.26l0 154.56c0,2.58 0.32,6.45 0.96,11.6l-0.96 -0.01 0 158.42 -324.57 0c-47,0 -87.1,16.58 -120.26,49.74 -33.15,33.16 -49.75,73.25 -49.75,120.26l0 324.57 -494.58 0 0 -494.57 324.57 0c47.01,0 87.1,-16.59 120.26,-49.75 33.16,-33.16 49.75,-73.25 49.75,-120.26l0 -154.56c0,-47.01 -16.59,-87.1 -49.75,-120.26 -33.16,-33.16 -73.25,-49.75 -120.26,-49.75l-324.57 0 -324.56 0c-47.01,0 -87.1,16.58 -120.26,49.75 -33.16,33.16 -49.75,73.25 -49.75,120.26l0 324.57 0 0 0 494.57 0 494.57 494.57 0 494.58 0 494.58 0 0 0.01 324.56 -0.01c47.01,0 87.11,-16.59 120.26,-49.74 33.17,-33.17 49.76,-73.25 49.76,-120.26l0 -324.57zm7417.68 158.42l0.96 0 0 -158.42 0 -158.42 -0.96 0c0.65,-5.15 0.96,-9.01 0.96,-11.6l0 -154.55c0,-47.01 -16.58,-87.1 -49.74,-120.26 -33.17,-33.15 -73.25,-49.74 -120.26,-49.74l-154.56 0c-47.01,0 -87.1,16.58 -120.26,49.74 -33.16,33.16 -49.75,73.25 -49.75,120.26l0 154.56c0,2.57 0.32,6.44 0.96,11.59l-0.96 0 0 158.42 0 158.42 0.96 0c-0.64,5.15 -0.96,9.01 -0.96,11.59l0 154.56c0,47.01 16.58,87.1 49.74,120.26 33.17,33.15 73.26,49.74 120.27,49.74l154.56 0c47.01,0 87.1,-16.59 120.26,-49.74 33.16,-33.17 49.74,-73.25 49.74,-120.26l0 -154.56c0,-2.58 -0.3,-6.44 -0.96,-11.59zm495.54 660.72c0,47.03 -16.59,87.11 -49.75,120.26 -33.16,33.16 -73.24,49.75 -120.26,49.75l-154.55 0c-47.01,0 -87.1,-16.59 -120.26,-49.75 -33.17,-33.16 -49.76,-73.24 -49.76,-120.26l0 -154.55c0,-47.01 16.59,-87.1 49.75,-120.26 33.18,-33.17 73.26,-49.76 120.27,-49.76l154.55 0c47.03,0 87.11,16.59 120.26,49.75 33.16,33.18 49.75,73.26 49.75,120.27l0 154.55zm-494.58 1653.74l494.58 0 0 -494.57 0 -324.57c0,-47.01 -16.59,-87.1 -49.75,-120.26 -33.16,-33.16 -73.25,-49.75 -120.26,-49.75l-324.57 0 0 -324.57c0,-47.01 -16.58,-87.1 -49.74,-120.26 -33.17,-33.16 -73.25,-49.75 -120.26,-49.75l-324.57 0 0 -158.42 -0.97 0c0.65,-5.15 0.97,-9 0.97,-11.59l0 -154.55c0,-47.01 -16.59,-87.11 -49.75,-120.26 -33.17,-33.17 -73.25,-49.76 -120.26,-49.76l-154.56 0c-47.01,0 -87.1,16.59 -120.26,49.76 -33.16,33.16 -49.75,73.25 -49.75,120.26l0 154.55c0,2.58 0.32,6.45 0.97,11.6l-0.97 -0.01 0 158.42 0 494.58 0 324.56c0,47.01 16.59,87.11 49.75,120.26 33.16,33.17 73.25,49.76 120.26,49.76l324.57 0 0 -494.58 0 0 0 494.58 494.57 0 0 494.57zm-494.57 324.57c0,47.02 -16.6,87.1 -49.75,120.26 -33.17,33.16 -73.25,49.75 -120.26,49.75l-154.56 0c-47,0 -87.1,-16.59 -120.25,-49.74 -33.17,-33.17 -49.76,-73.25 -49.76,-120.27l0 -154.56c0,-47 16.59,-87.09 49.75,-120.25 33.17,-33.17 73.26,-49.75 120.26,-49.75l154.56 0c47.03,0 87.11,16.58 120.26,49.74 33.16,33.17 49.75,73.26 49.75,120.26l0 154.56zm988.19 -166.15l0.96 0 0 -158.41 -494.58 0 0 158.41 0.97 0c-0.64,5.16 -0.97,9.02 -0.97,11.59l0 154.56c0,47.01 16.59,87.1 49.75,120.26 33.17,33.16 73.26,49.75 120.27,49.75l154.55 0c47.01,0 87.1,-16.59 120.26,-49.74 33.16,-33.17 49.75,-73.26 49.75,-120.27l0 -154.56c0,-2.57 -0.31,-6.43 -0.96,-11.59zm1979.27 336.16l494.58 0 0 -494.57 -494.58 0 0 494.57zm-4945.77 324.57c0,47.02 -16.59,87.1 -49.75,120.26 -33.16,33.16 -73.24,49.75 -120.26,49.75l-154.56 0c-47,0 -87.09,-16.6 -120.25,-49.75 -33.17,-33.17 -49.76,-73.25 -49.76,-120.26l0 -154.56c0,-47 16.58,-87.1 49.75,-120.25 33.17,-33.17 73.26,-49.76 120.26,-49.76l154.56 0c47.02,0 87.1,16.59 120.26,49.75 33.16,33.17 49.75,73.26 49.75,120.26l0 154.56zm3956.62 0c0,47.02 -16.6,87.1 -49.75,120.26 -33.16,33.16 -73.24,49.75 -120.27,49.75l-154.55 0c-47,0 -87.09,-16.6 -120.25,-49.75 -33.17,-33.17 -49.76,-73.25 -49.76,-120.26l0 -154.56c0,-47 16.58,-87.1 49.75,-120.25 33.17,-33.17 73.25,-49.76 120.26,-49.76l154.55 0c47.03,0 87.11,16.59 120.26,49.75 33.17,33.17 49.76,73.26 49.76,120.26l0 154.56zm2967.46 0c0,47.02 -16.59,87.1 -49.75,120.26 -33.16,33.16 -73.24,49.75 -120.26,49.75l-154.56 0c-47,0 -87.09,-16.6 -120.25,-49.75 -33.17,-33.17 -49.76,-73.25 -49.76,-120.26l0 -154.56c0,-47 16.58,-87.1 49.75,-120.25 33.17,-33.17 73.26,-49.76 120.26,-49.76l154.56 0c47.02,0 87.1,16.59 120.26,49.75 33.16,33.17 49.75,73.26 49.75,120.26l0 154.56zm-4452.16 328.43l0.96 0 0 -158.42 0 -158.42 -0.96 0c0.65,-5.15 0.96,-9.01 0.96,-11.6l0 -154.55c0,-47.01 -16.58,-87.1 -49.74,-120.26 -33.17,-33.16 -73.25,-49.75 -120.26,-49.75l-154.56 0c-47.01,0 -87.1,16.59 -120.26,49.75 -33.16,33.16 -49.75,73.25 -49.75,120.26l0 154.56c0,2.57 0.32,6.44 0.96,11.59l-0.96 0 0 158.42 0 158.41 0.96 0.01c-0.64,5.15 -0.96,9.01 -0.96,11.59l0 154.56c0,47.01 16.58,87.1 49.74,120.26 33.17,33.15 73.26,49.74 120.27,49.74l154.56 0c47.01,0 87.1,-16.59 120.26,-49.74 33.16,-33.17 49.74,-73.25 49.74,-120.26l0 -154.56c0,-2.58 -0.3,-6.44 -0.96,-11.59zm3787.57 -158.42l-324.57 0 -324.56 0c-47.01,0 -87.1,16.58 -120.26,49.75 -33.16,33.16 -49.75,73.25 -49.75,120.26l0 154.56c0,47.01 16.58,87.1 49.74,120.26 33.17,33.15 73.26,49.74 120.27,49.74l324.56 0 324.57 0c47.01,0 87.1,-16.59 120.26,-49.74 33.16,-33.17 49.75,-73.25 49.75,-120.26l0 -154.56c0,-47.01 -16.59,-87.1 -49.75,-120.26 -33.16,-33.17 -73.25,-49.75 -120.26,-49.75zm-5271.3 652.99l0.97 0 0 -158.42 0 -494.57 0 -158.42 -0.97 0c0.65,-5.15 0.97,-9.01 0.97,-11.6l0 -154.55c0,-47.01 -16.59,-87.1 -49.75,-120.26 -33.17,-33.16 -73.26,-49.75 -120.27,-49.75l-154.55 0c-47.01,0 -87.1,16.59 -120.27,49.75 -33.16,33.16 -49.74,73.25 -49.74,120.26l0 154.56c0,2.57 0.32,6.44 0.96,11.59l-0.96 0 0 158.42 -324.57 0c-47.01,0 -87.1,16.58 -120.26,49.75 -33.16,33.16 -49.75,73.25 -49.75,120.26l0 154.56c0,47.01 16.58,87.1 49.75,120.26 33.17,33.15 73.25,49.74 120.26,49.74l324.57 0 0 158.42 0.96 0c-0.64,5.16 -0.96,9.02 -0.96,11.6l0 154.55c0,47.01 16.58,87.11 49.74,120.26 33.17,33.16 73.26,49.75 120.27,49.75l154.55 0c47.01,0 87.1,-16.59 120.26,-49.75 33.17,-33.16 49.76,-73.25 49.76,-120.26l0 -154.56c0,-2.57 -0.32,-6.43 -0.97,-11.59zm820.11 336.16l-324.57 0 -324.57 0c-47.01,0 -87.09,16.58 -120.26,49.75 -33.16,33.17 -49.74,73.25 -49.74,120.26l0 154.56c0,47.01 16.58,87.1 49.74,120.26 33.17,33.16 73.25,49.75 120.26,49.75l324.57 0 324.57 0c47.01,0 87.1,-16.59 120.26,-49.75 33.16,-33.16 49.75,-73.25 49.75,-120.26l0 -154.56c0,-47.01 -16.59,-87.1 -49.75,-120.26 -33.17,-33.16 -73.25,-49.75 -120.26,-49.75zm4451.19 0l-324.57 0 -324.56 0c-47.01,0 -87.1,16.58 -120.26,49.75 -33.16,33.17 -49.75,73.25 -49.75,120.26l0 154.56c0,47.01 16.58,87.1 49.74,120.26 33.17,33.16 73.26,49.75 120.27,49.75l324.56 0 324.57 0c47.01,0 87.1,-16.59 120.26,-49.75 33.16,-33.16 49.75,-73.25 49.75,-120.26l0 -154.56c0,-47.01 -16.59,-87.1 -49.75,-120.26 -33.16,-33.16 -73.25,-49.75 -120.26,-49.75zm-7743.22 989.15l0 0.01 324.57 0c47.01,0 87.1,-16.59 120.26,-49.75 33.16,-33.16 49.74,-73.26 49.74,-120.27l0 -324.56 324.57 0c47.01,0 87.11,-16.59 120.26,-49.75 33.16,-33.16 49.75,-73.25 49.75,-120.26l0 -324.57 0 -494.58 0 -324.56c0,-47.01 -16.59,-87.1 -49.75,-120.26 -33.16,-33.17 -73.25,-49.75 -120.26,-49.75l-324.57 0 -324.56 0c-47.01,0 -87.1,16.58 -120.26,49.75 -33.17,33.16 -49.75,73.25 -49.75,120.26l0 154.56c0,47.01 16.58,87.1 49.75,120.26 33.16,33.15 73.25,49.74 120.26,49.74l324.56 0 0.01 0 0 494.58 -0.01 0 -494.57 0 0 -158.42 -0.96 0c0.65,-5.15 0.96,-9.01 0.96,-11.59l0 -154.55c0,-47.01 -16.59,-87.11 -49.75,-120.26 -33.16,-33.17 -73.25,-49.76 -120.26,-49.76l-154.56 0c-47.01,0 -87.1,16.59 -120.26,49.76 -33.16,33.17 -49.74,73.25 -49.74,120.26l0 154.55c0,2.58 0.32,6.45 0.96,11.6l-0.96 -0.01 0 158.42 0 494.58 -494.58 0 0 -494.58 0 -494.58 0 -494.57 324.57 0c47.01,0 87.1,-16.59 120.26,-49.75 33.16,-33.17 49.75,-73.25 49.75,-120.26l0 -154.56c0,-47.01 -16.59,-87.1 -49.75,-120.26 -33.16,-33.16 -73.25,-49.75 -120.26,-49.75l-324.57 0 0 0 -494.58 0 -494.57 0 -494.58 0 0 494.58 494.58 0 0 324.56c0,47.01 16.58,87.1 49.74,120.26 33.17,33.16 73.26,49.75 120.27,49.75l324.56 0 0 494.58 -494.57 0 -494.58 0 0 494.58 494.58 0 494.57 0 0 494.57 494.58 0 494.58 0 494.57 0zm5440.35 -170.01c0,47.03 -16.6,87.11 -49.75,120.26 -33.16,33.16 -73.24,49.76 -120.27,49.76l-154.55 0c-47,0 -87.09,-16.6 -120.25,-49.75 -33.17,-33.16 -49.76,-73.24 -49.76,-120.27l0 -154.55c0,-47.01 16.58,-87.1 49.75,-120.26 33.17,-33.16 73.25,-49.75 120.26,-49.75l154.55 0c47.03,0 87.11,16.58 120.26,49.75 33.17,33.17 49.76,73.25 49.76,120.26l0 154.55zm-4451.2 494.58c0,47.02 -16.59,87.1 -49.75,120.26 -33.16,33.16 -73.24,49.76 -120.26,49.76l-154.55 0c-47.01,0 -87.1,-16.6 -120.26,-49.75 -33.17,-33.17 -49.76,-73.25 -49.76,-120.27l0 -154.56c0,-47 16.59,-87.09 49.75,-120.25 33.18,-33.16 73.26,-49.75 120.27,-49.75l154.55 0c47.03,0 87.11,16.58 120.26,49.74 33.16,33.17 49.75,73.26 49.75,120.26l0 154.56zm988.19 -166.15l0.97 0 0 -158.41 324.56 0c47.01,0 87.1,-16.59 120.26,-49.75 33.17,-33.16 49.76,-73.26 49.76,-120.27l0 -154.55c0,-47.01 -16.59,-87.11 -49.75,-120.26 -33.17,-33.16 -73.26,-49.75 -120.27,-49.75l-324.56 0 -324.57 0c-47.01,0 -87.1,16.58 -120.26,49.75 -33.16,33.16 -49.75,73.25 -49.75,120.26l0 324.57 0 158.41 0.96 0c-0.64,5.16 -0.96,9.02 -0.96,11.59l0 154.56c0,47.01 16.58,87.1 49.75,120.26 33.17,33.17 73.25,49.76 120.26,49.76l154.55 0c47.01,0 87.11,-16.59 120.26,-49.75 33.17,-33.17 49.76,-73.26 49.76,-120.27l0 -154.56c0,-2.57 -0.32,-6.43 -0.97,-11.59zm3957.59 336.16l-494.58 0 -494.58 0 -494.58 0 0 -494.57 -494.58 0 0 -0.01 494.58 0 0 -494.57 0 -494.58 494.58 0 494.58 0 494.58 0 0 494.58 0 494.57 494.57 0 0 0.01 -494.57 0 0 494.57zm-7418.66 1483.73l324.57 0c47.01,0 87.1,-16.59 120.26,-49.74 33.16,-33.17 49.75,-73.25 49.75,-120.27l0 -324.57 494.58 0 324.56 0c47.01,0 87.1,-16.58 120.26,-49.74 33.16,-33.17 49.75,-73.25 49.75,-120.26l0 -324.57 324.57 0c47.01,0 87.1,-16.59 120.26,-49.75 33.16,-33.16 49.74,-73.25 49.74,-120.26l0 -154.56c0,-47.01 -16.58,-87.1 -49.74,-120.26 -33.17,-33.16 -73.25,-49.74 -120.26,-49.74l-324.57 0 0 -0.01 -494.57 0 0 -494.57 -494.58 0 -494.58 0 -324.56 0c-47.01,0 -87.1,16.58 -120.26,49.74 -33.16,33.17 -49.75,73.25 -49.75,120.26l0 154.56c0,47.01 16.58,87.1 49.74,120.26 33.17,33.17 73.26,49.76 120.27,49.76l324.56 0 0 494.57 -494.57 0 -324.57 0c-47.01,0 -87.1,16.59 -120.26,49.75 -33.16,33.16 -49.75,73.25 -49.75,120.26l0 154.56c0,47.01 16.58,87.1 49.74,120.26 33.17,33.16 73.26,49.74 120.27,49.74l324.57 0 0 324.57c0,47.01 16.58,87.1 49.74,120.26 33.17,33.16 73.26,49.75 120.27,49.75l324.56 0zm7913.23 -170.01c0,47.02 -16.6,87.1 -49.75,120.26 -33.16,33.16 -73.24,49.75 -120.26,49.75l-154.56 0c-47,0 -87.09,-16.59 -120.25,-49.74 -33.17,-33.17 -49.75,-73.25 -49.75,-120.27l0 -154.56c0,-47 16.58,-87.09 49.74,-120.25 33.17,-33.17 73.26,-49.76 120.26,-49.76l154.56 0c47.03,0 87.11,16.59 120.26,49.75 33.16,33.18 49.75,73.26 49.75,120.27l0 154.55zm-1159.17 170.01l-324.56 0 -324.57 0c-47,0 -87.1,16.59 -120.26,49.76 -33.15,33.17 -49.75,73.25 -49.75,120.26l0 154.55c0,47.01 16.58,87.11 49.75,120.26 33.17,33.16 73.26,49.75 120.26,49.75l324.57 0 324.56 0c47.01,0 87.11,-16.59 120.26,-49.75 33.17,-33.16 49.76,-73.25 49.76,-120.26l0 -154.56c0,-47.01 -16.59,-87.1 -49.75,-120.26 -33.16,-33.16 -73.26,-49.75 -120.27,-49.75zm-5934.91 494.58l-324.57 0 -494.58 0 -494.57 0 0 -158.42 -0.97 0c0.65,-5.15 0.97,-9.01 0.97,-11.59l0 -154.55c0,-47.01 -16.59,-87.11 -49.75,-120.26 -33.17,-33.17 -73.25,-49.76 -120.26,-49.76l-154.56 0c-47.01,0 -87.1,16.59 -120.26,49.76 -33.16,33.17 -49.75,73.25 -49.75,120.26l0 154.55c0,2.58 0.32,6.45 0.96,11.6l-0.96 -0.01 0 158.42 0 324.57c0,47.01 16.58,87.1 49.74,120.26 33.17,33.16 73.26,49.75 120.27,49.75l324.57 0 0 -0.01 494.57 0 494.58 0 0 0.01 324.57 0c47.01,0 87.1,-16.59 120.26,-49.75 33.16,-33.16 49.75,-73.25 49.75,-120.26l0 -154.56c0,-47.01 -16.59,-87.1 -49.75,-120.26 -33.16,-33.16 -73.25,-49.75 -120.26,-49.75zm2967.45 0l-324.56 0 0 -324.56c0,-47.01 -16.59,-87.11 -49.75,-120.26 -33.16,-33.17 -73.26,-49.76 -120.27,-49.76l-324.56 0 0 -494.58 324.56 0c47.01,0 87.11,-16.58 120.26,-49.74 33.17,-33.17 49.76,-73.25 49.76,-120.26l0 -154.56c0,-47.01 -16.59,-87.1 -49.75,-120.26 -33.16,-33.16 -73.26,-49.75 -120.27,-49.75l-324.56 0 -494.58 0 -324.56 0c-47.01,0 -87.11,16.59 -120.26,49.75 -33.16,33.16 -49.76,73.25 -49.76,120.26l0 154.56c0,47.01 16.59,87.1 49.75,120.26 33.17,33.16 73.26,49.74 120.27,49.74l324.56 0 0 494.58 -494.57 0 0 494.58 -0.01 0 0 -494.58 -494.57 0 -324.57 0c-47.01,0 -87.1,16.59 -120.26,49.76 -33.16,33.17 -49.74,73.25 -49.74,120.26l0 154.55c0,47.01 16.58,87.11 49.74,120.26 33.17,33.16 73.25,49.75 120.26,49.75l324.57 0 0 324.57c0,47.01 16.58,87.1 49.75,120.26 33.16,33.16 73.25,49.75 120.26,49.75l324.56 0 324.57 0c47.01,0 87.11,-16.59 120.26,-49.75 33.16,-33.16 49.75,-73.25 49.75,-120.26l0 -324.57 494.58 0 0 324.57c0,47.01 16.58,87.1 49.75,120.26 33.17,33.16 73.25,49.75 120.26,49.75l324.57 0 324.56 0c47.01,0 87.1,-16.59 120.26,-49.75 33.17,-33.16 49.76,-73.25 49.76,-120.26l0 -154.56c0,-47.01 -16.59,-87.1 -49.75,-120.26 -33.17,-33.16 -73.26,-49.75 -120.27,-49.75zm1978.31 0l-324.57 0 -494.57 0 0 494.57 494.57 0 0 0.01 324.57 0c47.01,0 87.1,-16.59 120.26,-49.75 33.16,-33.16 49.75,-73.25 49.75,-120.26l0 -154.56c0,-47.01 -16.59,-87.1 -49.75,-120.26 -33.16,-33.16 -73.25,-49.75 -120.26,-49.75zm2148.32 494.58l324.57 0c47.01,0 87.1,-16.59 120.26,-49.75 33.16,-33.16 49.75,-73.25 49.75,-120.26l0 -324.57 494.57 0 494.58 0 324.57 0c47.01,0 87.1,-16.59 120.26,-49.75 33.16,-33.16 49.75,-73.25 49.75,-120.26l0 -324.57 0 -324.56c0,-47.01 -16.59,-87.1 -49.75,-120.26 -33.16,-33.17 -73.25,-49.76 -120.26,-49.76l-324.57 0 0 -494.57 0 -494.57 0 -0.01 0 -324.57c0,-47.01 -16.59,-87.1 -49.75,-120.26 -33.16,-33.15 -73.25,-49.74 -120.26,-49.74l-324.57 0 -494.57 0 0 -324.57c0,-47.01 -16.59,-87.1 -49.75,-120.26 -33.17,-33.16 -73.25,-49.75 -120.26,-49.75l-324.57 0 0 -494.58 0 -494.58 0 -494.57 324.57 0c47.01,0 87.1,-16.59 120.26,-49.75 33.16,-33.17 49.75,-73.25 49.75,-120.26l0 -324.57 -494.58 0 0 0 0 -494.57 -494.57 0 -324.58 0c-47,0 -87.09,16.58 -120.26,49.74 -33.16,33.17 -49.74,73.25 -49.74,120.26l0 154.56c0,47.01 16.58,87.1 49.74,120.26 33.17,33.16 73.26,49.75 120.26,49.75l324.58 0 0 494.58 0 494.57 -494.58 0 -494.58 0 -494.58 0 -324.56 0c-47.01,0 -87.11,16.59 -120.26,49.76 -33.16,33.17 -49.76,73.25 -49.76,120.26l0 324.56 0 494.58 -324.56 0c-47.01,0 -87.1,16.58 -120.26,49.75 -33.16,33.16 -49.75,73.25 -49.75,120.26l0 324.57 -494.58 0 -324.57 0c-47.01,0 -87.09,16.58 -120.26,49.74 -33.16,33.17 -49.74,73.25 -49.74,120.26l0 324.57 0 0.01 -324.57 0c-47.01,0 -87.1,16.58 -120.27,49.74 -33.16,33.17 -49.74,73.25 -49.74,120.26l0 154.56c0,47.01 16.58,87.1 49.74,120.26 33.17,33.16 73.26,49.75 120.27,49.75l324.57 0 0 494.57 0 494.58 0 324.57c0,47.01 16.58,87.1 49.74,120.26 33.17,33.16 73.25,49.75 120.26,49.75l324.57 0 0 324.57c0,47.01 16.59,87.1 49.75,120.26 33.16,33.16 73.25,49.75 120.26,49.75l324.57 0 0 -494.58 0 -494.58 0 -494.58 0 -494.57 0 -494.58 0 -494.57 0 0 0 494.57 0 494.58 494.57 0 494.58 0 0 158.41 0.97 0.01c-0.65,5.15 -0.97,9.02 -0.97,11.59l0 154.56c0,47.01 16.58,87.1 49.75,120.26 33.17,33.16 73.26,49.74 120.26,49.74l154.56 0c47.01,0 87.1,-16.58 120.26,-49.74 33.16,-33.17 49.75,-73.25 49.75,-120.26l0 -154.56c0,-2.57 -0.31,-6.44 -0.97,-11.59l0.97 0 0 -158.42 494.58 0 0 158.41 0.96 0.01c-0.64,5.15 -0.96,9.02 -0.96,11.59l0 154.56c0,47.01 16.58,87.1 49.74,120.26 33.17,33.16 73.26,49.74 120.26,49.74l154.56 0c47.01,0 87.1,-16.58 120.26,-49.74 33.17,-33.17 49.76,-73.25 49.76,-120.26l0 -154.56c0,-2.57 -0.32,-6.44 -0.97,-11.59l0.97 0 0 -158.42 494.57 0 0 0 324.57 0c47.01,0 87.1,-16.59 120.26,-49.75 33.16,-33.16 49.75,-73.25 49.75,-120.26l0 -324.56 -494.58 0 0 -0.01 0 -494.57 0 0 0 494.57 494.58 0 494.57 0 0 0.01 0 494.57 -324.56 0c-47.01,0 -87.1,16.59 -120.26,49.75 -33.16,33.16 -49.75,73.25 -49.75,120.26l0 154.56c0,47.01 16.58,87.1 49.74,120.26 33.17,33.16 73.26,49.74 120.27,49.74l324.56 0 0 494.58 -494.57 0 -324.57 0c-47.01,0 -87.1,16.59 -120.26,49.76 -33.16,33.17 -49.75,73.25 -49.75,120.26l0 324.56 -324.57 0c-47.01,0 -87.09,16.58 -120.26,49.75 -33.16,33.16 -49.74,73.25 -49.74,120.26l0 154.56c0,47.01 16.58,87.1 49.74,120.26 33.17,33.16 73.25,49.75 120.26,49.75l324.57 0zm0 -5934.93l494.58 0 0 -494.57 494.57 0 494.58 0 324.57 0c47.01,0 87.1,-16.59 120.26,-49.75 33.16,-33.16 49.75,-73.26 49.75,-120.27l0 -324.56 0 -494.58 0 -158.42 -0.97 0c0.66,-5.15 0.97,-9 0.97,-11.59l0 -154.55c0,-47.01 -16.59,-87.11 -49.75,-120.26 -33.16,-33.17 -73.25,-49.76 -120.26,-49.76l-154.56 0c-47.01,0 -87.1,16.59 -120.26,49.76 -33.17,33.16 -49.75,73.25 -49.75,120.26l0 154.55c0,2.58 0.32,6.45 0.97,11.6l-0.97 -0.01 0 158.42 0 494.58 -494.58 0 0 -324.57c0,-47.01 -16.58,-87.1 -49.74,-120.26 -33.17,-33.16 -73.25,-49.75 -120.27,-49.75l-324.56 0 0 -494.58 0 -494.57 494.57 0 0 0 0 158.42 0.97 0c-0.65,5.15 -0.97,9.01 -0.97,11.59l0 154.56c0,47.01 16.59,87.1 49.75,120.26 33.17,33.15 73.26,49.74 120.27,49.74l154.55 0c47.01,0 87.1,-16.59 120.26,-49.74 33.16,-33.17 49.75,-73.25 49.75,-120.26l0 -154.56c0,-2.58 -0.31,-6.44 -0.96,-11.59l0.96 0 0 -158.42 0 -324.57c0,-47.01 -16.59,-87.1 -49.75,-120.26 -33.16,-33.15 -73.25,-49.74 -120.26,-49.74l-324.57 0 -494.57 0 0 -0.01 494.57 0 0 -494.57 324.57 0c47.01,0 87.1,-16.59 120.26,-49.75 33.16,-33.16 49.75,-73.25 49.75,-120.26l0 -324.57 0 -494.57 0 -494.58 324.57 0c47.01,0 87.1,-16.59 120.26,-49.75 33.16,-33.16 49.75,-73.25 49.75,-120.26l0 -154.56c0,-47.01 -16.59,-87.1 -49.75,-120.26 -33.16,-33.16 -73.25,-49.74 -120.26,-49.74l-324.57 0 -324.56 0c-47.01,0 -87.11,16.58 -120.26,49.74 -33.16,33.17 -49.76,73.25 -49.76,120.26l0 324.57 -324.56 0c-47.01,0 -87.1,16.59 -120.26,49.75 -33.16,33.16 -49.75,73.25 -49.75,120.26l0 154.56c0,47.01 16.58,87.1 49.74,120.26 33.17,33.16 73.26,49.75 120.27,49.75l324.56 0 0 494.57 -324.56 0c-47.01,0 -87.1,16.59 -120.26,49.76 -33.16,33.17 -49.75,73.25 -49.75,120.26l0 324.56 -324.57 0c-47.01,0 -87.1,16.58 -120.26,49.75 -33.16,33.16 -49.75,73.25 -49.75,120.26l0 324.57 -324.57 0c-47.01,0 -87.09,16.58 -120.26,49.74 -33.16,33.16 -49.74,73.25 -49.74,120.26l0 324.57 -494.58 0 0 -494.57 324.56 0c47.01,0 87.1,-16.59 120.26,-49.75 33.17,-33.16 49.76,-73.25 49.76,-120.26l0 -324.57 0 -494.58 0 -494.57 324.56 0c47.01,0 87.1,-16.59 120.26,-49.75 33.16,-33.17 49.75,-73.25 49.75,-120.26l0 -154.56c0,-47.01 -16.59,-87.1 -49.75,-120.26 -33.16,-33.16 -73.25,-49.75 -120.26,-49.75l-324.56 0 0 -494.57 0 -0.01 494.57 0 0 -494.57 0 0 0 494.57 494.58 0 0 -494.57 324.56 0c47.01,0 87.1,-16.59 120.26,-49.75 33.17,-33.16 49.75,-73.26 49.75,-120.27l0 -154.55c0,-47.01 -16.58,-87.11 -49.74,-120.26 -33.17,-33.16 -73.25,-49.75 -120.27,-49.75l-324.56 0 -324.57 0c-47.01,0 -87.1,16.58 -120.26,49.75 -33.16,33.16 -49.75,73.25 -49.75,120.26l0 324.57 -494.57 0 -324.58 0c-47,0 -87.09,16.58 -120.26,49.74 -33.16,33.17 -49.74,73.26 -49.74,120.26l0 324.57 -494.58 0 0 -158.42 -0.97 0c0.66,-5.15 0.97,-9.01 0.97,-11.59l0 -154.56c0,-47 -16.59,-87.1 -49.75,-120.26 -33.16,-33.15 -73.25,-49.74 -120.26,-49.74l-154.56 0c-47,0 -87.1,16.58 -120.26,49.74 -33.15,33.17 -49.75,73.26 -49.75,120.26l0 154.56c0,2.58 0.32,6.45 0.97,11.6l-0.97 -0.01 0 158.43 0 324.56c0,47.01 16.58,87.1 49.75,120.26 33.17,33.16 73.26,49.75 120.26,49.75l324.57 0 494.58 0 0 494.58 -324.57 0c-47.01,0 -87.1,16.58 -120.26,49.75 -33.17,33.17 -49.75,73.25 -49.75,120.26l0 154.56c0,47.01 16.58,87.1 49.75,120.26 33.17,33.16 73.25,49.74 120.26,49.74l324.57 0 0 494.58 -324.57 0c-47.01,0 -87.1,16.58 -120.26,49.75 -33.17,33.16 -49.75,73.25 -49.75,120.26l0 324.57 -324.57 0c-47,0 -87.1,16.58 -120.26,49.74 -33.15,33.16 -49.75,73.25 -49.75,120.26l0 154.56c0,47.01 16.58,87.1 49.75,120.26 33.17,33.16 73.26,49.75 120.26,49.75l324.57 0 0 494.57 0 494.58 -324.57 0c-47,0 -87.1,16.58 -120.26,49.75 -33.15,33.17 -49.75,73.25 -49.75,120.26l0 154.56c0,47.01 16.58,87.1 49.75,120.26 33.17,33.16 73.26,49.75 120.26,49.75l324.57 0 0 324.56c0,47.01 16.58,87.11 49.75,120.26 33.17,33.17 73.25,49.76 120.26,49.76l324.57 0 494.58 0 494.57 0 0 -494.58 -494.57 0 -494.58 0 0 -494.58 494.58 0 494.57 0 0 -494.58 0 -494.57 0 0 0 -324.57 0 -170 0 0 0 494.57 0 494.57 0 494.58 0 494.58 0 494.58 0 494.57zm-13354.54 -1325.31l0.97 0 0 -158.42 324.56 0c47.01,0 87.1,-16.59 120.26,-49.75 33.17,-33.16 49.76,-73.25 49.76,-120.26l0 -324.57 0 -158.41 -0.97 0c0.65,-5.15 0.97,-9.01 0.97,-11.6l0 -154.55c0,-47.01 -16.59,-87.1 -49.75,-120.26 -33.17,-33.16 -73.26,-49.75 -120.27,-49.75l-154.55 0c-47.01,0 -87.1,16.58 -120.27,49.75 -33.16,33.16 -49.74,73.25 -49.74,120.26l0 154.56c0,2.57 0.32,6.44 0.96,11.59l-0.96 0 0 158.41 -494.58 0 -324.57 0c-47,0 -87.1,16.59 -120.26,49.76 -33.15,33.16 -49.75,73.25 -49.75,120.26l0 154.55c0,47.01 16.58,87.11 49.75,120.26 33.17,33.16 73.26,49.75 120.26,49.75l324.57 0 0 158.42 0.96 0c-0.64,5.15 -0.96,9.02 -0.96,11.59l0 154.56c0,47.01 16.58,87.1 49.75,120.26 33.17,33.16 73.25,49.75 120.26,49.75l154.55 0c47.01,0 87.11,-16.59 120.26,-49.75 33.17,-33.16 49.76,-73.25 49.76,-120.26l0 -154.56c0,-2.57 -0.32,-6.44 -0.97,-11.59zm2473.85 166.15c0,47.02 -16.59,87.1 -49.75,120.26 -33.16,33.15 -73.24,49.75 -120.26,49.75l-154.55 0c-47.01,0 -87.1,-16.6 -120.26,-49.75 -33.17,-33.16 -49.76,-73.24 -49.76,-120.26l0 -154.56c0,-47.01 16.59,-87.1 49.75,-120.26 33.18,-33.16 73.26,-49.75 120.27,-49.75l154.55 0c47.03,0 87.11,16.58 120.26,49.75 33.16,33.17 49.75,73.26 49.75,120.26l0 154.56zm-1483.73 1159.16l494.58 0 0 -494.57 324.57 0c47.01,0 87.1,-16.59 120.26,-49.75 33.16,-33.16 49.74,-73.26 49.74,-120.27l0 -154.55c0,-47.01 -16.58,-87.11 -49.74,-120.26 -33.17,-33.16 -73.25,-49.75 -120.26,-49.75l-324.57 0 -494.58 0 -324.57 0c-47.01,0 -87.09,16.58 -120.26,49.75 -33.16,33.17 -49.74,73.25 -49.74,120.26l0 154.56c0,47.01 16.58,87.1 49.74,120.26 33.17,33.16 73.25,49.75 120.26,49.75l324.57 0 0 494.57zm1483.73 -170.01c0,47.02 -16.59,87.1 -49.75,120.26 -33.16,33.16 -73.24,49.76 -120.26,49.76l-154.55 0c-47.01,0 -87.1,-16.6 -120.26,-49.75 -33.17,-33.17 -49.76,-73.25 -49.76,-120.27l0 -154.56c0,-47 16.59,-87.09 49.75,-120.25 33.18,-33.16 73.26,-49.75 120.27,-49.75l154.55 0c47.03,0 87.11,16.58 120.26,49.74 33.16,33.18 49.75,73.26 49.75,120.27l0 154.55zm988.19 -166.15l0.97 0 0 -158.41 494.58 0 324.56 0c47.01,0 87.1,-16.59 120.26,-49.75 33.16,-33.16 49.75,-73.26 49.75,-120.27l0 -154.55c0,-47.01 -16.59,-87.11 -49.75,-120.26 -33.16,-33.16 -73.25,-49.75 -120.26,-49.75l-324.56 0 0 -494.58 324.56 0c47.01,0 87.1,-16.59 120.26,-49.75 33.16,-33.16 49.75,-73.25 49.75,-120.26l0 -154.55c0,-47.01 -16.59,-87.11 -49.75,-120.26 -33.16,-33.17 -73.25,-49.76 -120.26,-49.76l-324.56 0 -324.58 0c-47,0 -87.09,16.59 -120.26,49.76 -33.16,33.16 -49.74,73.25 -49.74,120.26l0 324.56 0 494.58 -324.57 0c-47.01,0 -87.1,16.58 -120.26,49.75 -33.17,33.17 -49.75,73.25 -49.75,120.26l0 324.57 0 158.41 0.96 0c-0.64,5.16 -0.96,9.02 -0.96,11.6l0 154.56c0,47.01 16.58,87.1 49.75,120.26 33.17,33.16 73.25,49.75 120.26,49.75l154.55 0c47.01,0 87.11,-16.59 120.26,-49.75 33.17,-33.17 49.76,-73.26 49.76,-120.27l0 -154.56c0,-2.57 -0.32,-6.43 -0.97,-11.59zm-3631.09 1819.89l-324.56 0 0 -494.57 0 -494.58 0 0 494.58 0 494.58 0 0 494.58 0 158.41 0.96 0.01c-0.65,5.15 -0.96,9.01 -0.96,11.59l0 154.56c0,47.01 16.58,87.1 49.74,120.26 33.17,33.15 73.25,49.74 120.26,49.74l154.56 0c47.01,0 87.1,-16.59 120.26,-49.74 33.17,-33.17 49.75,-73.25 49.75,-120.26l0 -154.56c0,-2.58 -0.31,-6.44 -0.96,-11.59l0.96 0 0 -158.42 0 -494.58 324.57 0c47.01,0 87.1,-16.59 120.26,-49.74 33.16,-33.17 49.75,-73.26 49.75,-120.27l0 -324.56 -494.58 0 -494.57 0 -494.58 0 0 -158.42 -0.97 0c0.65,-5.15 0.97,-9.01 0.97,-11.6l0 -154.55c0,-47.01 -16.59,-87.1 -49.75,-120.26 -33.16,-33.16 -73.26,-49.75 -120.27,-49.75l-154.55 0c-47.01,0 -87.1,16.58 -120.26,49.74 -33.16,33.17 -49.75,73.25 -49.75,120.27l0 154.56c0,2.57 0.32,6.44 0.96,11.59l-0.96 0 0 158.42 -324.57 0c-47,0 -87.1,16.58 -120.26,49.74 -33.15,33.17 -49.75,73.25 -49.75,120.26l0 324.57 0 0 0 494.58 0 494.57 0 324.57c0,47.01 16.58,87.1 49.75,120.26 33.17,33.16 73.26,49.75 120.26,49.75l324.57 0 324.56 0c47.01,0 87.11,-16.59 120.26,-49.75 33.17,-33.16 49.76,-73.25 49.76,-120.26l0 -154.56c0,-47.01 -16.59,-87.1 -49.75,-120.26 -33.16,-33.16 -73.26,-49.75 -120.27,-49.75zm1653.75 170.02l0 -170.02 -324.57 0c-47.01,0 -87.1,16.59 -120.26,49.76 -33.16,33.17 -49.75,73.25 -49.75,120.26l0 154.55c0,47.01 16.59,87.11 49.75,120.26 33.16,33.16 73.25,49.75 120.26,49.75l324.57 0 0 -324.56zm819.14 -170.02l-324.57 0 -494.57 0 0 494.58 494.57 0 324.57 0c47.01,0 87.1,-16.59 120.26,-49.75 33.16,-33.16 49.75,-73.25 49.75,-120.26l0 -154.56c0,-47.01 -16.59,-87.1 -49.75,-120.26 -33.16,-33.16 -73.25,-49.75 -120.26,-49.75zm1158.2 1147.58l0.97 0 0 -158.42 494.58 0 494.57 0 0 -494.58 0 -324.56c0,-47.01 -16.59,-87.11 -49.75,-120.26 -33.16,-33.17 -73.25,-49.76 -120.26,-49.76l-324.56 0 0 -494.57 494.57 0 0 -494.58 -494.57 0 -494.58 0 -494.58 0 -494.58 0 0 0 -324.56 0c-47.01,0 -87.11,16.59 -120.26,49.75 -33.16,33.16 -49.76,73.25 -49.76,120.26l0 154.56c0,47.01 16.59,87.1 49.75,120.26 33.17,33.16 73.26,49.75 120.27,49.75l324.56 0 494.58 0 0 494.57 0 494.58 0 494.58 0 158.42 0.96 0c-0.64,5.15 -0.96,9.01 -0.96,11.59l0 154.56c0,47.01 16.58,87.1 49.75,120.26 33.17,33.16 73.25,49.75 120.26,49.75l154.55 0c47.01,0 87.11,-16.59 120.26,-49.75 33.17,-33.16 49.76,-73.26 49.76,-120.27l0 -154.55c0,-2.58 -0.32,-6.44 -0.97,-11.59zm325.53 1325.31l-324.56 0 0 -158.42 -0.97 0c0.65,-5.15 0.97,-9.01 0.97,-11.6l0 -154.55c0,-47.01 -16.59,-87.1 -49.75,-120.26 -33.16,-33.16 -73.26,-49.74 -120.27,-49.74l-154.55 0c-47.01,0 -87.1,16.58 -120.26,49.74 -33.17,33.17 -49.75,73.25 -49.75,120.26l0 154.56c0,2.57 0.32,6.45 0.96,11.6l-0.96 -0.01 0 158.42 0 324.56c0,47.01 16.58,87.1 49.75,120.26 33.17,33.17 73.25,49.75 120.26,49.75l324.57 0 324.56 0c47.01,0 87.1,-16.58 120.26,-49.74 33.17,-33.17 49.76,-73.25 49.76,-120.26l0 -154.56c0,-47.01 -16.59,-87.1 -49.75,-120.26 -33.17,-33.16 -73.26,-49.75 -120.27,-49.75zm1159.17 -14172.72c0,-47 -16.59,-87.1 -49.75,-120.26 -33.17,-33.16 -73.25,-49.75 -120.26,-49.75l-154.56 0c-47.01,0 -87.1,16.58 -120.26,49.75 -33.16,33.17 -49.75,73.26 -49.75,120.26l0 154.56c0,2.58 0.32,6.45 0.96,11.6l-0.96 -0.01 0 158.42 0 324.56c0,47.01 16.58,87.11 49.74,120.26 33.17,33.17 73.26,49.76 120.27,49.76l324.57 0 494.57 0 494.58 0 0 494.57 494.58 0 494.57 0 0 -494.57 0 -494.58 494.57 0 0 324.56c0,47.01 16.59,87.11 49.75,120.26 33.17,33.17 73.26,49.76 120.27,49.76l324.56 0 494.58 0 0 158.41 0.96 0c-0.64,5.16 -0.96,9.02 -0.96,11.6l0 154.56c0,47.01 16.58,87.1 49.75,120.26 33.17,33.16 73.25,49.75 120.26,49.75l154.55 0c47.01,0 87.11,-16.59 120.26,-49.75 33.17,-33.17 49.76,-73.26 49.76,-120.27l0 -154.56c0,-2.57 -0.32,-6.43 -0.97,-11.59l0.97 0 0 -158.41 494.58 0 0 494.57 494.57 0 494.58 0 0 -494.57 -494.58 0 0 -494.58 324.57 0c47.01,0 87.1,-16.59 120.26,-49.75 33.16,-33.16 49.75,-73.25 49.75,-120.26l0 -154.56c0,-47.01 -16.59,-87.1 -49.75,-120.26 -33.17,-33.16 -73.25,-49.75 -120.26,-49.75l-324.57 0 -324.57 0c-47.01,0 -87.09,16.58 -120.26,49.75 -33.16,33.17 -49.74,73.26 -49.74,120.26l0 324.57 -494.58 0 0 -324.57c0,-47 -16.59,-87.1 -49.75,-120.26 -33.16,-33.16 -73.26,-49.75 -120.27,-49.75l-324.56 0 -494.58 0 -494.57 0 0 494.58 -0.01 0 0 -494.58 -494.57 0 -494.57 0 -324.57 0c-47.01,0 -87.1,16.58 -120.26,49.75 -33.17,33.17 -49.75,73.26 -49.75,120.26l0 324.57 -494.58 0 -494.57 0 0 -158.42 -0.97 0c0.65,-5.15 0.97,-9.01 0.97,-11.59l0 -154.56z"/>
  <g id="_2458354609264">
   <path class="fil2 str0" d="M12115.88 13193.39l-2105.88 0c-686.18,0 -1244.45,-558.21 -1244.45,-1244.45l0 -2105.88c0,-686.24 558.27,-1244.45 1244.45,-1244.45l2105.88 0c686.24,0 1244.45,558.21 1244.45,1244.45l0 2105.94c0,686.18 -558.21,1244.39 -1244.45,1244.39zm-2070.84 -4148.14c-459.23,0 -832.85,373.62 -832.85,832.85l0 2035.86c0,459.23 373.62,832.85 832.85,832.85l2035.8 0c459.23,0 832.85,-373.62 832.85,-832.85l0 -2035.86c0,-459.23 -373.62,-832.85 -832.85,-832.85l-2035.8 0zm1017.9 2999.44c-633.39,0 -1148.69,-515.35 -1148.69,-1148.69 0,-633.45 515.3,-1148.69 1148.69,-1148.69 633.39,0 1148.69,515.25 1148.69,1148.69 0,633.34 -515.31,1148.69 -1148.69,1148.69zm0 -1853.88c-388.85,0 -705.19,316.34 -705.19,705.19 0,388.9 316.34,705.19 705.19,705.19 388.85,0 705.18,-316.29 705.18,-705.19 0,-388.85 -316.28,-705.19 -705.18,-705.19zm1483.72 -480.19c0,-164.76 -133.57,-298.32 -298.32,-298.32 -164.76,0 -298.31,133.56 -298.31,298.32 0,164.76 133.55,298.31 298.31,298.31 164.75,0 298.32,-133.55 298.32,-298.31z"/>
   <path class="fil3 str0" d="M3843.43 6157.32c-517.55,0 -941.01,-423.45 -941.01,-940.99l0 -1539.85c0,-517.53 423.46,-941 941.01,-941l1539.83 0c517.54,0 941.01,423.47 941.01,941l0 1539.85c0,517.54 -423.47,940.99 -941.01,940.99l-1539.83 0zm1495.76 -380.2c332.68,0 604.88,-272.19 604.88,-604.87l0 -1451.69c0,-332.68 -272.2,-604.87 -604.88,-604.87l-1451.69 0c-332.68,0 -604.87,272.19 -604.87,604.87l0 1451.69c0,332.68 272.19,604.87 604.87,604.87l1451.69 0zm50.32 -1330.72c0,428.66 -347.5,776.15 -776.16,776.15 -428.65,0 -776.16,-347.49 -776.16,-776.15 0,-428.66 347.51,-776.15 776.16,-776.15 428.66,0 776.16,347.49 776.16,776.15z"/>
   <path class="fil3 str0" d="M16742.62 6157.32c-517.54,0 -941,-423.45 -941,-940.99l0 -1539.85c0,-517.53 423.46,-941 941,-941l1539.83 0c517.55,0 941.01,423.47 941.01,941l0 1539.85c0,517.54 -423.46,940.99 -941.01,940.99l-1539.83 0zm1495.76 -380.2c332.68,0 604.88,-272.19 604.88,-604.87l0 -1451.69c0,-332.68 -272.2,-604.87 -604.88,-604.87l-1451.69 0c-332.68,0 -604.87,272.19 -604.87,604.87l0 1451.69c0,332.68 272.19,604.87 604.87,604.87l1451.69 0zm50.32 -1330.72c0,428.66 -347.49,776.15 -776.16,776.15 -428.65,0 -776.15,-347.49 -776.15,-776.15 0,-428.66 347.5,-776.15 776.15,-776.15 428.67,0 776.16,347.49 776.16,776.15z"/>
   <path class="fil3 str0" d="M3843.42 19056.52c-517.54,0 -941,-423.45 -941,-940.99l0 -1539.85c0,-517.53 423.46,-941 941,-941l1539.83 0c517.55,0 941.01,423.47 941.01,941l0 1539.85c0,517.54 -423.46,940.99 -941.01,940.99l-1539.83 0zm1495.76 -380.2c332.68,0 604.88,-272.2 604.88,-604.87l0 -1451.69c0,-332.68 -272.2,-604.87 -604.88,-604.87l-1451.69 0c-332.68,0 -604.87,272.19 -604.87,604.87l0 1451.69c0,332.67 272.19,604.87 604.87,604.87l1451.69 0zm50.32 -1330.72c0,428.65 -347.49,776.15 -776.16,776.15 -428.65,0 -776.15,-347.5 -776.15,-776.15 0,-428.66 347.5,-776.16 776.15,-776.16 428.67,0 776.16,347.5 776.16,776.16z"/>
  </g>
 </g>
</svg>
