<?xml version="1.0" encoding="UTF-8"?>
<!DOCTYPE svg PUBLIC "-//W3C//DTD SVG 1.1//EN" "http://www.w3.org/Graphics/SVG/1.1/DTD/svg11.dtd">
<!-- Creator: CorelDRAW 2020 (64-Bit) -->
<svg xmlns="http://www.w3.org/2000/svg" xml:space="preserve" width="220mm" height="297mm" version="1.1" style="shape-rendering:geometricPrecision; text-rendering:geometricPrecision; image-rendering:optimizeQuality; fill-rule:evenodd; clip-rule:evenodd"
viewBox="0 0 22000 29700"
 xmlns:xlink="http://www.w3.org/1999/xlink"
 xmlns:xodm="http://www.corel.com/coreldraw/odm/2003">
 <defs>
  <style type="text/css">
   <![CDATA[
    .str0 {stroke:#2B2A29;stroke-width:20;stroke-miterlimit:22.9256}
    .fil1 {fill:none}
    .fil0 {fill:#E31E24}
    .fil4 {fill:black}
    .fil2 {fill:#FEFEFE;fill-rule:nonzero}
    .fil3 {fill:black;fill-rule:nonzero}
   ]]>
  </style>
 </defs>
 <g id="Слой_x0020_1">
  <metadata id="CorelCorpID_0Corel-Layer"/>
  <g>
   <path class="fil0" d="M3060.55 599.82l-5.98 0c-1376.64,3.26 -2491.62,1133.5 -2491.62,2527.24 0,7542.69 -0.01,15637.16 -0.01,22960.73 0,1393.74 1114.98,2523.97 2491.63,2527.23l5.98 0 16004.79 0 5.98 0c1374.66,-3.26 2488.4,-1130.21 2491.62,-2521.18 0,-7325.55 0,-15422.02 0,-22966.78 0,-1393.74 -1114.98,-2523.98 -2491.62,-2527.24l-5.98 0 -16004.79 0zm-1237.6 2574.92c0,-710.7 569.38,-1286.84 1271.76,-1286.84l4027.38 0c231.83,0 189.76,426.57 421.57,426.57l7037.93 0c231.82,0 189.74,-426.57 421.56,-426.57l4028.03 0c351.19,0 669.13,144.05 899.27,376.91 230.14,232.86 372.49,554.59 372.49,909.93l0 18069.98c0,710.72 -569.38,1286.85 -1271.76,1286.85l-4229.3 0 -3738.94 -595.1 -3738.94 595.1 -4229.29 0c-702.38,0 -1271.76,-576.13 -1271.76,-1286.85l-24.01 -17849.69 24.01 -220.29zm17248.37 -2574.92l-16016.75 0 16016.75 0zm-15407.84 23000.6l3654.81 0 3745.85 -596.05 3785.97 596.05 3599.16 0c1028.08,0 1869.23,844.16 1869.23,1875.92l0 0.01c0,1031.75 -841.15,1875.92 -1869.23,1875.92l-14785.79 0c-1028.07,0 -1869.22,-844.17 -1869.22,-1875.92l0 -0.01c0,-1031.76 841.15,-1875.92 1869.22,-1875.92z"/>
   <path id="1" class="fil1 str0" d="M3060.55 599.82l-5.98 0c-1376.64,3.26 -2491.62,1133.5 -2491.62,2527.24 0,7542.69 -0.01,15637.16 -0.01,22960.73 0,1393.74 1114.98,2523.97 2491.63,2527.23l5.98 0 16004.79 0 5.98 0c1374.66,-3.26 2488.4,-1130.21 2491.62,-2521.18 0,-7325.55 0,-15422.02 0,-22966.78 0,-1393.74 -1114.98,-2523.98 -2491.62,-2527.24l-5.98 0 -16004.79 0zm-1237.6 2574.92c0,-710.7 569.38,-1286.84 1271.76,-1286.84l4027.38 0c231.83,0 189.76,426.57 421.57,426.57l7037.93 0c231.82,0 189.74,-426.57 421.56,-426.57l4028.03 0c351.19,0 669.13,144.05 899.27,376.91 230.14,232.86 372.49,554.59 372.49,909.93l0 18069.98c0,710.72 -569.38,1286.85 -1271.76,1286.85l-4229.3 0 -3738.94 -595.1 -3738.94 595.1 -4229.29 0c-702.38,0 -1271.76,-576.13 -1271.76,-1286.85l-24.01 -17849.69 24.01 -220.29zm17248.37 -2574.92l-16016.75 0m608.91 23000.6l3654.81 0 3745.85 -596.05 3785.97 596.05 3599.16 0c1028.08,0 1869.23,844.16 1869.23,1875.92l0 0.01c0,1031.75 -841.15,1875.92 -1869.23,1875.92l-14785.79 0c-1028.07,0 -1869.22,-844.17 -1869.22,-1875.92l0 -0.01c0,-1031.76 841.15,-1875.92 1869.22,-1875.92z"/>
  </g>
  <path class="fil2" d="M13637.22 1746.4c-6,-15.59 -3.99,-31.68 5.54,-46.88 9.14,-14.55 22.03,-23.35 37.77,-23.83 5.58,-13.82 10.27,-28.01 14.33,-42.32 5.55,-19.58 9.35,-39.65 11.77,-59.84 1.87,-15.69 1.05,-32.43 -6.64,-46.58 -6.16,-11.32 -15.78,-15.46 -28.72,-15.91 -34.65,-2.13 -71.78,23.95 -97.26,45.85 -7.66,20.98 -14.27,42.33 -19.77,63.98 -6,23.67 -10.32,47.79 -13.35,72.02 -2.34,18.67 -2.25,39.78 5.66,57.24 5.84,12.9 15.35,18.95 29.34,20.4 25.02,2.58 44.78,-7.04 61.33,-24.13zm-5013.03 -3.23c-6.57,-16.01 -5.15,-32.64 4.77,-48.44 9.2,-14.67 22.19,-23.55 38.04,-24.06 7.4,-18.93 13.54,-38.34 18.06,-58.15 4.51,-19.72 7.43,-40.2 7.08,-60.45 -0.22,-13.15 -2.76,-27.23 -11.18,-37.76 -7.21,-9.01 -17.51,-11.42 -28.68,-10.94 -28.19,1.24 -50.09,23.06 -65.67,44.57 -22.31,30.81 -37.29,64.92 -44.6,102.28 -6.36,32.53 -21.91,115.5 32.35,115.5 20.03,0 36.27,-9.05 49.83,-22.55zm2219.58 -0.01c-6.57,-16.01 -5.13,-32.63 4.79,-48.43 9.2,-14.66 22.18,-23.55 38.03,-24.06 7.39,-18.94 13.54,-38.35 18.06,-58.16 4.52,-19.72 7.42,-40.18 7.06,-60.44 -0.22,-13.15 -2.75,-27.23 -11.18,-37.76 -7.19,-9.01 -17.49,-11.42 -28.66,-10.94 -28.19,1.24 -50.1,23.06 -65.69,44.57 -22.3,30.81 -37.27,64.92 -44.59,102.28 -6.37,32.53 -21.92,115.5 32.35,115.5 20.03,0 36.27,-9.06 49.83,-22.56zm-1035.45 0c-6.58,-16 -5.16,-32.63 4.74,-48.42 9.2,-14.69 22.2,-23.57 38.07,-24.07 7.38,-18.93 13.52,-38.34 18.05,-58.16 4.5,-19.71 7.42,-40.19 7.08,-60.44 -0.23,-13.15 -2.76,-27.23 -11.17,-37.76 -7.21,-9.01 -17.52,-11.42 -28.7,-10.94 -28.18,1.24 -50.1,23.06 -65.68,44.57 -22.31,30.81 -37.25,64.93 -44.57,102.29 -6.37,32.53 -21.94,115.49 32.34,115.49 20.03,0 36.27,-9.07 49.84,-22.56zm2471.81 -250.16c37.09,-34.66 64.71,-78.06 85.46,-124.92 12.66,-28.6 25.55,-62.56 29.07,-93.84 0.34,-3.02 2.14,-24.35 -2.58,-26.51 -9.21,0.67 -20.75,17.98 -24.65,24.34 -16.6,26.98 -29.89,59.92 -41.49,89.38 -16.99,43.19 -32.54,87.05 -45.81,131.55zm1155.33 343.68c-13.43,12.64 -29.6,19.58 -48.09,19.58 -18.31,0 -34.2,-6.85 -46.73,-20.22 -12.87,-13.72 -18.24,-30.66 -16.57,-49.35 1.63,-18.26 9.71,-33.75 23.23,-46.07 13.5,-12.31 29.61,-18.94 47.91,-18.94 18.58,0 35.33,6.01 47.9,19.93 12.31,13.62 17.06,30.46 15.43,48.65 -1.64,18.28 -9.75,33.86 -23.08,46.42zm552.2 -419.8c-5.15,-11.74 -6.35,-24.79 -4.22,-38.6 3.74,-20.27 13.11,-37.73 28.67,-51.31 15.73,-13.72 34.59,-19.98 55.13,-19.2 20.09,0 38.32,6.22 51.8,21.49 13.48,15.26 17.27,33.93 14.27,53.4 -2.29,20.75 -11.08,38.46 -26.86,52.2 -5.78,5.03 -12.07,9.07 -18.79,12.17 0.48,1.17 0.9,2.38 1.24,3.63l1.08 3.89 -1.1 3.88c-17.59,62.85 -35.17,125.7 -52.5,188.62 -6.93,25.13 -14.81,51.29 -20.64,76.64 -2.96,12.87 -6.04,29.34 -4.61,42.58 0.1,0.9 0.41,2.98 0.88,4.23 0.15,-0.01 0.27,-0.02 0.38,-0.03l0.47 -0.03 0.47 0c23.69,0 50,-26.27 64.43,-42.54 27.59,-31.12 49.05,-66.48 64.9,-104.9l0.84 -2.04 1.28 -1.55c28.65,-60.66 52.81,-118.56 72.67,-182.31 -19.61,-32.13 -27.09,-68.49 -1.29,-100.25 16.54,-20.35 38.86,-30.52 64.27,-22.33 38.36,11.38 43.7,50.34 39.61,85 -0.43,3.64 -1.02,7.24 -1.75,10.83 12.88,16.74 31.25,26.53 51.77,32.12 27.48,7.49 55.67,7.48 83.49,1.89 21.94,-6.78 45.35,-9.7 67.86,-3.88 18.38,4.75 35.94,14.47 41.97,33.64 5.16,16.39 1.83,32.65 -6.68,47.3l-0.45 0.73c-8.13,12.27 -16.69,24.38 -25.1,36.46 -8.94,12.83 -17.86,25.71 -27.04,38.37 -8.35,11.49 -16.63,23.03 -24.89,34.59 -9.36,13.12 -18.82,26.23 -28.64,39.02 -9.03,11.79 -18.25,23.43 -27.56,34.99 -10.55,13.11 -21.5,25.91 -32.87,38.32 -4.28,4.67 -8.63,9.29 -13.05,13.84 9.04,1.98 17.94,4.49 26.12,6.99 16.46,5.01 35.47,9.1 53.29,7.68 30.03,-1.34 56.09,-18.69 77.09,-38.96 31.46,-30.35 54.9,-71.24 72.62,-110.85l0.75 -1.7 1.16 -1.45c6.92,-8.62 17.43,-10.27 27.64,-7.26 8.33,2.44 15.63,7.19 21.93,13.08 7.8,7.3 13.78,17.27 9.2,28.75 -25.81,57.58 -59.96,112.38 -105.89,156.1 -37.22,35.43 -82.16,62.04 -134.68,63.62 -27.02,0.81 -54.32,-5.5 -79.63,-14.53 -19.24,-6.87 -41.15,-12.09 -61.84,-10.42 -29.69,22.59 -66.57,38.31 -102.35,19.37 -23.97,-12.71 -35.16,-33.66 -29.93,-60.56 6.46,-33.25 35.05,-51.47 65,-61.7 60.91,-62.19 118.16,-129.06 167.43,-201 -19.89,-0.63 -39.53,-4.64 -58.63,-11.16 -21.05,-7.16 -39.87,-17.84 -55.36,-32.73 -17.92,50.6 -37.33,93.55 -62.92,143.58 -1.45,3.19 -3.16,7.98 -4.97,11.22 -11.44,24.1 -24.08,47.65 -38.17,70.31 -14.36,23.1 -30.61,44.99 -48.16,65.76 -18.45,21.81 -40.14,40.19 -65.12,54.12 -23.9,13.31 -49.72,21.31 -77.15,21.87 -33.68,0.69 -71.55,-6.33 -89.64,-38.11 -9.22,-16.22 -12.36,-35.06 -12.18,-53.9 -40.11,27.21 -86.12,35.88 -136.47,27.56 -46.49,41.27 -101.04,64.24 -163.98,63.49 -44.84,-0.54 -89.57,-12.82 -114.73,-52.72 -23.91,-37.95 -29.25,-85.71 -27.67,-129.66 -4.14,-56.89 7.94,-123.21 20.42,-178.46 14.21,-62.93 30.21,-126.47 50.73,-187.65 16.31,-48.63 33.59,-96.95 52.04,-144.8l1.37 -3.56 2.95 -2.43c18.99,-15.63 49.6,-12.71 72.05,-8.42 21.58,4.12 55.3,13.57 55.3,41.14l0 2.71 -0.97 2.52c-29.59,76.52 -54.32,158.13 -77.76,237.66 36.4,-19.66 76.37,-30.19 118.91,-24.61 44.94,5.91 80.1,27.99 100.1,69.14 19.86,40.87 22.12,85.56 13.92,129.73 -7.46,40.15 -21.56,78.08 -40.99,113.62 53.76,-8.97 86.81,-58.11 108.25,-107.99 16.85,-61.91 34.42,-123.66 52.18,-185.32l0.66 -2.35 1.42 -2.01c6.58,-9.32 16.46,-14.22 27.22,-16.57zm-5583.48 207.15c15.52,-59.37 45.06,-111 91.19,-151.92 48.16,-42.72 104.36,-66.8 168.88,-68.07 39.46,-0.76 79.32,7.53 110.52,33 27.73,22.62 44.84,51.83 50.73,87.15 6.11,36.57 3.01,74.09 -5.14,110.1 -7.26,32.11 -18.76,62.77 -33.92,91.78 55.59,-6.62 89.06,-59.49 110.55,-109.71 17.2,-62.78 34.33,-125.6 50.77,-188.59l0.66 -2.54 1.52 -2.16c14.82,-21 46.51,-20.25 69.14,-17.44 23.27,2.91 54.86,10.91 60.01,37.97l0.63 3.33 -5.48 19.72c10.52,-10.12 21.66,-19.6 33.38,-28.47 26.79,-20.25 58.14,-34.96 92,-34.14 28.42,0 53.77,9.49 70.36,33.49 8.3,12.01 12.87,25.3 14.77,39.07 37.43,-39.9 84.73,-72.85 140.86,-72.56 93.61,0.51 109.59,67.98 91.36,147.54 -2.79,12.15 -6.5,24.35 -10.21,36.25 -4.39,14.1 -8.66,28.22 -12.82,42.38 -4.26,14.57 -8.55,29.13 -12.88,43.68 -3.96,13.31 -7.53,26.89 -10.04,40.57 -2,10.88 -3.56,21.93 -4.26,32.98 -0.32,5.02 -0.36,12.74 1.96,17.38 0.09,0.16 0.26,0.51 0.41,0.63 0.38,0.24 1.56,0.27 1.98,0.27 19.2,0 45.66,-29.22 56.8,-42.41 24.28,-28.78 43.82,-61.05 59.38,-95.29 15.23,-61.01 45.03,-114.04 92.2,-155.91 48.16,-42.74 104.36,-66.8 168.88,-68.07 39.54,-0.76 79.25,7.48 110.52,32.99 27.73,22.63 44.82,51.84 50.72,87.16 6.1,36.57 3.01,74.08 -5.12,110.1 -7.25,32.11 -18.76,62.77 -33.94,91.79 55.71,-6.61 89.16,-59.63 110.47,-110.04l0.72 -1.68c3.06,-17.83 6.45,-35.63 10.37,-53.3 5.32,-23.93 11.18,-47.77 17.25,-71.53l-15.27 0 -3.58 -2.31c-17.07,-10.96 -19.06,-30.91 -15.87,-49.34 2.85,-16.47 9.42,-35.24 26.42,-41.78l2.51 -0.97 31.62 0c22.25,-72.42 45.62,-146.53 73.54,-216.78l0.48 -1.21 0.71 -1.12c13.82,-22.11 49.66,-18.51 71.52,-15.07 23.23,3.68 58.9,12.67 60.29,41.88l0.13 2.86 -0.96 2.69c-21.97,61.69 -42.1,124.16 -61.43,186.75l68.91 0 4.06 3.42c14.82,12.54 16.54,31.72 13.36,49.75 -2.8,15.88 -9.11,34.82 -26.04,40.48l-2.24 0.75 -84.59 0c-12.68,44.31 -25.4,89.46 -35.41,134.32 -4.93,22.1 -32.63,141 13.87,141.87 30.85,0.58 59.44,-19.5 80.97,-39.67 32.73,-30.68 56.77,-68.85 74.88,-109.65 17.08,-62.81 34.9,-125.45 52.91,-188l0.68 -2.35 1.41 -1.98c6.62,-9.42 16.62,-14.38 27.5,-16.74 -5.12,-11.79 -6.3,-24.9 -4.18,-38.77 3.81,-20.5 13.26,-38.16 29,-51.88 15.86,-13.81 35.03,-20.19 55.74,-19.44 20.31,0 38.76,6.33 52.37,21.76 13.6,15.44 17.45,34.26 14.43,53.97 -2.34,20.98 -11.22,38.87 -27.15,52.78 -5.84,5.08 -12.2,9.17 -19.01,12.31 0.43,1.08 0.82,2.2 1.14,3.36l1.08 3.9 -1.09 3.89c-17.84,63.71 -35.65,127.42 -53.23,191.19 -7.02,25.47 -15,51.97 -20.91,77.68 -3.02,13.09 -6.13,29.78 -4.67,43.25 0.09,0.93 0.43,3.19 0.95,4.44 0.2,0 0.38,-0.01 0.53,-0.03l0.48 -0.02 0.47 0c24.08,0 50.79,-26.64 65.45,-43.18 26.27,-29.63 47.12,-63.11 62.87,-99.41 15.59,-59.01 45.05,-110.31 90.93,-151.02 48.16,-42.73 104.35,-66.8 168.89,-68.07 39.47,-0.76 79.32,7.53 110.53,32.99 27.73,22.63 44.84,51.84 50.72,87.17 6.09,36.57 3.01,74.07 -5.12,110.09 -7.25,32.11 -18.76,62.77 -33.94,91.79 55.72,-6.62 89.15,-59.64 110.48,-110.04l0.79 -1.86 0.6 -0.74c16.74,-61.64 33.59,-123.26 50.48,-184.87l0.68 -2.45 1.48 -2.08c14.57,-20.59 44.91,-20.82 67.38,-18.44 23.98,2.55 53.14,10.47 61.34,36.32l1.3 4.1 -1.15 4.15c-1.93,6.95 -3.85,13.91 -5.78,20.86 39.05,-36.47 87.02,-67.76 138.66,-66.99 35.86,0.55 68.94,12.49 85.21,46.39 16.12,33.6 12.19,74.96 4.02,110.13 -5.74,24.63 -13.58,49.69 -21.08,73.84 -7.65,24.59 -15.54,49.85 -21.47,74.53 -1.7,7.95 -9.44,48.18 -3.32,56.3 12.85,-5.11 30.98,-15.74 42.56,-21.85 28.93,-15.27 57.71,-30.88 86.39,-46.62 38.66,-21.22 81.38,-43.52 118.68,-67.41 18.86,-77.92 41.49,-155.42 70.06,-230.34 18.69,-49.03 50.59,-115.59 102.38,-137.64 24.18,-9.5 48.31,-5.59 70.51,6.61 15.58,8.18 29.28,23.52 17.04,40.97l-1.86 2.66 -2.82 1.61c-14.95,8.54 -28.56,33.82 -35.76,48.73 -12.43,25.73 -23.48,52.35 -31.89,79.67 -9.59,31.18 -18.28,62.78 -26.77,94.32 45.23,10.3 91.21,9.02 132.21,-15.83 43.92,-26.63 64.01,-69.96 71.46,-119.57 6.62,-44.05 -0.26,-84.56 -34.08,-115.46 -34.04,-31.11 -75.69,-44.81 -121.46,-46.26 -47.08,-1.5 -92.57,7.59 -134.78,28.69 -33.95,16.99 -64.72,41.14 -80.4,76.63 -15.31,34.66 -6.66,70.11 10.43,102.3l0.63 1.18 0.4 1.28c6.64,21.18 -9.84,38.79 -25.62,50.25 -17.59,12.75 -38.68,20.31 -59.57,10.9l-1.15 -0.51 -1.03 -0.7c-44.68,-30.27 -67.79,-72.93 -67.79,-126.96 0,-80.52 42.23,-139.22 109.43,-180.78 75.47,-46.66 161,-64.91 249.11,-63.61 81.68,1.22 158.52,22.6 222.89,74.02 27.9,22.28 48.76,49.08 61.42,80.65 23.86,-47.16 56.6,-96.12 101.11,-125.51 32.4,-21.4 68.21,-31.48 106.49,-22.31 36.92,8.86 62.54,32.04 76.91,67.05 17.16,41.8 10.88,91.42 -0.92,133.75 -16.95,60.79 -48.53,114.04 -91.56,160.1 -44.12,47.24 -97.53,82.49 -156.57,108.02 -9.88,46.33 -27.75,148.28 38.11,153.5 34.69,2.75 64.84,-16.5 88.9,-39.59 32.37,-31.07 57.61,-68.07 77.11,-108.35 6.1,-23.22 12.48,-46.38 19.05,-69.47 11.17,-39.33 22.09,-78.92 33.74,-118.1l0.32 -1.07 0.48 -1.02c11.92,-25.1 47.29,-24.52 70.62,-22.07 22.77,2.4 60.04,9.48 60.04,39.21l0 1.95 -0.53 1.87c-8.48,31.09 -16.52,62.36 -24.73,93.51 -11.28,42.83 -22.49,85.8 -32.61,128.92l-0.23 0.88c-6.82,22.55 -12.11,47.24 -11.75,70.9 0.13,8.57 0.36,18.4 10.75,18.4 21.54,0 45.6,-22.13 59.36,-36.61 26.3,-27.62 44.9,-60.76 57.67,-96.07 21.51,-65.89 40.24,-133.98 59.3,-200.64l0.42 -1.45 0.71 -1.33c12.15,-23.03 45.9,-21.97 67.9,-19.53 23.47,2.6 55.66,10.01 62.06,36.82l0.82 3.45 -0.86 3.45c-3.95,15.75 -8.89,31.65 -13.57,47.22 -5.95,19.81 -11.77,39.66 -17.24,59.6 -5.59,20.38 -10.98,40.81 -16.3,61.26 -5.25,20.15 -10.21,40.54 -14.15,61 -3.11,16.15 -5.58,32.42 -7.25,48.78 -0.9,8.86 -1.71,22.36 1.27,30.93 0.23,0.71 0.84,2.25 1.42,3.14 18.78,0.46 43.85,-27.55 54.46,-40.34 26.85,-32.35 47.9,-69.06 65.22,-107.92 37.03,-74.71 85.75,-157.99 147.09,-215.44 29.1,-27.27 64.18,-44.79 104.66,-37.37 25.56,4.68 45.56,18.76 46.58,46.14 0.84,14.91 -5.06,29.04 -13.26,41.23 3.66,26.33 9.76,52.44 17.15,77.93 6.99,24.08 14.21,48.38 22.54,72.05 7.92,22.53 12.27,47.29 15.11,70.94 2.18,18.17 2.58,36.96 -0.3,55.17 50.51,-12.9 81.67,-64.23 101.36,-110.16l1.09 -2.58 1.98 -1.97c7.29,-7.29 17.31,-7.92 26.75,-5.14 8.44,2.49 15.8,7.28 22.17,13.26 7.83,7.35 13.88,17.37 9.26,28.92 -37.98,84.31 -98.44,153.86 -195.33,154.29 -16.21,20.51 -37.14,35.76 -61.1,46.66 -28.04,12.75 -58.32,18.34 -88.75,17.65 -35.19,0 -66.05,-12.01 -91.69,-36.15 -27.99,-26.35 -37.78,-61.23 -35.76,-99.01l0.08 -1.85 0.56 -1.75c6.04,-19.11 21.54,-29.93 40.36,-34.92 16.01,-4.25 35.52,-5.78 47.7,7.81l4.44 4.94 -0.85 6.59c-1.8,13.96 -0.74,28.46 7.76,40.18 6.91,9.51 15.65,13.81 27.4,13.81 11.18,0 20.51,-2.83 28.18,-9.32 -9.52,-13.53 -12.24,-29.61 -7.47,-46.92 4.44,-16.2 13.69,-28.6 27.98,-33.56 -1.88,-31.73 -13.37,-72.44 -21.5,-100.21 -8.05,-27.58 -17.22,-59.63 -22.66,-90.13 -46.68,54.85 -87.57,134.85 -116.31,194.88 -1.69,3.53 -4.12,6.53 -7.16,8.78 -40.4,71.73 -109.36,171.48 -201.22,170.87 -32.67,-0.22 -56.21,-16.49 -69.18,-46.35 -5.36,-12.34 -8.56,-24.97 -9.91,-37.76 -41.67,51.81 -96.37,89.81 -167.88,88.08 -35.77,-0.86 -69.75,-11.86 -88.11,-44.56 -5.74,-10.21 -9.61,-21.06 -12,-32.25 -5,5.74 -10.14,11.35 -15.39,16.85 -21.57,22.59 -47.03,39.92 -76.56,50.23 -30.34,10.61 -62.6,12.89 -94.73,9.63 -32.05,-3.94 -62.14,-15.2 -85.29,-38.34 -22.98,-22.98 -34.67,-52.69 -39.26,-84.47 -5.14,-35.55 -5.04,-71.82 -1.58,-107.51 1.44,-14.73 3.35,-29.43 5.62,-44.07 -8.77,6.37 -17.93,12.2 -27.44,17.5 -74.81,41.76 -157.23,42.2 -237.86,20.6 -6.35,22.96 -12.09,46.17 -17.7,69.26 -6.95,28.61 -14.07,57.28 -21.93,85.66 -4.7,16.96 -10.17,35.43 -17.71,51.37l-0.45 0.95 -0.58 0.88c-9.7,14.59 -28.79,19.43 -45.15,21.25 -18.78,2.09 -37.66,0.5 -55.36,-6.33 -18.17,-7.01 -31.56,-20.69 -27.9,-41.32l0.33 -1.89 0.83 -1.75c8.33,-17.73 15.43,-41.46 21.48,-64.15 -72.46,47.64 -201.69,121.55 -258.1,122.47 -31.8,0.51 -67.01,-5.75 -86.81,-33.27 -18.73,-26.02 -19.27,-59.39 -13.95,-89.51 4.84,-30.9 14.12,-64.85 21.53,-95.31 7.14,-29.31 14.46,-58.66 21.27,-88.03l0.17 -0.76 0.26 -0.73c3.95,-11.36 5.96,-23.43 3.87,-35.38 -1.16,-6.68 -4.87,-7.08 -11.37,-6.82 -17.27,0.72 -38.05,15.55 -50.9,26.01 -22.7,18.48 -42.74,39.99 -60.42,63.28 -22.46,75.21 -40.74,153.09 -58.49,229.49l-0.31 1.34 -0.56 1.25c-11.02,24.88 -49.77,25.62 -72.61,24.97 -24.86,-0.73 -64.73,-5.86 -66.08,-38.18l-0.09 -2.02 0.47 -1.98c3.35,-13.95 6.96,-27.92 10.64,-41.86 -37.52,22.49 -79.87,29.29 -125.74,21.26 -47.71,44.07 -104.42,67.24 -170.06,67.24 -51.6,0 -99.49,-14.65 -133.85,-54.6 -11.92,-13.87 -19.92,-29.79 -24.95,-46.79 -6.1,7.97 -12.4,15.77 -18.88,23.43 -18.68,22.09 -40.64,40.72 -65.95,54.81 -24.18,13.47 -50.34,21.59 -78.1,22.16 -34.07,0.69 -72.36,-6.4 -90.68,-38.54 -5.07,-8.89 -8.31,-18.55 -10.18,-28.51 -38.78,39.86 -86.54,66.75 -145.1,67.05 -26.03,0.12 -52.77,-3.92 -76.11,-16 -21.99,-11.39 -37.3,-29.2 -46.03,-52.36 -5.84,-15.49 -10.26,-31.43 -13.16,-47.68 -44.1,43.09 -98.31,61.04 -162.43,49.79 -47.69,44.08 -104.42,67.24 -170.06,67.24 -51.58,0 -99.49,-14.65 -133.84,-54.6 -11.22,-13.04 -18.98,-27.92 -24.05,-43.82 -37.51,50.02 -88.08,95.15 -152.72,97.42 -32.56,1.15 -68.46,-5 -88.62,-33.32 -19.17,-26.92 -19.18,-61.87 -13.47,-93.12 1.08,-10.54 9.31,-38.77 11.35,-47.05 10.88,-44.26 21.75,-88.51 32.54,-132.79 1.91,-7.87 12.14,-45.49 -4.32,-45.49 -17.87,0.69 -40.29,21.09 -52.11,32.92 -20.63,20.63 -38.17,44.3 -49.53,71.29 -10.37,37.48 -19.37,75.7 -28.36,113.54 -8.1,34.09 -16.01,68.47 -24.83,102.37l-0.34 1.31 -0.58 1.23c-11.03,23.38 -47.98,25.14 -70.1,25.14 -23.7,0 -62.1,-3.28 -66.38,-33.25l-0.38 -2.7 0.62 -2.64c20.86,-89.45 43.17,-178.67 65.45,-267.77l0.16 -0.63 0.21 -0.63c3.64,-10.38 4.84,-20.95 2.89,-31.8 -1.02,-5.67 -2.52,-6.7 -9,-6.39 -15.03,0 -34.92,17.78 -44.84,27.53 -21.68,21.35 -39.64,46.27 -54.69,72.66 -21.01,71.98 -38.72,145.62 -55.8,218.6l-0.2 0.84 -0.29 0.8c-6.19,17.04 -27.96,22.04 -43.83,24.26 -20.04,2.82 -40.19,1.95 -59.76,-3.32 -18.74,-5.04 -37.19,-16.57 -34.42,-38.62l0.12 -0.91 0.23 -0.89c3.28,-12.77 6.61,-25.53 9.96,-38.28 -37.41,22.2 -79.56,28.83 -125.12,20.87 -47.7,44.07 -104.4,67.24 -170.03,67.24 -51.6,0 -99.53,-14.64 -133.89,-54.6 -11.57,-13.47 -19.45,-28.87 -24.5,-45.34 -47.72,59.71 -109.85,99.73 -190.56,98.95 -35.11,-0.34 -70.31,-8.97 -95.82,-34.47 -23.68,-23.67 -33.48,-53.9 -33.48,-87.06 0,-24.16 6.13,-48.26 14.85,-70.66 8.25,-21.17 17.69,-42.49 29.27,-62.07 12.67,-21.39 26.59,-42.28 40.68,-62.76 2.47,-3.59 4.68,-7.88 4.9,-12.32 0.23,-4.57 -1.55,-9.19 -3.69,-13.13 -3.04,-5.55 -6.31,-11.21 -9.99,-16.36 -3.3,-4.63 -7.22,-9.2 -11.14,-13.53 -19.75,65.14 -45.17,128.37 -76.11,189.05l-1.04 2.07 -1.65 1.63c-7.15,7.1 -16.7,9.1 -26.45,7.49 -9.37,-1.55 -17.51,-6.2 -24.39,-12.64 -8.51,-7.96 -13.64,-19.04 -8.07,-30.37 15.79,-32.12 30.32,-64.85 43.44,-98.13 -18.8,21.96 -41.9,40.82 -69.57,56.26 -74.81,41.76 -157.23,42.2 -237.86,20.6 -6.36,22.96 -12.1,46.16 -17.71,69.26 -6.95,28.61 -14.06,57.27 -21.92,85.66 -4.69,16.96 -10.17,35.4 -17.69,51.35l-0.45 0.96 -0.59 0.89c-9.7,14.6 -28.79,19.43 -45.17,21.25 -18.77,2.09 -37.67,0.5 -55.36,-6.33 -18.16,-7.01 -31.52,-20.68 -27.9,-41.29l0.33 -1.91 0.83 -1.76c7.92,-16.82 13.91,-38.62 19,-56.51 10.15,-35.74 19.01,-72.01 27.58,-108.15 19.42,-81.89 42.9,-163.43 72.9,-242.1 18.69,-49.02 50.59,-115.59 102.37,-137.64 24.16,-9.51 48.3,-5.58 70.51,6.61 15.58,8.18 29.26,23.53 17.03,40.97l-1.86 2.65 -2.81 1.61c-14.96,8.55 -28.55,33.82 -35.76,48.73 -12.42,25.74 -23.5,52.36 -31.9,79.68 -9.59,31.18 -18.28,62.78 -26.76,94.32 45.22,10.3 91.21,9.02 132.2,-15.83 43.91,-26.63 64,-69.96 71.45,-119.57 6.63,-44.05 -0.27,-84.56 -34.08,-115.47 -34.03,-31.1 -75.68,-44.8 -121.45,-46.25 -47.09,-1.5 -92.58,7.59 -134.79,28.69 -33.96,16.99 -64.7,41.15 -80.39,76.63 -15.34,34.66 -6.66,70.11 10.45,102.3l0.62 1.18 0.4 1.28c6.64,21.18 -9.85,38.79 -25.64,50.25 -17.57,12.75 -38.67,20.32 -59.55,10.89l-1.13 -0.51 -1.05 -0.69c-44.67,-30.27 -67.79,-72.93 -67.79,-126.96 0,-80.52 42.22,-139.21 109.43,-180.78 75.46,-46.65 161,-64.91 249.1,-63.61 81.67,1.22 158.51,22.6 222.88,74.02 32.57,26 55.51,58.12 67.03,96.71 13.13,-7.56 28.27,-9.99 45,-7 34.29,6.12 46.35,33.77 45.66,65.81 0,8.68 -1,17.4 -2.63,25.97 7.94,7.74 16.1,15.3 24.23,22.81 10.93,10.1 21.91,20.16 33.02,30.08 10.71,9.56 20.56,20.22 29.72,31.27 8.78,10.6 17.21,22.43 22.87,35.03 5.4,12.01 7.49,24.88 6.73,38 -0.88,14.9 -6.79,28.23 -16,39.86 -28.13,35.5 -68.8,92.9 -72.22,139.7 -1.6,21.78 2.53,34.98 26.18,34.98 29.01,0 57.8,-18.21 79.51,-35.88 33.21,-27.06 57.9,-66.54 76.3,-104.82z"/>
  <path class="fil3" d="M14772.26 4219.21l494.58 0 0 -494.57 0 -494.58 0 -158.42 -0.96 0c0.65,-5.15 0.96,-9.01 0.96,-11.59l0 -154.56c0,-47 -16.59,-87.1 -49.75,-120.26 -33.16,-33.16 -73.25,-49.75 -120.26,-49.75l-154.55 0c-47.01,0 -87.11,16.58 -120.26,49.75 -33.16,33.17 -49.76,73.26 -49.76,120.26l0 154.56c0,2.58 0.32,6.45 0.97,11.6l-0.97 -0.01 0 158.42 0 494.58 -494.57 0 0 494.57 494.57 0zm-7419.61 158.42l0.97 0 0 -158.41 0 -158.42 -0.97 0c0.65,-5.15 0.97,-9.01 0.97,-11.6l0 -154.55c0,-47.01 -16.59,-87.1 -49.75,-120.26 -33.16,-33.16 -73.26,-49.75 -120.27,-49.75l-154.55 0c-47.01,0 -87.1,16.58 -120.26,49.74 -33.17,33.17 -49.75,73.26 -49.75,120.27l0 154.56c0,2.57 0.32,6.44 0.96,11.59l-0.96 0 0 158.42 0 158.41 0.96 0c-0.64,5.16 -0.96,9.02 -0.96,11.59l0 154.56c0,47.01 16.58,87.1 49.75,120.26 33.17,33.17 73.25,49.75 120.26,49.75l154.55 0c47.01,0 87.11,-16.58 120.26,-49.74 33.17,-33.17 49.76,-73.26 49.76,-120.27l0 -154.56c0,-2.57 -0.32,-6.43 -0.97,-11.59zm495.55 830.74l494.57 0 0 -494.58 0 0 0 -158.42 -0.97 0c0.65,-5.15 0.97,-9.01 0.97,-11.6l0 -154.55c0,-47.01 -16.59,-87.1 -49.75,-120.26 -33.16,-33.16 -73.25,-49.74 -120.26,-49.74l-154.56 0c-47.01,0 -87.09,16.58 -120.26,49.74 -33.16,33.17 -49.74,73.25 -49.74,120.26l0 154.56c0,2.58 0.31,6.45 0.96,11.6l-0.96 -0.01 0 158.42 0 0 -324.58 0c-47,0 -87.09,16.59 -120.26,49.75 -33.16,33.16 -49.74,73.25 -49.74,120.26l0 154.56c0,47.01 16.58,87.1 49.74,120.26 33.17,33.16 73.26,49.75 120.26,49.75l324.58 0zm6923.1 -336.16l0.96 0 0 -158.42 324.57 0c47.01,0 87.1,-16.58 120.26,-49.74 33.16,-33.17 49.75,-73.26 49.75,-120.27l0 -324.56 -494.58 0 -494.57 0 0 494.57 494.57 0 0 0 -494.57 0 0 158.42 0.96 0c-0.64,5.15 -0.96,9.02 -0.96,11.59l0 154.56c0,47.01 16.58,87.1 49.74,120.26 33.17,33.16 73.26,49.75 120.27,49.75l154.56 0c47.01,0 87.1,-16.59 120.26,-49.75 33.16,-33.17 49.74,-73.25 49.74,-120.26l0 -154.56c0,-2.57 -0.3,-6.44 -0.96,-11.59zm-988.19 660.73c0,47.02 -16.59,87.1 -49.74,120.26 -33.17,33.15 -73.25,49.74 -120.27,49.74l-154.56 0c-47,0 -87.09,-16.59 -120.25,-49.74 -33.17,-33.17 -49.75,-73.25 -49.75,-120.26l0 -154.56c0,-47 16.58,-87.1 49.74,-120.26 33.17,-33.17 73.26,-49.75 120.26,-49.75l154.56 0c47.03,0 87.11,16.58 120.26,49.74 33.17,33.18 49.75,73.27 49.75,120.27l0 154.56zm-6429.49 494.57c0,47.02 -16.6,87.1 -49.75,120.26 -33.16,33.16 -73.24,49.75 -120.27,49.75l-154.55 0c-47,0 -87.09,-16.59 -120.25,-49.75 -33.17,-33.16 -49.76,-73.24 -49.76,-120.26l0 -154.56c0,-47 16.58,-87.1 49.75,-120.25 33.17,-33.17 73.25,-49.76 120.26,-49.76l154.55 0c47.03,0 87.11,16.59 120.26,49.75 33.17,33.18 49.76,73.26 49.76,120.27l0 154.55zm3956.6 0c0,47.02 -16.59,87.1 -49.74,120.26 -33.17,33.16 -73.25,49.75 -120.26,49.75l-154.56 0c-47,0 -87.1,-16.59 -120.26,-49.75 -33.16,-33.16 -49.75,-73.24 -49.75,-120.26l0 -154.56c0,-47 16.58,-87.1 49.75,-120.25 33.17,-33.17 73.26,-49.76 120.26,-49.76l154.56 0c47.02,0 87.1,16.59 120.26,49.75 33.16,33.18 49.74,73.26 49.74,120.27l0 154.55zm988.19 -166.15l0.97 0 0 -158.42 324.56 0c47.01,0 87.11,-16.58 120.26,-49.74 33.17,-33.17 49.76,-73.25 49.76,-120.26l0 -324.57 324.56 0c47.01,0 87.1,-16.59 120.26,-49.75 33.17,-33.17 49.76,-73.25 49.76,-120.26l0 -324.57 324.56 0c47.01,0 87.1,-16.58 120.26,-49.74 33.17,-33.17 49.75,-73.26 49.75,-120.27l0 -324.56 -494.57 0 -324.57 0c-47.01,0 -87.1,16.58 -120.27,49.74 -33.16,33.17 -49.74,73.25 -49.74,120.26l0 324.57 -494.58 0 -494.58 0 -494.57 0 0 494.58 -0.01 0 0 -494.58 0 0 0 -324.57c0,-47.01 -16.58,-87.1 -49.74,-120.26 -33.17,-33.16 -73.25,-49.74 -120.26,-49.74l-324.57 0 -494.57 0 -494.58 0 -324.56 0c-47.01,0 -87.11,16.58 -120.26,49.74 -33.16,33.17 -49.76,73.25 -49.76,120.26l0 324.57 -494.57 0 -494.58 0 0 494.58 494.58 0 0 494.57 0 158.42 0.96 0c-0.64,5.16 -0.96,9.02 -0.96,11.6l0 154.55c0,47.01 16.58,87.11 49.74,120.26 33.17,33.16 73.26,49.75 120.27,49.75l154.55 0c47.01,0 87.1,-16.59 120.26,-49.75 33.17,-33.16 49.75,-73.25 49.75,-120.26l0 -154.56c0,-2.57 -0.31,-6.43 -0.96,-11.59l0.96 0 0 -158.42 324.57 0c47.01,0 87.1,-16.58 120.26,-49.74 33.16,-33.17 49.75,-73.25 49.75,-120.26l0 -324.57 0 -494.58 0 0 494.58 0 494.57 0 0 0 -494.57 0 0 324.57c0,47.01 16.58,87.1 49.74,120.26 33.17,33.16 73.25,49.75 120.26,49.75l324.57 0 494.57 0 0 324.56c0,47.01 16.59,87.1 49.75,120.26 33.17,33.17 73.26,49.75 120.27,49.75l324.56 0 0 158.42 0.97 0c-0.64,5.16 -0.97,9.02 -0.97,11.6l0 154.55c0,47.01 16.58,87.11 49.75,120.26 33.17,33.16 73.26,49.75 120.26,49.75l154.56 0c47.01,0 87.1,-16.59 120.26,-49.75 33.16,-33.16 49.75,-73.25 49.75,-120.26l0 -154.56c0,-2.57 -0.31,-6.43 -0.97,-11.59zm990.13 166.15c0,47.02 -16.6,87.1 -49.75,120.26 -33.17,33.16 -73.25,49.75 -120.27,49.75l-154.55 0c-47,0 -87.1,-16.59 -120.25,-49.75 -33.17,-33.16 -49.76,-73.24 -49.76,-120.26l0 -154.56c0,-47 16.58,-87.1 49.74,-120.25 33.18,-33.17 73.26,-49.76 120.27,-49.76l154.55 0c47.03,0 87.11,16.59 120.26,49.75 33.17,33.18 49.76,73.26 49.76,120.27l0 154.55zm989.15 0c0,47.02 -16.6,87.1 -49.75,120.26 -33.17,33.16 -73.25,49.75 -120.26,49.75l-154.56 0c-47,0 -87.1,-16.59 -120.25,-49.75 -33.17,-33.16 -49.76,-73.24 -49.76,-120.26l0 -154.56c0,-47 16.59,-87.1 49.75,-120.25 33.17,-33.17 73.26,-49.76 120.26,-49.76l154.56 0c47.03,0 87.11,16.59 120.26,49.75 33.16,33.18 49.75,73.26 49.75,120.27l0 154.55zm988.19 -166.15l0.96 0 0 -158.42 0 -158.41 -0.96 0c0.65,-5.15 0.96,-9.01 0.96,-11.6l0 -154.55c0,-47.01 -16.59,-87.1 -49.75,-120.26 -33.16,-33.17 -73.25,-49.75 -120.26,-49.75l-154.55 0c-47.01,0 -87.11,16.58 -120.26,49.75 -33.16,33.16 -49.76,73.25 -49.76,120.26l0 154.56c0,2.57 0.32,6.44 0.97,11.59l-0.97 0 0 158.41 0 158.42 0.97 0c-0.64,5.16 -0.97,9.02 -0.97,11.6l0 154.55c0,47.01 16.59,87.11 49.75,120.26 33.17,33.16 73.26,49.75 120.27,49.75l154.55 0c47.01,0 87.1,-16.59 120.26,-49.75 33.16,-33.16 49.75,-73.25 49.75,-120.26l0 -154.56c0,-2.57 -0.31,-6.43 -0.96,-11.59zm-8576.85 830.74l-324.57 0 -324.56 0c-47.01,0 -87.11,16.58 -120.26,49.75 -33.16,33.16 -49.76,73.25 -49.76,120.26l0 154.56c0,47.01 16.59,87.1 49.75,120.26 33.17,33.16 73.26,49.75 120.27,49.75l324.56 0 324.57 0c47.01,0 87.1,-16.59 120.26,-49.75 33.16,-33.16 49.75,-73.26 49.75,-120.27l0 -154.55c0,-47.01 -16.59,-87.11 -49.75,-120.26 -33.16,-33.16 -73.25,-49.75 -120.26,-49.75zm-3292.03 819.14c0,47.02 -16.6,87.1 -49.75,120.26 -33.16,33.16 -73.24,49.76 -120.26,49.76l-154.56 0c-47,0 -87.09,-16.6 -120.25,-49.75 -33.17,-33.17 -49.76,-73.25 -49.76,-120.27l0 -154.56c0,-47 16.58,-87.09 49.75,-120.25 33.17,-33.16 73.26,-49.75 120.26,-49.75l154.56 0c47.02,0 87.1,16.58 120.26,49.74 33.16,33.17 49.75,73.26 49.75,120.26l0 154.56zm7418.65 170.01l494.57 0 0 -494.57 -494.57 0 0 -324.57c0,-47.01 -16.59,-87.1 -49.75,-120.26 -33.16,-33.16 -73.25,-49.75 -120.26,-49.75l-324.56 0 0 -494.58 0 -158.42 -0.97 0c0.66,-5.15 0.97,-9 0.97,-11.59l0 -154.55c0,-47.01 -16.59,-87.11 -49.75,-120.26 -33.16,-33.17 -73.25,-49.76 -120.26,-49.76l-154.56 0c-47.01,0 -87.1,16.59 -120.26,49.76 -33.17,33.17 -49.75,73.25 -49.75,120.26l0 154.55c0,2.58 0.32,6.45 0.97,11.6l-0.97 -0.01 0 158.42 0 494.58 0 494.57 494.58 0 0 0.01 -494.58 0 -324.56 0c-47.01,0 -87.11,16.58 -120.26,49.74 -33.16,33.17 -49.76,73.26 -49.76,120.26l0 154.56c0,47.01 16.59,87.1 49.75,120.26 33.17,33.17 73.26,49.76 120.27,49.76l324.56 0 0 -0.01 494.58 0 494.57 0zm1977.34 158.42l0.97 0 0 -158.41 324.56 0c47.01,0 87.1,-16.59 120.26,-49.75 33.17,-33.17 49.76,-73.26 49.76,-120.27l0 -324.56 0 -324.57c0,-47.01 -16.59,-87.1 -49.75,-120.26 -33.17,-33.16 -73.26,-49.75 -120.27,-49.75l-324.56 0 -324.57 0c-47.01,0 -87.1,16.58 -120.26,49.75 -33.16,33.16 -49.75,73.25 -49.75,120.26l0 324.57 -494.58 0 -494.57 0 0 494.57 494.57 0 494.58 0 494.58 0 0 0.01 -494.58 0 0 158.41 0.96 0c-0.64,5.15 -0.96,9.02 -0.96,11.59l0 154.56c0,47.01 16.58,87.1 49.75,120.26 33.17,33.16 73.25,49.75 120.26,49.75l154.55 0c47.01,0 87.11,-16.59 120.26,-49.75 33.17,-33.16 49.76,-73.25 49.76,-120.26l0 -154.56c0,-2.57 -0.32,-6.44 -0.97,-11.59zm990.12 166.15c0,47.02 -16.59,87.1 -49.74,120.26 -33.17,33.16 -73.25,49.75 -120.27,49.75l-154.56 0c-47,0 -87.09,-16.6 -120.25,-49.75 -33.17,-33.16 -49.75,-73.24 -49.75,-120.26l0 -154.56c0,-47 16.58,-87.09 49.74,-120.25 33.17,-33.17 73.26,-49.75 120.26,-49.75l154.56 0c47.03,0 87.11,16.58 120.26,49.74 33.17,33.17 49.75,73.26 49.75,120.26l0 154.56zm3955.65 -166.15l0.97 0 0 -158.41 -494.58 0 0 158.41 0.96 0c-0.64,5.15 -0.96,9.02 -0.96,11.59l0 154.56c0,47.01 16.58,87.1 49.74,120.26 33.17,33.16 73.26,49.75 120.27,49.75l154.56 0c47.01,0 87.1,-16.59 120.26,-49.75 33.16,-33.16 49.75,-73.25 49.75,-120.26l0 -154.56c0,-2.57 -0.31,-6.44 -0.97,-11.59zm-2641.93 336.16l-324.57 0 0 -494.58 0 -494.57 324.57 0c47.01,0 87.1,-16.59 120.26,-49.75 33.16,-33.16 49.75,-73.26 49.75,-120.27l0 -154.55c0,-47.01 -16.59,-87.11 -49.75,-120.26 -33.16,-33.16 -73.25,-49.75 -120.26,-49.75l-324.57 0 0 -158.42 -0.96 0c0.65,-5.15 0.96,-9.01 0.96,-11.59l0 -154.56c0,-47 -16.58,-87.1 -49.74,-120.26 -33.17,-33.16 -73.25,-49.75 -120.26,-49.75l-154.56 0c-47.01,0 -87.1,16.58 -120.26,49.75 -33.16,33.17 -49.75,73.26 -49.75,120.26l0 154.56c0,2.58 0.32,6.45 0.96,11.6l-0.96 -0.01 0 158.42 0 0 0 494.57 494.57 0 0 0.01 -494.57 0 0 494.57 0 494.58 0 0 0 324.56c0,47.01 16.58,87.1 49.74,120.26 33.17,33.17 73.26,49.76 120.27,49.76l324.56 0 324.57 0c47.01,0 87.1,-16.59 120.26,-49.75 33.16,-33.17 49.75,-73.25 49.75,-120.26l0 -154.56c0,-47.01 -16.59,-87.1 -49.75,-120.26 -33.16,-33.16 -73.25,-49.75 -120.26,-49.75zm-7248.63 819.14c0,47.02 -16.6,87.1 -49.75,120.26 -33.17,33.16 -73.25,49.75 -120.27,49.75l-154.56 0c-47,0 -87.09,-16.59 -120.25,-49.74 -33.16,-33.17 -49.75,-73.25 -49.75,-120.27l0 -154.56c0,-47 16.58,-87.09 49.74,-120.25 33.17,-33.17 73.26,-49.75 120.26,-49.75l154.56 0c47.03,0 87.11,16.58 120.26,49.74 33.17,33.18 49.76,73.27 49.76,120.27l0 154.55zm9891.53 0c0,47.02 -16.6,87.1 -49.75,120.26 -33.17,33.16 -73.25,49.75 -120.26,49.75l-154.56 0c-47,0 -87.1,-16.59 -120.25,-49.74 -33.17,-33.17 -49.76,-73.25 -49.76,-120.27l0 -154.56c0,-47 16.58,-87.09 49.74,-120.25 33.18,-33.17 73.27,-49.75 120.27,-49.75l154.56 0c47.03,0 87.11,16.58 120.26,49.74 33.16,33.18 49.75,73.27 49.75,120.27l0 154.55zm-12364.42 494.58c0,47.02 -16.6,87.1 -49.75,120.26 -33.17,33.16 -73.25,49.75 -120.26,49.75l-154.56 0c-47,0 -87.1,-16.59 -120.25,-49.75 -33.17,-33.16 -49.76,-73.24 -49.76,-120.26l0 -154.56c0,-47 16.59,-87.1 49.75,-120.25 33.17,-33.17 73.26,-49.76 120.26,-49.76l154.56 0c47.03,0 87.11,16.59 120.26,49.75 33.16,33.18 49.75,73.26 49.75,120.27l0 154.55zm1482.76 -166.15l0.97 0 0 -158.42 0 -494.57 324.56 0c47.01,0 87.11,-16.59 120.26,-49.75 33.17,-33.17 49.76,-73.25 49.76,-120.26l0 -324.57 494.58 0 0 158.41 0.96 0.01c-0.65,5.15 -0.96,9.02 -0.96,11.59l0 154.56c0,47.01 16.58,87.1 49.74,120.26 33.17,33.16 73.25,49.75 120.26,49.75l154.56 0c47.01,0 87.1,-16.59 120.26,-49.75 33.16,-33.17 49.75,-73.25 49.75,-120.26l0 -154.56c0,-2.57 -0.31,-6.44 -0.97,-11.59l0.97 0 0 -158.42 324.57 0c47.01,0 87.1,-16.59 120.26,-49.75 33.16,-33.16 49.75,-73.25 49.75,-120.26l0 -154.56c0,-47.01 -16.59,-87.1 -49.75,-120.26 -33.17,-33.16 -73.25,-49.74 -120.26,-49.74l-324.57 0 0 -0.01 -494.57 0 0 -494.57 324.56 0c47.01,0 87.1,-16.59 120.26,-49.75 33.16,-33.16 49.75,-73.26 49.75,-120.27l0 -324.56 324.57 0c47.01,0 87.1,-16.59 120.26,-49.75 33.16,-33.16 49.75,-73.25 49.75,-120.26l0 -154.56c0,-47.01 -16.59,-87.1 -49.75,-120.26 -33.17,-33.16 -73.25,-49.75 -120.26,-49.75l-324.57 0 0 -158.42 -0.97 0c0.65,-5.15 0.97,-9 0.97,-11.59l0 -154.55c0,-47.01 -16.59,-87.11 -49.75,-120.26 -33.16,-33.17 -73.25,-49.76 -120.26,-49.76l-154.56 0c-47.01,0 -87.09,16.59 -120.26,49.76 -33.16,33.17 -49.74,73.25 -49.74,120.26l0 154.55c0,2.58 0.31,6.45 0.96,11.6l-0.96 -0.01 0 158.42 0 494.58 -324.58 0c-47,0 -87.09,16.58 -120.26,49.75 -33.16,33.16 -49.74,73.25 -49.74,120.26l0 324.57 -324.57 0c-47.01,0 -87.1,16.58 -120.26,49.74 -33.17,33.17 -49.75,73.26 -49.75,120.26l0 324.57 0 0.01 0 494.57 -324.57 0c-47,0 -87.1,16.59 -120.26,49.75 -33.15,33.16 -49.75,73.25 -49.75,120.26l0 324.57 -494.58 0 0 -494.58 324.57 0c47.01,0 87.1,-16.59 120.26,-49.75 33.16,-33.16 49.75,-73.25 49.75,-120.26l0 -154.56c0,-47.01 -16.59,-87.1 -49.75,-120.26 -33.16,-33.16 -73.25,-49.74 -120.26,-49.74l-324.57 0 0 -0.01 0 -324.57c0,-47 -16.58,-87.1 -49.74,-120.26 -33.17,-33.15 -73.25,-49.74 -120.26,-49.74l-324.57 0 0 -324.57c0,-47.01 -16.59,-87.1 -49.75,-120.26 -33.17,-33.16 -73.25,-49.75 -120.26,-49.75l-324.57 0 -324.57 0c-47.01,0 -87.09,16.58 -120.26,49.75 -33.16,33.16 -49.74,73.25 -49.74,120.26l0 324.57 -324.57 0c-47.01,0 -87.1,16.58 -120.27,49.74 -33.16,33.17 -49.74,73.26 -49.74,120.26l0 154.56c0,47.01 16.58,87.1 49.74,120.26 33.17,33.17 73.26,49.76 120.27,49.76l324.57 0 0 -0.01 494.57 0 494.58 0 0 0.01 0 0 0 494.57 0 494.58 0 0 0 324.56c0,47.01 16.58,87.1 49.74,120.26 33.17,33.17 73.26,49.75 120.27,49.75l324.56 0 494.58 0 0 158.42 0.97 0c-0.65,5.16 -0.97,9.02 -0.97,11.6l0 154.55c0,47.01 16.58,87.11 49.75,120.26 33.17,33.16 73.26,49.75 120.26,49.75l154.56 0c47.01,0 87.1,-16.59 120.26,-49.75 33.16,-33.16 49.75,-73.25 49.75,-120.26l0 -154.56c0,-2.57 -0.31,-6.43 -0.97,-11.59zm7744.19 -158.42l-324.57 0 0 -158.41 -0.97 0c0.65,-5.15 0.97,-9.01 0.97,-11.6l0 -154.55c0,-47.01 -16.59,-87.1 -49.75,-120.26 -33.17,-33.17 -73.25,-49.75 -120.26,-49.75l-154.56 0c-47.01,0 -87.1,16.58 -120.26,49.75 -33.16,33.17 -49.75,73.25 -49.75,120.26l0 154.56c0,2.57 0.32,6.44 0.97,11.59l-0.97 0 0 158.41 0 324.57c0,47.01 16.59,87.1 49.75,120.26 33.16,33.16 73.25,49.75 120.26,49.75l324.57 0 324.57 0c47.01,0 87.1,-16.59 120.26,-49.75 33.16,-33.16 49.74,-73.25 49.74,-120.26l0 -154.56c0,-47.01 -16.58,-87.1 -49.74,-120.26 -33.17,-33.16 -73.25,-49.75 -120.26,-49.75zm1159.16 324.57c0,47.02 -16.59,87.1 -49.75,120.26 -33.16,33.16 -73.24,49.75 -120.26,49.75l-154.56 0c-47,0 -87.09,-16.59 -120.25,-49.75 -33.17,-33.16 -49.76,-73.24 -49.76,-120.26l0 -154.56c0,-47 16.58,-87.1 49.75,-120.25 33.17,-33.17 73.26,-49.76 120.26,-49.76l154.56 0c47.02,0 87.1,16.59 120.26,49.75 33.16,33.18 49.75,73.26 49.75,120.27l0 154.55zm-11870.81 328.43l0.97 0 0 -158.42 324.56 0c47.01,0 87.1,-16.59 120.26,-49.75 33.17,-33.16 49.76,-73.25 49.76,-120.26l0 -324.57 324.56 0c47.01,0 87.1,-16.58 120.26,-49.74 33.17,-33.17 49.75,-73.25 49.75,-120.27l0 -324.56 0 -324.57c0,-47.01 -16.58,-87.1 -49.74,-120.26 -33.17,-33.16 -73.26,-49.75 -120.27,-49.75l-324.56 0 -494.58 0 -324.57 0c-47.01,0 -87.1,16.59 -120.26,49.75 -33.16,33.16 -49.75,73.25 -49.75,120.26l0 154.56c0,47.01 16.58,87.1 49.75,120.26 33.17,33.16 73.25,49.75 120.26,49.75l324.57 0 0 494.57 -494.58 0 0 -158.41 -0.97 0c0.66,-5.15 0.97,-9.01 0.97,-11.6l0 -154.55c0,-47.01 -16.59,-87.1 -49.75,-120.26 -33.16,-33.17 -73.25,-49.75 -120.26,-49.75l-154.56 0c-47,0 -87.1,16.58 -120.26,49.75 -33.15,33.17 -49.75,73.25 -49.75,120.26l0 154.56c0,2.57 0.32,6.44 0.97,11.59l-0.97 0 0 158.41 0 324.57c0,47.01 16.58,87.1 49.75,120.26 33.17,33.16 73.26,49.75 120.26,49.75l324.57 0 0 158.42 0.96 0c-0.64,5.15 -0.96,9.01 -0.96,11.59l0 154.56c0,47.01 16.58,87.1 49.75,120.26 33.17,33.16 73.25,49.75 120.26,49.75l154.55 0c47.01,0 87.11,-16.59 120.26,-49.75 33.17,-33.16 49.76,-73.25 49.76,-120.26l0 -154.56c0,-2.58 -0.32,-6.44 -0.97,-11.59zm4452.16 166.15c0,47.02 -16.6,87.1 -49.75,120.26 -33.16,33.15 -73.24,49.75 -120.26,49.75l-154.56 0c-47,0 -87.09,-16.6 -120.25,-49.75 -33.17,-33.16 -49.75,-73.24 -49.75,-120.26l0 -154.56c0,-47 16.58,-87.1 49.74,-120.26 33.17,-33.16 73.26,-49.75 120.26,-49.75l154.56 0c47.03,0 87.11,16.58 120.26,49.75 33.16,33.17 49.75,73.26 49.75,120.26l0 154.56zm-4945.77 494.57c0,47.02 -16.6,87.1 -49.75,120.26 -33.16,33.16 -73.24,49.75 -120.26,49.75l-154.56 0c-47,0 -87.09,-16.59 -120.25,-49.75 -33.17,-33.16 -49.76,-73.24 -49.76,-120.26l0 -154.56c0,-47 16.58,-87.1 49.75,-120.25 33.17,-33.16 73.26,-49.75 120.26,-49.75l154.56 0c47.02,0 87.1,16.58 120.26,49.74 33.16,33.17 49.75,73.26 49.75,120.26l0 154.56zm1482.77 -166.15l0.96 0 0 -158.41 0 -158.42 -0.96 0c0.65,-5.15 0.96,-9.01 0.96,-11.59l0 -154.56c0,-47 -16.58,-87.1 -49.74,-120.26 -33.17,-33.16 -73.26,-49.75 -120.27,-49.75l-154.56 0c-47.01,0 -87.09,16.58 -120.26,49.75 -33.16,33.16 -49.74,73.25 -49.74,120.26l0 154.56c0,2.58 0.31,6.45 0.96,11.6l-0.96 -0.01 0 158.42 0 158.41 0.96 0c-0.65,5.16 -0.96,9.02 -0.96,11.59l0 154.56c0,47.01 16.58,87.1 49.74,120.26 33.17,33.16 73.25,49.75 120.26,49.75l154.56 0c47.01,0 87.1,-16.59 120.26,-49.75 33.17,-33.16 49.75,-73.25 49.75,-120.26l0 -154.56c0,-2.57 -0.31,-6.43 -0.96,-11.59zm495.54 506.17l0 -170.01 -324.57 0c-47.01,0 -87.1,16.58 -120.26,49.75 -33.16,33.16 -49.75,73.25 -49.75,120.26l0 154.56c0,47.01 16.59,87.1 49.75,120.26 33.16,33.15 73.25,49.74 120.26,49.74l324.57 0 0 -324.56zm1978.31 -170.01l-494.58 0 0 0 494.58 0 0 -494.57 0 -158.42 -0.97 0c0.65,-5.15 0.97,-9.01 0.97,-11.59l0 -154.56c0,-47 -16.59,-87.1 -49.75,-120.26 -33.16,-33.16 -73.26,-49.75 -120.27,-49.75l-154.55 0c-47.01,0 -87.1,16.58 -120.26,49.75 -33.17,33.16 -49.75,73.25 -49.75,120.26l0 154.56c0,2.58 0.32,6.45 0.96,11.6l-0.96 -0.01 0 158.42 -324.57 0c-47,0 -87.1,16.58 -120.26,49.74 -33.15,33.16 -49.75,73.25 -49.75,120.26l0 324.57 -494.58 0 0 -494.57 324.57 0c47.01,0 87.1,-16.59 120.26,-49.75 33.16,-33.16 49.75,-73.25 49.75,-120.26l0 -154.56c0,-47.01 -16.59,-87.1 -49.75,-120.26 -33.16,-33.16 -73.25,-49.75 -120.26,-49.75l-324.57 0 -324.56 0c-47.01,0 -87.1,16.58 -120.26,49.75 -33.16,33.16 -49.75,73.25 -49.75,120.26l0 324.57 0 0 0 494.57 0 494.57 494.57 0 494.58 0 494.58 0 0 0.01 324.56 -0.01c47.01,0 87.11,-16.59 120.26,-49.74 33.17,-33.17 49.76,-73.25 49.76,-120.26l0 -324.57zm7417.68 158.42l0.96 0 0 -158.42 0 -158.42 -0.96 0c0.65,-5.15 0.96,-9.01 0.96,-11.6l0 -154.55c0,-47.01 -16.58,-87.1 -49.74,-120.26 -33.17,-33.15 -73.25,-49.74 -120.26,-49.74l-154.56 0c-47.01,0 -87.1,16.58 -120.26,49.74 -33.16,33.16 -49.75,73.25 -49.75,120.26l0 154.56c0,2.57 0.32,6.44 0.96,11.59l-0.96 0 0 158.42 0 158.42 0.96 0c-0.64,5.15 -0.96,9.01 -0.96,11.59l0 154.56c0,47.01 16.58,87.1 49.74,120.26 33.17,33.15 73.26,49.74 120.27,49.74l154.56 0c47.01,0 87.1,-16.59 120.26,-49.74 33.16,-33.17 49.74,-73.25 49.74,-120.26l0 -154.56c0,-2.58 -0.3,-6.44 -0.96,-11.59zm495.54 660.72c0,47.03 -16.59,87.11 -49.75,120.26 -33.16,33.16 -73.24,49.75 -120.26,49.75l-154.55 0c-47.01,0 -87.1,-16.59 -120.26,-49.75 -33.17,-33.16 -49.76,-73.24 -49.76,-120.26l0 -154.55c0,-47.01 16.59,-87.1 49.75,-120.26 33.18,-33.17 73.26,-49.76 120.27,-49.76l154.55 0c47.03,0 87.11,16.59 120.26,49.75 33.16,33.18 49.75,73.26 49.75,120.27l0 154.55zm-494.58 1653.74l494.58 0 0 -494.57 0 -324.57c0,-47.01 -16.59,-87.1 -49.75,-120.26 -33.16,-33.16 -73.25,-49.75 -120.26,-49.75l-324.57 0 0 -324.57c0,-47.01 -16.58,-87.1 -49.74,-120.26 -33.17,-33.16 -73.25,-49.75 -120.26,-49.75l-324.57 0 0 -158.42 -0.97 0c0.65,-5.15 0.97,-9 0.97,-11.59l0 -154.55c0,-47.01 -16.59,-87.11 -49.75,-120.26 -33.17,-33.17 -73.25,-49.76 -120.26,-49.76l-154.56 0c-47.01,0 -87.1,16.59 -120.26,49.76 -33.16,33.16 -49.75,73.25 -49.75,120.26l0 154.55c0,2.58 0.32,6.45 0.97,11.6l-0.97 -0.01 0 158.42 0 494.58 0 324.56c0,47.01 16.59,87.11 49.75,120.26 33.16,33.17 73.25,49.76 120.26,49.76l324.57 0 0 -494.58 0 0 0 494.58 494.57 0 0 494.57zm-494.57 324.57c0,47.02 -16.6,87.1 -49.75,120.26 -33.17,33.16 -73.25,49.75 -120.26,49.75l-154.56 0c-47,0 -87.1,-16.59 -120.25,-49.74 -33.17,-33.17 -49.76,-73.25 -49.76,-120.27l0 -154.56c0,-47 16.59,-87.09 49.75,-120.25 33.17,-33.17 73.26,-49.75 120.26,-49.75l154.56 0c47.03,0 87.11,16.58 120.26,49.74 33.16,33.17 49.75,73.26 49.75,120.26l0 154.56zm988.19 -166.15l0.96 0 0 -158.41 -494.58 0 0 158.41 0.97 0c-0.64,5.16 -0.97,9.02 -0.97,11.59l0 154.56c0,47.01 16.59,87.1 49.75,120.26 33.17,33.16 73.26,49.75 120.27,49.75l154.55 0c47.01,0 87.1,-16.59 120.26,-49.74 33.16,-33.17 49.75,-73.26 49.75,-120.27l0 -154.56c0,-2.57 -0.31,-6.43 -0.96,-11.59zm1979.27 336.16l494.58 0 0 -494.57 -494.58 0 0 494.57zm-4945.77 324.57c0,47.02 -16.59,87.1 -49.75,120.26 -33.16,33.16 -73.24,49.75 -120.26,49.75l-154.56 0c-47,0 -87.09,-16.6 -120.25,-49.75 -33.17,-33.17 -49.76,-73.25 -49.76,-120.26l0 -154.56c0,-47 16.58,-87.1 49.75,-120.25 33.17,-33.17 73.26,-49.76 120.26,-49.76l154.56 0c47.02,0 87.1,16.59 120.26,49.75 33.16,33.17 49.75,73.26 49.75,120.26l0 154.56zm3956.62 0c0,47.02 -16.6,87.1 -49.75,120.26 -33.16,33.16 -73.24,49.75 -120.27,49.75l-154.55 0c-47,0 -87.09,-16.6 -120.25,-49.75 -33.17,-33.17 -49.76,-73.25 -49.76,-120.26l0 -154.56c0,-47 16.58,-87.1 49.75,-120.25 33.17,-33.17 73.25,-49.76 120.26,-49.76l154.55 0c47.03,0 87.11,16.59 120.26,49.75 33.17,33.17 49.76,73.26 49.76,120.26l0 154.56zm2967.46 0c0,47.02 -16.59,87.1 -49.75,120.26 -33.16,33.16 -73.24,49.75 -120.26,49.75l-154.56 0c-47,0 -87.09,-16.6 -120.25,-49.75 -33.17,-33.17 -49.76,-73.25 -49.76,-120.26l0 -154.56c0,-47 16.58,-87.1 49.75,-120.25 33.17,-33.17 73.26,-49.76 120.26,-49.76l154.56 0c47.02,0 87.1,16.59 120.26,49.75 33.16,33.17 49.75,73.26 49.75,120.26l0 154.56zm-4452.16 328.43l0.96 0 0 -158.42 0 -158.42 -0.96 0c0.65,-5.15 0.96,-9.01 0.96,-11.6l0 -154.55c0,-47.01 -16.58,-87.1 -49.74,-120.26 -33.17,-33.16 -73.25,-49.75 -120.26,-49.75l-154.56 0c-47.01,0 -87.1,16.59 -120.26,49.75 -33.16,33.16 -49.75,73.25 -49.75,120.26l0 154.56c0,2.57 0.32,6.44 0.96,11.59l-0.96 0 0 158.42 0 158.41 0.96 0.01c-0.64,5.15 -0.96,9.01 -0.96,11.59l0 154.56c0,47.01 16.58,87.1 49.74,120.26 33.17,33.15 73.26,49.74 120.27,49.74l154.56 0c47.01,0 87.1,-16.59 120.26,-49.74 33.16,-33.17 49.74,-73.25 49.74,-120.26l0 -154.56c0,-2.58 -0.3,-6.44 -0.96,-11.59zm3787.57 -158.42l-324.57 0 -324.56 0c-47.01,0 -87.1,16.58 -120.26,49.75 -33.16,33.16 -49.75,73.25 -49.75,120.26l0 154.56c0,47.01 16.58,87.1 49.74,120.26 33.17,33.15 73.26,49.74 120.27,49.74l324.56 0 324.57 0c47.01,0 87.1,-16.59 120.26,-49.74 33.16,-33.17 49.75,-73.25 49.75,-120.26l0 -154.56c0,-47.01 -16.59,-87.1 -49.75,-120.26 -33.16,-33.17 -73.25,-49.75 -120.26,-49.75zm-5271.3 652.99l0.97 0 0 -158.42 0 -494.57 0 -158.42 -0.97 0c0.65,-5.15 0.97,-9.01 0.97,-11.6l0 -154.55c0,-47.01 -16.59,-87.1 -49.75,-120.26 -33.17,-33.16 -73.26,-49.75 -120.27,-49.75l-154.55 0c-47.01,0 -87.1,16.59 -120.27,49.75 -33.16,33.16 -49.74,73.25 -49.74,120.26l0 154.56c0,2.57 0.32,6.44 0.96,11.59l-0.96 0 0 158.42 -324.57 0c-47.01,0 -87.1,16.58 -120.26,49.75 -33.16,33.16 -49.75,73.25 -49.75,120.26l0 154.56c0,47.01 16.58,87.1 49.75,120.26 33.17,33.15 73.25,49.74 120.26,49.74l324.57 0 0 158.42 0.96 0c-0.64,5.16 -0.96,9.02 -0.96,11.6l0 154.55c0,47.01 16.58,87.11 49.74,120.26 33.17,33.16 73.26,49.75 120.27,49.75l154.55 0c47.01,0 87.1,-16.59 120.26,-49.75 33.17,-33.16 49.76,-73.25 49.76,-120.26l0 -154.56c0,-2.57 -0.32,-6.43 -0.97,-11.59zm820.11 336.16l-324.57 0 -324.57 0c-47.01,0 -87.09,16.58 -120.26,49.75 -33.16,33.17 -49.74,73.25 -49.74,120.26l0 154.56c0,47.01 16.58,87.1 49.74,120.26 33.17,33.16 73.25,49.75 120.26,49.75l324.57 0 324.57 0c47.01,0 87.1,-16.59 120.26,-49.75 33.16,-33.16 49.75,-73.25 49.75,-120.26l0 -154.56c0,-47.01 -16.59,-87.1 -49.75,-120.26 -33.17,-33.16 -73.25,-49.75 -120.26,-49.75zm4451.19 0l-324.57 0 -324.56 0c-47.01,0 -87.1,16.58 -120.26,49.75 -33.16,33.17 -49.75,73.25 -49.75,120.26l0 154.56c0,47.01 16.58,87.1 49.74,120.26 33.17,33.16 73.26,49.75 120.27,49.75l324.56 0 324.57 0c47.01,0 87.1,-16.59 120.26,-49.75 33.16,-33.16 49.75,-73.25 49.75,-120.26l0 -154.56c0,-47.01 -16.59,-87.1 -49.75,-120.26 -33.16,-33.16 -73.25,-49.75 -120.26,-49.75zm-7743.22 989.15l0 0.01 324.57 0c47.01,0 87.1,-16.59 120.26,-49.75 33.16,-33.16 49.74,-73.26 49.74,-120.27l0 -324.56 324.57 0c47.01,0 87.11,-16.59 120.26,-49.75 33.16,-33.16 49.75,-73.25 49.75,-120.26l0 -324.57 0 -494.58 0 -324.56c0,-47.01 -16.59,-87.1 -49.75,-120.26 -33.16,-33.17 -73.25,-49.75 -120.26,-49.75l-324.57 0 -324.56 0c-47.01,0 -87.1,16.58 -120.26,49.75 -33.17,33.16 -49.75,73.25 -49.75,120.26l0 154.56c0,47.01 16.58,87.1 49.75,120.26 33.16,33.15 73.25,49.74 120.26,49.74l324.56 0 0.01 0 0 494.58 -0.01 0 -494.57 0 0 -158.42 -0.96 0c0.65,-5.15 0.96,-9.01 0.96,-11.59l0 -154.55c0,-47.01 -16.59,-87.11 -49.75,-120.26 -33.16,-33.17 -73.25,-49.76 -120.26,-49.76l-154.56 0c-47.01,0 -87.1,16.59 -120.26,49.76 -33.16,33.17 -49.74,73.25 -49.74,120.26l0 154.55c0,2.58 0.32,6.45 0.96,11.6l-0.96 -0.01 0 158.42 0 494.58 -494.58 0 0 -494.58 0 -494.58 0 -494.57 324.57 0c47.01,0 87.1,-16.59 120.26,-49.75 33.16,-33.17 49.75,-73.25 49.75,-120.26l0 -154.56c0,-47.01 -16.59,-87.1 -49.75,-120.26 -33.16,-33.16 -73.25,-49.75 -120.26,-49.75l-324.57 0 0 0 -494.58 0 -494.57 0 -494.58 0 0 494.58 494.58 0 0 324.56c0,47.01 16.58,87.1 49.74,120.26 33.17,33.16 73.26,49.75 120.27,49.75l324.56 0 0 494.58 -494.57 0 -494.58 0 0 494.58 494.58 0 494.57 0 0 494.57 494.58 0 494.58 0 494.57 0zm5440.35 -170.01c0,47.03 -16.6,87.11 -49.75,120.26 -33.16,33.16 -73.24,49.76 -120.27,49.76l-154.55 0c-47,0 -87.09,-16.6 -120.25,-49.75 -33.17,-33.16 -49.76,-73.24 -49.76,-120.27l0 -154.55c0,-47.01 16.58,-87.1 49.75,-120.26 33.17,-33.16 73.25,-49.75 120.26,-49.75l154.55 0c47.03,0 87.11,16.58 120.26,49.75 33.17,33.17 49.76,73.25 49.76,120.26l0 154.55zm-4451.2 494.58c0,47.02 -16.59,87.1 -49.75,120.26 -33.16,33.16 -73.24,49.76 -120.26,49.76l-154.55 0c-47.01,0 -87.1,-16.6 -120.26,-49.75 -33.17,-33.17 -49.76,-73.25 -49.76,-120.27l0 -154.56c0,-47 16.59,-87.09 49.75,-120.25 33.18,-33.16 73.26,-49.75 120.27,-49.75l154.55 0c47.03,0 87.11,16.58 120.26,49.74 33.16,33.17 49.75,73.26 49.75,120.26l0 154.56zm988.19 -166.15l0.97 0 0 -158.41 324.56 0c47.01,0 87.1,-16.59 120.26,-49.75 33.17,-33.16 49.76,-73.26 49.76,-120.27l0 -154.55c0,-47.01 -16.59,-87.11 -49.75,-120.26 -33.17,-33.16 -73.26,-49.75 -120.27,-49.75l-324.56 0 -324.57 0c-47.01,0 -87.1,16.58 -120.26,49.75 -33.16,33.16 -49.75,73.25 -49.75,120.26l0 324.57 0 158.41 0.96 0c-0.64,5.16 -0.96,9.02 -0.96,11.59l0 154.56c0,47.01 16.58,87.1 49.75,120.26 33.17,33.17 73.25,49.76 120.26,49.76l154.55 0c47.01,0 87.11,-16.59 120.26,-49.75 33.17,-33.17 49.76,-73.26 49.76,-120.27l0 -154.56c0,-2.57 -0.32,-6.43 -0.97,-11.59zm3957.59 336.16l-494.58 0 -494.58 0 -494.58 0 0 -494.57 -494.58 0 0 -0.01 494.58 0 0 -494.57 0 -494.58 494.58 0 494.58 0 494.58 0 0 494.58 0 494.57 494.57 0 0 0.01 -494.57 0 0 494.57zm-7418.66 1483.73l324.57 0c47.01,0 87.1,-16.59 120.26,-49.74 33.16,-33.17 49.75,-73.25 49.75,-120.27l0 -324.57 494.58 0 324.56 0c47.01,0 87.1,-16.58 120.26,-49.74 33.16,-33.17 49.75,-73.25 49.75,-120.26l0 -324.57 324.57 0c47.01,0 87.1,-16.59 120.26,-49.75 33.16,-33.16 49.74,-73.25 49.74,-120.26l0 -154.56c0,-47.01 -16.58,-87.1 -49.74,-120.26 -33.17,-33.16 -73.25,-49.74 -120.26,-49.74l-324.57 0 0 -0.01 -494.57 0 0 -494.57 -494.58 0 -494.58 0 -324.56 0c-47.01,0 -87.1,16.58 -120.26,49.74 -33.16,33.17 -49.75,73.25 -49.75,120.26l0 154.56c0,47.01 16.58,87.1 49.74,120.26 33.17,33.17 73.26,49.76 120.27,49.76l324.56 0 0 494.57 -494.57 0 -324.57 0c-47.01,0 -87.1,16.59 -120.26,49.75 -33.16,33.16 -49.75,73.25 -49.75,120.26l0 154.56c0,47.01 16.58,87.1 49.74,120.26 33.17,33.16 73.26,49.74 120.27,49.74l324.57 0 0 324.57c0,47.01 16.58,87.1 49.74,120.26 33.17,33.16 73.26,49.75 120.27,49.75l324.56 0zm7913.23 -170.01c0,47.02 -16.6,87.1 -49.75,120.26 -33.16,33.16 -73.24,49.75 -120.26,49.75l-154.56 0c-47,0 -87.09,-16.59 -120.25,-49.74 -33.17,-33.17 -49.75,-73.25 -49.75,-120.27l0 -154.56c0,-47 16.58,-87.09 49.74,-120.25 33.17,-33.17 73.26,-49.76 120.26,-49.76l154.56 0c47.03,0 87.11,16.59 120.26,49.75 33.16,33.18 49.75,73.26 49.75,120.27l0 154.55zm-1159.17 170.01l-324.56 0 -324.57 0c-47,0 -87.1,16.59 -120.26,49.76 -33.15,33.17 -49.75,73.25 -49.75,120.26l0 154.55c0,47.01 16.58,87.11 49.75,120.26 33.17,33.16 73.26,49.75 120.26,49.75l324.57 0 324.56 0c47.01,0 87.11,-16.59 120.26,-49.75 33.17,-33.16 49.76,-73.25 49.76,-120.26l0 -154.56c0,-47.01 -16.59,-87.1 -49.75,-120.26 -33.16,-33.16 -73.26,-49.75 -120.27,-49.75zm-5934.91 494.58l-324.57 0 -494.58 0 -494.57 0 0 -158.42 -0.97 0c0.65,-5.15 0.97,-9.01 0.97,-11.59l0 -154.55c0,-47.01 -16.59,-87.11 -49.75,-120.26 -33.17,-33.17 -73.25,-49.76 -120.26,-49.76l-154.56 0c-47.01,0 -87.1,16.59 -120.26,49.76 -33.16,33.17 -49.75,73.25 -49.75,120.26l0 154.55c0,2.58 0.32,6.45 0.96,11.6l-0.96 -0.01 0 158.42 0 324.57c0,47.01 16.58,87.1 49.74,120.26 33.17,33.16 73.26,49.75 120.27,49.75l324.57 0 0 -0.01 494.57 0 494.58 0 0 0.01 324.57 0c47.01,0 87.1,-16.59 120.26,-49.75 33.16,-33.16 49.75,-73.25 49.75,-120.26l0 -154.56c0,-47.01 -16.59,-87.1 -49.75,-120.26 -33.16,-33.16 -73.25,-49.75 -120.26,-49.75zm2967.45 0l-324.56 0 0 -324.56c0,-47.01 -16.59,-87.11 -49.75,-120.26 -33.16,-33.17 -73.26,-49.76 -120.27,-49.76l-324.56 0 0 -494.58 324.56 0c47.01,0 87.11,-16.58 120.26,-49.74 33.17,-33.17 49.76,-73.25 49.76,-120.26l0 -154.56c0,-47.01 -16.59,-87.1 -49.75,-120.26 -33.16,-33.16 -73.26,-49.75 -120.27,-49.75l-324.56 0 -494.58 0 -324.56 0c-47.01,0 -87.11,16.59 -120.26,49.75 -33.16,33.16 -49.76,73.25 -49.76,120.26l0 154.56c0,47.01 16.59,87.1 49.75,120.26 33.17,33.16 73.26,49.74 120.27,49.74l324.56 0 0 494.58 -494.57 0 0 494.58 -0.01 0 0 -494.58 -494.57 0 -324.57 0c-47.01,0 -87.1,16.59 -120.26,49.76 -33.16,33.17 -49.74,73.25 -49.74,120.26l0 154.55c0,47.01 16.58,87.11 49.74,120.26 33.17,33.16 73.25,49.75 120.26,49.75l324.57 0 0 324.57c0,47.01 16.58,87.1 49.75,120.26 33.16,33.16 73.25,49.75 120.26,49.75l324.56 0 324.57 0c47.01,0 87.11,-16.59 120.26,-49.75 33.16,-33.16 49.75,-73.25 49.75,-120.26l0 -324.57 494.58 0 0 324.57c0,47.01 16.58,87.1 49.75,120.26 33.17,33.16 73.25,49.75 120.26,49.75l324.57 0 324.56 0c47.01,0 87.1,-16.59 120.26,-49.75 33.17,-33.16 49.76,-73.25 49.76,-120.26l0 -154.56c0,-47.01 -16.59,-87.1 -49.75,-120.26 -33.17,-33.16 -73.26,-49.75 -120.27,-49.75zm1978.31 0l-324.57 0 -494.57 0 0 494.57 494.57 0 0 0.01 324.57 0c47.01,0 87.1,-16.59 120.26,-49.75 33.16,-33.16 49.75,-73.25 49.75,-120.26l0 -154.56c0,-47.01 -16.59,-87.1 -49.75,-120.26 -33.16,-33.16 -73.25,-49.75 -120.26,-49.75zm2148.32 494.58l324.57 0c47.01,0 87.1,-16.59 120.26,-49.75 33.16,-33.16 49.75,-73.25 49.75,-120.26l0 -324.57 494.57 0 494.58 0 324.57 0c47.01,0 87.1,-16.59 120.26,-49.75 33.16,-33.16 49.75,-73.25 49.75,-120.26l0 -324.57 0 -324.56c0,-47.01 -16.59,-87.1 -49.75,-120.26 -33.16,-33.17 -73.25,-49.76 -120.26,-49.76l-324.57 0 0 -494.57 0 -494.57 0 -0.01 0 -324.57c0,-47.01 -16.59,-87.1 -49.75,-120.26 -33.16,-33.15 -73.25,-49.74 -120.26,-49.74l-324.57 0 -494.57 0 0 -324.57c0,-47.01 -16.59,-87.1 -49.75,-120.26 -33.17,-33.16 -73.25,-49.75 -120.26,-49.75l-324.57 0 0 -494.58 0 -494.58 0 -494.57 324.57 0c47.01,0 87.1,-16.59 120.26,-49.75 33.16,-33.17 49.75,-73.25 49.75,-120.26l0 -324.57 -494.58 0 0 0 0 -494.57 -494.57 0 -324.58 0c-47,0 -87.09,16.58 -120.26,49.74 -33.16,33.17 -49.74,73.25 -49.74,120.26l0 154.56c0,47.01 16.58,87.1 49.74,120.26 33.17,33.16 73.26,49.75 120.26,49.75l324.58 0 0 494.58 0 494.57 -494.58 0 -494.58 0 -494.58 0 -324.56 0c-47.01,0 -87.11,16.59 -120.26,49.76 -33.16,33.17 -49.76,73.25 -49.76,120.26l0 324.56 0 494.58 -324.56 0c-47.01,0 -87.1,16.58 -120.26,49.75 -33.16,33.16 -49.75,73.25 -49.75,120.26l0 324.57 -494.58 0 -324.57 0c-47.01,0 -87.09,16.58 -120.26,49.74 -33.16,33.17 -49.74,73.25 -49.74,120.26l0 324.57 0 0.01 -324.57 0c-47.01,0 -87.1,16.58 -120.27,49.74 -33.16,33.17 -49.74,73.25 -49.74,120.26l0 154.56c0,47.01 16.58,87.1 49.74,120.26 33.17,33.16 73.26,49.75 120.27,49.75l324.57 0 0 494.57 0 494.58 0 324.57c0,47.01 16.58,87.1 49.74,120.26 33.17,33.16 73.25,49.75 120.26,49.75l324.57 0 0 324.57c0,47.01 16.59,87.1 49.75,120.26 33.16,33.16 73.25,49.75 120.26,49.75l324.57 0 0 -494.58 0 -494.58 0 -494.58 0 -494.57 0 -494.58 0 -494.57 0 0 0 494.57 0 494.58 494.57 0 494.58 0 0 158.41 0.97 0.01c-0.65,5.15 -0.97,9.02 -0.97,11.59l0 154.56c0,47.01 16.58,87.1 49.75,120.26 33.17,33.16 73.26,49.74 120.26,49.74l154.56 0c47.01,0 87.1,-16.58 120.26,-49.74 33.16,-33.17 49.75,-73.25 49.75,-120.26l0 -154.56c0,-2.57 -0.31,-6.44 -0.97,-11.59l0.97 0 0 -158.42 494.58 0 0 158.41 0.96 0.01c-0.64,5.15 -0.96,9.02 -0.96,11.59l0 154.56c0,47.01 16.58,87.1 49.74,120.26 33.17,33.16 73.26,49.74 120.26,49.74l154.56 0c47.01,0 87.1,-16.58 120.26,-49.74 33.17,-33.17 49.76,-73.25 49.76,-120.26l0 -154.56c0,-2.57 -0.32,-6.44 -0.97,-11.59l0.97 0 0 -158.42 494.57 0 0 0 324.57 0c47.01,0 87.1,-16.59 120.26,-49.75 33.16,-33.16 49.75,-73.25 49.75,-120.26l0 -324.56 -494.58 0 0 -0.01 0 -494.57 0 0 0 494.57 494.58 0 494.57 0 0 0.01 0 494.57 -324.56 0c-47.01,0 -87.1,16.59 -120.26,49.75 -33.16,33.16 -49.75,73.25 -49.75,120.26l0 154.56c0,47.01 16.58,87.1 49.74,120.26 33.17,33.16 73.26,49.74 120.27,49.74l324.56 0 0 494.58 -494.57 0 -324.57 0c-47.01,0 -87.1,16.59 -120.26,49.76 -33.16,33.17 -49.75,73.25 -49.75,120.26l0 324.56 -324.57 0c-47.01,0 -87.09,16.58 -120.26,49.75 -33.16,33.16 -49.74,73.25 -49.74,120.26l0 154.56c0,47.01 16.58,87.1 49.74,120.26 33.17,33.16 73.25,49.75 120.26,49.75l324.57 0zm0 -5934.93l494.58 0 0 -494.57 494.57 0 494.58 0 324.57 0c47.01,0 87.1,-16.59 120.26,-49.75 33.16,-33.16 49.75,-73.26 49.75,-120.27l0 -324.56 0 -494.58 0 -158.42 -0.97 0c0.66,-5.15 0.97,-9 0.97,-11.59l0 -154.55c0,-47.01 -16.59,-87.11 -49.75,-120.26 -33.16,-33.17 -73.25,-49.76 -120.26,-49.76l-154.56 0c-47.01,0 -87.1,16.59 -120.26,49.76 -33.17,33.16 -49.75,73.25 -49.75,120.26l0 154.55c0,2.58 0.32,6.45 0.97,11.6l-0.97 -0.01 0 158.42 0 494.58 -494.58 0 0 -324.57c0,-47.01 -16.58,-87.1 -49.74,-120.26 -33.17,-33.16 -73.25,-49.75 -120.27,-49.75l-324.56 0 0 -494.58 0 -494.57 494.57 0 0 0 0 158.42 0.97 0c-0.65,5.15 -0.97,9.01 -0.97,11.59l0 154.56c0,47.01 16.59,87.1 49.75,120.26 33.17,33.15 73.26,49.74 120.27,49.74l154.55 0c47.01,0 87.1,-16.59 120.26,-49.74 33.16,-33.17 49.75,-73.25 49.75,-120.26l0 -154.56c0,-2.58 -0.31,-6.44 -0.96,-11.59l0.96 0 0 -158.42 0 -324.57c0,-47.01 -16.59,-87.1 -49.75,-120.26 -33.16,-33.15 -73.25,-49.74 -120.26,-49.74l-324.57 0 -494.57 0 0 -0.01 494.57 0 0 -494.57 324.57 0c47.01,0 87.1,-16.59 120.26,-49.75 33.16,-33.16 49.75,-73.25 49.75,-120.26l0 -324.57 0 -494.57 0 -494.58 324.57 0c47.01,0 87.1,-16.59 120.26,-49.75 33.16,-33.16 49.75,-73.25 49.75,-120.26l0 -154.56c0,-47.01 -16.59,-87.1 -49.75,-120.26 -33.16,-33.16 -73.25,-49.74 -120.26,-49.74l-324.57 0 -324.56 0c-47.01,0 -87.11,16.58 -120.26,49.74 -33.16,33.17 -49.76,73.25 -49.76,120.26l0 324.57 -324.56 0c-47.01,0 -87.1,16.59 -120.26,49.75 -33.16,33.16 -49.75,73.25 -49.75,120.26l0 154.56c0,47.01 16.58,87.1 49.74,120.26 33.17,33.16 73.26,49.75 120.27,49.75l324.56 0 0 494.57 -324.56 0c-47.01,0 -87.1,16.59 -120.26,49.76 -33.16,33.17 -49.75,73.25 -49.75,120.26l0 324.56 -324.57 0c-47.01,0 -87.1,16.58 -120.26,49.75 -33.16,33.16 -49.75,73.25 -49.75,120.26l0 324.57 -324.57 0c-47.01,0 -87.09,16.58 -120.26,49.74 -33.16,33.16 -49.74,73.25 -49.74,120.26l0 324.57 -494.58 0 0 -494.57 324.56 0c47.01,0 87.1,-16.59 120.26,-49.75 33.17,-33.16 49.76,-73.25 49.76,-120.26l0 -324.57 0 -494.58 0 -494.57 324.56 0c47.01,0 87.1,-16.59 120.26,-49.75 33.16,-33.17 49.75,-73.25 49.75,-120.26l0 -154.56c0,-47.01 -16.59,-87.1 -49.75,-120.26 -33.16,-33.16 -73.25,-49.75 -120.26,-49.75l-324.56 0 0 -494.57 0 -0.01 494.57 0 0 -494.57 0 0 0 494.57 494.58 0 0 -494.57 324.56 0c47.01,0 87.1,-16.59 120.26,-49.75 33.17,-33.16 49.75,-73.26 49.75,-120.27l0 -154.55c0,-47.01 -16.58,-87.11 -49.74,-120.26 -33.17,-33.16 -73.25,-49.75 -120.27,-49.75l-324.56 0 -324.57 0c-47.01,0 -87.1,16.58 -120.26,49.75 -33.16,33.16 -49.75,73.25 -49.75,120.26l0 324.57 -494.57 0 -324.58 0c-47,0 -87.09,16.58 -120.26,49.74 -33.16,33.17 -49.74,73.26 -49.74,120.26l0 324.57 -494.58 0 0 -158.42 -0.97 0c0.66,-5.15 0.97,-9.01 0.97,-11.59l0 -154.56c0,-47 -16.59,-87.1 -49.75,-120.26 -33.16,-33.15 -73.25,-49.74 -120.26,-49.74l-154.56 0c-47,0 -87.1,16.58 -120.26,49.74 -33.15,33.17 -49.75,73.26 -49.75,120.26l0 154.56c0,2.58 0.32,6.45 0.97,11.6l-0.97 -0.01 0 158.43 0 324.56c0,47.01 16.58,87.1 49.75,120.26 33.17,33.16 73.26,49.75 120.26,49.75l324.57 0 494.58 0 0 494.58 -324.57 0c-47.01,0 -87.1,16.58 -120.26,49.75 -33.17,33.17 -49.75,73.25 -49.75,120.26l0 154.56c0,47.01 16.58,87.1 49.75,120.26 33.17,33.16 73.25,49.74 120.26,49.74l324.57 0 0 494.58 -324.57 0c-47.01,0 -87.1,16.58 -120.26,49.75 -33.17,33.16 -49.75,73.25 -49.75,120.26l0 324.57 -324.57 0c-47,0 -87.1,16.58 -120.26,49.74 -33.15,33.16 -49.75,73.25 -49.75,120.26l0 154.56c0,47.01 16.58,87.1 49.75,120.26 33.17,33.16 73.26,49.75 120.26,49.75l324.57 0 0 494.57 0 494.58 -324.57 0c-47,0 -87.1,16.58 -120.26,49.75 -33.15,33.17 -49.75,73.25 -49.75,120.26l0 154.56c0,47.01 16.58,87.1 49.75,120.26 33.17,33.16 73.26,49.75 120.26,49.75l324.57 0 0 324.56c0,47.01 16.58,87.11 49.75,120.26 33.17,33.17 73.25,49.76 120.26,49.76l324.57 0 494.58 0 494.57 0 0 -494.58 -494.57 0 -494.58 0 0 -494.58 494.58 0 494.57 0 0 -494.58 0 -494.57 0 0 0 -324.57 0 -170 0 0 0 494.57 0 494.57 0 494.58 0 494.58 0 494.58 0 494.57zm-13354.54 -1325.31l0.97 0 0 -158.42 324.56 0c47.01,0 87.1,-16.59 120.26,-49.75 33.17,-33.16 49.76,-73.25 49.76,-120.26l0 -324.57 0 -158.41 -0.97 0c0.65,-5.15 0.97,-9.01 0.97,-11.6l0 -154.55c0,-47.01 -16.59,-87.1 -49.75,-120.26 -33.17,-33.16 -73.26,-49.75 -120.27,-49.75l-154.55 0c-47.01,0 -87.1,16.58 -120.27,49.75 -33.16,33.16 -49.74,73.25 -49.74,120.26l0 154.56c0,2.57 0.32,6.44 0.96,11.59l-0.96 0 0 158.41 -494.58 0 -324.57 0c-47,0 -87.1,16.59 -120.26,49.76 -33.15,33.16 -49.75,73.25 -49.75,120.26l0 154.55c0,47.01 16.58,87.11 49.75,120.26 33.17,33.16 73.26,49.75 120.26,49.75l324.57 0 0 158.42 0.96 0c-0.64,5.15 -0.96,9.02 -0.96,11.59l0 154.56c0,47.01 16.58,87.1 49.75,120.26 33.17,33.16 73.25,49.75 120.26,49.75l154.55 0c47.01,0 87.11,-16.59 120.26,-49.75 33.17,-33.16 49.76,-73.25 49.76,-120.26l0 -154.56c0,-2.57 -0.32,-6.44 -0.97,-11.59zm2473.85 166.15c0,47.02 -16.59,87.1 -49.75,120.26 -33.16,33.15 -73.24,49.75 -120.26,49.75l-154.55 0c-47.01,0 -87.1,-16.6 -120.26,-49.75 -33.17,-33.16 -49.76,-73.24 -49.76,-120.26l0 -154.56c0,-47.01 16.59,-87.1 49.75,-120.26 33.18,-33.16 73.26,-49.75 120.27,-49.75l154.55 0c47.03,0 87.11,16.58 120.26,49.75 33.16,33.17 49.75,73.26 49.75,120.26l0 154.56zm-1483.73 1159.16l494.58 0 0 -494.57 324.57 0c47.01,0 87.1,-16.59 120.26,-49.75 33.16,-33.16 49.74,-73.26 49.74,-120.27l0 -154.55c0,-47.01 -16.58,-87.11 -49.74,-120.26 -33.17,-33.16 -73.25,-49.75 -120.26,-49.75l-324.57 0 -494.58 0 -324.57 0c-47.01,0 -87.09,16.58 -120.26,49.75 -33.16,33.17 -49.74,73.25 -49.74,120.26l0 154.56c0,47.01 16.58,87.1 49.74,120.26 33.17,33.16 73.25,49.75 120.26,49.75l324.57 0 0 494.57zm1483.73 -170.01c0,47.02 -16.59,87.1 -49.75,120.26 -33.16,33.16 -73.24,49.76 -120.26,49.76l-154.55 0c-47.01,0 -87.1,-16.6 -120.26,-49.75 -33.17,-33.17 -49.76,-73.25 -49.76,-120.27l0 -154.56c0,-47 16.59,-87.09 49.75,-120.25 33.18,-33.16 73.26,-49.75 120.27,-49.75l154.55 0c47.03,0 87.11,16.58 120.26,49.74 33.16,33.18 49.75,73.26 49.75,120.27l0 154.55zm988.19 -166.15l0.97 0 0 -158.41 494.58 0 324.56 0c47.01,0 87.1,-16.59 120.26,-49.75 33.16,-33.16 49.75,-73.26 49.75,-120.27l0 -154.55c0,-47.01 -16.59,-87.11 -49.75,-120.26 -33.16,-33.16 -73.25,-49.75 -120.26,-49.75l-324.56 0 0 -494.58 324.56 0c47.01,0 87.1,-16.59 120.26,-49.75 33.16,-33.16 49.75,-73.25 49.75,-120.26l0 -154.55c0,-47.01 -16.59,-87.11 -49.75,-120.26 -33.16,-33.17 -73.25,-49.76 -120.26,-49.76l-324.56 0 -324.58 0c-47,0 -87.09,16.59 -120.26,49.76 -33.16,33.16 -49.74,73.25 -49.74,120.26l0 324.56 0 494.58 -324.57 0c-47.01,0 -87.1,16.58 -120.26,49.75 -33.17,33.17 -49.75,73.25 -49.75,120.26l0 324.57 0 158.41 0.96 0c-0.64,5.16 -0.96,9.02 -0.96,11.6l0 154.56c0,47.01 16.58,87.1 49.75,120.26 33.17,33.16 73.25,49.75 120.26,49.75l154.55 0c47.01,0 87.11,-16.59 120.26,-49.75 33.17,-33.17 49.76,-73.26 49.76,-120.27l0 -154.56c0,-2.57 -0.32,-6.43 -0.97,-11.59zm-3631.09 1819.89l-324.56 0 0 -494.57 0 -494.58 0 0 494.58 0 494.58 0 0 494.58 0 158.41 0.96 0.01c-0.65,5.15 -0.96,9.01 -0.96,11.59l0 154.56c0,47.01 16.58,87.1 49.74,120.26 33.17,33.15 73.25,49.74 120.26,49.74l154.56 0c47.01,0 87.1,-16.59 120.26,-49.74 33.17,-33.17 49.75,-73.25 49.75,-120.26l0 -154.56c0,-2.58 -0.31,-6.44 -0.96,-11.59l0.96 0 0 -158.42 0 -494.58 324.57 0c47.01,0 87.1,-16.59 120.26,-49.74 33.16,-33.17 49.75,-73.26 49.75,-120.27l0 -324.56 -494.58 0 -494.57 0 -494.58 0 0 -158.42 -0.97 0c0.65,-5.15 0.97,-9.01 0.97,-11.6l0 -154.55c0,-47.01 -16.59,-87.1 -49.75,-120.26 -33.16,-33.16 -73.26,-49.75 -120.27,-49.75l-154.55 0c-47.01,0 -87.1,16.58 -120.26,49.74 -33.16,33.17 -49.75,73.25 -49.75,120.27l0 154.56c0,2.57 0.32,6.44 0.96,11.59l-0.96 0 0 158.42 -324.57 0c-47,0 -87.1,16.58 -120.26,49.74 -33.15,33.17 -49.75,73.25 -49.75,120.26l0 324.57 0 0 0 494.58 0 494.57 0 324.57c0,47.01 16.58,87.1 49.75,120.26 33.17,33.16 73.26,49.75 120.26,49.75l324.57 0 324.56 0c47.01,0 87.11,-16.59 120.26,-49.75 33.17,-33.16 49.76,-73.25 49.76,-120.26l0 -154.56c0,-47.01 -16.59,-87.1 -49.75,-120.26 -33.16,-33.16 -73.26,-49.75 -120.27,-49.75zm1653.75 170.02l0 -170.02 -324.57 0c-47.01,0 -87.1,16.59 -120.26,49.76 -33.16,33.17 -49.75,73.25 -49.75,120.26l0 154.55c0,47.01 16.59,87.11 49.75,120.26 33.16,33.16 73.25,49.75 120.26,49.75l324.57 0 0 -324.56zm819.14 -170.02l-324.57 0 -494.57 0 0 494.58 494.57 0 324.57 0c47.01,0 87.1,-16.59 120.26,-49.75 33.16,-33.16 49.75,-73.25 49.75,-120.26l0 -154.56c0,-47.01 -16.59,-87.1 -49.75,-120.26 -33.16,-33.16 -73.25,-49.75 -120.26,-49.75zm1158.2 1147.58l0.97 0 0 -158.42 494.58 0 494.57 0 0 -494.58 0 -324.56c0,-47.01 -16.59,-87.11 -49.75,-120.26 -33.16,-33.17 -73.25,-49.76 -120.26,-49.76l-324.56 0 0 -494.57 494.57 0 0 -494.58 -494.57 0 -494.58 0 -494.58 0 -494.58 0 0 0 -324.56 0c-47.01,0 -87.11,16.59 -120.26,49.75 -33.16,33.16 -49.76,73.25 -49.76,120.26l0 154.56c0,47.01 16.59,87.1 49.75,120.26 33.17,33.16 73.26,49.75 120.27,49.75l324.56 0 494.58 0 0 494.57 0 494.58 0 494.58 0 158.42 0.96 0c-0.64,5.15 -0.96,9.01 -0.96,11.59l0 154.56c0,47.01 16.58,87.1 49.75,120.26 33.17,33.16 73.25,49.75 120.26,49.75l154.55 0c47.01,0 87.11,-16.59 120.26,-49.75 33.17,-33.16 49.76,-73.26 49.76,-120.27l0 -154.55c0,-2.58 -0.32,-6.44 -0.97,-11.59zm325.53 1325.31l-324.56 0 0 -158.42 -0.97 0c0.65,-5.15 0.97,-9.01 0.97,-11.6l0 -154.55c0,-47.01 -16.59,-87.1 -49.75,-120.26 -33.16,-33.16 -73.26,-49.74 -120.27,-49.74l-154.55 0c-47.01,0 -87.1,16.58 -120.26,49.74 -33.17,33.17 -49.75,73.25 -49.75,120.26l0 154.56c0,2.57 0.32,6.45 0.96,11.6l-0.96 -0.01 0 158.42 0 324.56c0,47.01 16.58,87.1 49.75,120.26 33.17,33.17 73.25,49.75 120.26,49.75l324.57 0 324.56 0c47.01,0 87.1,-16.58 120.26,-49.74 33.17,-33.17 49.76,-73.25 49.76,-120.26l0 -154.56c0,-47.01 -16.59,-87.1 -49.75,-120.26 -33.17,-33.16 -73.26,-49.75 -120.27,-49.75zm1159.17 -14172.72c0,-47 -16.59,-87.1 -49.75,-120.26 -33.17,-33.16 -73.25,-49.75 -120.26,-49.75l-154.56 0c-47.01,0 -87.1,16.58 -120.26,49.75 -33.16,33.17 -49.75,73.26 -49.75,120.26l0 154.56c0,2.58 0.32,6.45 0.96,11.6l-0.96 -0.01 0 158.42 0 324.56c0,47.01 16.58,87.11 49.74,120.26 33.17,33.17 73.26,49.76 120.27,49.76l324.57 0 494.57 0 494.58 0 0 494.57 494.58 0 494.57 0 0 -494.57 0 -494.58 494.57 0 0 324.56c0,47.01 16.59,87.11 49.75,120.26 33.17,33.17 73.26,49.76 120.27,49.76l324.56 0 494.58 0 0 158.41 0.96 0c-0.64,5.16 -0.96,9.02 -0.96,11.6l0 154.56c0,47.01 16.58,87.1 49.75,120.26 33.17,33.16 73.25,49.75 120.26,49.75l154.55 0c47.01,0 87.11,-16.59 120.26,-49.75 33.17,-33.17 49.76,-73.26 49.76,-120.27l0 -154.56c0,-2.57 -0.32,-6.43 -0.97,-11.59l0.97 0 0 -158.41 494.58 0 0 494.57 494.57 0 494.58 0 0 -494.57 -494.58 0 0 -494.58 324.57 0c47.01,0 87.1,-16.59 120.26,-49.75 33.16,-33.16 49.75,-73.25 49.75,-120.26l0 -154.56c0,-47.01 -16.59,-87.1 -49.75,-120.26 -33.17,-33.16 -73.25,-49.75 -120.26,-49.75l-324.57 0 -324.57 0c-47.01,0 -87.09,16.58 -120.26,49.75 -33.16,33.17 -49.74,73.26 -49.74,120.26l0 324.57 -494.58 0 0 -324.57c0,-47 -16.59,-87.1 -49.75,-120.26 -33.16,-33.16 -73.26,-49.75 -120.27,-49.75l-324.56 0 -494.58 0 -494.57 0 0 494.58 -0.01 0 0 -494.58 -494.57 0 -494.57 0 -324.57 0c-47.01,0 -87.1,16.58 -120.26,49.75 -33.17,33.17 -49.75,73.26 -49.75,120.26l0 324.57 -494.58 0 -494.57 0 0 -158.42 -0.97 0c0.65,-5.15 0.97,-9.01 0.97,-11.59l0 -154.56z"/>
  <g>
   <path class="fil0 str0" d="M12115.88 13193.39l-2105.88 0c-686.18,0 -1244.45,-558.21 -1244.45,-1244.45l0 -2105.88c0,-686.24 558.27,-1244.45 1244.45,-1244.45l2105.88 0c686.24,0 1244.45,558.21 1244.45,1244.45l0 2105.94c0,686.18 -558.21,1244.39 -1244.45,1244.39zm-2070.84 -4148.14c-459.23,0 -832.85,373.62 -832.85,832.85l0 2035.86c0,459.23 373.62,832.85 832.85,832.85l2035.8 0c459.23,0 832.85,-373.62 832.85,-832.85l0 -2035.86c0,-459.23 -373.62,-832.85 -832.85,-832.85l-2035.8 0zm1017.9 2999.44c-633.39,0 -1148.69,-515.35 -1148.69,-1148.69 0,-633.45 515.3,-1148.69 1148.69,-1148.69 633.39,0 1148.69,515.25 1148.69,1148.69 0,633.34 -515.31,1148.69 -1148.69,1148.69zm0 -1853.88c-388.85,0 -705.19,316.34 -705.19,705.19 0,388.9 316.34,705.19 705.19,705.19 388.85,0 705.18,-316.29 705.18,-705.19 0,-388.85 -316.28,-705.19 -705.18,-705.19zm1483.72 -480.19c0,-164.76 -133.57,-298.32 -298.32,-298.32 -164.76,0 -298.31,133.56 -298.31,298.32 0,164.76 133.55,298.31 298.31,298.31 164.75,0 298.32,-133.55 298.32,-298.31z"/>
   <path class="fil4 str0" d="M3843.43 6157.32c-517.55,0 -941.01,-423.45 -941.01,-940.99l0 -1539.85c0,-517.53 423.46,-941 941.01,-941l1539.83 0c517.54,0 941.01,423.47 941.01,941l0 1539.85c0,517.54 -423.47,940.99 -941.01,940.99l-1539.83 0zm1495.76 -380.2c332.68,0 604.88,-272.19 604.88,-604.87l0 -1451.69c0,-332.68 -272.2,-604.87 -604.88,-604.87l-1451.69 0c-332.68,0 -604.87,272.19 -604.87,604.87l0 1451.69c0,332.68 272.19,604.87 604.87,604.87l1451.69 0zm50.32 -1330.72c0,428.66 -347.5,776.15 -776.16,776.15 -428.65,0 -776.16,-347.49 -776.16,-776.15 0,-428.66 347.51,-776.15 776.16,-776.15 428.66,0 776.16,347.49 776.16,776.15z"/>
   <path class="fil4 str0" d="M16742.62 6157.32c-517.54,0 -941,-423.45 -941,-940.99l0 -1539.85c0,-517.53 423.46,-941 941,-941l1539.83 0c517.55,0 941.01,423.47 941.01,941l0 1539.85c0,517.54 -423.46,940.99 -941.01,940.99l-1539.83 0zm1495.76 -380.2c332.68,0 604.88,-272.19 604.88,-604.87l0 -1451.69c0,-332.68 -272.2,-604.87 -604.88,-604.87l-1451.69 0c-332.68,0 -604.87,272.19 -604.87,604.87l0 1451.69c0,332.68 272.19,604.87 604.87,604.87l1451.69 0zm50.32 -1330.72c0,428.66 -347.49,776.15 -776.16,776.15 -428.65,0 -776.15,-347.49 -776.15,-776.15 0,-428.66 347.5,-776.15 776.15,-776.15 428.67,0 776.16,347.49 776.16,776.15z"/>
   <path class="fil4 str0" d="M3843.42 19056.52c-517.54,0 -941,-423.45 -941,-940.99l0 -1539.85c0,-517.53 423.46,-941 941,-941l1539.83 0c517.55,0 941.01,423.47 941.01,941l0 1539.85c0,517.54 -423.46,940.99 -941.01,940.99l-1539.83 0zm1495.76 -380.2c332.68,0 604.88,-272.2 604.88,-604.87l0 -1451.69c0,-332.68 -272.2,-604.87 -604.88,-604.87l-1451.69 0c-332.68,0 -604.87,272.19 -604.87,604.87l0 1451.69c0,332.67 272.19,604.87 604.87,604.87l1451.69 0zm50.32 -1330.72c0,428.65 -347.49,776.15 -776.16,776.15 -428.65,0 -776.15,-347.5 -776.15,-776.15 0,-428.66 347.5,-776.16 776.15,-776.16 428.67,0 776.16,347.5 776.16,776.16z"/>
  </g>
 </g>
</svg>
